<svg width="742" height="628" viewBox="0 0 742 628" fill="none" xmlns="http://www.w3.org/2000/svg">
<path d="M371.002 515.818C482.463 515.818 572.82 425.461 572.82 314C572.82 202.539 482.463 112.182 371.002 112.182C259.541 112.182 169.184 202.539 169.184 314C169.184 425.461 259.541 515.818 371.002 515.818Z" stroke="url(#paint0_linear)" stroke-width="2" stroke-miterlimit="10"/>
<path opacity="0.9" d="M370.996 88.1558C401.146 88.1558 428.46 101.309 454.665 112.181C481.786 123.437 510.251 133.862 530.699 154.306C551.147 174.75 561.574 203.188 572.832 230.326C583.706 256.526 596.841 283.835 596.841 313.957C596.841 344.08 583.706 371.41 572.832 397.61C561.574 424.726 551.147 453.186 530.699 473.63C510.251 494.074 481.786 504.499 454.665 515.84C428.46 526.712 401.146 539.844 370.996 539.844C340.847 539.844 313.555 526.712 287.35 515.84C260.207 504.584 231.742 494.159 211.315 473.715C190.888 453.271 180.441 424.812 169.182 397.695C158.308 371.495 145.152 344.186 145.152 314.043C145.152 283.899 158.308 256.612 169.182 230.412C180.441 203.274 190.867 174.814 211.315 154.391C231.763 133.968 260.207 123.523 287.35 112.267C313.555 101.309 340.868 88.1558 370.996 88.1558Z" stroke="url(#paint1_linear)" stroke-width="2" stroke-miterlimit="10"/>
<path opacity="0.8" d="M370.982 64.1304C403.884 64.1304 432.394 84.9618 460.989 96.838C490.607 109.119 525.343 114.983 547.669 137.349C569.995 159.716 575.859 194.407 588.184 224.022C600.04 252.615 620.873 281.122 620.873 314C620.873 346.879 600.04 375.407 588.184 404C575.902 433.616 570.016 468.349 547.669 490.673C525.322 512.997 490.628 518.86 461.01 531.184C432.415 543.039 403.905 563.871 371.003 563.871C338.101 563.871 309.612 543.039 280.996 531.184C251.399 518.903 216.663 513.018 194.337 490.673C172.011 468.328 166.147 433.637 153.822 404.021C141.966 375.365 121.133 346.857 121.133 313.958C121.133 281.058 141.966 252.572 153.843 223.959C166.126 194.364 171.99 159.631 194.358 137.307C216.727 114.983 251.42 109.119 281.039 96.7954C309.591 84.9618 338.101 64.1304 370.982 64.1304Z" stroke="url(#paint2_linear)" stroke-width="2" stroke-miterlimit="10"/>
<path opacity="0.7" d="M371.002 40.104C406.641 40.104 436.372 68.6411 467.362 81.4806C499.354 94.8107 540.496 96.1331 564.682 120.341C588.869 144.548 590.276 185.562 603.521 217.64C616.318 248.651 644.898 278.361 644.898 314C644.898 349.639 616.382 379.371 603.521 410.361C590.212 442.353 588.869 483.495 564.682 507.681C540.496 531.867 499.461 533.275 467.362 546.52C436.372 559.317 406.641 587.896 371.002 587.896C335.362 587.896 305.652 559.381 274.641 546.52C242.542 533.211 201.528 531.867 177.321 507.681C153.113 483.495 151.727 442.46 138.482 410.361C125.685 379.371 97.1055 349.639 97.1055 314C97.1055 278.361 125.643 248.651 138.482 217.64C151.812 185.541 153.135 144.527 177.342 120.319C201.549 96.1117 242.563 94.7254 274.641 81.4806C305.652 68.6411 335.362 40.104 371.002 40.104Z" stroke="url(#paint3_linear)" stroke-width="2" stroke-miterlimit="10"/>
<path opacity="0.6" d="M370.968 16.0781C409.359 16.0781 440.285 52.336 473.663 66.1353C508.236 80.4891 555.563 77.2686 581.626 103.332C607.689 129.395 604.469 176.7 618.801 211.273C632.664 244.673 668.922 275.578 668.922 313.968C668.922 352.359 632.664 383.285 618.844 416.663C604.511 451.236 607.732 498.563 581.669 524.626C555.606 550.689 508.279 547.469 473.706 561.801C440.285 575.664 409.359 611.922 370.968 611.922C332.578 611.922 301.673 575.664 268.273 561.844C233.7 547.511 186.395 550.732 160.332 524.669C134.269 498.606 137.489 451.236 123.135 416.663C109.293 383.285 73.0781 352.359 73.0781 313.968C73.0781 275.578 109.336 244.673 123.135 211.273C137.489 176.7 134.269 129.395 160.332 103.332C186.395 77.2686 233.7 80.4891 268.273 66.1353C301.673 52.2933 332.578 16.0781 370.968 16.0781Z" stroke="url(#paint4_linear)" stroke-miterlimit="10"/>
<path opacity="0.5" d="M370.99 -7.94775C412.139 -7.94775 444.264 35.9528 480.038 50.7996C517.112 66.1798 570.718 58.415 598.642 86.3382C626.565 114.261 618.821 167.889 634.18 204.942C649.112 240.737 692.949 272.841 692.949 313.99C692.949 355.138 649.027 387.264 634.18 423.037C618.821 460.112 626.586 513.718 598.642 541.641C570.697 569.564 517.112 561.821 480.038 577.18C444.264 592.112 412.139 635.948 370.99 635.948C329.841 635.948 297.823 592.026 261.943 577.18C224.89 561.821 171.283 569.586 143.339 541.641C115.394 513.697 123.18 460.112 107.8 423.037C92.868 387.264 49.0527 355.138 49.0527 313.99C49.0527 272.841 93.0386 240.822 107.8 204.942C123.18 167.889 115.416 114.283 143.339 86.3382C171.262 58.3937 224.89 66.1798 261.943 50.7996C297.823 36.0381 329.82 -7.94775 370.99 -7.94775Z" stroke="url(#paint5_linear)" stroke-miterlimit="10"/>
<path opacity="0.4" d="M370.969 -31.9736C414.871 -31.9736 448.191 19.6286 486.355 35.457C525.904 51.8614 585.783 39.5528 615.648 69.3537C645.513 99.1545 633.14 158.948 649.545 198.583C665.373 236.768 716.975 270.088 716.975 313.968C716.975 357.848 665.373 391.19 649.545 429.354C633.098 468.903 645.513 528.782 615.648 558.647C585.783 588.512 525.947 576.139 486.397 592.544C448.234 608.372 414.913 659.974 371.012 659.974C327.111 659.974 293.811 608.372 255.627 592.544C216.035 576.097 156.156 588.512 126.355 558.647C96.5537 528.782 108.862 468.946 92.458 429.396C76.6296 391.233 25.0273 357.912 25.0273 314.011C25.0273 270.11 76.6296 236.81 92.458 198.626C108.862 159.076 96.5537 99.1972 126.355 69.3963C156.156 39.5954 215.949 51.904 255.584 35.4997C293.769 19.6286 327.089 -31.9736 370.969 -31.9736Z" stroke="url(#paint6_linear)" stroke-miterlimit="10"/>
<path opacity="0.3" d="M370.989 -56C417.649 -56 452.062 3.2896 492.726 20.1228C534.777 37.5534 600.937 20.6775 632.619 52.3598C664.301 84.0421 647.447 150.223 664.877 192.253C681.689 232.789 741 267.351 741 313.989C741 360.627 681.689 395.062 664.877 435.726C647.447 477.777 664.301 543.937 632.619 575.619C600.937 607.301 534.777 590.447 492.726 607.877C452.19 624.689 417.649 684 370.989 684C324.33 684 289.917 624.689 249.253 607.877C207.223 590.447 141.042 607.301 109.36 575.619C77.6775 543.937 94.5534 477.777 77.1228 435.726C60.2896 395.19 1 360.649 1 313.989C1 267.33 60.2896 232.917 77.1228 192.253C94.5534 150.223 77.6775 84.0421 109.36 52.3598C141.042 20.6775 207.223 37.5534 249.253 20.1228C289.831 3.2896 324.351 -56 370.989 -56Z" stroke="url(#paint7_linear)" stroke-miterlimit="10"/>
<defs>
<linearGradient id="paint0_linear" x1="167.052" y1="314" x2="574.952" y2="314" gradientUnits="userSpaceOnUse">
<stop stop-color="#F23C0E"/>
<stop offset="1" stop-color="#0DA6F2"/>
</linearGradient>
<linearGradient id="paint1_linear" x1="143.212" y1="313.957" x2="598.802" y2="313.957" gradientUnits="userSpaceOnUse">
<stop stop-color="#F23B0D"/>
<stop offset="1" stop-color="#0DA6F2"/>
</linearGradient>
<linearGradient id="paint2_linear" x1="119.384" y1="313.958" x2="622.6" y2="313.958" gradientUnits="userSpaceOnUse">
<stop stop-color="#F23A0C"/>
<stop offset="1" stop-color="#0DA6F1"/>
</linearGradient>
<linearGradient id="paint3_linear" x1="95.5272" y1="314" x2="646.476" y2="314" gradientUnits="userSpaceOnUse">
<stop stop-color="#FF643E"/>
<stop offset="1" stop-color="#50C5FF"/>
</linearGradient>
<linearGradient id="paint4_linear" x1="71.6918" y1="313.968" x2="670.266" y2="313.968" gradientUnits="userSpaceOnUse">
<stop stop-color="#B2776D"/>
<stop offset="1" stop-color="#2D4AFF"/>
</linearGradient>
<linearGradient id="paint5_linear" x1="47.8582" y1="313.99" x2="694.143" y2="313.99" gradientUnits="userSpaceOnUse">
<stop stop-color="#9F6C81"/>
<stop offset="1" stop-color="#2D4AFF"/>
</linearGradient>
<linearGradient id="paint6_linear" x1="24.0034" y1="313.968" x2="717.935" y2="313.968" gradientUnits="userSpaceOnUse">
<stop stop-color="#8C6194"/>
<stop offset="1" stop-color="#2D4AFF"/>
</linearGradient>
<linearGradient id="paint7_linear" x1="0.16794" y1="313.989" x2="741.832" y2="313.989" gradientUnits="userSpaceOnUse">
<stop stop-color="#7956A7"/>
<stop offset="1" stop-color="#2D4AFF"/>
</linearGradient>
</defs>
</svg>
