<svg width="1090" height="628" viewBox="0 0 1090 628" fill="none" xmlns="http://www.w3.org/2000/svg">
<path opacity="0.7" d="M1432.9 77.8676C1397.65 66.8382 1360.88 55.3676 1320.71 53.8234C1266.89 51.8381 1216.86 67.2793 1168.72 82.4999C1165.31 83.6029 1161.9 84.7058 1158.49 85.5882C1108.46 101.25 1049.71 115.809 994.754 105.882C976.183 102.574 965.949 89.9999 956.474 77.8675C949.272 68.8234 941.692 59.3381 930.322 53.6027C910.992 43.6762 883.703 37.7203 859.446 32.4262C849.97 30.4409 840.874 28.4556 832.915 26.2497C784.78 13.8967 723 0.661354 660.462 0.66134C617.255 0.66133 573.289 7.0584 532.734 24.0437C513.404 32.2055 496.349 42.7938 480.051 52.7203C456.931 67.0586 433.053 81.838 401.974 90.2204C333.751 108.309 263.254 90.441 188.588 71.4703C119.986 54.2643 49.4892 36.176 -18.7336 49.1907C-89.6095 62.6467 -128.269 103.235 -165.792 142.5C-168.445 145.367 -171.477 148.235 -174.13 151.103C-208.621 187.279 -264.715 229.191 -338.623 230.956L-338.623 232.5C-263.578 230.735 -207.104 188.382 -172.235 151.985C-169.582 149.118 -166.929 146.25 -163.897 143.382C-126.753 104.338 -88.4726 63.7496 -17.9756 50.5143C49.1102 37.7201 119.607 55.5879 187.83 72.7938C259.843 90.8821 334.13 109.853 402.732 91.5439C434.19 83.1616 458.068 68.3821 481.567 53.8232C497.865 43.6761 514.541 33.3085 533.871 25.1467C631.657 -16.5446 750.668 6.39668 832.157 27.3526C840.495 29.5585 849.212 31.5438 858.688 33.5291C882.566 38.8233 909.855 44.7792 929.185 54.4851C940.176 59.9998 947.377 69.2646 954.579 78.3087C964.433 90.6617 974.667 103.456 994.375 106.985C1006.88 109.191 1019.77 110.294 1032.66 110.294C1076.24 110.294 1120.59 98.8235 1159.63 86.4706C1163.04 85.3676 1166.45 84.2647 1169.86 83.3823C1217.62 68.3823 1267.27 52.7205 1320.71 54.9264C1360.5 56.4705 1396.89 67.9411 1432.14 78.75" fill="url(#paint0_linear)" fill-opacity="0.22"/>
<path opacity="0.7" d="M1447.68 95.7356C1436.69 93.0885 1426.08 90.0003 1415.08 87.1326C1391.21 80.7356 1366.57 73.8973 1341.93 70.3679C1329.05 68.6031 1316.92 67.7208 1305.17 67.5002L1304.79 67.5002C1271.44 67.5002 1239.22 74.559 1209.66 82.2797C1196.39 85.8091 1183.13 89.3385 1170.24 92.8679C1163.04 94.8532 1156.22 96.8385 1149.01 98.8238C1124 105.662 1102.77 110.515 1082.69 113.824C1046.68 120 1016.36 120.883 989.449 116.912C971.256 114.265 961.402 103.677 950.79 92.6474C943.209 84.7061 935.629 76.5443 924.258 71.4708C905.687 63.309 881.43 58.456 857.931 53.6031C847.697 51.6178 837.843 49.6325 829.126 47.4266C776.821 34.6324 716.558 21.1765 656.673 21.1765C650.609 21.1765 644.924 21.3971 638.86 21.6177C602.095 23.3824 567.984 30.6618 537.283 43.456C518.333 51.3972 501.656 61.5443 485.737 71.2502C462.996 85.1473 439.497 99.265 409.555 107.427C385.298 114.044 359.146 116.25 329.962 114.486C292.439 112.28 253.022 103.015 215.12 94.1915C205.266 91.9856 195.032 89.5591 185.178 87.3532C143.865 78.309 99.5203 69.9267 55.9335 70.5884C37.3617 70.809 20.6851 72.7943 4.38744 76.5443C-63.0774 91.5444 -100.979 133.897 -134.711 171.177C-136.606 173.383 -138.881 175.809 -140.776 178.015C-150.63 188.824 -160.864 198.751 -171.097 207.354C-212.789 242.427 -258.65 259.633 -306.785 258.971C-310.196 258.971 -313.607 258.751 -316.639 258.751C-323.461 258.53 -330.663 258.089 -337.485 258.53L-337.485 259.854C-330.663 259.413 -323.461 259.633 -316.639 260.074C-313.228 260.295 -309.817 260.295 -306.406 260.516C-257.512 261.398 -211.273 243.751 -168.823 208.457C-158.21 199.633 -147.977 189.706 -138.123 178.898C-136.227 176.692 -133.953 174.265 -132.058 172.059C-98.7048 135 -60.8034 92.8679 5.90343 78.0885C22.2012 74.559 38.8778 72.5737 57.0705 72.3531C100.278 71.4708 144.244 79.8531 185.557 88.8973C195.411 91.1032 205.645 93.5297 215.499 95.7356C253.78 104.559 292.818 113.824 331.099 116.03C360.662 117.794 387.193 115.589 411.829 108.971C442.151 100.809 465.649 86.4708 488.769 72.5737C504.688 62.8678 521.365 52.7207 540.316 45.0001C570.258 32.4265 604.369 25.1471 640.755 23.3824C705.945 20.2942 772.652 35.0736 830.263 48.9707C839.359 51.1766 848.834 53.1619 859.447 55.1472C882.946 59.7796 907.203 64.6326 925.396 72.7943C936.008 77.6473 943.967 85.8091 951.169 93.5297C961.402 104.339 972.014 115.589 990.965 118.456C1001.96 120 1013.33 120.883 1025.46 120.883C1043.65 120.883 1063.36 119.118 1085.34 115.368C1105.43 111.839 1126.65 107.206 1152.05 100.147C1159.25 98.1621 1166.07 96.1768 1173.27 94.1915C1186.16 90.6621 1199.42 86.912 1212.69 83.6032C1241.87 75.8826 1273.71 69.0443 1306.69 69.0443L1307.06 69.0443C1318.81 69.0443 1330.94 69.9267 1343.45 71.6914C1368.09 75.2208 1392.72 81.8385 1416.22 88.4562C1427.21 91.5444 1438.2 94.4121 1449.57 97.2797" fill="url(#paint1_linear)" fill-opacity="0.22"/>
<path opacity="0.7" d="M1447.68 107.206C1430.62 104.118 1414.33 100.368 1398.03 96.6179C1372.63 90.662 1348.76 85.1473 1323.74 82.7208C1311.61 81.6179 1300.24 81.1767 1288.87 81.6179C1257.79 82.7208 1228.99 90.2208 1198.29 97.9414L1197.53 98.162C1177.44 103.236 1158.11 108.089 1138.78 112.5C1115.28 118.015 1094.44 121.986 1074.35 125.074C1037.96 130.368 1009.16 131.471 983.764 128.383C965.951 126.177 955.717 117.353 945.105 107.647C937.525 100.809 929.186 93.7502 918.195 89.559C901.139 82.9413 878.777 78.9707 857.173 75.2207C845.803 73.2354 834.811 71.25 824.957 69.0442L816.619 67.0589C763.556 54.9265 708.599 42.3528 653.642 42.3528C649.473 42.3528 644.924 42.3528 640.755 42.5734C605.128 43.8969 572.153 50.9558 541.832 63.3088C523.26 71.0294 506.963 80.7353 491.044 90.2206C468.682 103.456 445.562 117.132 416.757 125.074C392.879 131.471 367.864 133.897 339.817 132.574C306.463 130.809 271.594 123.309 238.241 116.25C225.354 113.382 211.71 110.515 198.444 108.088C148.035 98.3823 110.133 95.0735 75.2639 97.2793C57.8292 98.3823 42.2895 100.809 27.129 104.559C-36.9247 121.103 -72.5523 163.456 -104.39 200.515L-108.559 205.147C-117.655 215.736 -126.752 225.442 -136.606 234.044C-174.887 268.677 -217.336 286.545 -262.439 287.206C-265.85 287.206 -269.261 287.206 -272.673 287.206C-284.043 286.986 -295.413 286.986 -306.405 289.853C-327.251 295.589 -332.557 307.28 -337.484 317.648C-337.863 318.53 -338.242 319.633 -339 320.515L-339 324.707C-338.621 324.265 -338.621 323.824 -338.242 323.383C-337.484 321.618 -336.347 319.854 -335.589 317.868C-331.041 307.721 -325.735 296.251 -305.647 290.736C-295.413 287.868 -284.043 288.089 -273.052 288.309C-269.64 288.309 -266.229 288.309 -262.818 288.309C-216.957 287.648 -174.128 269.559 -135.469 234.486C-125.993 225.662 -116.518 215.956 -107.422 205.368L-103.253 200.736C-71.7942 163.677 -36.1667 121.765 27.129 105.221C41.9106 101.471 57.4501 99.0441 74.8848 97.9411C109.375 95.9558 146.898 99.2647 196.928 108.75C210.193 111.176 223.459 114.044 236.346 116.912C270.078 124.191 304.947 131.691 338.68 133.456C367.106 135 392.879 132.574 416.757 125.956C445.941 118.015 469.061 104.118 491.802 90.8824C507.721 81.3971 524.018 71.6912 542.211 64.1911C572.153 51.8382 605.128 44.7793 639.997 43.6764C699.124 41.4705 757.871 55.147 815.102 68.1618L823.441 70.1471C833.295 72.353 844.287 74.3383 856.036 76.5442C877.261 80.2942 899.623 84.2648 916.3 90.6619C926.912 94.6325 934.871 101.691 942.452 108.309C953.064 117.574 963.677 127.28 982.627 129.486C992.861 130.809 1002.72 131.25 1012.95 131.25C1036.07 131.25 1058.05 128.603 1074.35 126.177C1094.44 123.089 1115.66 119.118 1139.16 113.603C1158.49 109.191 1177.44 104.339 1197.91 99.265L1198.67 99.0444C1229.37 91.3238 1258.17 84.0443 1288.87 82.9414C1299.86 82.5002 1310.85 82.9414 1322.98 84.0444C1347.62 86.4708 1371.5 91.9856 1396.51 97.9415C1412.81 101.692 1429.49 105.662 1446.92 108.75" fill="url(#paint2_linear)" fill-opacity="0.22"/>
<path opacity="0.7" d="M1447.68 116.471C1425.32 114.044 1403.71 110.074 1382.49 105.883C1355.96 100.809 1331.32 96.1767 1305.93 94.8531C1294.56 94.4119 1283.94 94.4119 1273.33 95.2943C1249.83 97.2796 1227.09 103.015 1203.21 109.191C1197.91 110.515 1192.6 111.838 1187.3 113.162C1168.35 117.794 1149.39 121.986 1129.31 125.736C1108.46 129.706 1087.24 133.015 1066.39 135.662C1039.86 138.971 1008.4 142.059 978.458 139.412C961.023 137.868 950.79 130.368 939.799 122.427C931.839 116.691 923.501 110.735 912.509 107.427C896.591 102.574 876.882 99.4854 857.552 96.3972C845.424 94.4119 832.537 92.6471 821.546 90.2207C811.691 88.2354 801.837 86.0295 792.361 83.8236C746.501 73.4559 699.124 62.8676 651.368 62.8676C648.714 62.8676 645.682 62.8676 643.029 63.0882C608.918 63.9705 576.323 70.5882 546.759 82.9412C528.566 90.4412 512.269 99.7059 496.729 108.971C474.746 121.544 452.384 134.78 424.337 142.5C401.217 148.897 376.581 151.544 349.671 150.221C319.729 148.897 288.649 142.721 258.707 136.765C243.168 133.677 227.249 130.588 211.709 128.162C166.227 120.882 129.084 119.338 94.9725 123.088C78.6748 124.853 64.2722 127.721 50.2485 131.912C-10.394 150.441 -44.1262 192.574 -73.6895 229.853L-75.5846 232.059C-83.923 242.868 -92.2614 252.133 -100.979 260.515C-136.227 295.368 -174.129 313.236 -216.579 315.442C-219.99 315.662 -223.401 315.662 -227.191 315.662C-237.803 315.883 -248.416 316.104 -258.649 318.751C-279.495 324.045 -286.317 334.192 -292.382 342.795C-293.519 344.339 -294.277 345.663 -295.414 347.207C-302.994 357.133 -318.155 365.295 -337.485 371.03L-337.485 372.574C-317.018 366.619 -301.478 358.016 -293.519 347.648C-292.382 346.324 -291.624 344.78 -290.487 343.236C-284.422 334.633 -277.6 324.927 -257.512 319.854C-247.658 317.427 -237.045 317.207 -226.812 316.986C-223.401 316.986 -219.611 316.765 -216.199 316.765C-172.613 314.78 -134.332 296.471 -98.7046 261.398C-89.9872 252.795 -81.6488 243.53 -73.3105 232.721L-71.4154 230.515C-41.8522 193.456 -8.11978 151.324 51.3857 133.235C65.0302 129.044 79.4328 126.177 95.3515 124.412C129.084 120.662 166.227 122.206 211.33 129.485C226.87 131.912 242.789 135 257.949 138.088C288.27 144.044 319.35 150.221 349.292 151.544C376.581 152.868 401.596 150.221 425.095 143.603C453.142 135.662 475.883 122.647 497.866 109.853C513.406 100.809 529.704 91.3235 547.517 84.0441C577.081 71.9117 608.918 65.2941 642.65 64.4117C693.059 63.0882 742.71 74.3382 791.224 85.1471C800.7 87.353 810.554 89.5589 820.409 91.5442C831.779 93.9707 844.287 95.9559 856.794 97.7207C875.745 100.588 895.833 103.677 911.372 108.53C921.985 111.838 929.944 117.574 937.904 123.309C948.895 131.03 959.886 139.191 978.079 140.736C986.418 141.397 994.377 141.839 1002.72 141.839C1025.08 141.839 1047.44 139.633 1066.77 136.986C1087.61 134.338 1108.84 131.03 1130.06 127.059C1150.15 123.309 1169.1 119.118 1188.05 114.486C1193.36 113.162 1198.67 111.838 1203.97 110.515C1227.85 104.559 1250.21 98.8237 1273.33 96.8384C1283.57 95.956 1294.18 95.7355 1305.55 96.3972C1330.56 97.5002 1355.2 102.353 1381.73 107.206C1402.96 111.177 1424.94 115.368 1447.68 117.574" fill="url(#paint3_linear)" fill-opacity="0.22"/>
<path opacity="0.7" d="M1447.68 123.751C1420.01 122.648 1393.86 118.898 1368.84 115.148C1340.8 110.957 1314.27 107.207 1288.11 107.427C1277.5 107.427 1267.65 108.31 1257.79 109.633C1239.98 112.06 1222.92 116.692 1204.73 121.545C1195.63 123.971 1186.16 126.619 1176.3 128.824C1159.25 132.795 1141.06 136.324 1119.83 139.413C1102.4 142.06 1082.69 144.266 1058.43 146.913C1028.87 150.001 1000.44 152.427 972.773 150.883C956.096 150.001 945.105 143.824 933.734 137.427C925.396 132.795 917.058 128.163 906.066 125.516C892.043 122.207 874.608 120.001 858.31 117.795C844.287 116.03 830.263 114.266 817.376 111.618C802.974 108.751 788.571 105.442 774.548 102.354C733.993 93.089 691.922 83.6036 649.094 83.6036C647.577 83.6036 646.061 83.6036 644.545 83.6036C611.95 84.0448 580.113 90.4419 550.549 102.354C532.736 109.413 516.817 118.677 501.277 127.28C479.674 139.413 457.691 151.986 430.781 159.486C408.04 165.883 384.541 168.53 358.389 167.648C331.478 166.766 303.431 161.472 276.142 156.619C259.086 153.53 241.273 150.222 223.838 148.016C182.904 142.942 146.898 143.163 113.165 148.677C98.0048 151.104 84.3602 154.633 71.8527 159.045C14.6213 179.339 -16.458 221.472 -44.1262 258.531C-52.0855 269.119 -59.2868 278.384 -66.8671 286.545C-98.3255 321.178 -133.195 339.707 -172.612 343.016C-176.403 343.237 -180.193 343.457 -183.983 343.678C-193.458 344.119 -203.313 344.781 -212.788 346.987C-233.255 352.06 -242.351 360.443 -249.174 367.06C-250.69 368.384 -251.827 369.487 -252.964 370.59C-268.125 383.605 -299.962 391.987 -338.242 393.531L-338.242 394.855C-299.204 393.311 -266.608 384.708 -251.069 371.472C-249.932 370.369 -248.416 369.046 -247.279 367.943C-240.077 361.105 -231.739 353.384 -211.651 348.531C-202.555 346.325 -192.7 345.663 -183.225 345.222C-179.435 345.002 -175.645 344.781 -171.854 344.56C-131.679 341.031 -96.4303 322.501 -64.593 287.428C-57.0127 279.045 -49.4324 270.001 -41.473 259.192C-14.1838 222.354 16.8954 180.442 73.3686 160.369C85.8762 155.957 99.1418 152.648 113.923 150.222C147.277 144.707 182.904 144.486 223.459 149.56C240.894 151.766 258.328 154.854 275.763 158.163C303.052 163.236 331.099 168.31 358.389 169.192C384.541 170.075 408.798 167.427 431.918 160.81C458.828 153.089 481.19 140.516 502.793 128.383C518.333 119.56 534.252 110.515 552.066 103.457C581.25 91.7654 612.329 85.3684 644.924 84.9272C688.89 84.2654 732.098 93.9713 774.169 103.457C788.192 106.545 802.595 109.854 816.998 112.721C829.884 115.368 844.287 117.133 857.931 118.898C874.608 121.104 891.664 123.089 905.687 126.619C916.3 129.045 924.638 133.898 932.597 138.31C943.968 144.486 955.338 151.104 972.773 151.986C978.458 152.207 984.143 152.427 989.829 152.427C1012.19 152.427 1035.31 150.222 1058.81 148.016C1083.07 145.589 1102.78 143.163 1120.21 140.516C1141.81 137.427 1160.01 133.898 1177.06 129.927C1186.92 127.501 1196.39 125.074 1205.49 122.648C1223.3 117.795 1240.36 113.163 1258.17 110.736C1267.65 109.413 1277.5 108.751 1288.11 108.53C1313.89 108.31 1340.42 112.06 1368.47 116.251C1393.86 120.001 1420.01 123.751 1448.06 124.854" fill="url(#paint4_linear)" fill-opacity="0.22"/>
<path opacity="0.7" d="M1447.68 129.927C1440.1 129.707 1432.52 129.486 1425.32 129.265C1401.82 128.604 1379.46 126.177 1357.47 123.751C1326.39 120.442 1297.21 117.354 1269.92 119.559C1260.07 120.221 1250.97 121.545 1241.87 123.309C1228.61 125.957 1216.1 129.707 1202.84 133.898C1191.09 137.427 1178.58 141.177 1165.31 144.265C1149.02 148.015 1131.96 150.662 1109.98 152.868C1095.57 154.413 1080.41 155.515 1064.87 156.618C1059.95 157.06 1055.4 157.28 1050.47 157.721C1045.92 158.163 1041.37 158.383 1037.21 158.824C1014.09 160.589 990.587 162.574 967.846 162.133C951.548 161.913 940.178 157.28 928.428 152.427C920.09 148.898 911.372 145.368 900.381 143.604C888.632 141.618 874.987 140.295 860.963 138.971C845.045 137.427 828.747 135.883 813.965 133.236C796.531 130.148 779.096 125.956 762.04 121.986C725.276 113.383 687.374 104.559 648.336 104.559C647.957 104.559 647.577 104.559 647.198 104.559C615.74 104.78 585.04 110.515 555.856 122.206C538.421 129.045 522.502 137.868 506.963 146.251C486.117 157.721 464.513 169.633 438.74 177.133C416.378 183.53 393.637 186.398 368.622 185.736C343.986 185.074 318.592 180.883 293.956 176.692C275.384 173.604 256.054 170.295 237.482 168.751C200.339 165.442 165.848 167.648 132.874 175.368C118.851 178.677 106.343 182.427 95.3516 187.28C41.5313 209.78 11.21 253.898 -10.3938 286.104C-17.5951 296.692 -24.0385 305.736 -30.8608 313.678C-59.2869 348.531 -89.6081 367.06 -126.752 371.913C-130.921 372.354 -135.09 372.795 -139.259 373.237C-147.598 373.898 -156.694 374.781 -165.411 376.766C-185.12 381.398 -195.354 387.354 -203.692 392.207C-205.587 393.31 -207.482 394.413 -209.377 395.516C-230.223 406.987 -273.052 411.84 -321.187 408.31C-327.251 407.869 -332.557 407.428 -338.242 406.766L-338.242 408.09C-332.936 408.751 -327.251 409.193 -321.566 409.634C-273.052 413.163 -229.465 408.09 -208.24 396.398C-206.345 395.295 -204.45 394.193 -202.555 393.09C-194.595 388.237 -184.362 382.281 -165.032 377.869C-156.694 375.884 -147.976 375.222 -139.638 374.34C-135.09 373.898 -130.921 373.678 -126.752 373.016C-89.229 368.163 -58.1498 349.413 -29.3446 314.119C-22.9014 306.178 -16.079 296.913 -8.87772 286.325C13.1052 254.339 43.0473 210.221 96.4886 188.162C107.859 183.53 119.988 179.559 133.632 176.471C166.227 168.751 199.96 166.765 237.103 170.074C255.675 171.618 275.005 174.927 293.198 178.015C317.834 182.207 343.607 186.398 368.243 187.06C393.258 187.721 416.757 184.854 439.119 178.457C465.271 170.957 486.875 159.045 508.1 147.354C523.26 138.971 539.179 130.148 556.614 123.309C585.419 111.839 615.74 105.883 646.819 105.883C685.858 105.662 724.139 114.486 760.903 123.309C777.959 127.28 795.394 131.471 812.828 134.559C827.61 137.207 844.287 138.751 860.205 140.295C874.229 141.618 887.873 142.942 899.623 144.927C909.856 146.692 918.574 150.221 926.912 153.53C938.283 158.383 950.411 163.236 967.467 163.457C969.741 163.457 972.015 163.457 973.91 163.457C994.756 163.457 1016.36 161.692 1037.21 160.148C1041.75 159.707 1046.3 159.486 1050.47 159.045C1055.4 158.604 1060.33 158.383 1064.87 157.942C1080.41 156.839 1095.2 155.736 1109.98 154.192C1131.96 151.986 1149.39 149.339 1165.69 145.589C1178.96 142.501 1191.47 138.751 1203.59 135.221C1216.86 131.251 1229.37 127.501 1242.25 124.854C1251.35 123.089 1260.45 121.765 1269.92 121.104C1296.83 119.118 1326.02 122.207 1356.72 125.295C1378.7 127.501 1401.06 129.927 1424.56 130.81C1432.52 130.81 1440.1 131.03 1447.68 131.251" fill="url(#paint5_linear)" fill-opacity="0.22"/>
<path opacity="0.7" d="M1447.68 136.324C1432.52 135.663 1417.36 135.001 1402.2 134.56C1384.38 134.119 1366.95 133.016 1350.27 131.692C1315.02 129.266 1281.67 127.06 1252.11 131.471C1243.39 132.795 1234.67 134.56 1225.96 136.986C1216.48 139.633 1207.76 142.722 1197.91 146.03C1184.26 150.883 1170.24 155.736 1153.94 159.266C1134.23 163.677 1114.9 165.222 1100.12 165.883C1090.65 166.325 1081.17 166.766 1071.32 166.986C1061.84 167.207 1051.99 167.648 1042.13 168.089C1031.14 168.53 1020.53 169.413 1009.92 170.075C993.998 171.177 977.7 172.501 961.782 172.722C945.863 173.163 934.493 169.854 921.985 166.545C913.268 164.119 904.55 161.692 893.938 160.81C884.841 159.927 874.608 159.266 863.996 158.824C845.803 157.722 826.852 156.619 809.417 153.751C789.709 150.442 770.379 145.81 751.428 141.177C718.454 133.016 684.342 124.633 648.715 124.413C647.957 124.413 647.578 124.413 646.82 124.413C617.256 124.413 588.072 129.927 560.025 140.957C542.969 147.574 527.051 155.957 511.89 164.339C491.423 175.369 470.198 186.619 445.562 193.898C423.579 200.295 401.596 203.163 378.097 202.722C355.736 202.28 332.237 198.751 309.875 195.222C290.166 192.133 270.078 189.045 250.369 188.163C215.879 186.398 184.42 190.369 152.204 200.516C139.318 204.486 128.326 208.898 118.093 213.972C71.0948 236.913 44.9427 275.075 22.2017 312.134C15.7585 322.943 10.0733 331.545 4.38815 339.266C-11.1515 361.104 -36.9247 391.104 -81.6485 399.046C-86.1967 399.928 -91.1239 400.59 -96.4301 401.252C-103.631 402.134 -111.212 403.016 -118.413 404.781C-135.09 408.531 -146.081 412.06 -154.42 415.149C-158.21 416.472 -161.621 417.575 -165.411 418.678C-187.773 425.296 -227.569 426.178 -274.567 421.546C-288.212 420.222 -308.3 418.016 -327.63 414.266C-331.041 413.605 -334.073 412.943 -337.484 412.502L-337.484 413.825C-334.452 414.487 -331.42 414.928 -328.388 415.59C-309.058 419.119 -288.591 421.546 -274.947 422.869C-227.569 427.722 -187.015 426.619 -164.274 420.002C-160.863 418.899 -157.073 417.796 -153.282 416.472C-144.565 413.605 -133.953 409.855 -117.276 406.325C-110.075 404.781 -102.494 403.678 -95.2931 402.796C-89.9868 402.134 -85.0597 401.472 -80.5115 400.59C-35.4086 392.428 -9.2565 362.207 6.66208 340.148C12.3474 332.428 18.0326 323.604 24.4759 312.795C47.2168 275.957 73.369 238.016 119.988 215.295C130.221 210.442 141.213 206.03 153.72 202.06C185.937 191.913 216.637 188.163 250.748 189.707C270.078 190.589 290.545 193.677 309.875 196.766C332.616 200.295 355.736 203.825 378.477 204.266C402.354 204.707 425.474 201.619 447.078 195.222C472.093 187.942 493.318 176.472 513.785 165.442C528.946 157.28 544.864 148.898 561.541 142.28C589.967 131.251 619.531 125.515 649.094 125.957C684.342 126.177 718.454 134.56 751.049 142.501C770 147.133 789.709 151.986 809.417 155.295C826.852 158.163 845.803 159.266 864.375 160.369C874.987 161.03 884.841 161.472 893.938 162.354C904.171 163.457 912.889 165.663 921.606 168.089C932.976 171.177 944.726 174.266 959.887 174.266C960.645 174.266 961.403 174.266 962.161 174.266C978.079 174.045 994.377 172.722 1010.3 171.619C1020.91 170.957 1031.9 170.075 1042.51 169.633C1052.37 169.192 1062.22 168.751 1071.7 168.53C1081.55 168.089 1091.03 167.869 1100.5 167.427C1115.28 166.545 1134.99 165.222 1155.08 160.81C1171.38 157.28 1185.78 152.207 1199.42 147.354C1208.9 144.045 1218 140.957 1227.09 138.31C1235.43 135.883 1243.77 134.119 1252.87 132.795C1282.05 128.383 1315.4 130.589 1350.27 133.016C1366.95 134.119 1384.38 135.222 1402.2 135.883C1417.36 136.324 1432.52 136.986 1447.68 137.648" fill="url(#paint6_linear)" fill-opacity="0.22"/>
<path opacity="0.7" d="M1447.68 143.824C1425.32 142.28 1402.2 140.956 1379.08 140.294C1368.84 140.074 1358.61 139.633 1348.76 139.412C1332.08 138.75 1315.78 138.309 1300.24 138.309C1276.36 138.309 1254 139.633 1234.29 144.265C1226.33 146.03 1218.75 148.456 1210.42 151.544C1203.97 153.971 1197.91 156.397 1191.47 159.265C1177.06 165.221 1161.9 171.618 1143.33 175.589C1124.38 179.559 1106.19 180.221 1090.65 180.221C1083.45 180.221 1076.62 180.221 1069.04 180C1057.67 179.78 1046.3 179.78 1034.55 180C1017.5 180.442 1000.44 181.765 984.143 183.089C975.047 183.75 965.572 184.633 956.475 185.074C940.936 185.956 929.186 184.412 916.679 182.647C907.961 181.324 898.865 180.221 888.252 180C882.567 179.78 876.503 179.78 870.06 179.78C849.972 179.559 826.852 179.339 806.385 176.471C785.16 173.383 764.314 167.868 744.226 162.794C714.663 155.074 683.963 147.133 651.368 146.471C622.183 145.809 594.136 150.883 565.331 161.912C548.654 168.309 532.736 176.471 517.575 184.412C497.487 194.78 477.021 205.368 453.522 212.427C432.297 218.824 410.693 221.912 388.331 221.692C367.864 221.471 346.26 218.603 325.793 215.736C305.326 212.868 284.481 209.78 264.014 209.78C232.176 209.559 202.992 215.294 171.913 228.089C160.163 232.942 150.309 237.794 141.212 242.868C99.5207 267.133 75.2639 303.971 55.176 340.368C50.6278 348.53 45.3216 358.015 40.0153 367.06C25.6128 390.663 4.00888 419.119 -35.7878 428.604C-41.4731 429.927 -47.5374 431.03 -53.9806 431.913C-59.2868 432.795 -64.9721 433.677 -70.6573 434.78C-74.0684 435.442 -77.1005 436.104 -80.1326 436.766C-98.3255 440.516 -109.317 442.722 -120.687 443.825C-141.912 445.81 -175.645 443.383 -227.57 436.545C-230.981 436.104 -234.013 435.663 -237.424 435.222C-251.069 433.457 -265.471 431.472 -279.116 429.266C-282.527 428.824 -285.938 428.163 -289.349 427.501C-305.268 424.854 -320.429 422.427 -336.347 421.104L-336.347 422.427C-320.808 423.751 -305.647 426.177 -290.107 428.824C-286.696 429.486 -283.285 429.927 -279.874 430.589C-266.229 432.795 -251.827 434.78 -238.182 436.545C-234.771 436.986 -231.739 437.427 -228.328 437.869C-176.024 444.707 -141.912 447.133 -120.308 445.148C-108.559 444.045 -97.5673 441.839 -79.3745 438.089C-76.3424 437.427 -73.3103 436.766 -69.8992 436.104C-64.2139 435.001 -58.5287 434.119 -53.2226 433.236C-46.7792 432.133 -40.336 431.251 -34.6508 429.707C5.90389 420.222 27.8869 391.324 42.2895 367.501C47.9747 358.236 53.281 348.751 57.4502 340.589C77.5379 304.412 101.795 267.795 143.108 243.75C152.204 238.456 162.058 233.824 173.429 228.971C204.129 216.397 232.934 210.662 264.393 210.883C284.48 211.103 305.326 213.971 325.793 216.839C346.639 219.706 367.864 222.794 388.71 223.015C411.451 223.236 433.434 220.147 455.038 213.53C478.916 206.471 499.382 195.662 519.47 185.294C534.631 177.353 550.171 169.412 566.847 163.015C595.273 152.206 622.942 147.133 651.747 147.794C683.963 148.456 714.284 156.397 743.848 164.118C763.935 169.412 784.781 174.706 806.385 178.015C827.231 181.103 850.351 181.324 870.439 181.544C876.882 181.544 882.946 181.544 888.632 181.765C898.865 181.986 907.961 183.309 916.679 184.412C928.807 186.177 941.315 187.942 957.233 186.839C966.33 186.177 975.805 185.515 984.902 184.853C1001.2 183.53 1018.25 182.206 1034.93 181.765C1046.68 181.544 1058.05 181.544 1069.42 181.765C1076.62 181.765 1083.82 181.986 1091.03 181.986C1106.57 181.986 1125.14 181.324 1144.47 177.353C1163.04 173.383 1178.2 166.986 1192.98 161.03C1199.42 158.383 1205.49 155.736 1211.93 153.53C1219.89 150.662 1227.47 148.236 1235.43 146.471C1267.65 138.75 1307.44 140.294 1349.14 141.618C1358.99 142.059 1369.22 142.28 1379.46 142.5C1402.2 142.059 1425.32 143.383 1447.68 144.927" fill="url(#paint7_linear)" fill-opacity="0.22"/>
<path opacity="0.7" d="M1447.68 152.207C1417.74 149.118 1387.04 146.471 1355.96 145.81C1342.31 145.589 1328.67 145.368 1315.4 145.368C1278.64 145.368 1243.77 147.354 1216.1 156.618C1209.28 159.045 1202.08 161.913 1194.5 165.442C1190.33 167.427 1186.16 169.413 1182.37 171.618C1167.59 179.118 1152.43 186.839 1132.34 190.81C1114.15 194.56 1096.33 194.339 1081.17 193.457C1075.11 193.236 1069.04 192.795 1063.36 192.354C1051.61 191.471 1039.1 190.81 1026.59 190.589C1003.47 190.368 980.732 192.795 959.129 195.221L951.169 196.104C936.009 197.648 923.122 197.427 910.994 197.427C901.897 197.207 892.422 197.207 882.188 197.648L876.503 197.868C853.383 199.192 826.852 200.516 802.216 197.207C779.854 194.339 758.25 188.383 737.783 182.648C710.873 175.148 683.205 167.427 653.263 166.545C625.595 165.662 597.927 170.295 569.5 181.104C552.824 187.28 537.284 195.221 522.123 202.721C502.794 212.427 482.706 222.574 460.344 229.413C439.498 235.81 419.031 238.898 397.427 239.119C378.477 239.339 358.768 236.692 339.817 234.266C318.971 231.619 297.367 228.751 276.521 229.633C237.862 230.957 210.194 243.31 190.485 253.677C180.251 259.192 171.155 264.486 163.196 270.001C123.778 297.354 101.795 335.957 87.0135 366.84L83.9814 372.795C80.5703 379.634 77.5381 386.472 74.1269 393.31C62.3775 417.134 44.1848 445.59 8.17831 456.399C0.218959 458.825 -8.49845 460.369 -17.5949 462.134C-19.8689 462.575 -22.522 463.016 -24.7962 463.457C-47.5371 467.869 -61.9397 468.972 -78.2373 467.869C-94.5351 466.766 -115.76 462.796 -140.017 458.163C-153.661 455.516 -167.685 453.09 -182.846 450.443C-196.49 448.237 -210.893 446.252 -224.916 444.487L-232.876 443.384C-263.955 439.193 -292.381 435.884 -323.082 437.869C-328.009 438.09 -332.557 438.751 -337.484 439.634L-337.484 440.957C-332.557 440.075 -327.63 439.634 -322.703 439.193C-292.381 437.207 -264.334 440.516 -233.255 444.707L-225.295 445.81C-211.272 447.575 -196.869 449.56 -183.225 451.766C-168.064 454.193 -154.041 456.84 -140.396 459.487C-115.76 464.119 -94.5351 468.09 -78.2373 469.193C-61.5607 470.516 -46.7791 469.193 -23.6592 464.781C-21.006 464.34 -18.7318 463.899 -16.4578 463.457C-6.98233 461.693 1.73495 460.149 9.6943 457.722C46.4588 446.693 64.6515 417.796 76.78 393.751C80.1911 386.913 83.6023 380.075 86.6345 373.237L89.6666 367.281C104.448 336.619 126.431 298.236 165.47 270.883C173.429 265.369 182.146 260.074 192.38 254.56C212.089 244.192 239.378 232.06 276.9 230.736C297.367 230.074 318.971 232.721 339.438 235.369C358.389 237.795 378.097 240.442 397.427 240.222C419.031 240.222 440.256 236.913 461.102 230.516C483.464 223.677 503.552 213.53 523.261 203.824C538.421 196.324 553.961 188.383 570.258 182.207C598.306 171.618 625.216 166.986 652.505 167.868C682.068 168.751 709.736 176.471 736.267 183.971C757.113 189.707 778.717 195.663 801.458 198.751C826.473 202.06 853.004 200.516 876.124 199.413L881.809 199.192C892.043 198.751 901.518 198.751 910.235 198.971C922.743 199.192 935.63 199.413 950.79 197.648L958.749 196.766C980.732 194.339 1003.09 192.133 1025.84 192.133C1038.34 192.133 1050.47 193.016 1062.22 193.898C1068.29 194.339 1074.35 194.78 1080.03 195.001C1095.2 195.663 1113.39 196.104 1131.96 192.354C1152.43 188.163 1167.97 180.442 1182.75 172.942C1186.92 170.736 1191.09 168.751 1194.88 166.986C1202.46 163.457 1209.28 160.589 1216.1 158.163C1253.24 145.589 1304.79 146.692 1354.82 147.574C1386.28 148.236 1416.98 150.883 1446.92 153.971" fill="url(#paint8_linear)" fill-opacity="0.22"/>
<path opacity="0.7" d="M1447.68 161.912C1410.54 156.839 1371.88 151.986 1332.84 151.324C1327.91 151.324 1322.6 151.103 1317.68 151.103C1277.5 151.103 1230.88 153.971 1198.29 168.75C1192.22 171.397 1186.16 174.706 1178.96 179.339C1176.68 180.883 1174.03 182.206 1171.76 183.75C1157.35 192.795 1142.57 202.059 1121.35 206.03C1103.91 209.339 1086.1 208.236 1071.32 206.692C1066.01 206.251 1060.7 205.589 1055.78 204.927C1043.65 203.383 1031.14 201.839 1018.63 201.398C992.861 200.295 967.467 203.824 945.863 207.133C931.081 209.339 917.816 210.662 904.929 212.206C895.833 213.089 886.357 214.192 876.124 215.515C852.625 218.604 824.957 221.471 798.426 218.603C775.306 215.956 753.702 209.559 732.477 203.162C707.841 195.883 682.826 188.162 655.158 187.059C628.627 185.736 602.096 190.147 574.048 200.515C557.751 206.471 542.211 214.192 527.051 221.471C508.479 230.515 489.149 240.001 467.924 246.618C447.457 253.015 427.748 256.324 407.282 256.545C389.847 256.765 371.654 254.78 353.84 252.795C332.615 250.368 310.633 247.721 289.408 249.486C253.401 252.574 227.628 267.133 209.435 279.486C200.339 285.663 192.759 291.398 185.936 297.354C158.268 320.736 136.664 352.06 119.609 393.31C115.818 402.354 112.407 411.398 109.375 419.339C99.5207 444.707 85.4972 472.06 53.2808 484.193C43.4265 487.943 31.6768 490.149 21.8225 492.134C0.59762 495.884 -16.0791 495.884 -35.0299 491.693C-46.7795 489.266 -60.045 485.075 -74.4475 480.884C-93.3983 475.148 -114.623 468.751 -137.743 464.119C-151.388 461.251 -166.169 459.266 -186.257 457.06C-219.61 453.531 -247.658 452.869 -274.568 454.854C-292.381 456.178 -311.332 460.59 -328.009 466.987C-331.42 468.31 -334.831 469.854 -338.242 471.398L-338.242 472.943C-334.452 471.178 -331.041 469.634 -326.872 468.09C-310.574 461.693 -292.002 457.501 -274.189 456.178C-247.279 454.192 -219.611 454.854 -186.636 458.384C-166.927 460.59 -152.146 462.575 -138.501 465.443C-115.381 470.075 -94.1563 476.472 -75.5845 482.207C-61.1819 486.398 -47.9164 490.59 -36.1669 493.016C-16.8371 497.207 0.218592 497.428 21.8225 493.457C32.0559 491.693 43.8054 489.266 54.0388 485.516C86.6341 473.163 101.037 445.369 110.891 420.001C113.923 412.06 117.334 403.016 121.125 394.192C138.18 353.163 159.784 321.839 187.452 298.457C194.275 292.721 202.234 286.765 210.951 280.81C229.902 267.795 254.159 254.339 289.408 251.251C309.874 249.486 331.857 252.133 353.082 254.559C370.896 256.545 389.089 258.751 406.902 258.309C427.369 258.089 447.457 254.56 468.303 248.162C489.528 241.545 508.858 232.059 527.809 222.795C542.969 215.515 558.509 207.795 574.428 202.059C602.096 191.912 628.248 187.5 654.4 188.824C681.689 190.147 706.704 197.648 730.961 204.927C752.186 211.324 773.79 217.721 797.289 220.368C824.199 223.456 851.867 220.368 875.745 217.28C885.978 215.956 895.454 215.074 904.55 213.971C917.437 212.648 930.702 211.324 945.484 208.898C967.088 205.589 992.482 202.28 1017.88 203.162C1030.38 203.603 1042.89 205.148 1055.02 206.692C1060.33 207.353 1065.63 208.015 1070.94 208.456C1086.1 210.001 1103.91 211.103 1121.73 207.795C1143.33 203.603 1158.49 194.118 1172.89 185.074C1175.17 183.53 1177.82 181.986 1180.09 180.662C1187.3 176.25 1193.36 172.942 1199.42 170.295C1235.81 153.75 1289.63 152.427 1332.84 153.089C1371.88 153.089 1410.54 158.162 1447.68 163.236" fill="url(#paint9_linear)" fill-opacity="0.22"/>
<path opacity="0.7" d="M1440.1 171.397C1398.03 164.338 1354.44 157.279 1309.72 156.838C1307.82 156.838 1305.93 156.838 1304.03 156.838C1264.62 156.838 1213.07 161.25 1180.09 181.103C1173.65 184.853 1167.97 189.265 1162.66 193.236C1161.52 194.118 1160.39 195.221 1158.87 196.103C1145.6 206.691 1131.58 217.5 1109.6 221.471C1092.54 224.559 1075.49 222.574 1061.08 220.147C1056.16 219.265 1051.23 218.383 1046.3 217.5C1034.55 215.294 1022.05 213.089 1009.54 212.206C983.386 210.221 959.508 214.191 939.041 218.383C925.396 221.03 912.51 223.897 900.381 226.544C890.148 228.75 879.914 230.956 868.923 233.383C848.077 237.574 820.788 242.206 793.499 239.78C770 237.574 748.396 230.515 727.55 223.897C705.188 216.618 682.068 209.118 656.295 207.574C630.522 206.03 605.886 209.78 577.839 219.927C561.541 225.662 546.002 233.162 530.841 240.221C513.027 248.603 494.456 257.427 474.368 263.824C454.28 270.221 435.329 273.75 416.378 274.192C400.081 274.633 383.025 272.868 367.106 271.324C345.502 269.118 323.519 266.912 302.295 269.78C268.183 274.412 245.821 290.515 228.765 305.515C221.185 312.133 214.742 318.309 208.678 324.927C183.663 351.177 164.712 383.383 152.204 420.222C149.172 428.604 146.898 437.207 144.624 445.81C137.423 472.501 126.81 499.192 98.3841 512.428C90.0457 516.178 80.5704 519.045 68.4419 521.031C47.217 524.56 29.4033 523.016 8.17843 515.957C-3.19205 512.207 -14.9416 507.134 -27.0701 501.84C-47.1579 493.016 -68.0038 484.192 -91.8817 478.236C-105.526 474.928 -120.687 472.501 -138.88 471.178C-165.032 469.192 -194.216 469.413 -225.295 472.281C-241.972 473.825 -259.786 476.913 -276.462 481.545C-291.623 485.516 -304.889 490.369 -317.396 495.884C-325.355 499.413 -332.178 502.942 -337.863 506.913L-337.863 508.237C-331.799 504.045 -324.218 500.075 -315.88 496.325C-303.372 490.81 -290.107 486.178 -275.325 482.207C-258.649 477.795 -241.214 474.707 -224.916 473.163C-193.837 470.295 -165.032 470.075 -138.88 472.06C-121.066 473.384 -105.905 475.81 -92.6397 479.119C-69.1408 484.854 -48.295 493.898 -28.5861 502.501C-16.0786 507.795 -4.32914 512.869 7.04135 516.84C28.6452 524.119 47.217 525.663 68.821 522.134C80.9494 520.148 91.1828 517.281 99.5211 513.31C128.326 499.854 138.939 472.942 146.519 446.031C148.793 437.428 151.446 429.045 154.099 420.663C166.607 383.824 185.558 351.839 210.573 325.589C216.637 319.192 223.08 312.795 230.661 306.398C247.716 291.398 269.32 275.736 303.053 271.103C323.519 268.236 345.881 270.662 367.106 272.868C383.404 274.633 400.46 276.398 417.136 275.736C436.466 275.295 455.796 271.765 476.263 265.148C496.351 258.75 514.922 249.927 532.736 241.545C547.897 234.486 563.436 226.986 579.734 221.25C607.402 211.324 631.659 207.574 657.053 209.118C682.447 210.662 705.188 218.162 727.55 225.221C748.775 232.059 770.379 239.118 794.257 241.324C821.925 243.75 849.593 239.118 870.818 234.927C881.43 232.721 892.043 230.294 902.276 228.089C914.784 225.442 927.67 222.574 940.936 219.927C961.024 215.956 984.902 211.986 1010.3 213.971C1022.42 214.853 1034.93 217.059 1046.68 219.265C1051.61 220.147 1056.54 221.03 1061.46 221.912C1076.24 224.339 1093.68 226.324 1111.11 223.236C1133.85 219.044 1147.88 208.015 1161.52 197.427C1162.66 196.544 1163.8 195.441 1165.31 194.559C1170.62 190.588 1176.3 186.397 1182.37 182.647C1216.48 162.132 1271.06 158.382 1310.48 158.603C1354.82 159.044 1398.41 166.324 1440.48 173.162" fill="url(#paint10_linear)" fill-opacity="0.22"/>
<path opacity="0.7" d="M1447.68 185.074C1438.96 183.089 1430.62 181.324 1422.28 179.78C1378.7 171.397 1333.59 162.574 1286.22 162.353C1285.46 162.353 1285.08 162.353 1284.32 162.353C1232.78 162.353 1187.29 174.044 1161.9 193.456C1155.84 198.089 1150.53 203.383 1145.6 208.456C1133.09 221.25 1120.97 233.162 1098.6 236.912C1078.52 240.442 1058.81 235.589 1037.96 230.515C1026.21 227.647 1014.08 224.559 1001.58 223.236C963.295 219.044 927.668 230.736 893.177 241.986C860.203 252.795 826.092 263.824 789.706 261.177C765.828 259.412 744.603 251.912 723.757 244.633C703.291 237.353 682.066 230.074 658.188 228.089C611.569 224.339 572.53 241.986 534.629 259.192C500.896 274.412 466.406 290.074 425.851 291.618C410.69 292.28 395.151 290.956 379.99 289.412C358.386 287.427 336.024 285.442 315.179 289.412C282.204 295.589 261.737 315.001 247.714 331.104C210.191 374.56 186.313 423.089 179.112 471.619C174.185 505.148 164.709 541.766 115.058 549.045C75.6405 554.781 46.0772 537.795 14.619 519.707C-4.33182 508.898 -23.6617 497.648 -46.0236 491.251C-87.3363 479.339 -138.503 484.633 -176.026 488.604C-237.048 495.001 -304.512 504.486 -332.938 536.472C-334.834 538.678 -336.35 540.884 -337.866 543.089L-337.866 546.84C-335.971 543.531 -333.696 540.222 -331.043 537.134C-302.996 505.81 -236.289 496.325 -175.647 489.928C-127.512 484.854 -84.6831 481.545 -46.7815 492.354C-24.7986 498.751 -5.46879 509.781 13.4819 520.589C45.3193 538.898 75.2616 556.104 115.816 550.148C166.983 542.648 176.459 505.589 181.765 471.619C188.966 423.31 212.844 374.78 250.367 331.545C264.011 315.662 284.099 296.692 316.315 290.515C336.782 286.545 358.007 288.53 380.369 290.515C395.53 291.839 411.448 293.383 426.988 292.721C468.301 290.956 503.17 275.295 536.903 259.853C575.941 242.206 613.085 225.441 658.946 228.971C682.445 230.736 703.291 238.236 723.757 245.295C744.603 252.574 766.207 260.074 790.464 261.839C827.608 264.486 861.719 253.236 895.072 242.427C929.184 231.397 964.811 219.706 1001.95 223.897C1014.08 225.221 1026.21 228.309 1037.96 231.177C1058.05 236.25 1078.9 241.324 1100.12 237.574C1123.24 233.603 1136.13 220.809 1148.25 208.456C1153.18 203.383 1158.49 198.089 1164.55 193.456C1189.57 174.044 1235.43 162.574 1287.35 162.794C1333.97 163.015 1379.08 171.839 1422.66 180.221C1431.38 181.986 1440.1 183.75 1448.81 185.736" fill="url(#paint11_linear)" fill-opacity="0.22"/>
<path opacity="0.7" d="M1441.61 232.501C1420.01 223.016 1396.13 215.957 1377.94 210.884C1353.68 204.045 1329.8 197.428 1305.55 192.575C1290.77 189.707 1274.85 186.619 1257.03 185.957C1252.86 185.737 1249.07 185.737 1245.28 185.737C1202.83 185.737 1163.04 195.884 1139.16 213.31C1133.09 217.722 1128.17 222.575 1122.86 227.428C1111.11 238.457 1098.98 250.149 1078.14 253.899C1071.31 255.222 1064.49 255.443 1056.91 255.001C1045.16 254.34 1033.03 251.693 1021.66 249.046C1010.67 246.619 999.302 244.193 987.932 243.09C952.683 240.001 919.709 251.472 887.492 262.501C867.405 269.56 846.18 276.619 824.955 280.149C813.205 282.134 802.214 282.796 791.601 282.134C769.239 281.031 749.152 274.634 729.822 268.457C710.492 262.281 690.783 255.884 668.421 254.56C644.164 253.016 619.907 256.766 590.723 267.134C577.458 271.766 564.571 277.281 551.685 282.575C519.468 296.031 486.115 310.149 447.076 311.472C433.432 311.913 419.408 310.81 405.764 309.707L403.11 309.487C384.16 307.943 362.556 306.178 342.089 310.369C311.389 316.546 292.059 334.855 278.793 350.296C266.286 364.855 254.915 380.296 244.682 396.619C227.247 424.855 215.119 453.311 208.675 481.326C201.853 511.767 190.483 544.855 143.864 551.252C106.72 556.326 78.2938 540.885 48.3517 524.561C30.1589 514.635 11.2081 504.487 -10.0168 498.752C-48.6764 488.164 -93.7792 492.576 -132.439 497.87C-185.501 505.37 -229.088 519.046 -261.304 538.238C-268.884 542.87 -275.328 547.282 -280.255 551.914C-297.69 567.576 -302.996 584.561 -296.932 606.4C-295.037 612.797 -292.004 619.855 -287.456 627.356L-285.182 627.356C-289.73 619.635 -292.762 612.576 -294.658 606.179C-300.722 584.561 -295.795 567.796 -278.36 552.576C-273.433 548.164 -266.989 543.752 -259.409 539.12C-227.193 519.929 -184.364 506.473 -131.681 498.973C-93.0213 493.458 -48.6763 489.267 -10.7748 499.635C10.0711 505.37 29.0218 515.517 46.8355 525.223C77.5359 541.767 106.341 557.429 144.622 552.355C192.378 545.738 204.127 512.208 210.949 481.326C217.393 453.531 229.521 425.296 246.956 397.061C256.81 380.958 268.181 365.516 280.688 350.958C293.575 335.958 312.526 317.869 342.847 311.693C362.556 307.722 383.78 309.487 402.731 310.81L405.384 311.031C419.029 312.134 433.432 313.237 447.076 312.796C486.494 311.252 520.226 297.354 552.822 283.678C565.329 278.384 578.595 272.869 591.481 268.237C620.286 258.09 643.785 254.34 667.663 255.884C689.646 257.207 709.355 263.604 728.306 269.781C748.015 275.957 768.481 282.575 790.843 283.678C801.835 284.119 812.826 283.457 824.955 281.472C846.559 277.943 867.784 270.663 887.871 263.604C919.33 252.796 952.304 241.325 986.794 244.413C998.165 245.296 1009.16 247.722 1020.15 250.149C1031.9 252.796 1044.03 255.443 1056.15 256.104C1064.11 256.546 1071.31 256.104 1078.14 255.001C1099.74 251.031 1112.25 239.34 1124 228.09C1128.93 223.237 1134.23 218.384 1139.92 214.193C1165.31 195.663 1210.03 185.295 1256.27 187.281C1273.71 188.163 1289.63 191.031 1304.03 193.898C1328.29 198.751 1352.17 205.369 1376.04 211.987C1394.24 217.06 1418.11 224.34 1439.34 233.604" fill="url(#paint12_linear)" fill-opacity="0.22"/>
<path opacity="0.7" d="M1435.55 318.31C1431 299.56 1415.08 282.575 1387.42 266.692C1369.22 256.324 1349.14 247.721 1333.6 241.545C1315.4 234.266 1294.18 225.883 1271.82 219.045L1269.92 218.383C1257.41 214.413 1244.15 210.442 1227.85 209.118C1221.79 208.677 1215.72 208.236 1209.66 208.236C1174.03 208.236 1138.4 217.28 1116.04 232.501C1109.98 236.471 1105.05 241.104 1099.74 245.736C1088.37 255.883 1076.62 266.251 1057.29 270.001C1051.23 271.104 1044.79 271.766 1037.58 271.325C1026.59 270.883 1015.6 268.898 1004.99 266.913C994.756 264.927 984.143 262.942 973.531 262.501C940.935 260.736 910.614 271.766 881.43 282.575C862.858 289.413 843.528 296.472 823.82 300.222C813.207 302.207 802.974 303.089 793.119 302.869C772.273 302.428 754.081 297.354 735.13 291.839C717.316 286.766 698.744 281.472 677.899 280.589C648.714 279.266 623.32 286.104 604.369 292.281C592.241 296.251 580.112 300.883 568.742 305.295C537.663 317.207 505.446 329.56 468.303 330.663C456.174 331.104 443.667 330.222 431.538 329.339L426.611 328.898C405.765 327.575 387.193 326.692 369.38 330.663C340.954 336.84 323.519 353.384 310.253 368.825C298.883 382.281 287.891 396.399 277.658 412.281C259.844 439.413 246.958 465.443 238.998 489.928C229.902 518.605 217.394 546.84 173.808 552.355C138.938 556.767 111.649 542.87 82.8439 528.09C65.4092 519.046 47.2164 510.002 26.7496 504.708C-3.57166 497.208 -42.2313 497.428 -88.0923 505.811C-137.364 514.634 -170.718 532.502 -206.724 553.237C-213.546 557.208 -221.127 561.62 -227.57 566.252C-249.174 581.693 -257.133 596.032 -255.617 615.885C-255.238 619.635 -254.48 623.385 -252.964 627.135L-250.311 627.135C-251.448 623.385 -252.585 619.635 -252.964 615.885C-254.48 596.473 -246.521 582.134 -225.296 566.914C-218.853 562.281 -211.651 558.09 -204.829 554.12C-169.202 533.605 -135.848 515.737 -87.3341 507.134C-41.8523 498.972 -3.57178 498.531 25.9914 506.031C46.0793 511.105 63.8931 520.37 81.3279 529.193C110.512 544.193 138.18 558.311 174.187 553.678C223.08 547.943 234.071 513.311 241.272 490.59C249.232 466.325 262.118 440.296 279.932 413.163C290.165 397.281 301.157 383.163 312.527 369.707C325.414 354.487 342.849 338.163 370.517 332.207C387.952 328.457 406.144 329.119 426.611 330.663L431.538 331.104C443.667 331.987 456.174 332.869 468.303 332.428C506.204 331.325 538.421 318.751 569.879 306.839C581.628 302.428 593.378 297.795 605.507 293.825C624.078 287.648 649.093 280.81 677.519 282.354C697.986 283.457 716.179 288.53 733.993 293.604C752.565 298.898 771.894 304.192 792.74 304.633C802.974 304.854 813.207 303.972 824.199 301.986C844.286 298.236 863.616 290.957 882.188 284.119C910.993 273.53 940.935 262.28 973.152 264.266C983.385 264.927 993.998 266.692 1004.23 268.677C1015.22 270.663 1026.21 272.869 1037.58 273.089C1045.16 273.31 1051.61 272.869 1058.05 271.545C1078.14 267.575 1090.27 256.986 1101.64 246.619C1106.57 242.207 1111.87 237.574 1117.56 233.604C1143.33 215.957 1186.54 206.913 1227.47 210.442C1243.39 211.766 1256.28 215.736 1268.78 219.707L1270.68 220.368C1292.66 226.986 1313.89 235.369 1332.08 242.869C1347.62 249.045 1367.33 257.427 1385.52 267.795C1413.57 283.236 1429.11 300.001 1433.66 318.531" fill="url(#paint13_linear)" fill-opacity="0.22"/>
<path opacity="0.7" d="M1447.68 481.766C1438.2 482.649 1428.73 482.428 1418.12 480.222C1387.8 474.046 1372.26 459.487 1367.71 451.987C1366.19 449.56 1366.19 447.575 1365.81 445.148C1365.81 444.487 1365.81 444.045 1365.43 443.384C1365.43 442.722 1365.05 442.06 1365.05 441.398C1364.68 439.634 1364.3 437.428 1364.3 435.222C1363.92 431.031 1364.3 426.839 1364.68 422.428C1365.43 416.031 1367.33 408.972 1369.22 401.472C1369.98 398.604 1370.74 395.736 1371.5 392.869C1374.15 381.839 1376.42 368.825 1373.39 354.927C1369.22 335.957 1355.96 318.31 1332.84 300.663C1317.68 289.192 1301.38 279.486 1288.87 272.207C1274.09 263.824 1256.66 253.898 1238.08 245.515L1234.67 243.971C1224.44 239.339 1213.83 234.486 1198.29 232.28C1191.09 231.398 1183.51 230.736 1175.93 230.736C1145.23 230.736 1113.77 238.456 1092.92 251.912C1086.86 255.662 1081.55 260.074 1076.24 264.265C1065.25 273.309 1053.88 282.795 1036.07 286.324C1030.38 287.427 1024.32 288.089 1017.5 288.089C1007.26 288.089 997.409 286.545 987.555 285.001C978.079 283.677 968.225 282.133 958.749 281.912C928.807 281.251 901.518 292.06 874.987 302.648C857.931 309.486 840.497 316.545 822.304 320.295C812.449 322.501 803.353 323.383 794.257 323.604C774.927 323.824 757.871 319.633 739.678 315.442C723.002 311.471 705.946 307.28 686.616 306.618C660.085 305.736 636.586 311.692 617.256 317.427C606.265 320.736 595.652 324.486 585.04 328.015C554.719 338.383 523.64 349.192 488.012 350.074C477.4 350.295 466.787 349.633 456.554 348.971C453.901 348.751 451.627 348.751 448.973 348.53C430.402 347.648 412.588 346.986 395.532 350.957C369.38 357.133 353.082 372.795 340.575 387.354C330.342 399.266 320.487 412.28 309.117 428.163C289.787 455.736 276.521 478.016 267.804 498.751C258.708 519.928 246.2 548.825 202.234 553.678C169.639 557.207 143.866 545.075 116.198 531.84C99.1421 523.898 81.7072 515.516 62.3774 511.104C21.8227 501.84 -22.143 508.898 -44.8839 513.972C-79.3744 521.472 -100.978 535.59 -123.719 550.149C-132.816 556.104 -142.291 562.06 -152.903 568.237C-156.315 570.222 -159.726 571.987 -162.758 573.752C-166.927 576.178 -171.096 578.384 -175.265 580.59C-199.143 594.487 -212.409 605.737 -214.683 625.369C-214.683 625.811 -214.683 626.252 -214.683 626.693L-212.409 626.693C-212.409 626.252 -212.409 625.811 -212.409 625.369C-210.135 605.958 -197.248 594.928 -173.37 581.252C-169.58 579.046 -165.411 576.84 -161.242 574.413C-157.831 572.649 -154.798 570.884 -151.387 568.899C-140.396 562.722 -130.921 556.766 -121.824 550.81C-98.3252 535.59 -77.8583 522.354 -43.747 514.854C-21.385 510.001 22.2018 502.942 61.9984 511.987C80.9492 516.398 98.384 524.56 115.44 532.501C143.108 545.737 169.639 558.31 202.992 554.56C248.095 549.487 260.982 520.148 270.078 498.751C278.795 478.237 292.061 455.957 311.391 428.383C322.382 412.501 332.616 399.486 342.47 387.574C354.598 373.236 370.896 357.795 396.29 351.839C412.967 347.868 430.402 348.53 448.594 349.413C451.248 349.633 453.522 349.633 456.175 349.854C466.787 350.516 477.4 351.177 488.012 350.957C524.398 350.074 555.477 339.266 586.177 328.898C596.411 325.368 607.402 321.618 618.014 318.31C636.965 312.574 660.085 306.839 686.237 307.501C705.188 308.162 721.865 312.133 738.541 316.104C756.734 320.515 774.169 324.707 793.878 324.486C803.353 324.486 812.449 323.383 822.683 321.177C840.876 317.207 858.689 310.148 875.745 303.31C901.897 292.942 929.186 282.133 958.37 282.795C967.846 283.015 977.7 284.339 986.797 285.883C996.651 287.427 1006.88 288.971 1017.5 288.971C1024.32 288.971 1030.76 288.53 1036.83 287.207C1055.02 283.457 1066.77 273.751 1078.14 264.707C1083.45 260.515 1088.75 256.104 1094.44 252.354C1120.21 236.03 1161.9 228.309 1197.91 233.162C1212.69 235.148 1223.3 240.001 1233.54 244.412L1236.95 245.956C1255.52 254.339 1272.95 264.045 1287.74 272.648C1300.24 279.927 1316.54 289.633 1331.32 301.104C1354.06 318.53 1367.33 336.177 1371.5 354.707C1374.53 368.383 1372.26 381.398 1369.6 392.207C1368.84 395.075 1368.09 397.942 1367.33 400.81C1365.43 408.31 1363.54 415.369 1362.78 421.766C1362.02 426.178 1362.02 430.369 1362.4 434.56C1362.4 436.766 1362.78 438.751 1363.16 440.737C1363.16 441.398 1363.54 442.06 1363.54 442.722C1363.54 443.384 1363.54 443.825 1363.92 444.487C1364.3 446.913 1364.3 448.898 1365.81 451.545C1370.36 460.148 1386.28 475.148 1417.36 481.546C1424.56 483.09 1431.38 483.531 1437.45 483.531" fill="url(#paint14_linear)" fill-opacity="0.22"/>
<path opacity="0.7" d="M1431.38 504.487C1414.33 507.575 1400.68 510.222 1382.11 507.134C1353.31 502.501 1333.98 490.59 1324.88 483.972C1322.61 482.428 1321.85 481.325 1320.33 479.781L1319.57 478.898C1318.44 477.575 1316.54 475.369 1315.02 472.722C1313.13 469.192 1311.61 465.222 1310.86 461.031C1309.34 452.648 1310.48 442.942 1311.61 431.031C1313.13 418.678 1313.89 405.663 1311.61 392.427C1307.82 373.236 1297.59 355.148 1279.02 335.516C1269.54 325.589 1258.93 315.663 1244.91 303.751C1234.67 294.927 1220.65 283.236 1204.73 272.868C1203.59 272.206 1202.84 271.545 1201.7 270.883C1193.74 265.368 1184.26 259.192 1169.48 256.545C1161.52 255.001 1153.19 254.339 1144.47 254.339C1118.32 254.339 1090.27 260.956 1070.56 272.207C1064.5 275.736 1059.19 279.927 1053.88 283.898C1043.27 291.839 1032.28 300.221 1016.36 303.751C1011.05 304.854 1005.37 305.515 999.305 305.736C990.208 305.957 980.733 305.074 972.016 304.192C963.298 303.31 954.202 302.427 945.485 302.427C918.574 302.868 893.938 313.677 870.06 323.824C854.521 330.442 838.602 337.501 822.304 341.471C813.587 343.677 805.249 345.001 796.91 345.221C779.097 346.104 763.178 343.016 746.122 339.707C730.962 336.839 715.422 333.751 697.987 333.53C673.73 333.31 651.747 338.383 632.797 343.457C623.7 345.883 614.225 348.751 605.507 351.398C574.807 360.663 545.623 369.486 511.132 369.927C502.415 370.148 493.319 369.707 484.601 369.266C481.19 369.045 477.779 369.045 474.368 368.825C458.828 368.163 441.015 367.942 424.717 372.133C400.839 378.31 385.678 393.089 373.929 406.545C362.937 419.119 353.462 432.134 343.986 444.707C327.31 466.987 311.77 487.943 300.021 508.016C288.65 527.428 274.627 551.472 234.072 555.443C203.751 558.31 179.115 547.502 153.342 536.252C137.044 529.193 119.988 521.693 101.416 517.943C71.8531 511.987 35.4676 513.531 1.73534 522.575C-27.07 530.296 -42.2305 543.09 -58.5282 556.766C-69.1406 565.811 -80.5111 575.075 -96.0507 583.678C-103.252 587.649 -110.074 590.958 -117.276 594.046L-122.582 596.472C-144.186 606.62 -160.104 614.12 -168.064 627.355L-165.79 627.355C-157.83 614.781 -143.049 607.722 -122.203 598.017L-116.897 595.59C-110.074 592.281 -102.873 588.972 -95.6718 585.222C-79.7532 576.619 -68.7617 567.134 -57.7703 558.09C-41.8516 544.634 -26.6909 531.84 1.73534 524.34C35.0887 515.516 70.7162 513.752 99.9004 519.707C118.093 523.457 134.77 530.737 151.067 537.796C176.462 548.825 202.614 560.296 233.693 557.208C275.764 553.237 289.787 528.752 301.158 509.119C312.907 489.046 328.447 468.09 345.124 445.81C354.599 433.237 364.074 420.442 375.066 407.648C386.436 394.192 401.597 379.633 424.717 373.677C439.12 369.927 453.901 369.707 473.231 370.369C476.642 370.589 480.053 370.589 483.464 370.81C492.182 371.251 501.278 371.692 510.374 371.472C545.244 371.03 575.944 361.766 605.507 352.722C614.604 350.074 623.7 347.207 632.797 344.78C651.368 339.707 673.351 334.633 696.85 334.854C713.906 335.074 729.446 337.942 744.606 341.03C761.662 344.339 777.96 347.427 796.531 346.545C804.87 346.104 813.966 344.78 822.683 342.574C839.36 338.383 855.279 331.324 870.818 324.707C894.317 314.56 918.953 303.971 945.105 303.53C953.823 303.31 962.54 304.192 971.258 305.074C980.354 305.957 989.829 307.06 999.305 306.839C1005.75 306.618 1011.43 305.957 1017.12 304.854C1033.8 301.104 1044.79 292.721 1055.78 284.559C1061.08 280.589 1066.39 276.398 1072.45 273.089C1098.23 258.309 1138.02 251.912 1169.48 257.648C1183.89 260.295 1192.6 266.03 1200.94 271.545C1202.08 272.206 1202.84 272.868 1203.97 273.53C1219.89 283.898 1233.54 295.368 1244.15 304.413C1258.17 316.324 1268.78 326.251 1277.88 336.177C1296.45 355.589 1306.69 373.677 1310.1 392.648C1312.75 405.883 1311.61 418.236 1310.1 431.031C1308.96 442.942 1307.82 452.869 1309.34 461.031C1310.1 465.442 1311.61 469.634 1313.51 473.163C1315.02 475.81 1316.92 478.016 1318.06 479.56L1318.81 480.442C1319.95 481.987 1321.09 483.09 1323.36 484.854C1332.46 491.693 1352.55 503.825 1381.73 508.457C1387.8 509.56 1393.48 509.781 1398.79 509.781C1410.54 509.781 1420.77 507.796 1432.14 505.81" fill="url(#paint15_linear)" fill-opacity="0.22"/>
<path opacity="0.7" d="M1447.68 522.796C1431 523.678 1418.12 525.663 1402.2 528.531C1398.79 529.193 1395.38 529.855 1391.96 530.516C1376.8 533.605 1363.54 536.252 1345.35 533.825C1323.36 530.957 1305.17 524.119 1293.04 519.707C1287.74 517.722 1283.94 516.399 1280.91 515.516C1279.02 515.075 1277.88 514.854 1276.74 514.634C1275.61 514.413 1274.47 514.193 1272.95 513.752C1270.68 513.09 1267.65 511.325 1265.37 509.34C1261.96 506.472 1258.93 502.722 1256.66 498.531C1252.49 489.707 1251.73 478.237 1251.73 468.31C1251.73 466.325 1251.73 464.119 1251.73 462.134C1251.73 451.325 1251.73 440.295 1249.83 428.825C1245.66 403.678 1233.54 382.722 1224.82 369.266C1217.62 357.795 1209.66 346.324 1200.56 333.971C1189.95 319.413 1180.85 308.383 1171 298.898C1170.24 298.236 1169.48 297.574 1169.1 296.913C1162.66 290.515 1155.46 283.015 1140.3 279.486C1131.96 277.501 1122.48 276.398 1112.63 276.398C1089.89 276.398 1066.01 281.692 1047.44 291.398C1041.37 294.707 1035.69 298.457 1030 302.207C1019.77 309.266 1009.54 316.324 995.135 319.854C990.208 320.957 985.281 321.839 979.595 322.06C971.257 322.501 962.919 322.28 954.959 321.839C947 321.398 938.662 320.957 930.702 321.618C906.445 323.163 884.841 333.751 863.616 343.677C849.593 350.295 835.569 357.133 820.788 361.324C813.207 363.53 805.627 365.074 798.047 365.736C781.37 367.28 766.209 365.295 750.291 363.089C736.646 361.324 722.623 359.339 707.083 359.56C684.721 359.78 663.875 364.413 646.061 368.824C638.86 370.589 632.038 372.354 625.216 374.119C594.515 381.839 565.71 389.339 531.599 389.56C524.776 389.56 517.196 389.339 510.374 389.119C506.205 388.898 501.657 388.677 497.108 388.677C481.948 388.457 466.029 388.677 451.247 392.869C429.644 399.045 415.999 412.28 404.628 425.516C397.806 433.457 391.363 441.619 385.299 449.339C382.267 453.31 379.234 457.06 376.202 460.81C368.622 470.295 360.663 479.34 353.461 488.163C344.744 498.31 336.785 508.016 329.583 517.281C316.697 533.604 300.778 554.119 263.256 556.987C235.587 559.193 212.088 549.928 187.452 540.222C171.534 534.046 155.236 527.428 137.422 524.34C108.617 519.266 74.1268 521.693 45.3216 530.737C19.1695 538.899 8.17807 552.134 -3.95047 566.031C-13.4258 577.281 -23.6593 588.972 -41.8521 598.899C-50.1903 603.311 -58.9077 606.84 -67.2461 609.928C-72.1734 611.913 -77.1005 613.458 -82.0277 615.222C-92.6402 618.972 -102.495 622.502 -110.454 626.693L-107.422 626.693C-99.8415 622.943 -91.1241 619.634 -81.2697 616.325C-76.3424 614.561 -71.7943 613.016 -66.4881 611.031C-58.1497 607.943 -49.0534 604.413 -40.715 599.781C-22.1432 589.855 -11.9098 577.943 -2.05545 566.693C9.69406 553.016 21.0645 540.001 46.4586 531.84C74.8847 522.796 108.617 520.59 137.043 525.443C154.478 528.531 170.776 534.928 186.316 541.104C210.193 550.59 234.829 560.296 263.635 558.09C302.294 555.222 318.592 534.266 331.857 517.501C339.059 508.237 347.018 498.751 355.735 488.604C363.316 479.781 370.896 470.957 378.476 461.251C381.508 457.501 384.541 453.531 387.573 449.781C393.637 441.839 400.08 433.898 406.903 425.957C418.273 412.722 431.539 399.707 452.384 393.751C466.787 389.78 482.327 389.339 497.108 389.78C501.657 389.78 505.826 390.001 510.374 390.222C517.575 390.442 524.776 390.663 531.599 390.663C566.089 390.442 595.273 382.942 625.974 375.222C632.796 373.457 639.997 371.692 646.82 369.927C664.254 365.736 685.1 361.104 706.704 360.883C722.244 360.663 735.888 362.648 749.533 364.413C765.83 366.619 781.37 368.824 798.426 367.28C806.006 366.619 813.965 365.075 821.925 362.648C837.085 358.236 851.488 351.398 865.133 344.78C885.978 334.854 907.961 324.486 931.46 322.942C939.42 322.501 947.379 322.721 955.338 323.163C963.298 323.604 971.636 324.045 980.353 323.383C986.418 322.942 991.724 322.28 996.651 320.957C1011.43 317.207 1022.05 309.927 1032.28 302.868C1037.58 299.118 1043.27 295.148 1049.33 292.06C1075.11 278.604 1112.25 273.751 1139.92 280.368C1154.32 283.677 1161.14 290.957 1167.59 297.354C1168.35 298.015 1169.1 298.677 1169.48 299.339C1178.96 309.045 1188.05 319.854 1198.67 334.413C1207.38 346.545 1215.34 358.236 1222.92 369.486C1231.64 382.942 1243.39 403.898 1247.56 428.825C1249.45 440.075 1249.45 451.104 1249.45 461.913C1249.45 464.119 1249.45 466.104 1249.45 468.09C1249.45 478.237 1250.21 489.707 1254.76 498.531C1256.66 502.943 1260.07 506.913 1263.86 509.781C1266.51 511.987 1269.54 513.531 1272.2 514.413C1274.09 515.075 1275.23 515.075 1276.74 515.296C1277.88 515.516 1279.02 515.737 1280.91 515.957C1283.94 516.619 1287.74 518.163 1293.04 519.928C1305.17 524.34 1323.36 531.178 1345.72 534.046C1350.65 534.707 1355.58 534.928 1360.13 534.928C1371.88 534.928 1382.11 532.943 1393.48 530.516C1396.51 529.855 1399.92 529.193 1403.33 528.531C1418.5 526.766 1431.38 525.002 1447.68 524.119" fill="url(#paint16_linear)" fill-opacity="0.22"/>
<path opacity="0.7" d="M1447.68 548.605C1439.72 548.826 1431.38 549.046 1423.04 548.826C1402.2 548.605 1388.55 549.708 1367.33 553.679C1362.4 554.561 1358.23 555.664 1353.68 556.546C1339.28 559.635 1327.15 562.502 1309.34 560.738C1292.66 558.973 1277.12 555.223 1264.62 552.355C1253.24 549.708 1244.15 547.502 1237.71 547.723C1235.05 547.723 1233.16 548.385 1231.26 548.605C1229.75 549.046 1228.23 549.267 1226.33 549.488C1223.3 549.488 1219.13 548.605 1215.34 546.84C1210.42 544.635 1205.87 541.105 1202.46 536.914C1196.77 529.855 1193.36 520.149 1191.47 506.473C1190.71 500.517 1190.33 494.561 1189.57 488.164C1188.81 481.105 1188.43 473.605 1187.3 466.105C1183.88 442.943 1177.06 422.428 1170.24 403.899C1167.97 398.163 1166.07 392.649 1164.18 387.355C1161.52 379.855 1158.87 372.355 1155.84 365.296C1149.77 348.972 1144.09 336.84 1137.27 325.81L1136.13 324.046C1131.58 316.325 1126.27 307.722 1111.11 303.09C1102.4 300.443 1092.16 299.119 1081.55 299.119C1062.22 299.119 1041.75 303.31 1024.7 311.031C1018.25 314.119 1012.19 317.649 1006.51 321.399C997.03 327.354 987.176 333.31 974.668 336.84C970.499 337.943 965.572 338.825 960.645 339.487C953.443 340.369 946.242 340.369 939.041 340.59C931.839 340.81 923.88 340.81 916.679 341.913C895.454 344.781 876.124 354.928 857.552 364.634C845.424 371.031 832.537 377.869 819.272 382.502C812.449 384.928 805.627 386.472 799.184 387.575C783.644 390.002 769.242 388.899 753.702 387.796C741.952 386.913 729.824 386.031 716.179 386.472C696.092 387.355 676.762 391.325 659.706 394.855C656.674 395.516 653.642 396.178 650.61 396.619C618.772 403.237 588.451 409.413 553.203 409.413C552.824 409.413 552.445 409.413 552.066 409.413C546.759 409.413 541.832 409.193 536.526 408.972C531.22 408.752 525.535 408.531 519.849 408.531C506.963 408.531 491.802 408.972 477.779 413.384C458.449 419.34 445.941 431.914 435.329 444.267C431.16 449.119 426.99 454.193 423.2 459.046C418.273 465.002 413.346 471.178 408.04 476.914C394.395 492.576 379.993 506.252 367.106 518.164C364.074 520.811 361.421 523.458 358.768 526.105L358.389 526.326C343.607 540.443 326.551 556.546 291.682 558.311C266.288 559.855 243.547 551.914 221.564 544.193C206.024 538.899 190.106 533.384 173.05 530.958C145.382 526.987 112.786 530.076 88.5294 539.12C64.2724 548.164 55.9342 562.061 47.5958 576.84C40.0155 590.076 32.0561 603.532 11.5893 614.12C2.11386 618.973 -7.74051 622.282 -15.3208 624.708C-17.9739 625.37 -20.2481 626.252 -22.9012 626.914L-17.974 626.914C-16.8369 626.473 -15.6999 626.252 -14.5628 625.811C-6.98246 623.385 3.25094 620.076 13.1053 615.223C33.9511 604.414 41.9105 590.738 49.4908 577.282C57.8292 562.723 65.7885 549.046 89.6666 540.223C113.545 531.399 145.382 528.311 172.671 532.061C189.348 534.487 205.266 540.002 220.427 545.296C242.789 553.017 265.909 560.958 292.061 559.635C328.067 557.649 345.123 541.326 360.284 526.987L360.663 526.767C363.316 524.12 366.348 521.473 369.001 518.826C381.888 506.693 396.29 493.017 409.935 477.355C414.862 471.62 420.168 465.443 425.095 459.267C428.886 454.414 433.055 449.34 437.224 444.487C447.836 432.134 459.965 420.002 478.537 414.046C492.181 409.855 506.963 409.193 519.47 409.193C524.777 409.193 530.462 409.413 535.768 409.634C540.695 409.855 546.001 409.855 551.308 410.075C587.314 410.296 618.014 403.899 650.231 397.06C653.263 396.399 656.295 395.737 659.327 395.296C676.383 391.766 695.713 387.796 715.421 386.913C728.687 386.472 740.815 387.355 752.565 388.016C768.105 389.119 782.886 390.222 798.805 387.796C805.627 386.693 812.828 384.928 819.651 382.722C832.916 378.09 845.803 371.252 857.931 364.855C876.124 355.149 895.075 345.002 915.921 342.354C923.122 341.472 930.323 341.252 937.904 341.252C945.105 341.031 952.306 341.031 959.887 340.149C965.193 339.487 970.12 338.604 974.668 337.502C987.555 333.972 997.788 327.796 1007.26 321.84C1012.95 318.31 1019.01 314.56 1025.08 311.693C1050.85 299.781 1085.34 296.472 1109.22 303.751C1123.62 308.163 1128.93 316.546 1133.1 324.046L1134.23 326.031C1141.06 337.06 1146.74 348.972 1152.81 365.296C1155.46 372.355 1158.11 379.634 1161.14 387.355C1163.04 392.649 1165.31 398.163 1167.21 403.899C1174.03 422.428 1180.85 442.943 1184.26 466.105C1185.4 473.605 1185.78 480.884 1186.54 487.943C1186.92 494.34 1187.67 500.296 1188.43 506.252C1190.33 520.149 1193.74 530.076 1199.42 537.135C1202.84 541.546 1207.76 545.076 1213.07 547.502C1217.24 549.267 1221.41 550.37 1225.2 550.37C1225.2 550.37 1225.2 550.37 1225.58 550.37C1227.85 550.37 1229.75 549.929 1231.64 549.488C1233.54 549.046 1235.05 548.605 1237.33 548.605C1243.01 548.385 1251.73 550.591 1263.1 553.238C1275.61 556.326 1291.15 559.855 1308.58 561.62C1326.77 563.385 1339.66 560.738 1354.06 557.429C1358.23 556.546 1362.78 555.443 1367.33 554.561C1388.55 550.591 1401.44 549.267 1422.29 549.708C1431.38 550.149 1439.72 550.149 1447.68 549.708" fill="url(#paint17_linear)" fill-opacity="0.22"/>
<path opacity="0.7" d="M1447.68 574.634C1429.49 576.179 1410.16 576.399 1390.07 575.296C1367.33 573.973 1354.44 574.855 1332.84 579.046C1327.15 580.149 1321.85 581.473 1316.54 582.796C1302.9 586.105 1291.15 588.973 1273.33 587.649C1259.69 586.546 1246.8 584.561 1235.05 582.796C1218.38 580.149 1203.59 577.943 1194.5 579.929C1191.47 580.59 1189.19 581.693 1186.92 582.576C1184.64 583.679 1182.75 584.561 1180.09 585.002C1176.3 585.664 1171 585.443 1165.69 584.12C1159.25 582.355 1152.81 579.267 1148.26 575.076C1140.3 568.237 1134.99 558.09 1131.58 544.414C1128.93 533.605 1127.79 522.796 1126.27 511.105C1125.9 508.458 1125.52 505.811 1125.52 503.164C1123.62 488.164 1121.35 474.046 1119.45 460.59C1118.32 452.869 1117.18 445.369 1116.04 438.31C1114.52 426.399 1113.39 415.149 1112.25 404.34L1111.49 396.399C1110.36 384.266 1108.46 368.384 1103.53 352.722L1103.15 351.398C1100.5 343.016 1097.47 332.428 1081.93 326.692C1072.45 323.163 1061.84 321.839 1050.85 321.839C1033.04 321.839 1014.84 325.81 1001.58 331.104C994.756 333.972 988.313 337.501 981.87 340.81C973.152 345.663 964.056 350.516 953.443 353.825C949.653 354.928 945.484 355.81 940.557 356.692C934.493 357.795 928.428 358.457 922.364 358.898C915.163 359.56 908.34 360.222 901.518 361.766C883.325 365.737 866.649 375.663 850.73 385.148C840.118 391.546 829.126 398.163 817.377 403.016C811.691 405.443 805.627 407.428 799.942 408.751C785.16 412.06 770.758 412.06 755.218 412.06C745.743 412.06 735.888 412.06 724.897 412.943C710.115 414.046 695.713 416.472 681.689 418.899C678.657 419.34 675.625 420.001 672.593 420.443C638.102 426.178 607.781 429.928 572.533 429.266C569.501 429.266 566.468 429.046 563.436 429.046C556.614 428.825 549.792 428.604 542.969 428.825C526.672 429.046 514.922 430.81 504.689 434.56C486.875 440.737 475.505 452.869 466.408 463.678C464.134 466.546 461.481 469.413 459.207 472.502C453.143 479.561 447.078 487.061 440.635 493.899C423.958 511.325 405.008 524.781 388.71 536.031C372.412 547.281 353.841 559.855 321.245 560.737C298.504 561.399 277.658 555.223 257.192 549.267C242.031 544.855 226.112 540.002 209.815 538.458C182.905 535.59 153.341 539.561 132.874 548.605C109.754 558.531 104.448 573.531 98.763 589.193C93.8359 602.87 88.9085 616.987 71.0948 627.796L74.127 627.796C91.1827 616.767 96.1099 602.87 101.037 589.414C106.722 573.973 111.65 559.414 134.011 549.708C154.478 540.884 183.284 537.134 209.436 539.781C225.354 541.546 241.273 546.178 256.434 550.59C276.9 556.767 298.504 562.943 321.624 562.281C355.357 561.178 373.928 548.384 390.605 537.134C407.282 525.884 426.233 512.208 442.909 494.781C449.352 487.943 455.796 480.443 461.481 473.384C463.755 470.516 466.408 467.649 468.682 464.781C477.779 454.193 488.77 442.281 506.205 436.105C516.059 432.575 527.809 430.81 543.348 430.59C550.171 430.369 556.993 430.59 563.815 430.81C566.847 430.81 569.879 431.031 572.912 431.031C608.539 431.693 638.86 427.943 673.73 422.207C676.762 421.766 679.794 421.104 682.826 420.663C696.85 418.237 711.252 415.81 725.655 414.707C736.267 414.046 746.122 413.825 755.597 413.825C771.137 413.825 785.918 413.825 801.079 410.296C807.143 408.972 813.208 406.987 819.272 404.56C831.021 399.707 842.013 392.869 853.004 386.472C868.544 376.987 884.842 367.281 903.034 363.31C909.857 361.766 916.679 361.104 923.501 360.442C929.565 359.781 935.63 359.34 941.694 358.237C946.621 357.354 950.79 356.472 954.959 355.369C965.951 352.06 975.047 346.987 983.765 342.134C990.208 338.604 996.272 335.295 1003.09 332.428C1023.56 324.266 1056.91 319.413 1080.79 328.236C1095.57 333.751 1098.61 343.457 1101.26 352.06L1101.64 353.384C1106.57 368.825 1108.46 384.707 1109.6 396.84L1110.36 404.781C1111.49 415.59 1112.25 427.06 1114.15 438.752C1115.28 445.81 1116.42 453.31 1117.56 461.031C1119.83 474.708 1121.73 488.605 1123.62 503.605C1124 506.252 1124.38 508.899 1124.38 511.325C1125.52 523.017 1127.03 533.825 1129.69 544.634C1133.1 558.531 1138.78 568.899 1146.74 575.958C1151.67 580.37 1158.11 583.679 1164.93 585.443C1168.72 586.326 1172.14 586.987 1175.55 586.987C1177.44 586.987 1179.34 586.767 1180.85 586.546C1183.88 585.884 1186.16 585.002 1188.43 583.899C1190.33 583.017 1192.6 581.914 1195.26 581.252C1203.97 579.267 1218 581.473 1234.67 584.12C1246.42 585.884 1259.31 588.09 1272.95 588.973C1291.15 590.296 1303.65 587.208 1317.3 583.899C1322.23 582.576 1327.53 581.473 1333.22 580.37C1354.44 576.179 1366.95 575.296 1389.69 576.62C1410.16 577.502 1429.49 577.281 1447.68 575.737" fill="url(#paint18_linear)" fill-opacity="0.22"/>
<path opacity="0.7" d="M1447.68 598.899C1421.91 603.972 1391.59 604.855 1356.72 601.546C1334.73 599.34 1321.85 599.34 1297.97 603.972C1291.15 605.296 1285.46 606.84 1279.4 608.384C1266.13 611.914 1254.76 615.002 1236.95 614.12C1225.96 613.678 1215.34 612.575 1204.73 611.472C1182.75 609.267 1163.42 607.281 1151.29 611.693C1147.88 613.017 1145.23 614.561 1142.57 616.105C1139.92 617.87 1137.27 619.414 1133.48 620.517C1128.55 622.061 1122.11 622.281 1115.66 621.178C1107.7 620.075 1099.74 616.987 1093.68 613.017C1083.45 606.178 1075.87 596.031 1071.32 581.914C1066.39 568.016 1064.49 553.678 1063.36 540.002C1061.08 515.737 1060.33 493.016 1061.46 472.281C1062.22 458.604 1064.12 445.369 1066.01 432.575L1066.77 426.84C1068.66 412.501 1070.56 395.736 1069.42 378.972L1069.42 378.531C1068.66 368.825 1067.91 356.913 1052.37 349.633C1042.89 345.222 1031.14 343.457 1019.39 343.457C1004.99 343.457 990.208 346.104 978.837 349.854C970.878 352.501 963.677 356.03 956.854 359.339C949.274 362.869 941.694 366.619 932.976 369.486C928.807 370.81 925.017 371.913 921.606 372.575C917.058 373.678 912.51 374.56 907.961 375.663C900.76 377.207 894.317 378.531 887.495 380.736C871.955 385.81 858.31 395.295 845.045 404.56C835.948 410.957 826.473 417.575 816.619 422.648C811.691 425.075 806.764 427.281 801.458 428.825C786.297 433.678 771.516 435.001 754.081 436.545C748.017 436.987 741.195 437.648 734.372 438.31C725.655 439.193 717.317 440.516 708.599 441.84C701.398 442.943 693.439 444.045 685.858 444.928C652.126 448.898 621.426 448.678 592.999 447.795L591.104 447.795C582.766 447.575 574.428 447.354 565.71 447.575C551.687 448.237 540.695 450.222 531.22 454.193C516.059 460.369 506.205 471.178 497.108 481.546C495.971 483.09 494.455 484.413 493.318 485.957C486.875 493.678 480.053 501.84 472.472 508.899C455.038 525.443 434.192 536.252 417.894 543.972C397.806 553.458 378.856 561.178 350.05 561.178L349.671 561.178C329.962 561.178 311.012 556.766 292.819 552.355C277.279 548.605 261.361 544.855 245.442 543.972C219.669 542.428 193.517 546.84 176.082 555.884C154.099 567.134 151.446 583.678 148.793 599.781C147.277 608.825 145.761 618.311 140.455 626.693L143.866 626.693C148.793 618.311 150.309 609.046 151.825 599.781C154.478 583.237 157.131 567.575 178.356 556.766C195.412 547.943 220.806 543.752 246.2 545.075C262.119 545.958 277.658 549.708 293.198 553.458C311.77 557.869 331.1 562.502 351.187 562.502C383.025 562.502 404.629 552.355 420.547 544.855C436.845 537.134 457.691 526.325 475.505 509.56C483.085 502.281 489.907 494.34 496.35 486.619C497.487 485.075 499.004 483.751 500.141 482.207C508.858 471.84 518.712 461.251 533.494 455.295C542.59 451.545 553.203 449.56 566.847 448.898C575.186 448.457 583.524 448.678 591.862 449.119L594.136 449.119C622.563 450.001 653.642 450.222 687.753 446.251C695.334 445.369 702.914 444.266 710.494 443.163C718.833 441.84 727.55 440.516 735.888 439.634C742.711 438.972 749.154 438.31 755.218 437.869C772.653 436.325 787.813 435.001 803.353 430.148C808.659 428.384 813.966 426.398 818.893 423.751C829.126 418.457 838.223 411.839 847.698 405.442C860.584 396.178 874.229 386.692 889.39 381.839C895.833 379.633 902.655 378.31 909.477 376.986C914.026 376.104 918.574 375.222 923.122 373.898C926.533 373.016 930.323 372.133 934.872 370.589C943.589 367.722 951.169 363.972 958.75 360.222C965.951 356.692 972.773 353.383 980.732 350.736C1000.82 344.119 1031.9 341.03 1051.99 350.295C1066.77 357.133 1067.53 368.383 1068.29 378.089L1068.29 378.531C1069.42 395.075 1067.53 412.06 1065.63 426.178L1064.87 431.913C1062.98 444.707 1061.08 457.943 1060.33 471.619C1059.19 492.354 1059.57 515.075 1062.22 539.34C1063.74 553.016 1065.63 567.575 1070.18 581.472C1074.35 596.472 1081.93 606.84 1092.54 613.899C1098.99 618.09 1107.32 621.178 1115.66 622.502C1118.32 622.723 1120.97 622.943 1123.62 622.943C1127.79 622.943 1131.58 622.502 1134.61 621.399C1138.4 620.296 1141.44 618.531 1144.09 616.767C1146.74 615.222 1149.02 613.678 1152.43 612.575C1164.18 608.384 1182.75 610.37 1204.73 612.575C1215.34 613.678 1225.96 614.781 1236.95 615.222C1255.14 616.325 1267.27 613.017 1280.53 609.708C1286.22 608.164 1291.9 606.62 1298.73 605.296C1321.85 600.664 1333.97 600.664 1356.34 602.87C1391.21 606.178 1421.53 605.296 1447.68 600.222" fill="url(#paint19_linear)" fill-opacity="0.22"/>
<path opacity="0.7" d="M201.854 627.355C202.612 622.281 202.612 617.208 202.612 612.355C202.612 595.59 202.991 578.163 223.079 566.031C237.482 557.428 259.464 552.355 283.342 552.796C299.64 553.016 315.559 555.884 332.614 558.752C348.154 561.619 364.452 564.487 380.75 564.928C408.797 565.81 430.78 560.737 450.109 555.002C475.503 547.722 493.696 538.678 508.099 526.546C516.437 519.487 523.638 511.104 530.082 503.163L531.219 501.84C539.557 491.913 548.274 482.428 560.403 476.692C568.741 472.722 578.217 470.516 589.966 469.634C598.304 468.972 606.643 469.192 614.602 469.634C623.32 470.075 631.658 470.737 639.617 471.178C660.084 472.722 679.793 474.045 700.639 472.501C714.662 471.619 728.307 469.413 741.193 467.207L744.605 466.545C769.241 462.575 787.054 459.266 804.11 451.545C808.658 449.56 812.827 447.134 816.997 444.486C825.335 438.972 833.294 432.354 840.496 425.957C851.108 417.133 861.72 407.869 874.228 401.913C881.429 398.604 888.63 396.177 896.969 393.31C898.864 392.648 900.759 391.986 903.033 391.324L904.928 390.663C907.581 389.78 910.234 388.898 913.267 387.795C918.952 385.81 924.258 383.383 929.564 381.177C938.661 377.207 947.378 373.677 956.853 371.03C976.941 365.736 1004.99 364.854 1021.67 374.339C1035.31 382.06 1035.31 393.53 1033.41 405.663C1031.14 423.31 1025.46 441.178 1020.15 457.501L1018.25 463.016C1013.33 476.913 1008.4 491.472 1004.99 506.251C999.303 530.296 997.029 553.899 998.924 576.84C1000.44 593.605 1003.47 607.281 1009.16 619.855C1010.29 622.502 1011.43 624.928 1012.95 627.134L1015.6 627.134C1014.08 624.708 1012.95 622.281 1011.43 619.634C1005.75 607.281 1002.71 593.605 1001.2 576.84C999.303 554.119 1001.2 530.516 1007.26 506.472C1010.67 491.692 1015.98 477.134 1020.53 463.236L1022.42 457.722C1028.11 441.178 1033.79 423.53 1036.07 405.663C1037.2 395.736 1039.1 382.06 1023.56 373.236C1014.08 367.942 1001.2 365.736 987.933 365.736C976.941 365.736 965.571 367.28 956.095 369.707C946.241 372.354 937.145 376.104 928.427 379.854C923.121 382.06 917.815 384.266 912.509 386.472C909.476 387.574 906.823 388.457 904.17 389.339L902.275 390.001C900.38 390.663 898.106 391.324 896.211 391.986C888.251 394.633 880.292 397.28 873.091 400.81C860.583 406.766 849.592 416.03 838.979 425.075C831.399 431.472 823.819 438.089 815.48 443.383C811.69 446.031 807.521 448.236 802.973 450.222C786.296 457.942 768.862 461.031 744.225 465.001L740.814 465.663C727.549 467.869 714.283 470.075 700.639 470.957C679.793 472.281 660.463 470.957 639.996 469.634C631.658 468.972 623.32 468.531 614.981 468.089C607.022 467.648 598.684 467.428 589.966 468.089C577.838 468.972 567.604 471.398 559.266 475.369C546.379 481.325 538.041 490.81 529.324 500.957L528.187 502.281C521.364 510.222 514.542 518.604 506.204 525.443C492.18 537.354 473.987 546.178 448.972 553.457C429.643 559.193 408.039 564.266 380.37 563.163C364.073 562.722 348.154 559.855 332.614 556.987C316.317 554.119 299.261 551.031 282.964 550.81C258.706 550.59 235.966 555.663 221.184 564.487C200.717 577.06 200.338 594.708 200.338 611.693C200.338 616.767 200.338 621.84 199.58 626.693L201.854 626.693L201.854 627.355Z" fill="url(#paint20_linear)" fill-opacity="0.22"/>
<path opacity="0.7" d="M251.506 627.355L253.78 627.355C253.78 626.252 253.401 625.149 253.401 624.046C251.127 606.178 248.853 587.649 267.424 574.193C279.174 565.59 298.125 560.296 320.108 559.193C338.679 558.31 359.146 560.737 378.476 563.163C389.088 564.487 399.701 565.81 410.313 566.472C433.812 568.237 456.553 567.575 480.052 564.266C506.583 560.516 526.292 553.678 541.074 542.869C550.17 536.251 556.992 527.869 563.057 520.59C570.258 511.987 577.459 503.163 588.072 497.207C595.652 493.016 603.99 490.369 614.224 489.266C620.667 488.604 627.868 488.384 636.207 489.045C647.198 489.928 658.569 491.692 669.181 493.237C683.963 495.663 699.123 498.09 715.042 497.869C727.549 497.869 740.436 496.104 755.218 492.795C776.063 488.163 793.119 481.545 806.764 472.281C810.175 469.854 813.586 467.428 816.618 464.781C823.44 458.825 829.505 452.207 835.19 445.81C843.149 437.207 851.109 428.383 860.584 421.545C867.027 416.913 874.229 412.722 884.083 408.089C886.736 406.766 889.768 405.442 892.8 404.339C905.687 398.825 919.331 393.31 933.734 390.663C952.306 387.133 977.321 387.354 992.481 397.722C1005.37 406.766 1003.85 419.56 1000.06 432.354C994.377 451.766 984.901 470.737 975.805 488.384L973.531 493.016C965.571 508.457 957.233 524.34 950.79 540.443C940.177 566.472 935.629 591.178 937.145 613.678C937.524 618.531 938.282 622.943 939.04 627.355L941.314 627.355C940.556 622.943 940.177 618.531 939.798 613.899C938.282 591.399 942.83 566.913 953.443 540.884C959.886 524.781 968.224 508.898 976.184 493.457L978.458 488.825C987.554 470.957 997.03 451.987 1002.71 432.575C1006.51 419.781 1008.02 406.545 994.756 397.06C984.901 390.222 970.499 387.575 956.475 387.575C948.516 387.575 940.556 388.457 933.734 389.78C918.952 392.427 904.929 398.163 892.042 403.457C889.389 404.56 886.357 405.883 883.325 407.207C873.092 412.06 865.89 416.251 859.447 420.883C849.593 427.942 841.633 436.766 833.674 445.369C827.989 451.766 821.924 458.384 815.102 464.119C812.07 466.766 808.659 469.192 805.248 471.619C791.603 480.442 774.926 487.06 754.46 491.692C739.678 495.001 727.17 496.545 715.042 496.766C699.502 496.766 684.342 494.56 669.56 492.134C658.948 490.369 647.577 488.604 636.207 487.942C627.489 487.281 620.288 487.501 613.466 488.163C602.853 489.266 594.136 492.134 586.556 496.325C575.564 502.281 568.363 511.325 560.783 520.148C554.718 527.428 547.896 535.59 538.8 541.987C524.776 552.354 505.067 559.193 479.294 562.943C455.795 566.252 433.433 566.913 410.313 565.149C400.08 564.487 389.088 563.163 378.855 561.84C359.146 559.413 339.058 556.987 319.729 557.869C296.988 558.972 277.658 564.487 265.529 573.31C246.579 587.207 248.853 605.958 250.748 624.046C251.127 625.149 251.127 626.252 251.506 627.355Z" fill="url(#paint21_linear)" fill-opacity="0.22"/>
<path opacity="0.7" d="M301.916 627.355C298.505 611.252 297.368 595.149 311.392 582.575C331.479 564.707 374.687 559.634 439.499 568.016C487.634 574.193 541.454 579.046 573.291 558.972C583.146 552.796 589.589 544.854 596.032 536.913C606.266 524.34 616.12 512.648 637.345 509.119C655.159 506.251 671.836 510.884 689.649 515.737C702.157 519.046 715.043 522.575 728.309 523.457C768.485 525.884 800.322 504.487 815.482 485.075C820.41 478.678 824.958 472.06 829.127 465.663C838.223 451.325 847.699 436.545 865.513 425.075C880.673 415.148 906.067 408.972 928.05 409.854C939.042 410.295 953.823 412.722 963.299 421.104C975.806 432.134 971.637 447.134 966.331 458.825C956.476 481.766 941.316 504.266 926.913 526.104C916.301 541.987 905.688 558.31 896.592 574.634C886.358 593.384 879.915 610.811 876.883 627.134L879.157 627.134C882.189 611.031 888.633 593.605 898.866 574.855C907.583 558.531 918.575 542.207 929.187 526.325C943.59 504.487 958.75 481.987 968.984 458.825C974.29 446.913 978.459 431.692 965.573 420.222C957.613 413.163 944.727 408.972 928.429 408.31C926.913 408.31 925.397 408.31 923.881 408.31C902.277 408.31 878.778 414.486 863.997 423.972C846.183 435.663 836.707 450.663 827.232 465.001C823.063 471.398 818.894 478.237 813.966 484.413C799.185 503.384 767.727 524.56 728.688 521.913C715.801 521.031 702.915 517.722 690.786 514.193C673.352 509.34 655.538 504.487 636.966 507.575C614.604 511.104 604.75 523.237 594.137 536.031C587.694 543.751 581.251 551.693 571.775 557.649C540.696 577.06 487.634 572.428 439.878 566.251C374.308 557.869 330.342 562.943 309.875 581.472C295.473 594.266 296.61 610.59 300.021 626.913L301.916 626.913L301.916 627.355Z" fill="url(#paint22_linear)" fill-opacity="0.22"/>
<path d="M1433.66 77.2066C1398.03 66.1771 1361.64 54.7065 1321.09 53.1624C1266.89 50.9565 1216.86 66.6183 1168.72 81.839L1158.49 84.9272C1108.46 100.368 1050.47 115.148 995.514 105.221C977.321 101.913 967.846 90.2214 957.992 77.6478C950.79 68.6036 943.21 59.1183 931.84 53.1624C912.51 43.2359 884.842 37.0594 860.585 31.7652C851.109 29.7799 842.013 27.7947 834.054 25.5888C785.54 13.0152 723.76 0.000431388 660.843 0.00043458C617.257 0.000436792 573.291 6.39747 532.736 23.6034C513.406 31.7652 496.351 42.3535 480.053 52.5006C456.933 66.8389 433.055 81.6184 402.355 89.7802C334.89 107.648 264.393 90.0008 189.727 71.0301C121.125 53.6036 50.2493 35.7359 -18.3527 48.7507C-89.6075 62.2066 -130.162 104.78 -165.79 142.501C-168.443 145.369 -171.096 148.236 -174.128 151.104C-208.619 187.06 -264.334 228.972 -337.863 230.737L-337.863 233.163C-262.439 231.398 -205.586 189.045 -170.338 152.428C-167.685 149.56 -165.032 146.692 -162 143.825C-124.856 104.78 -86.5754 64.4125 -16.8365 51.1771C49.8702 38.6035 120.367 56.2507 188.211 73.4566C260.224 91.7655 334.89 110.516 404.25 92.2067C435.708 83.8243 459.965 68.8243 483.464 54.2654C499.762 44.1183 516.438 33.7505 535.389 25.8093C632.796 -15.6614 751.428 7.27982 832.537 28.0152C840.876 30.2211 849.593 32.2064 859.448 34.1917C883.326 39.4859 910.615 45.4418 929.565 55.1477C940.178 60.6624 947.758 69.9272 954.96 78.7507C964.814 91.1037 975.047 104.118 995.135 107.648C1008.02 109.854 1020.91 110.957 1033.79 110.957C1077.76 110.957 1122.11 99.2655 1161.14 87.1331L1171.38 84.0448C1219.13 69.0448 1268.41 53.6035 1321.47 55.5888C1360.89 57.1329 1397.27 68.383 1432.52 79.4125" fill="url(#paint23_linear)" fill-opacity="0.22"/>
<path d="M1447.68 184.412C1439.34 182.427 1431 180.883 1422.66 179.118C1379.08 170.515 1333.59 161.912 1286.6 161.471C1285.84 161.471 1285.08 161.471 1284.7 161.471C1232.78 161.471 1186.91 173.162 1161.52 192.795C1155.46 197.427 1150.15 202.721 1145.22 207.795C1132.72 220.368 1120.97 232.28 1098.98 236.03C1079.27 239.56 1059.57 234.707 1039.1 229.633C1027.35 226.765 1015.22 223.677 1002.71 222.354C964.053 218.162 928.426 229.854 893.557 241.104C860.582 251.692 826.85 262.721 790.843 260.295C767.344 258.53 746.119 251.251 725.274 243.971C704.807 236.692 683.203 229.192 659.325 227.427C612.327 223.677 572.909 241.545 535.008 258.53C501.654 273.53 467.164 289.192 426.609 290.957C411.449 291.618 395.909 290.295 380.748 288.751C359.144 286.766 336.782 284.78 315.558 288.751C282.204 295.148 261.737 314.56 247.714 330.663C209.812 374.119 186.313 422.869 179.112 471.398C174.185 504.707 164.709 541.105 115.816 548.384C77.1567 554.119 47.5935 537.134 16.5142 519.266C-2.43655 508.457 -22.1454 497.207 -44.5073 490.59C-86.1991 478.457 -137.745 483.972 -175.268 487.943C-236.668 494.34 -304.133 504.046 -332.938 536.031C-334.454 537.796 -335.97 539.56 -337.107 541.105L-337.107 548.825C-335.212 544.855 -332.559 540.884 -329.148 537.134C-301.48 506.031 -234.773 496.766 -174.51 490.369C-126.375 485.296 -83.9249 481.987 -46.4024 492.796C-24.4195 499.193 -5.08963 510.222 13.4821 521.031C45.6984 539.34 76.0196 556.766 116.953 550.811C168.499 543.09 178.354 506.031 183.66 471.619C190.861 423.31 214.36 375.001 251.883 331.766C265.528 315.883 285.236 297.133 317.453 290.957C337.92 287.207 358.765 288.971 380.748 290.957C395.909 292.28 411.828 293.824 427.367 293.163C469.059 291.398 503.928 275.516 538.04 260.295C577.078 242.648 613.843 226.104 659.325 229.633C682.445 231.398 703.67 238.898 723.757 245.957C744.603 253.236 766.207 260.957 790.843 262.721C827.987 265.368 862.856 254.118 896.21 243.31C931.837 231.618 965.569 220.809 1002.71 224.78C1014.84 226.104 1026.59 228.971 1038.34 231.839C1058.81 236.912 1079.65 241.986 1100.88 238.236C1124.38 234.045 1137.26 221.251 1149.77 208.898C1154.7 203.824 1160 198.53 1165.69 194.118C1190.7 174.706 1236.19 163.456 1287.35 163.677C1333.97 163.898 1378.7 172.721 1422.28 181.103C1431 182.868 1439.72 184.633 1448.81 186.618" fill="url(#paint24_linear)" fill-opacity="0.22"/>
<path d="M303.051 627.355C299.64 611.252 298.503 595.37 312.527 583.017C332.614 565.37 375.064 560.517 439.497 568.679C488.011 574.855 542.21 579.708 574.426 559.414C584.281 553.237 591.103 545.076 597.546 537.355C607.78 525.002 617.255 513.311 638.101 509.781C655.536 506.914 672.212 511.546 689.647 516.399C702.155 519.928 715.041 523.458 728.686 524.12C769.24 526.767 801.836 504.928 816.996 485.516C821.923 479.119 826.472 472.502 830.641 465.884C839.737 451.546 849.213 436.766 866.647 425.516C881.808 415.59 906.444 409.634 928.427 410.516C939.039 410.957 953.821 413.163 962.917 421.546C975.046 432.355 970.877 447.134 965.949 458.825C956.095 481.766 940.934 504.267 926.532 526.105C915.919 541.987 905.307 558.311 896.211 574.634C885.977 593.385 879.534 611.032 876.502 627.355L880.671 627.355C883.703 611.252 890.146 594.046 900.38 575.296C909.097 558.973 920.089 542.649 930.701 526.987C945.104 505.149 960.264 482.649 970.498 459.487C975.804 447.355 979.973 431.913 967.086 420.222C958.748 412.943 945.862 408.752 929.185 408.09C927.669 408.09 926.153 408.09 924.637 408.09C902.654 408.09 878.776 414.266 863.994 423.972C846.18 435.663 836.326 450.663 827.23 465.222C823.061 471.619 818.891 478.237 813.964 484.634C799.183 503.384 768.482 524.34 729.823 521.914C716.936 521.031 704.429 517.722 692.3 514.414C674.865 509.561 656.673 504.708 637.722 507.796C614.981 511.546 604.369 524.34 594.514 536.693C588.071 544.414 581.628 552.355 572.152 558.311C541.452 577.502 488.39 572.87 441.392 566.693C375.443 558.311 331.098 563.384 310.252 582.134C295.471 595.149 296.608 611.473 300.019 627.796L303.051 627.796L303.051 627.355Z" fill="url(#paint25_linear)" fill-opacity="0.22"/>
<defs>
<linearGradient id="paint0_linear" x1="547.137" y1="232.5" x2="547.137" y2="0.661314" gradientUnits="userSpaceOnUse">
<stop stop-color="#0DA6F2"/>
<stop offset="1" stop-color="#D1492D"/>
</linearGradient>
<linearGradient id="paint1_linear" x1="556.045" y1="260.547" x2="556.045" y2="21.1765" gradientUnits="userSpaceOnUse">
<stop stop-color="#0DA6F2"/>
<stop offset="1" stop-color="#D1492D"/>
</linearGradient>
<linearGradient id="paint2_linear" x1="554.34" y1="324.707" x2="554.34" y2="42.3528" gradientUnits="userSpaceOnUse">
<stop stop-color="#0DA6F2"/>
<stop offset="1" stop-color="#D1492D"/>
</linearGradient>
<linearGradient id="paint3_linear" x1="555.098" y1="372.575" x2="555.098" y2="62.8676" gradientUnits="userSpaceOnUse">
<stop stop-color="#0DA6F2"/>
<stop offset="1" stop-color="#D1492D"/>
</linearGradient>
<linearGradient id="paint4_linear" x1="554.908" y1="394.855" x2="554.908" y2="83.6036" gradientUnits="userSpaceOnUse">
<stop stop-color="#0DA6F2"/>
<stop offset="1" stop-color="#D1492D"/>
</linearGradient>
<linearGradient id="paint5_linear" x1="554.719" y1="410.738" x2="554.719" y2="104.559" gradientUnits="userSpaceOnUse">
<stop stop-color="#0DA6F2"/>
<stop offset="1" stop-color="#D1492D"/>
</linearGradient>
<linearGradient id="paint6_linear" x1="555.098" y1="425.866" x2="555.098" y2="124.413" gradientUnits="userSpaceOnUse">
<stop stop-color="#0DA6F2"/>
<stop offset="1" stop-color="#D1492D"/>
</linearGradient>
<linearGradient id="paint7_linear" x1="555.666" y1="445.818" x2="555.666" y2="138.309" gradientUnits="userSpaceOnUse">
<stop stop-color="#0DA6F2"/>
<stop offset="1" stop-color="#D1492D"/>
</linearGradient>
<linearGradient id="paint8_linear" x1="555.098" y1="469.683" x2="555.098" y2="145.368" gradientUnits="userSpaceOnUse">
<stop stop-color="#0DA6F2"/>
<stop offset="1" stop-color="#D1492D"/>
</linearGradient>
<linearGradient id="paint9_linear" x1="554.719" y1="496.302" x2="554.719" y2="151.103" gradientUnits="userSpaceOnUse">
<stop stop-color="#0DA6F2"/>
<stop offset="1" stop-color="#D1492D"/>
</linearGradient>
<linearGradient id="paint10_linear" x1="551.308" y1="523.948" x2="551.308" y2="156.838" gradientUnits="userSpaceOnUse">
<stop stop-color="#0DA6F2"/>
<stop offset="1" stop-color="#D1492D"/>
</linearGradient>
<linearGradient id="paint11_linear" x1="555.474" y1="551.349" x2="555.474" y2="162.353" gradientUnits="userSpaceOnUse">
<stop stop-color="#0DA6F2"/>
<stop offset="1" stop-color="#D1492D"/>
</linearGradient>
<linearGradient id="paint12_linear" x1="571.135" y1="627.356" x2="571.135" y2="185.736" gradientUnits="userSpaceOnUse">
<stop stop-color="#0DA6F2"/>
<stop offset="1" stop-color="#D1492D"/>
</linearGradient>
<linearGradient id="paint13_linear" x1="589.877" y1="627.135" x2="589.877" y2="208.236" gradientUnits="userSpaceOnUse">
<stop stop-color="#0DA6F2"/>
<stop offset="1" stop-color="#D1492D"/>
</linearGradient>
<linearGradient id="paint14_linear" x1="616.498" y1="626.693" x2="616.498" y2="230.736" gradientUnits="userSpaceOnUse">
<stop stop-color="#0DA6F2"/>
<stop offset="1" stop-color="#D1492D"/>
</linearGradient>
<linearGradient id="paint15_linear" x1="632.038" y1="627.355" x2="632.038" y2="254.339" gradientUnits="userSpaceOnUse">
<stop stop-color="#0DA6F2"/>
<stop offset="1" stop-color="#D1492D"/>
</linearGradient>
<linearGradient id="paint16_linear" x1="668.613" y1="626.693" x2="668.613" y2="276.398" gradientUnits="userSpaceOnUse">
<stop stop-color="#0DA6F2"/>
<stop offset="1" stop-color="#D1492D"/>
</linearGradient>
<linearGradient id="paint17_linear" x1="712.389" y1="626.914" x2="712.389" y2="299.119" gradientUnits="userSpaceOnUse">
<stop stop-color="#0DA6F2"/>
<stop offset="1" stop-color="#D1492D"/>
</linearGradient>
<linearGradient id="paint18_linear" x1="759.387" y1="627.796" x2="759.387" y2="321.839" gradientUnits="userSpaceOnUse">
<stop stop-color="#0DA6F2"/>
<stop offset="1" stop-color="#D1492D"/>
</linearGradient>
<linearGradient id="paint19_linear" x1="794.067" y1="626.693" x2="794.067" y2="343.457" gradientUnits="userSpaceOnUse">
<stop stop-color="#0DA6F2"/>
<stop offset="1" stop-color="#D1492D"/>
</linearGradient>
<linearGradient id="paint20_linear" x1="618.192" y1="627.355" x2="618.192" y2="365.736" gradientUnits="userSpaceOnUse">
<stop stop-color="#0DA6F2"/>
<stop offset="1" stop-color="#D1492D"/>
</linearGradient>
<linearGradient id="paint21_linear" x1="627.445" y1="627.355" x2="627.445" y2="387.574" gradientUnits="userSpaceOnUse">
<stop stop-color="#0DA6F2"/>
<stop offset="1" stop-color="#D1492D"/>
</linearGradient>
<linearGradient id="paint22_linear" x1="635.972" y1="627.355" x2="635.972" y2="408.31" gradientUnits="userSpaceOnUse">
<stop stop-color="#0DA6F2"/>
<stop offset="1" stop-color="#D1492D"/>
</linearGradient>
<linearGradient id="paint23_linear" x1="547.897" y1="233.163" x2="547.897" y2="0.000425052" gradientUnits="userSpaceOnUse">
<stop stop-color="#0DA6F2"/>
<stop offset="1" stop-color="#D1492D"/>
</linearGradient>
<linearGradient id="paint24_linear" x1="555.854" y1="552" x2="555.854" y2="161.471" gradientUnits="userSpaceOnUse">
<stop stop-color="#0DA6F2"/>
<stop offset="1" stop-color="#D1492D"/>
</linearGradient>
<linearGradient id="paint25_linear" x1="636.736" y1="627.796" x2="636.736" y2="408.09" gradientUnits="userSpaceOnUse">
<stop stop-color="#0DA6F2"/>
<stop offset="1" stop-color="#D1492D"/>
</linearGradient>
</defs>
</svg>
