<svg width="231" height="253" viewBox="0 0 231 253" fill="none" xmlns="http://www.w3.org/2000/svg">
<path d="M283 123.818C367.951 123.818 436.818 54.9513 436.818 -30.0002C436.818 -114.952 367.951 -183.818 283 -183.818C198.048 -183.818 129.182 -114.952 129.182 -30.0002C129.182 54.9513 198.048 123.818 283 123.818Z" stroke="url(#paint0_linear)" stroke-width="2" stroke-miterlimit="10"/>
<path opacity="0.9" d="M282.999 -202.13C305.978 -202.13 326.795 -192.105 346.768 -183.819C367.439 -175.24 389.134 -167.295 404.719 -151.713C420.303 -136.131 428.25 -114.457 436.83 -93.7731C445.118 -73.8045 455.129 -52.991 455.129 -30.0327C455.129 -7.07451 445.118 13.7552 436.83 33.7239C428.25 54.3912 420.303 76.0821 404.719 91.6638C389.134 107.245 367.439 115.191 346.768 123.835C326.795 132.121 305.978 142.13 282.999 142.13C260.02 142.13 239.219 132.121 219.247 123.835C198.559 115.256 176.864 107.31 161.296 91.7287C145.727 76.147 137.764 54.4562 129.184 33.7889C120.896 13.8203 110.869 -6.99328 110.869 -29.9678C110.869 -52.9422 120.896 -73.7395 129.184 -93.7081C137.764 -114.392 145.711 -136.083 161.296 -151.648C176.88 -167.213 198.559 -175.175 219.247 -183.754C239.219 -192.105 260.036 -202.13 282.999 -202.13Z" stroke="url(#paint1_linear)" stroke-width="2" stroke-miterlimit="10"/>
<path opacity="0.8" d="M282.986 -220.441C308.063 -220.441 329.792 -204.565 351.586 -195.513C374.16 -186.152 400.634 -181.684 417.65 -164.637C434.666 -147.59 439.136 -121.15 448.529 -98.5777C457.565 -76.7855 473.444 -55.0584 473.444 -29.9998C473.444 -4.94132 457.565 16.802 448.529 38.5942C439.168 61.1664 434.683 87.6387 417.65 104.653C400.618 121.668 374.176 126.137 351.602 135.529C329.808 144.565 308.079 160.442 283.002 160.442C257.925 160.442 236.212 144.565 214.402 135.529C191.844 126.169 165.37 121.684 148.354 104.653C131.338 87.6224 126.869 61.1826 117.475 38.6105C108.439 16.7696 92.5605 -4.95758 92.5605 -30.0324C92.5605 -55.1071 108.439 -76.818 117.491 -98.6264C126.852 -121.182 131.322 -147.655 148.37 -164.669C165.419 -181.684 191.861 -186.153 214.435 -195.545C236.196 -204.565 257.925 -220.441 282.986 -220.441Z" stroke="url(#paint2_linear)" stroke-width="2" stroke-miterlimit="10"/>
<path opacity="0.7" d="M282.999 -238.753C310.162 -238.753 332.822 -217.003 356.442 -207.217C380.825 -197.058 412.182 -196.05 430.616 -177.6C449.049 -159.15 450.122 -127.89 460.217 -103.442C469.97 -79.8066 491.753 -57.1626 491.753 -29.9997C491.753 -2.83669 470.019 19.8235 460.217 43.4427C450.073 67.826 449.049 99.1828 430.616 117.617C412.182 136.05 380.906 137.123 356.442 147.218C332.822 156.971 310.162 178.754 282.999 178.754C255.836 178.754 233.192 157.02 209.557 147.218C185.092 137.074 153.833 136.05 135.383 117.617C116.933 99.1828 115.876 67.9073 105.782 43.4427C96.0285 19.8235 74.2461 -2.83669 74.2461 -29.9997C74.2461 -57.1626 95.996 -79.8066 105.782 -103.442C115.941 -127.907 116.949 -159.166 135.399 -177.616C153.849 -196.066 185.109 -197.123 209.557 -207.217C233.192 -217.003 255.836 -238.753 282.999 -238.753Z" stroke="url(#paint3_linear)" stroke-width="2" stroke-miterlimit="10"/>
<path opacity="0.6" d="M282.974 -257.065C312.234 -257.065 335.805 -229.431 361.244 -218.913C387.595 -207.973 423.665 -210.428 443.53 -190.564C463.394 -170.699 460.939 -134.645 471.863 -108.295C482.429 -82.8385 510.063 -59.2843 510.063 -30.0244C510.063 -0.764465 482.429 22.806 471.896 48.2459C460.972 74.596 463.426 110.667 443.562 130.531C423.698 150.395 387.627 147.941 361.277 158.865C335.805 169.431 312.234 197.065 282.974 197.065C253.714 197.065 230.16 169.431 204.704 158.897C178.354 147.973 142.299 150.428 122.435 130.564C102.571 110.699 105.025 74.596 94.0853 48.2459C83.5354 22.806 55.9336 -0.764465 55.9336 -30.0244C55.9336 -59.2843 83.5679 -82.8385 94.0853 -108.295C105.025 -134.645 102.571 -170.699 122.435 -190.564C142.299 -210.428 178.354 -207.973 204.704 -218.913C230.16 -229.463 253.714 -257.065 282.974 -257.065Z" stroke="url(#paint4_linear)" stroke-miterlimit="10"/>
<path opacity="0.5" d="M282.993 -275.376C314.356 -275.376 338.84 -241.917 366.105 -230.601C394.362 -218.879 435.219 -224.797 456.501 -203.515C477.783 -182.233 471.881 -141.36 483.587 -113.12C494.968 -85.8386 528.378 -61.37 528.378 -30.008C528.378 1.35406 494.903 25.8389 483.587 53.1039C471.881 81.3606 477.799 122.217 456.501 143.499C435.203 164.781 394.362 158.88 366.105 170.585C338.84 181.966 314.356 215.377 282.993 215.377C251.631 215.377 227.228 181.901 199.882 170.585C171.641 158.88 130.784 164.798 109.486 143.499C88.1879 122.201 94.1222 81.3606 82.4 53.1039C71.0193 25.8389 37.625 1.35406 37.625 -30.008C37.625 -61.37 71.1494 -85.7736 82.4 -113.12C94.1222 -141.36 88.2042 -182.217 109.486 -203.515C130.768 -224.814 171.641 -218.879 199.882 -230.601C227.228 -241.852 251.615 -275.376 282.993 -275.376Z" stroke="url(#paint5_linear)" stroke-miterlimit="10"/>
<path opacity="0.4" d="M282.976 -293.688C316.436 -293.688 341.832 -254.359 370.919 -242.295C401.062 -229.793 446.699 -239.174 469.461 -216.461C492.223 -193.748 482.793 -148.175 495.296 -117.967C507.36 -88.864 546.689 -63.4683 546.689 -30.0245C546.689 3.41917 507.36 28.8312 495.296 57.9176C482.761 88.0609 492.223 133.698 469.461 156.46C446.699 179.222 401.094 169.792 370.951 182.295C341.865 194.359 316.469 233.688 283.009 233.688C249.549 233.688 224.169 194.359 195.067 182.295C164.891 169.76 119.253 179.222 96.5403 156.46C73.8272 133.698 83.2084 88.0934 70.7056 57.9501C58.6418 28.8637 19.3125 3.46795 19.3125 -29.992C19.3125 -63.452 58.6418 -88.8315 70.7056 -117.934C83.2084 -148.077 73.8272 -193.715 96.5403 -216.428C119.253 -239.141 164.826 -229.76 195.034 -242.263C224.137 -254.359 249.533 -293.688 282.976 -293.688Z" stroke="url(#paint6_linear)" stroke-miterlimit="10"/>
<path opacity="0.3" d="M282.992 -312C318.554 -312 344.782 -266.812 375.775 -253.982C407.825 -240.697 458.249 -253.559 482.396 -229.412C506.543 -205.265 493.697 -154.825 506.982 -122.791C519.795 -91.8961 565 -65.5539 565 -30.0081C565 5.5376 519.795 31.7822 506.982 62.775C493.697 94.8247 506.543 145.249 482.396 169.396C458.249 193.543 407.825 180.697 375.775 193.982C344.88 206.795 318.554 252 282.992 252C247.43 252 221.201 206.795 190.209 193.982C158.175 180.697 107.735 193.543 83.5877 169.396C59.4407 145.249 72.3029 94.8247 59.0179 62.775C46.1883 31.8798 1 5.55386 1 -30.0081C1 -65.5701 46.1883 -91.7985 59.0179 -122.791C72.3029 -154.825 59.4407 -205.265 83.5877 -229.412C107.735 -253.559 158.175 -240.697 190.209 -253.982C221.136 -266.812 247.446 -312 282.992 -312Z" stroke="url(#paint7_linear)" stroke-miterlimit="10"/>
<defs>
<linearGradient id="paint0_linear" x1="127.557" y1="-30.0002" x2="438.443" y2="-30.0002" gradientUnits="userSpaceOnUse">
<stop stop-color="#F23C0E"/>
<stop offset="1" stop-color="#0DA6F2"/>
</linearGradient>
<linearGradient id="paint1_linear" x1="109.39" y1="-30.0328" x2="456.624" y2="-30.0328" gradientUnits="userSpaceOnUse">
<stop stop-color="#F23B0D"/>
<stop offset="1" stop-color="#0DA6F2"/>
</linearGradient>
<linearGradient id="paint2_linear" x1="91.2279" y1="-30.0324" x2="474.76" y2="-30.0324" gradientUnits="userSpaceOnUse">
<stop stop-color="#F23A0C"/>
<stop offset="1" stop-color="#0DA6F1"/>
</linearGradient>
<linearGradient id="paint3_linear" x1="73.0432" y1="-29.9997" x2="492.955" y2="-29.9997" gradientUnits="userSpaceOnUse">
<stop stop-color="#FF643E"/>
<stop offset="1" stop-color="#50C5FF"/>
</linearGradient>
<linearGradient id="paint4_linear" x1="54.877" y1="-30.0244" x2="511.088" y2="-30.0244" gradientUnits="userSpaceOnUse">
<stop stop-color="#B2776D"/>
<stop offset="1" stop-color="#2D4AFF"/>
</linearGradient>
<linearGradient id="paint5_linear" x1="36.7145" y1="-30.008" x2="529.289" y2="-30.008" gradientUnits="userSpaceOnUse">
<stop stop-color="#9F6C81"/>
<stop offset="1" stop-color="#2D4AFF"/>
</linearGradient>
<linearGradient id="paint6_linear" x1="18.5321" y1="-30.0245" x2="547.421" y2="-30.0245" gradientUnits="userSpaceOnUse">
<stop stop-color="#8C6194"/>
<stop offset="1" stop-color="#2D4AFF"/>
</linearGradient>
<linearGradient id="paint7_linear" x1="0.365835" y1="-30.0081" x2="565.634" y2="-30.0081" gradientUnits="userSpaceOnUse">
<stop stop-color="#7956A7"/>
<stop offset="1" stop-color="#2D4AFF"/>
</linearGradient>
</defs>
</svg>
