<svg width="244" height="240" viewBox="0 0 244 240" fill="none" xmlns="http://www.w3.org/2000/svg">
<path d="M-39.0002 436.818C45.9513 436.818 114.818 367.952 114.818 283C114.818 198.049 45.9513 129.182 -39.0002 129.182C-123.952 129.182 -192.818 198.049 -192.818 283C-192.818 367.952 -123.952 436.818 -39.0002 436.818Z" stroke="url(#paint0_linear)" stroke-width="2" stroke-miterlimit="10"/>
<path opacity="0.9" d="M-39.001 110.87C-16.0222 110.87 4.79528 120.895 24.7677 129.181C45.4389 137.76 67.1339 145.705 82.7185 161.287C98.3032 176.869 106.25 198.543 114.83 219.227C123.118 239.196 133.129 260.009 133.129 282.967C133.129 305.925 123.118 326.755 114.83 346.724C106.25 367.391 98.3032 389.082 82.7185 404.664C67.1339 420.245 45.4389 428.191 24.7677 436.835C4.79528 445.121 -16.0222 455.13 -39.001 455.13C-61.9798 455.13 -82.781 445.121 -102.753 436.835C-123.441 428.256 -145.136 420.31 -160.704 404.729C-176.273 389.147 -184.236 367.456 -192.816 346.789C-201.104 326.82 -211.131 306.007 -211.131 283.032C-211.131 260.058 -201.104 239.26 -192.816 219.292C-184.236 198.608 -176.289 176.917 -160.704 161.352C-145.12 145.787 -123.441 137.825 -102.753 129.246C-82.781 120.895 -61.9635 110.87 -39.001 110.87Z" stroke="url(#paint1_linear)" stroke-width="2" stroke-miterlimit="10"/>
<path opacity="0.8" d="M-39.0141 92.5586C-13.9372 92.5586 7.79177 108.435 29.5858 117.487C52.1599 126.848 78.6345 131.316 95.6504 148.363C112.666 165.41 117.136 191.85 126.529 214.422C135.565 236.214 151.444 257.942 151.444 283C151.444 308.059 135.565 329.802 126.529 351.594C117.168 374.166 112.683 400.639 95.6504 417.653C78.6182 434.668 52.1761 439.137 29.602 448.529C7.80804 457.565 -13.921 473.442 -38.9979 473.442C-64.0748 473.442 -85.7875 457.565 -107.598 448.529C-130.156 439.169 -156.63 434.684 -173.646 417.653C-190.662 400.622 -195.131 374.183 -204.525 351.61C-213.561 329.77 -229.439 308.042 -229.439 282.968C-229.439 257.893 -213.561 236.182 -204.509 214.374C-195.148 191.818 -190.678 165.345 -173.63 148.331C-156.581 131.316 -130.139 126.847 -107.565 117.455C-85.8038 108.435 -64.0748 92.5586 -39.0141 92.5586Z" stroke="url(#paint2_linear)" stroke-width="2" stroke-miterlimit="10"/>
<path opacity="0.7" d="M-39.0006 74.2471C-11.8377 74.2471 10.8225 95.9969 34.4418 105.783C58.825 115.942 90.1819 116.95 108.616 135.4C127.049 153.85 128.122 185.11 138.217 209.558C147.97 233.193 169.753 255.837 169.753 283C169.753 310.163 148.019 332.823 138.217 356.443C128.073 380.826 127.049 412.183 108.616 430.617C90.1819 449.05 58.9063 450.123 34.4418 460.218C10.8225 469.971 -11.8377 491.754 -39.0006 491.754C-66.1636 491.754 -88.8075 470.02 -112.443 460.218C-136.908 450.074 -168.167 449.05 -186.617 430.617C-205.067 412.183 -206.124 380.907 -216.218 356.443C-225.972 332.823 -247.754 310.163 -247.754 283C-247.754 255.837 -226.004 233.193 -216.218 209.558C-206.059 185.093 -205.051 153.834 -186.601 135.384C-168.151 116.934 -136.891 115.877 -112.443 105.783C-88.8075 95.9969 -66.1636 74.2471 -39.0006 74.2471Z" stroke="url(#paint3_linear)" stroke-width="2" stroke-miterlimit="10"/>
<path opacity="0.6" d="M-39.0258 55.9351C-9.76593 55.9351 13.8045 83.5694 39.2444 94.0867C65.5946 105.027 101.665 102.572 121.53 122.436C141.394 142.301 138.939 178.355 149.863 204.705C160.429 230.161 188.063 253.716 188.063 282.976C188.063 312.236 160.429 335.806 149.896 361.246C138.972 387.596 141.426 423.667 121.562 443.531C101.698 463.395 65.627 460.941 39.2769 471.865C13.8045 482.431 -9.76593 510.065 -39.0258 510.065C-68.2857 510.065 -91.84 482.431 -117.296 471.897C-143.646 460.973 -179.701 463.428 -199.565 443.564C-219.429 423.699 -216.975 387.596 -227.915 361.246C-238.465 335.806 -266.066 312.236 -266.066 282.976C-266.066 253.716 -238.432 230.161 -227.915 204.705C-216.975 178.355 -219.429 142.301 -199.565 122.436C-179.701 102.572 -143.646 105.027 -117.296 94.0867C-91.84 83.5369 -68.2857 55.9351 -39.0258 55.9351Z" stroke="url(#paint4_linear)" stroke-miterlimit="10"/>
<path opacity="0.5" d="M-39.0065 37.6235C-7.64448 37.6235 16.8404 71.0829 44.1053 82.3986C72.3621 94.1207 113.219 88.2027 134.501 109.485C155.783 130.767 149.881 171.64 161.587 199.88C172.968 227.161 206.378 251.63 206.378 282.992C206.378 314.354 172.903 338.839 161.587 366.104C149.881 394.361 155.799 435.217 134.501 456.499C113.203 477.781 72.3621 471.88 44.1053 483.585C16.8404 494.966 -7.64448 528.377 -39.0065 528.377C-70.3685 528.377 -94.7721 494.901 -122.118 483.585C-150.359 471.88 -191.216 477.798 -212.514 456.499C-233.812 435.201 -227.878 394.361 -239.6 366.104C-250.981 338.839 -284.375 314.354 -284.375 282.992C-284.375 251.63 -250.851 227.226 -239.6 199.88C-227.878 171.64 -233.796 130.783 -212.514 109.485C-191.232 88.1865 -150.359 94.1207 -122.118 82.3986C-94.7721 71.1479 -70.3848 37.6235 -39.0065 37.6235Z" stroke="url(#paint5_linear)" stroke-miterlimit="10"/>
<path opacity="0.4" d="M-39.0236 19.3115C-5.5636 19.3115 19.8322 58.6408 48.9186 70.7046C79.0619 83.2074 124.699 73.8262 147.461 96.5393C170.223 119.252 160.793 164.825 173.296 195.033C185.36 224.136 224.689 249.532 224.689 282.975C224.689 316.419 185.36 341.831 173.296 370.918C160.761 401.061 170.223 446.698 147.461 469.46C124.699 492.222 79.0944 482.792 48.9511 495.295C19.8647 507.359 -5.53107 546.688 -38.991 546.688C-72.451 546.688 -97.8305 507.359 -126.933 495.295C-157.109 482.76 -202.747 492.222 -225.46 469.46C-248.173 446.698 -238.792 401.093 -251.294 370.95C-263.358 341.864 -302.688 316.468 -302.688 283.008C-302.688 249.548 -263.358 224.168 -251.294 195.066C-238.792 164.923 -248.173 119.285 -225.46 96.5719C-202.747 73.8588 -157.174 83.2399 -126.966 70.7371C-97.863 58.6408 -72.4673 19.3115 -39.0236 19.3115Z" stroke="url(#paint6_linear)" stroke-miterlimit="10"/>
<path opacity="0.3" d="M-39.0081 1C-3.44614 1 22.7822 46.1883 53.775 59.0179C85.8247 72.3029 136.249 59.4407 160.396 83.5877C184.543 107.735 171.697 158.175 184.982 190.209C197.795 221.104 243 247.446 243 282.992C243 318.538 197.795 344.782 184.982 375.775C171.697 407.825 184.543 458.249 160.396 482.396C136.249 506.543 85.8247 493.697 53.775 506.982C22.8798 519.795 -3.44614 565 -39.0081 565C-74.5701 565 -100.799 519.795 -131.791 506.982C-163.825 493.697 -214.265 506.543 -238.412 482.396C-262.559 458.249 -249.697 407.825 -262.982 375.775C-275.812 344.88 -321 318.554 -321 282.992C-321 247.43 -275.812 221.201 -262.982 190.209C-249.697 158.175 -262.559 107.735 -238.412 83.5877C-214.265 59.4407 -163.825 72.3029 -131.791 59.0179C-100.864 46.1883 -74.5539 1 -39.0081 1Z" stroke="url(#paint7_linear)" stroke-miterlimit="10"/>
<defs>
<linearGradient id="paint0_linear" x1="-194.443" y1="283" x2="116.443" y2="283" gradientUnits="userSpaceOnUse">
<stop stop-color="#F23C0E"/>
<stop offset="1" stop-color="#0DA6F2"/>
</linearGradient>
<linearGradient id="paint1_linear" x1="-212.61" y1="282.967" x2="134.624" y2="282.967" gradientUnits="userSpaceOnUse">
<stop stop-color="#F23B0D"/>
<stop offset="1" stop-color="#0DA6F2"/>
</linearGradient>
<linearGradient id="paint2_linear" x1="-230.772" y1="282.968" x2="152.76" y2="282.968" gradientUnits="userSpaceOnUse">
<stop stop-color="#F23A0C"/>
<stop offset="1" stop-color="#0DA6F1"/>
</linearGradient>
<linearGradient id="paint3_linear" x1="-248.957" y1="283" x2="170.955" y2="283" gradientUnits="userSpaceOnUse">
<stop stop-color="#FF643E"/>
<stop offset="1" stop-color="#50C5FF"/>
</linearGradient>
<linearGradient id="paint4_linear" x1="-267.123" y1="282.976" x2="189.088" y2="282.976" gradientUnits="userSpaceOnUse">
<stop stop-color="#B2776D"/>
<stop offset="1" stop-color="#2D4AFF"/>
</linearGradient>
<linearGradient id="paint5_linear" x1="-285.285" y1="282.992" x2="207.289" y2="282.992" gradientUnits="userSpaceOnUse">
<stop stop-color="#9F6C81"/>
<stop offset="1" stop-color="#2D4AFF"/>
</linearGradient>
<linearGradient id="paint6_linear" x1="-303.468" y1="282.975" x2="225.421" y2="282.975" gradientUnits="userSpaceOnUse">
<stop stop-color="#8C6194"/>
<stop offset="1" stop-color="#2D4AFF"/>
</linearGradient>
<linearGradient id="paint7_linear" x1="-321.634" y1="282.992" x2="243.634" y2="282.992" gradientUnits="userSpaceOnUse">
<stop stop-color="#7956A7"/>
<stop offset="1" stop-color="#2D4AFF"/>
</linearGradient>
</defs>
</svg>
