<svg width="72" height="60" viewBox="0 0 72 60" fill="none" xmlns="http://www.w3.org/2000/svg">
<path d="M70.875 57.7775H61.875V29.9963C61.875 29.3827 61.3713 28.8851 60.75 28.8851C60.1287 28.8851 59.625 29.3827 59.625 29.9963V57.7775H12.375V29.9963C12.375 29.3827 11.8713 28.8851 11.25 28.8851C10.6287 28.8851 10.125 29.3827 10.125 29.9963V57.7775H1.125C0.503717 57.7775 0 58.2751 0 58.8888C0 59.5024 0.503717 60 1.125 60H70.875C71.4963 60 72 59.5024 72 58.8888C72 58.2751 71.4963 57.7775 70.875 57.7775Z" fill="url(#paint0_linear)"/>
<path d="M6.18778 28.8851C6.46217 28.8851 6.73734 28.7864 6.95407 28.5872L35.2716 2.53855C35.7402 2.10666 36.5323 2.10827 36.9997 2.54288L65.0418 28.5834C65.4945 29.0034 66.2064 28.9817 66.6321 28.5351C67.0578 28.088 67.0358 27.3848 66.5832 26.9643L38.5411 0.923797C37.2211 -0.303576 35.0656 -0.308465 33.7379 0.912406L5.42092 26.9605C4.96609 27.3789 4.94083 28.0821 5.36434 28.5313C5.58574 28.7662 5.88645 28.8851 6.18778 28.8851Z" fill="url(#paint1_linear)"/>
<path d="M24.3897 19.6989L35.8588 9.20169C35.9929 9.07851 36.0884 8.99934 36.1555 8.94833C36.2219 8.99934 36.317 9.07907 36.4499 9.20169L47.6021 19.6207C48.0536 20.0418 48.765 20.0228 49.1924 19.5768C49.6192 19.1313 49.5994 18.4275 49.1479 18.0059L37.9918 7.58311C36.6575 6.34979 35.6655 6.34707 34.329 7.57172L22.8603 18.0689C22.4047 18.4862 22.3775 19.1888 22.7999 19.6392C23.0215 19.8758 23.3229 19.9951 23.6253 19.9951C23.8988 19.9951 24.1732 19.8969 24.3897 19.6989Z" fill="url(#paint2_linear)"/>
<path d="M51.1875 9.84577C51.8088 9.84577 52.3125 9.34821 52.3125 8.73453V3.32642H55.6875V14.4389C55.6875 15.0526 56.1912 15.5501 56.8125 15.5501C57.4338 15.5501 57.9375 15.0526 57.9375 14.4389V3.30148C57.9375 2.08983 56.9526 1.10393 55.7413 1.10393H52.2587C51.0474 1.10393 50.0625 2.08983 50.0625 3.30148V8.73453C50.0625 9.34821 50.5662 9.84577 51.1875 9.84577Z" fill="url(#paint3_linear)"/>
<path d="M24.6116 43.2705C25.157 43.932 31.6393 51.4741 34.5734 54.8871C34.9558 55.332 35.4886 55.555 36.0214 55.555C36.5449 55.555 37.0695 55.3396 37.4524 54.9077C37.4524 54.9077 46.849 43.9249 47.3884 43.2705C49.4116 40.8174 50.625 37.698 50.625 34.3003C50.625 26.3995 44.0777 19.9951 36 19.9951C27.9223 19.9951 21.375 26.3995 21.375 34.3003C21.375 37.698 22.5884 40.8174 24.6116 43.2705ZM36 22.2176C42.8236 22.2176 48.375 27.6377 48.375 34.3003C48.375 37.0838 47.4307 39.7002 45.6438 41.8673C45.2395 42.3578 39.3338 49.2652 36.0209 53.1372C28.1123 43.9379 26.5685 42.1245 26.3559 41.8668C24.5693 39.7002 23.625 37.0838 23.625 34.3003C23.625 27.6377 29.1764 22.2176 36 22.2176Z" fill="url(#paint4_linear)"/>
<path d="M36 40.7029C39.6161 40.7029 42.5468 37.8369 42.5468 34.3003C42.5468 30.7641 39.6161 27.8976 36 27.8976C32.3844 27.8976 29.4532 30.7641 29.4532 34.3003C29.4532 37.8369 32.3844 40.7029 36 40.7029ZM36 30.1201C38.3692 30.1201 40.2968 31.9953 40.2968 34.3003C40.2968 36.6052 38.3692 38.4804 36 38.4804C33.6308 38.4804 31.7032 36.6052 31.7032 34.3003C31.7032 31.9953 33.6308 30.1201 36 30.1201Z" fill="url(#paint5_linear)"/>
<defs>
<linearGradient id="paint0_linear" x1="0.353512" y1="27.5424" x2="48.5414" y2="27.5424" gradientUnits="userSpaceOnUse">
<stop stop-color="#F3461B"/>
<stop offset="1" stop-color="#0DA6F2"/>
</linearGradient>
<linearGradient id="paint1_linear" x1="0.353512" y1="27.5424" x2="48.5414" y2="27.5424" gradientUnits="userSpaceOnUse">
<stop stop-color="#F3461B"/>
<stop offset="1" stop-color="#0DA6F2"/>
</linearGradient>
<linearGradient id="paint2_linear" x1="0.353512" y1="27.5424" x2="48.5414" y2="27.5424" gradientUnits="userSpaceOnUse">
<stop stop-color="#F3461B"/>
<stop offset="1" stop-color="#0DA6F2"/>
</linearGradient>
<linearGradient id="paint3_linear" x1="0.353512" y1="27.5424" x2="48.5414" y2="27.5424" gradientUnits="userSpaceOnUse">
<stop stop-color="#F3461B"/>
<stop offset="1" stop-color="#0DA6F2"/>
</linearGradient>
<linearGradient id="paint4_linear" x1="0.353512" y1="27.5424" x2="48.5414" y2="27.5424" gradientUnits="userSpaceOnUse">
<stop stop-color="#F3461B"/>
<stop offset="1" stop-color="#0DA6F2"/>
</linearGradient>
<linearGradient id="paint5_linear" x1="0.353512" y1="27.5424" x2="48.5414" y2="27.5424" gradientUnits="userSpaceOnUse">
<stop stop-color="#F3461B"/>
<stop offset="1" stop-color="#0DA6F2"/>
</linearGradient>
</defs>
</svg>
