<svg width="52" height="60" viewBox="0 0 52 60" fill="none" xmlns="http://www.w3.org/2000/svg">
<path d="M25.0337 59.9419C25.0207 59.9419 25.0097 59.9419 24.9967 59.9419C24.0078 59.94 23.0348 59.4706 22.1069 58.5494C18.4681 54.9358 15.6012 44.1542 15.8462 35.0042C15.9962 25.8261 19.172 15.5226 22.9268 12.0465C23.8848 11.16 24.8547 10.7197 25.8607 10.7516C26.8376 10.7777 27.7856 11.2558 28.6775 12.1713C32.2364 15.8245 34.8832 26.5587 34.5772 36.0987C34.2992 45.8429 30.4464 59.9419 25.0337 59.9419ZM25.7757 12.6852C25.2417 12.6852 24.6847 13.0965 24.3088 13.4448C21.0039 16.5058 17.9831 26.5984 17.8451 35.0439C17.5921 44.52 20.6429 54.3213 23.5388 57.1984C23.9108 57.5671 24.4658 58.0064 25.0047 58.0064C25.0147 58.0064 25.0247 58.0064 25.0347 58.0064C27.9336 58.0074 32.2663 46.9664 32.5773 36.0406C32.8593 27.2487 30.3564 16.7158 27.2216 13.4971C26.8686 13.1342 26.3357 12.6997 25.8047 12.6852C25.7947 12.6852 25.7857 12.6852 25.7757 12.6852Z" fill="url(#paint0_linear)"/>
<path d="M47.4716 45.8061H3.00985C2.45787 45.8061 2.0099 45.3726 2.0099 44.8384C2.0099 44.3042 2.45787 43.8706 3.00985 43.8706H47.4716C48.0235 43.8706 48.4715 44.3042 48.4715 44.8384C48.4715 45.3726 48.0235 45.8061 47.4716 45.8061Z" fill="url(#paint1_linear)"/>
<path d="M47.9445 28.2068H2.47787C1.9259 28.2068 1.47792 27.7732 1.47792 27.239C1.47792 26.7048 1.9259 26.2713 2.47787 26.2713H47.9445C48.4965 26.2713 48.9445 26.7048 48.9445 27.239C48.9445 27.7732 48.4975 28.2068 47.9445 28.2068Z" fill="url(#paint2_linear)"/>
<path d="M25.2407 60C11.3234 60 0 48.9532 0 35.3758C0 21.7984 11.3234 10.7506 25.2407 10.7506C28.3526 10.7506 31.4014 11.3023 34.3013 12.3919C34.8162 12.5855 35.0712 13.1458 34.8712 13.6442C34.6722 14.1426 34.0953 14.3913 33.5773 14.1958C30.9094 13.1942 28.1036 12.6861 25.2407 12.6861C12.4254 12.6861 1.9999 22.8639 1.9999 35.3758C1.9999 47.8858 12.4254 58.0645 25.2407 58.0645C38.0561 58.0645 48.4815 47.8858 48.4815 35.3758C48.4815 30.3852 46.8516 25.6481 43.7668 21.6794C43.4348 21.2526 43.5238 20.6458 43.9648 20.3245C44.4077 20.0042 45.0337 20.0903 45.3647 20.5161C48.7115 24.8235 50.4804 29.9623 50.4804 35.3758C50.4814 48.9532 39.159 60 25.2407 60Z" fill="url(#paint3_linear)"/>
<path d="M42.0409 25.5155C41.7169 25.5155 41.4139 25.3635 41.2259 25.1081L33.4683 14.5394C31.6264 11.4252 31.6394 7.81161 33.4493 4.79323C35.2502 1.79226 38.462 0 42.0409 0C45.6257 0 48.8415 1.79613 50.6414 4.80387C52.4443 7.81645 52.4533 11.4145 50.6654 14.429C50.6494 14.4561 50.6324 14.4823 50.6144 14.5074L42.8568 25.1071C42.6698 25.3626 42.3658 25.5155 42.0409 25.5155ZM42.0409 1.93548C39.183 1.93548 36.6181 3.36677 35.1782 5.76581C33.7293 8.18032 33.7193 11.0719 35.1512 13.5L42.0389 22.8755L48.9545 13.4274C50.3594 11.0274 50.3444 8.16968 48.9105 5.77452C47.4726 3.37065 44.9037 1.93548 42.0409 1.93548Z" fill="url(#paint4_linear)"/>
<path d="M42.0409 14.9313C39.186 14.9313 36.8641 12.6813 36.8641 9.91548C36.8641 7.14968 39.186 4.89968 42.0409 4.89968C44.8957 4.89968 47.2176 7.14968 47.2176 9.91548C47.2176 12.6813 44.8957 14.9313 42.0409 14.9313ZM42.0409 6.83516C40.2889 6.83516 38.864 8.2171 38.864 9.91548C38.864 11.6139 40.2889 12.9958 42.0409 12.9958C43.7928 12.9958 45.2177 11.6139 45.2177 9.91548C45.2177 8.2171 43.7928 6.83516 42.0409 6.83516Z" fill="url(#paint5_linear)"/>
<defs>
<linearGradient id="paint0_linear" x1="0.255314" y1="27.5424" x2="35.0577" y2="27.5424" gradientUnits="userSpaceOnUse">
<stop stop-color="#F3461B"/>
<stop offset="1" stop-color="#0DA6F2"/>
</linearGradient>
<linearGradient id="paint1_linear" x1="0.255314" y1="27.5424" x2="35.0577" y2="27.5424" gradientUnits="userSpaceOnUse">
<stop stop-color="#F3461B"/>
<stop offset="1" stop-color="#0DA6F2"/>
</linearGradient>
<linearGradient id="paint2_linear" x1="0.255314" y1="27.5424" x2="35.0577" y2="27.5424" gradientUnits="userSpaceOnUse">
<stop stop-color="#F3461B"/>
<stop offset="1" stop-color="#0DA6F2"/>
</linearGradient>
<linearGradient id="paint3_linear" x1="0.255314" y1="27.5424" x2="35.0577" y2="27.5424" gradientUnits="userSpaceOnUse">
<stop stop-color="#F3461B"/>
<stop offset="1" stop-color="#0DA6F2"/>
</linearGradient>
<linearGradient id="paint4_linear" x1="0.255314" y1="27.5424" x2="35.0577" y2="27.5424" gradientUnits="userSpaceOnUse">
<stop stop-color="#F3461B"/>
<stop offset="1" stop-color="#0DA6F2"/>
</linearGradient>
<linearGradient id="paint5_linear" x1="0.255314" y1="27.5424" x2="35.0577" y2="27.5424" gradientUnits="userSpaceOnUse">
<stop stop-color="#F3461B"/>
<stop offset="1" stop-color="#0DA6F2"/>
</linearGradient>
</defs>
</svg>
