<svg width="60" height="60" viewBox="0 0 60 60" fill="none" xmlns="http://www.w3.org/2000/svg">
<path d="M9.96253 0.000255441C9.80519 0.0037192 9.65272 0.0555977 9.5258 0.148855C9.39888 0.242112 9.30364 0.372236 9.25302 0.521577L0.146369 18.3016C0.0410436 18.447 -0.0101521 18.6247 0.00167103 18.804C0.0134941 18.9833 0.0875892 19.1528 0.211091 19.283L29.3923 59.6819C29.4634 59.7804 29.5568 59.8606 29.6648 59.9159C29.7728 59.9712 29.8924 60 30.0137 60C30.135 60 30.2546 59.9712 30.3626 59.9159C30.4706 59.8606 30.564 59.7804 30.6352 59.6819L59.7826 19.3623C59.9095 19.2316 59.986 19.06 59.9982 18.878C60.0105 18.696 59.9579 18.5156 59.8497 18.3689L50.5669 0.425328C50.5552 0.402683 50.5424 0.380634 50.5286 0.359263C50.5282 0.358462 50.5278 0.357661 50.5274 0.356861C50.5136 0.336133 50.4988 0.316089 50.483 0.296801C50.483 0.296401 50.483 0.296 50.483 0.2956C50.4672 0.275964 50.4504 0.257123 50.4327 0.239143C50.4307 0.23713 50.4287 0.235128 50.4267 0.233138C50.4106 0.217186 50.3938 0.201955 50.3764 0.187492C50.3752 0.186688 50.374 0.185887 50.3728 0.185089C50.3539 0.169342 50.3343 0.15451 50.314 0.140645C50.3132 0.139842 50.3124 0.139042 50.3116 0.138243C50.2915 0.124852 50.2707 0.112426 50.2493 0.101005C50.2473 0.0997952 50.2453 0.0985939 50.2433 0.0974019C50.2 0.0747052 50.1547 0.0562029 50.1079 0.0421467C50.1067 0.0417433 50.1055 0.0413429 50.1043 0.0409455C50.081 0.0342236 50.0574 0.0286117 50.0336 0.0241286C50.0316 0.0237202 50.0296 0.0233199 50.0276 0.0229274C49.9845 0.0147908 49.9408 0.0103703 49.8969 0.0097145C49.8933 0.00968917 49.8897 0.00968917 49.8862 0.0097145C49.8778 0.00957661 49.8694 0.00957661 49.861 0.0097145H10.0967C10.0523 0.00257631 10.0074 -0.000639256 9.96247 0.000104925L9.96253 0.000255441ZM11.2857 1.54738H28.9234L19.8818 17.1066L11.2857 1.54738ZM31.4535 1.54738H48.5966L40.1926 17.0752L31.4541 1.54738H31.4535ZM10.0093 2.41221L18.6256 18.0059L2.03299 17.9854L10.0093 2.41209V2.41221ZM49.8705 2.41942L57.961 18.0555L41.4174 18.0351L49.8705 2.4193V2.41942ZM30.1881 2.42663L38.9689 18.0313L21.1324 18.0097L30.1887 2.42653L30.1881 2.42663ZM2.28091 19.5246L19.2945 19.545L28.303 55.5534L2.28152 19.5247L2.28091 19.5246ZM20.8777 19.5474L39.1868 19.569L30.0157 56.0781L20.8777 19.5475V19.5474ZM40.7676 19.5714L57.721 19.5919L31.7302 55.5449L40.7676 19.5716V19.5714Z" fill="url(#paint0_linear)"/>
<defs>
<linearGradient id="paint0_linear" x1="0.294593" y1="27.5424" x2="40.4512" y2="27.5424" gradientUnits="userSpaceOnUse">
<stop stop-color="#F3461B"/>
<stop offset="1" stop-color="#0DA6F2"/>
</linearGradient>
</defs>
</svg>
