<svg width="60" height="60" viewBox="0 0 60 60" fill="none" xmlns="http://www.w3.org/2000/svg">
<path d="M23.9999 20.3398C23.2088 20.3398 22.4355 20.5784 21.7777 21.0254C21.1199 21.4724 20.6072 22.1076 20.3045 22.8509C20.0017 23.5942 19.9225 24.4121 20.0769 25.2012C20.2312 25.9902 20.6122 26.715 21.1716 27.2839C21.731 27.8528 22.4437 28.2402 23.2196 28.3972C23.9955 28.5541 24.7997 28.4736 25.5306 28.1657C26.2615 27.8578 26.8862 27.3364 27.3258 26.6675C27.7653 25.9986 27.9999 25.2121 27.9999 24.4076C27.9999 23.3288 27.5784 22.2941 26.8283 21.5313C26.0782 20.7684 25.0608 20.3398 23.9999 20.3398ZM23.9999 26.4415C23.6044 26.4415 23.2177 26.3222 22.8888 26.0987C22.5599 25.8752 22.3036 25.5576 22.1522 25.1859C22.0008 24.8143 21.9612 24.4053 22.0384 24.0108C22.1156 23.6163 22.306 23.2539 22.5857 22.9694C22.8654 22.685 23.2218 22.4913 23.6098 22.4128C23.9977 22.3343 24.3998 22.3746 24.7653 22.5285C25.1307 22.6825 25.4431 22.9432 25.6628 23.2776C25.8826 23.6121 25.9999 24.0053 25.9999 24.4076C25.9999 24.947 25.7892 25.4643 25.4141 25.8457C25.0391 26.2272 24.5304 26.4415 23.9999 26.4415Z" fill="url(#paint0_linear)"/>
<path d="M56.9938 2.32553C56.0901 1.50296 55.0318 0.875252 53.8829 0.480343C52.7339 0.0854338 51.5182 -0.06848 50.3091 0.0279025C49.1 0.124285 47.9227 0.468963 46.8483 1.04111C45.7738 1.61325 44.8246 2.40098 44.058 3.3567L36.1152 6.5092C34.999 5.59196 33.7867 4.80279 32.5002 4.15601C29.6929 2.7521 26.6048 2.02615 23.4764 2.03468V2.03468C19.3152 2.04992 15.2558 3.34442 11.8311 5.74822C8.40645 8.15202 5.77656 11.5528 4.28672 15.504C4.27052 15.5475 4.25715 15.592 4.24672 15.6372L0.0257937 34.3488C-0.0279792 34.5849 0.00291874 34.8328 0.112921 35.0477C0.222924 35.2627 0.404799 35.4307 0.625783 35.5214L5.08971 37.3366L7.01067 50.992C7.04484 51.2342 7.16376 51.4558 7.3456 51.6161C7.52745 51.7763 7.76002 51.8646 8.00066 51.8645H17.0005V58.9831C17.0005 59.2528 17.1059 59.5114 17.2934 59.7022C17.4809 59.8929 17.7353 60 18.0005 60H37.0002C37.2654 60 37.5197 59.8929 37.7072 59.7022C37.8948 59.5114 38.0001 59.2528 38.0001 58.9831V50.9574L42.5761 29.6475L53.1879 25.4242H53.9999C54.2651 25.4242 54.5194 25.3171 54.707 25.1263C54.8945 24.9356 54.9998 24.677 54.9998 24.4073V20.0965C55.0146 19.3169 55.1949 18.5498 55.5284 17.8477C55.8618 17.1456 56.3406 16.5251 56.9318 16.0287C57.8904 15.175 58.6596 14.1238 59.1885 12.9449C59.7175 11.7659 59.994 10.4862 59.9999 9.19032C60.0058 7.89449 59.7408 6.61218 59.2226 5.42836C58.7043 4.24453 57.9446 3.1862 56.9938 2.32349V2.32553ZM42.5001 6.15429C42.2965 6.73781 42.1537 7.34145 42.0741 7.95528C41.9019 9.29537 42.0237 10.6576 42.4307 11.9441C42.8377 13.2307 43.5198 14.4096 44.428 15.3962L42.5821 16.1304C41.6293 13.0851 39.985 10.3107 37.7821 8.03155L42.5001 6.15429ZM52.9999 21.3565V23.3903H48.9999V21.3565H52.9999ZM41.1411 26.7991L40.8511 28.1496L34.2892 30.7611L32.7002 28.0733L36.0002 27.2354V21.5792L35.0102 21.328L41.2261 18.8538C41.7353 21.48 41.7064 24.1848 41.1411 26.7991V26.7991ZM30.1203 32.4207L27.3133 30.7123L26.0383 31.2492L25.2194 34.5766H22.7814L21.9624 31.2482L20.6854 30.7092L17.7915 32.4746L16.0675 30.7214L17.8005 27.7804L17.2715 26.4798L14.0006 25.6469V23.1676L17.2845 22.3317L17.8105 21.0514L16.0675 18.0972L17.7915 16.344L20.6854 18.1023L21.9624 17.5633L22.7814 14.2379H25.2194L26.0383 17.5704L27.3133 18.1073L30.2133 16.3399L31.9372 18.0931L30.1903 21.0514L30.7163 22.3358L34.0002 23.1676V25.6469L30.7163 26.4828L30.1903 27.7632L31.9332 30.7174L30.3543 32.3231L30.1203 32.4207ZM33.2272 19.8534L34.4522 17.7779L30.5193 13.7783L27.6053 15.5599L26.8273 12.3952L35.7272 8.85222C38.0551 11.0338 39.7756 13.8016 40.7151 16.8758L33.2272 19.8534ZM36.0272 50.631C36.0107 50.702 36.0016 50.7746 36.0002 50.8476V57.9661H19.0005V51.3916L27.5553 45.5951L26.4453 43.9029L17.7005 49.8306H8.87064L6.99067 36.4661C6.96586 36.2892 6.89568 36.1222 6.78719 35.9817C6.67871 35.8412 6.53574 35.7322 6.37268 35.6658L2.16676 33.9553L6.18069 16.1589C7.53422 12.609 9.90861 9.55639 12.994 7.3996C16.0794 5.24281 19.7324 4.08196 23.4764 4.06855C26.3003 4.06032 29.088 4.71529 31.6222 5.98243C32.4261 6.38781 33.1981 6.85564 33.9312 7.38173L21.8124 12.204H21.2194L20.4004 15.5599L17.4865 13.7823L13.5536 17.7819L15.3005 20.7463L12.0006 21.5843V27.2404L15.3005 28.0784L13.5516 31.0417L17.4845 35.0414L20.4004 33.2546L21.2244 36.6105H26.7863L27.6103 33.2546L30.5243 35.0332L31.4782 34.062L40.3431 30.5353L36.0272 50.631ZM43.1 27.2333C43.7476 24.2271 43.7517 21.1143 43.112 18.1063L45.972 16.9674C46.6416 17.8659 47.0027 18.963 47 20.0904V24.4073C47.0017 24.639 47.0824 24.8629 47.2283 25.0409C47.3741 25.2189 47.5762 25.34 47.8 25.3835L43.0871 27.2598L43.1 27.2333ZM55.6188 14.5013C54.203 15.7286 53.2854 17.4466 53.0439 19.3226H51.9999V13.8993C51.9991 13.531 51.9144 13.168 51.7526 12.8386C51.5907 12.5092 51.356 12.2224 51.0669 12.0007L48.134 9.76339C48.0778 9.72082 48.0362 9.6613 48.0153 9.59333C47.9943 9.52535 47.9949 9.45237 48.017 9.38478C48.0392 9.31719 48.0818 9.25842 48.1387 9.21685C48.1956 9.17528 48.2639 9.15302 48.334 9.15323H53.9999V7.11936H48.333C47.8434 7.11979 47.3664 7.27673 46.9695 7.56798C46.5725 7.85923 46.2756 8.27004 46.1208 8.74231C45.966 9.21458 45.9611 9.72439 46.1069 10.1996C46.2526 10.6749 46.5416 11.0915 46.933 11.3905L49.8669 13.6277C49.9082 13.6595 49.9416 13.7006 49.9647 13.7477C49.9878 13.7948 49.9998 13.8467 49.9999 13.8993V19.3226H48.9599C48.7681 17.4803 47.8826 15.785 46.489 14.5918C45.5904 13.821 44.897 12.8328 44.4725 11.718C44.0481 10.6032 43.9062 9.39773 44.06 8.21257C44.2089 7.06786 44.635 5.97867 45.3 5.04278L45.368 5.01532L45.348 4.96346C45.9258 4.14996 46.6661 3.46989 47.5205 2.96784C48.3749 2.4658 49.324 2.15313 50.3056 2.05036C51.2872 1.94758 52.2791 2.05701 53.2161 2.37148C54.1532 2.68595 55.0143 3.19834 55.7429 3.87505C56.4715 4.55175 57.0513 5.37748 57.444 6.29805C57.8368 7.21863 58.0337 8.21325 58.0219 9.21667C58.0101 10.2201 57.7898 11.2096 57.3755 12.1204C56.9612 13.0311 56.3622 13.8425 55.6178 14.5013H55.6188Z" fill="url(#paint1_linear)"/>
<defs>
<linearGradient id="paint0_linear" x1="20.0393" y1="24.0744" x2="25.3934" y2="24.0744" gradientUnits="userSpaceOnUse">
<stop stop-color="#F3461B"/>
<stop offset="1" stop-color="#0DA6F2"/>
</linearGradient>
<linearGradient id="paint1_linear" x1="0.294593" y1="27.5424" x2="40.4512" y2="27.5424" gradientUnits="userSpaceOnUse">
<stop stop-color="#F3461B"/>
<stop offset="1" stop-color="#0DA6F2"/>
</linearGradient>
</defs>
</svg>
