<svg width="60" height="60" viewBox="0 0 60 60" fill="none" xmlns="http://www.w3.org/2000/svg">
<path d="M11.0528 34.4808C11.5461 32.7888 11.8783 31.6841 12.1783 30.6825C14.4446 23.1312 14.6788 22.3509 12.262 17.0445L11.1196 14.5357L13.5238 15.8971C13.5425 15.9078 19.2807 19.076 20.7803 24.7309C20.9477 24.4616 21.1089 24.1808 21.2638 23.8937C23.116 20.4606 24.1097 15.9114 24.0821 11.738C24.0545 7.66596 23.0643 3.99739 20.961 2.19243C20.6921 1.96226 20.4027 1.76141 20.0955 1.59611L20.9067 0L20.9593 0.0239947C21.9468 0.495897 37.1302 7.95302 38.3314 22.2096C38.8737 20.681 39.2477 18.6041 38.8194 16.0998L38.156 12.217L40.4374 15.4297C46.7819 24.3638 49.391 32.2235 49.5094 38.7777C49.6555 46.8472 46.0437 52.9348 40.9601 56.6505L37.5255 59.1593L39.652 55.4818C40.4819 54.0448 41.0616 52.4202 41.3332 50.6881C41.4293 50.0776 41.4872 49.452 41.505 48.8165C40.5469 50.3567 39.4837 51.6062 39.4169 51.6844L39.4133 51.6888L38.0384 50.5415C39.6448 48.6175 39.3082 45.2662 38.1034 41.6011C36.5576 36.899 33.5897 31.7641 31.3154 28.2395C31.8194 38.7804 27.3751 45.0218 27.3617 45.0413L25.4419 47.8478L25.7241 44.4628C25.8542 42.8969 25.5469 40.916 25.0287 38.8959C24.7206 37.6962 24.3377 36.4831 23.9281 35.3304C23.8034 37.1674 23.4695 38.6738 22.3128 40.8591C22.0581 41.3408 21.6992 41.9833 21.3395 42.6258C20.9459 43.3315 20.5505 44.0371 20.1694 44.772C19.1534 46.7299 18.5621 48.9525 18.506 51.1218C18.4535 53.1303 18.8604 55.0917 19.8159 56.7411L21.7037 60L18.547 57.9418C15.0928 55.688 12.3333 52.2114 10.9548 47.8683C9.73045 44.0069 9.60044 39.4594 11.0528 34.4808V34.4808ZM13.9005 31.1944C13.5345 32.4155 13.1133 33.8161 12.775 34.9794C11.4304 39.5873 11.5461 43.7811 12.6708 47.3288C13.5621 50.138 15.0902 52.5455 17.0269 54.4332C16.7847 53.348 16.6841 52.2176 16.7135 51.0792C16.7767 48.6344 17.4383 46.1389 18.5746 43.9509C18.9504 43.2257 19.3618 42.4907 19.7714 41.7558C20.0608 41.2386 20.3528 40.7151 20.7233 40.021C22.1142 37.3967 22.1525 35.8335 22.2184 33.0705C22.2682 31.0913 22.3021 29.1122 22.3404 27.133L23.9762 30.6799C24.9254 32.739 26.0376 35.6184 26.7642 38.4534C27.0082 39.4025 27.2086 40.3472 27.3457 41.2572C28.6867 38.1441 30.3038 32.5195 29.1899 24.9379L28.6476 21.2427L30.8105 24.2927C32.9663 27.3321 37.6805 34.5644 39.8114 41.0475C40.4008 42.8391 40.7935 44.5836 40.8897 46.1877C41.0455 45.818 41.1613 45.459 41.2183 45.1266L42.0518 40.3081L42.9868 45.1089C43.3777 47.1156 43.3999 49.0929 43.1052 50.9619C43.0153 51.536 42.8951 52.1003 42.7463 52.6513C45.8336 49.2636 47.822 44.5925 47.7169 38.8053C47.6163 33.2384 45.5878 26.6327 40.7713 19.1258C40.4801 23.5693 38.1328 26.2763 38.1248 26.2852L36.3278 28.3781L36.5469 25.6329C37.4009 14.9365 29.6315 7.74062 24.4864 4.19024C25.4063 6.31691 25.8559 8.95281 25.8746 11.7309C25.9031 16.1851 24.8355 21.0534 22.8453 24.7424C22.2771 25.7973 21.6298 26.7607 20.9112 27.5952L19.4339 29.3095L19.3324 27.0513C19.1774 23.5667 16.9833 20.9139 15.1481 19.2902C16.4107 22.8308 15.8631 24.6544 13.9005 31.1944V31.1944Z" fill="url(#paint0_linear)"/>
<defs>
<linearGradient id="paint0_linear" x1="10.194" y1="27.5424" x2="36.6396" y2="27.5424" gradientUnits="userSpaceOnUse">
<stop stop-color="#F3461B"/>
<stop offset="1" stop-color="#0DA6F2"/>
</linearGradient>
</defs>
</svg>
