<svg width="60" height="60" viewBox="0 0 60 60" fill="none" xmlns="http://www.w3.org/2000/svg">
<path d="M2.8 37.3C3 38.2 3.1 39.2 3.1 40.2C3.2 41.8 3.2 43.5 4 45C4.9 46.5 6.3 47.4 7.7 48.2C8.6 48.7 9.4 49.3 10.1 49.9C10.8 50.5 11.2 51.4 11.8 52.3C12.7 53.7 13.6 55.1 15 56C16.5 56.8 18.1 56.9 19.8 56.9C20.9 56.9 21.9 57 22.7 57.2C23.5 57.4 24.4 57.9 25.3 58.4C26.8 59.2 28.3 60 30 60C31.7 60 33.3 59.2 34.7 58.4C35.6 57.9 36.4 57.5 37.3 57.2C38.2 57 39.2 56.9 40.2 56.9C41.8 56.8 43.5 56.8 45 56C46.5 55.1 47.4 53.7 48.2 52.3C48.7 51.4 49.3 50.6 49.9 49.9C50.5 49.2 51.4 48.8 52.3 48.2C53.7 47.3 55.1 46.4 56 45C56.8 43.5 56.9 41.9 56.9 40.2C56.9 39.1 57 38.1 57.2 37.3C57.4 36.5 57.9 35.6 58.4 34.7C59.2 33.2 60 31.7 60 30C60 28.3 59.2 26.7 58.4 25.3C57.9 24.4 57.5 23.6 57.2 22.7C57 21.8 56.9 20.8 56.9 19.8C56.8 18.2 56.8 16.5 56 15C55.1 13.5 53.7 12.6 52.3 11.8C51.4 11.3 50.6 10.7 49.9 10.1C49.3 9.5 48.8 8.6 48.2 7.7C47.3 6.3 46.4 4.9 45 4C43.5 3.2 41.9 3.1 40.2 3.1C39.1 3.1 38.1 3 37.3 2.8C36.5 2.6 35.6 2.1 34.7 1.6C33.2 0.8 31.7 0 30 0C28.3 0 26.7 0.8 25.3 1.6C24.4 2.1 23.6 2.5 22.7 2.8C21.8 3 20.8 3.1 19.8 3.1C18.2 3.2 16.5 3.2 15 4C13.5 4.9 12.6 6.3 11.8 7.7C11.3 8.6 10.7 9.4 10.1 10.1C9.5 10.7 8.6 11.2 7.7 11.8C6.3 12.7 4.9 13.6 4 15C3.2 16.5 3.1 18.1 3.1 19.8C3.1 20.9 3 21.9 2.8 22.7C2.6 23.5 2.1 24.4 1.6 25.3C0.8 26.8 0 28.3 0 30C0 31.7 0.8 33.3 1.6 34.7C2.1 35.6 2.6 36.5 2.8 37.3ZM3.4 26.2C3.9 25.2 4.5 24.2 4.7 23.2C5 22.1 5 20.9 5.1 19.8C5.1 18.3 5.2 17 5.8 16C6.4 15 7.6 14.2 8.8 13.5C9.7 12.9 10.7 12.3 11.5 11.5C12.3 10.7 12.9 9.7 13.5 8.8C14.3 7.6 15 6.4 16 5.8C17 5.2 18.4 5.2 19.8 5.1C20.9 5.1 22.1 5 23.2 4.7C24.3 4.4 25.2 3.9 26.2 3.4C27.5 2.7 28.7 2 30 2C31.3 2 32.5 2.7 33.8 3.4C34.8 3.9 35.8 4.5 36.8 4.7C37.9 5 39.1 5 40.2 5.1C41.7 5.1 43 5.2 44 5.8C45 6.4 45.8 7.6 46.5 8.8C47.1 9.7 47.7 10.7 48.5 11.5C49.3 12.3 50.3 12.9 51.2 13.5C52.4 14.3 53.6 15 54.2 16C54.8 17 54.8 18.4 54.9 19.8C54.9 20.9 55 22.1 55.3 23.2C55.6 24.3 56.1 25.2 56.6 26.2C57.3 27.5 58 28.7 58 30C58 31.3 57.3 32.5 56.6 33.8C56.1 34.8 55.5 35.8 55.3 36.8C55 37.9 55 39 54.9 40.2C54.9 41.7 54.8 43 54.2 44C53.6 45 52.4 45.8 51.2 46.5C50.3 47.1 49.3 47.7 48.5 48.5C47.7 49.3 47.1 50.3 46.5 51.2C45.7 52.4 45 53.6 44 54.2C43 54.8 41.6 54.8 40.2 54.9C39.1 54.9 37.9 55 36.8 55.3C35.7 55.6 34.8 56.1 33.8 56.6C32.5 57.3 31.2 58 30 58C28.8 58 27.5 57.3 26.2 56.6C25.2 56.1 24.2 55.5 23.2 55.3C22.1 55 21 55 19.8 54.9C18.3 54.9 17 54.8 16 54.2C15 53.6 14.2 52.4 13.5 51.2C12.9 50.3 12.3 49.3 11.5 48.5C10.7 47.7 9.7 47.1 8.8 46.5C7.6 45.7 6.4 45 5.8 44C5.2 43 5.2 41.6 5.1 40.2C5.1 39.1 5 37.9 4.7 36.8C4.4 35.7 3.9 34.8 3.4 33.8C2.7 32.5 2 31.2 2 30C2 28.8 2.7 27.5 3.4 26.2ZM22.7 32.1L21.5 39.2C21.4 39.8 21.6 40.3 22.1 40.7C22.6 41 23.2 41.1 23.7 40.8L30.1 37.4L36.5 40.8C36.7 40.9 37 41 37.2 41C37.5 41 37.8 40.9 38.1 40.7C38.6 40.4 38.8 39.8 38.7 39.2L37.5 32.1L42.7 27.1C43.1 26.7 43.3 26.1 43.1 25.6C42.9 25.1 42.5 24.7 41.9 24.6L34.8 23.6L31.4 17C31.1 16.5 30.6 16.2 30 16.2C29.4 16.2 28.9 16.5 28.6 17L25.4 23.5L18.3 24.5C17.7 24.6 17.3 25 17.1 25.5C16.9 26.1 17.1 26.6 17.5 27L22.7 32.1ZM26 25.4C26.5 25.3 26.9 25 27.1 24.6L30 18.8L32.9 24.6C33.1 25 33.5 25.4 34 25.4L40.4 26.3L35.8 30.8C35.4 31.1 35.3 31.6 35.4 32.1L36.5 38.5L30.8 35.5C30.4 35.3 29.8 35.3 29.4 35.5L23.7 38.5L24.8 32.1C24.9 31.6 24.7 31.1 24.4 30.8L19.8 26.3L26 25.4ZM30 51C41.6 51 51 41.6 51 30C51 18.4 41.6 9 30 9C18.4 9 9 18.4 9 30C9 41.6 18.4 51 30 51ZM30 11C40.5 11 49 19.5 49 30C49 40.5 40.5 49 30 49C19.5 49 11 40.5 11 30C11 19.5 19.5 11 30 11Z" fill="url(#paint0_linear)"/>
<defs>
<linearGradient id="paint0_linear" x1="0.294593" y1="27.5424" x2="40.4512" y2="27.5424" gradientUnits="userSpaceOnUse">
<stop stop-color="#F3461B"/>
<stop offset="1" stop-color="#0DA6F2"/>
</linearGradient>
</defs>
</svg>
