<svg width="149" height="138" viewBox="0 0 149 138" fill="none" xmlns="http://www.w3.org/2000/svg">
<path d="M28.7037 28.0137H33.8188V28.8345H28.7037V28.0137Z" fill="url(#paint0_linear)"/>
<path d="M28.7037 28.536H29.0743V35.1029H28.7037V28.536Z" fill="url(#paint1_linear)"/>
<path d="M27.1839 34.3194L29.0743 33.2531V35.3857L27.1839 34.3194Z" fill="url(#paint2_linear)"/>
<path d="M33.4481 28.536H33.8188V35.1029H33.4481V28.536Z" fill="url(#paint3_linear)"/>
<path d="M31.9284 34.3194L33.8188 33.2531V35.3857L31.9284 34.3194Z" fill="url(#paint4_linear)"/>
<path d="M82.6882 56.0274H88.3716V56.8482H82.6882V56.0274Z" fill="url(#paint5_linear)"/>
<path d="M82.6882 56.5497H83.1V63.1166H82.6882V56.5497Z" fill="url(#paint6_linear)"/>
<path d="M80.9996 62.3331L83.1 61.2667V63.3994L80.9996 62.3331Z" fill="url(#paint7_linear)"/>
<path d="M87.9597 56.5497H88.3716V63.1166H87.9597V56.5497Z" fill="url(#paint8_linear)"/>
<path d="M86.2712 62.3331L88.3716 61.2667V63.3994L86.2712 62.3331Z" fill="url(#paint9_linear)"/>
<path d="M4.54439 81.0923H10.2278V81.9952H4.54439V81.0923Z" fill="url(#paint10_linear)"/>
<path d="M4.54439 81.6669H4.95623V88.8905H4.54439V81.6669Z" fill="url(#paint11_linear)"/>
<path d="M2.85581 88.0286L4.95622 86.8556V89.2015L2.85581 88.0286Z" fill="url(#paint12_linear)"/>
<path d="M9.81598 81.6669H10.2278V88.8905H9.81598V81.6669Z" fill="url(#paint13_linear)"/>
<path d="M8.12742 88.0286L10.2278 86.8556V89.2015L8.12742 88.0286Z" fill="url(#paint14_linear)"/>
<path d="M3.89546 28.978H5.21864V32.8561H3.89546V28.978Z" fill="url(#paint15_linear)"/>
<path d="M5.88023 28.978H7.20342V32.8561H5.88023V28.978Z" fill="url(#paint16_linear)"/>
<path d="M7.86501 28.978H9.18819V32.8561H7.86501V28.978Z" fill="url(#paint17_linear)"/>
<path d="M8.26197 30.6043H8.79124V34.4824H8.26197V30.6043Z" fill="url(#paint18_linear)"/>
<path d="M6.27719 30.6043H6.80646V34.4824H6.27719V30.6043Z" fill="url(#paint19_linear)"/>
<path d="M4.29241 30.6043H4.82168V34.4824H4.29241V30.6043Z" fill="url(#paint20_linear)"/>
<path fill-rule="evenodd" clip-rule="evenodd" d="M9.9443 29.0052H3.13935V34.3947H9.9443V29.0052ZM2.85581 28.7511V34.6488H10.2278V28.7511H2.85581Z" fill="url(#paint21_linear)"/>
<path d="M34.3207 8.10923C34.757 8.10923 35.1337 7.71518 35.1337 7.2589L36.0299 6.38783L35.1337 5.51677C35.1337 5.12271 34.9156 4.83236 34.5785 4.68718V3.48427C34.5785 1.55548 33.0913 0 31.2471 0C29.4228 0 27.9355 1.55548 27.9355 3.48427V4.68718C27.6183 4.83236 27.3803 5.14345 27.3803 5.51677L26.4463 6.38783L27.3803 7.2589C27.3803 7.71518 27.7571 8.10923 28.2132 8.10923C28.6692 8.10923 29.046 7.71518 29.046 7.2589V5.51677C29.046 5.12271 28.808 4.83236 28.4908 4.68718V3.48427C28.4908 1.86657 29.7202 0.580712 31.2471 0.580712C32.7938 0.580712 34.0233 1.86657 34.0233 3.48427V4.68718C33.7258 4.83236 33.4879 5.14345 33.4879 5.51677V7.2589C33.4879 7.71518 33.8646 8.10923 34.3207 8.10923Z" fill="url(#paint22_linear)"/>
<path d="M88.874 35.3857C89.3103 35.3857 89.6871 35.0275 89.6871 34.6127L90.5832 33.8208L89.6871 33.0289C89.6871 32.6707 89.4689 32.4067 89.1318 32.2747V31.1812C89.1318 29.4278 87.6446 28.0137 85.8004 28.0137C83.9761 28.0137 82.4889 29.4278 82.4889 31.1812V32.2747C82.1716 32.4067 81.9336 32.6895 81.9336 33.0289L80.9996 33.8208L81.9336 34.6127C81.9336 35.0275 82.3104 35.3857 82.7665 35.3857C83.2226 35.3857 83.5993 35.0275 83.5993 34.6127V33.0289C83.5993 32.6707 83.3614 32.4067 83.0441 32.2747V31.1812C83.0441 29.7106 84.2735 28.5416 85.8004 28.5416C87.3472 28.5416 88.5766 29.7106 88.5766 31.1812V32.2747C88.2792 32.4067 88.0412 32.6895 88.0412 33.0289V34.6127C88.0412 35.0275 88.418 35.3857 88.874 35.3857Z" fill="url(#paint23_linear)"/>
<path d="M88.874 88.4645C89.3103 88.4645 89.6871 88.0704 89.6871 87.6142L90.5832 86.7431L89.6871 85.872C89.6871 85.478 89.4689 85.1876 89.1318 85.0424V83.8395C89.1318 81.9108 87.6446 80.3553 85.8004 80.3553C83.9761 80.3553 82.4889 81.9108 82.4889 83.8395V85.0424C82.1716 85.1876 81.9336 85.4987 81.9336 85.872L80.9996 86.7431L81.9336 87.6142C81.9336 88.0704 82.3104 88.4645 82.7665 88.4645C83.2226 88.4645 83.5993 88.0704 83.5993 87.6142V85.872C83.5993 85.478 83.3614 85.1876 83.0441 85.0424V83.8395C83.0441 82.2218 84.2735 80.936 85.8004 80.936C87.3472 80.936 88.5766 82.2218 88.5766 83.8395V85.0424C88.2792 85.1876 88.0412 85.4987 88.0412 85.872V87.6142C88.0412 88.0704 88.418 88.4645 88.874 88.4645Z" fill="url(#paint24_linear)"/>
<path fill-rule="evenodd" clip-rule="evenodd" d="M8.1579 59.7939C8.1579 60.7867 7.41727 61.6179 6.53263 61.6179C5.64798 61.6179 4.90735 60.7867 4.90735 59.7939V56.3767C4.90735 55.3839 5.64798 54.5526 6.53263 54.5526C7.43784 54.5526 8.1579 55.3839 8.1579 56.3767V59.7939Z" fill="url(#paint25_linear)"/>
<path fill-rule="evenodd" clip-rule="evenodd" d="M7.47843 64.2039H6.84067V62.2875C6.98468 62.2875 7.12869 62.2413 7.19041 62.2182C7.33442 62.1721 7.8076 61.9181 7.93104 61.8257C8.03391 61.7103 8.38365 61.2947 8.46594 61.1561C8.52766 60.9945 8.63053 60.7636 8.67167 60.5789C8.71282 60.4173 8.71282 60.2788 8.71282 60.2788C8.73339 60.1171 8.75397 59.817 8.75397 59.6554V58.4316C8.75397 58.2469 8.71282 57.9699 8.6511 57.8082L8.48652 57.2541C8.44537 57.0925 8.40422 57.0925 8.40422 57.2772V57.7851C8.40422 57.9468 8.40422 58.2469 8.40422 58.4316V59.6554C8.40422 59.817 8.36308 60.3711 8.34251 60.4866C8.30136 60.6251 8.1162 61.0407 8.03391 61.1561C7.95162 61.2485 7.64302 61.5487 7.54015 61.641C7.43729 61.7103 7.02583 61.8719 6.90239 61.895C6.75838 61.9181 6.65551 61.9181 6.65551 61.9181C6.61436 61.9181 6.59379 61.9181 6.59379 61.9181C6.57322 61.9181 6.55265 61.9181 6.55265 61.9181C6.53207 61.9181 6.5115 61.9181 6.5115 61.9181C6.49093 61.9181 6.14118 61.8719 6.01774 61.8488C5.89431 61.8026 5.52399 61.5948 5.42112 61.5256C5.33883 61.4332 5.05081 61.0869 4.98909 60.9714C4.92737 60.8329 4.78336 60.3942 4.76278 60.2557C4.74221 60.1171 4.74221 59.8632 4.74221 59.6784V58.4547C4.74221 58.27 4.74221 57.9699 4.74221 57.8082V57.3003C4.74221 57.1386 4.68049 57.1386 4.63935 57.2772L4.47476 57.8313C4.3719 57.9699 4.33075 58.2469 4.33075 58.4316V59.6554C4.33075 59.817 4.3719 60.4404 4.41304 60.602C4.45419 60.7636 4.68049 61.2947 4.76278 61.4332C4.86565 61.5487 5.23597 61.9181 5.35941 62.0104C5.50342 62.0797 5.70915 62.1952 5.87373 62.2644C6.01774 62.3337 6.14118 62.3337 6.14118 62.3337H6.2029V64.2501H5.58571C5.50342 64.2501 5.4417 64.3194 5.4417 64.4117V64.7119C5.4417 64.8042 5.50342 64.8735 5.58571 64.8735H6.5115L7.47843 64.8344C7.54015 64.8344 7.60187 64.8042 7.60187 64.7119V64.3424C7.62245 64.2501 7.54015 64.2039 7.47843 64.2039Z" fill="url(#paint26_linear)"/>
<path fill-rule="evenodd" clip-rule="evenodd" d="M6.262 0.0600811L6.67488 0L8.06162 3.88006H10.2282V4.31062H7.76262L6.62458 1.12642L6.20797 8.05153L5.79426 8.10923L4.58896 4.60868L3.68664 6.17849L2.52353 4.31062H0.644531V3.88006H2.75872L3.67206 5.34682L4.68646 3.58201L5.8473 6.95345L6.262 0.0600811Z" fill="url(#paint27_linear)"/>
<path d="M140.928 81.0923H146.611V81.9952H140.928V81.0923Z" fill="url(#paint28_linear)"/>
<path d="M140.928 81.6669H141.34V88.8905H140.928V81.6669Z" fill="url(#paint29_linear)"/>
<path d="M139.239 88.0286L141.34 86.8556V89.2015L139.239 88.0286Z" fill="url(#paint30_linear)"/>
<path d="M146.199 81.6669H146.611V88.8905H146.199V81.6669Z" fill="url(#paint31_linear)"/>
<path d="M144.511 88.0286L146.611 86.8556V89.2015L144.511 88.0286Z" fill="url(#paint32_linear)"/>
<path d="M140.279 28.978H141.602V32.8561H140.279V28.978Z" fill="url(#paint33_linear)"/>
<path d="M142.264 28.978H143.587V32.8561H142.264V28.978Z" fill="url(#paint34_linear)"/>
<path d="M144.248 28.978H145.572V32.8561H144.248V28.978Z" fill="url(#paint35_linear)"/>
<path d="M144.645 30.6043H145.175V34.4824H144.645V30.6043Z" fill="url(#paint36_linear)"/>
<path d="M142.66 30.6043H143.19V34.4824H142.66V30.6043Z" fill="url(#paint37_linear)"/>
<path d="M140.676 30.6043H141.205V34.4824H140.676V30.6043Z" fill="url(#paint38_linear)"/>
<path fill-rule="evenodd" clip-rule="evenodd" d="M146.328 29.0052H139.523V34.3947H146.328V29.0052ZM139.239 28.7511V34.6488H146.611V28.7511H139.239Z" fill="url(#paint39_linear)"/>
<path fill-rule="evenodd" clip-rule="evenodd" d="M144.54 59.7939C144.54 60.7867 143.8 61.6179 142.915 61.6179C142.03 61.6179 141.29 60.7867 141.29 59.7939V56.3767C141.29 55.3839 142.03 54.5526 142.915 54.5526C143.82 54.5526 144.54 55.3839 144.54 56.3767V59.7939Z" fill="url(#paint40_linear)"/>
<path fill-rule="evenodd" clip-rule="evenodd" d="M143.861 64.2039H143.223V62.2875C143.367 62.2875 143.511 62.2413 143.573 62.2182C143.717 62.1721 144.19 61.9181 144.313 61.8257C144.416 61.7103 144.766 61.2947 144.848 61.1561C144.91 60.9945 145.013 60.7636 145.054 60.5789C145.095 60.4173 145.095 60.2788 145.095 60.2788C145.116 60.1171 145.136 59.817 145.136 59.6554V58.4316C145.136 58.2469 145.095 57.9699 145.034 57.8082L144.869 57.2541C144.828 57.0925 144.787 57.0925 144.787 57.2772V57.7851C144.787 57.9468 144.787 58.2469 144.787 58.4316V59.6554C144.787 59.817 144.745 60.3711 144.725 60.4866C144.684 60.6251 144.499 61.0407 144.416 61.1561C144.334 61.2485 144.025 61.5487 143.923 61.641C143.82 61.7103 143.408 61.8719 143.285 61.895C143.141 61.9181 143.038 61.9181 143.038 61.9181C142.997 61.9181 142.976 61.9181 142.976 61.9181C142.956 61.9181 142.935 61.9181 142.935 61.9181C142.914 61.9181 142.894 61.9181 142.894 61.9181C142.873 61.9181 142.524 61.8719 142.4 61.8488C142.277 61.8026 141.906 61.5948 141.804 61.5256C141.721 61.4332 141.433 61.0869 141.371 60.9714C141.31 60.8329 141.166 60.3942 141.145 60.2557C141.125 60.1171 141.125 59.8632 141.125 59.6784V58.4547C141.125 58.27 141.125 57.9699 141.125 57.8082V57.3003C141.125 57.1386 141.063 57.1386 141.022 57.2772L140.857 57.8313C140.754 57.9699 140.713 58.2469 140.713 58.4316V59.6554C140.713 59.817 140.754 60.4404 140.795 60.602C140.837 60.7636 141.063 61.2947 141.145 61.4332C141.248 61.5487 141.618 61.9181 141.742 62.0104C141.886 62.0797 142.092 62.1952 142.256 62.2644C142.4 62.3337 142.524 62.3337 142.524 62.3337H142.585V64.2501H141.968C141.886 64.2501 141.824 64.3194 141.824 64.4117V64.7119C141.824 64.8042 141.886 64.8735 141.968 64.8735H142.894L143.861 64.8344C143.923 64.8344 143.984 64.8042 143.984 64.7119V64.3424C144.005 64.2501 143.923 64.2039 143.861 64.2039Z" fill="url(#paint41_linear)"/>
<path fill-rule="evenodd" clip-rule="evenodd" d="M142.644 0.0600811L143.057 0L144.444 3.88006H146.611V4.31062H144.145L143.007 1.12642L142.59 8.05153L142.177 8.10923L140.971 4.60868L140.069 6.17849L138.906 4.31062H137.027V3.88006H139.141L140.054 5.34682L141.069 3.58201L142.23 6.95345L142.644 0.0600811Z" fill="url(#paint42_linear)"/>
<path d="M28.3276 82.0845H29.7831V86.4474H28.3276V82.0845Z" fill="url(#paint43_linear)"/>
<path d="M30.5108 82.0845H31.9663V86.4474H30.5108V82.0845Z" fill="url(#paint44_linear)"/>
<path d="M32.6941 82.0845H34.1496V86.4474H32.6941V82.0845Z" fill="url(#paint45_linear)"/>
<path d="M33.1307 83.9141H33.7129V88.277H33.1307V83.9141Z" fill="url(#paint46_linear)"/>
<path d="M30.9475 83.9141H31.5297V88.277H30.9475V83.9141Z" fill="url(#paint47_linear)"/>
<path d="M28.7642 83.9141H29.3464V88.277H28.7642V83.9141Z" fill="url(#paint48_linear)"/>
<path fill-rule="evenodd" clip-rule="evenodd" d="M34.9813 82.1151H27.4958V88.1783H34.9813V82.1151ZM27.1839 81.8293V88.4641H35.2932V81.8293H27.1839Z" fill="url(#paint49_linear)"/>
<path fill-rule="evenodd" clip-rule="evenodd" d="M57.7776 35.117C59.4612 35.117 60.826 33.7522 60.826 32.0686C60.826 30.385 59.4612 29.0201 57.7776 29.0201C56.094 29.0201 54.7291 30.385 54.7291 32.0686C54.7291 33.7522 56.094 35.117 57.7776 35.117ZM57.7776 35.386C59.6097 35.386 61.095 33.9007 61.095 32.0686C61.095 30.2364 59.6097 28.7511 57.7776 28.7511C55.9454 28.7511 54.4602 30.2364 54.4602 32.0686C54.4602 33.9007 55.9454 35.386 57.7776 35.386Z" fill="url(#paint50_linear)"/>
<path d="M58.9406 32.0686C58.9406 32.7114 58.4194 33.2326 57.7766 33.2326C57.1337 33.2326 56.6125 32.7114 56.6125 32.0686C56.6125 31.4257 57.1337 30.9046 57.7766 30.9046C58.4194 30.9046 58.9406 31.4257 58.9406 32.0686Z" fill="url(#paint51_linear)"/>
<path d="M55.748 30.082C55.2935 30.5184 55.3515 31.2914 55.3515 31.2914C55.3515 31.2914 55.6701 30.4583 55.8975 30.2287C56.1248 29.9991 56.9072 29.7047 56.9072 29.7047C56.9072 29.7047 56.2025 29.6456 55.748 30.082Z" fill="url(#paint52_linear)"/>
<path fill-rule="evenodd" clip-rule="evenodd" d="M56.655 29.7095C56.8057 29.6962 56.9072 29.7047 56.9072 29.7047C56.9072 29.7047 56.8112 29.7408 56.6767 29.7976C56.4272 29.903 56.0452 30.0795 55.8975 30.2287C55.7465 30.3811 55.5554 30.7996 55.4439 31.0636C55.3875 31.1973 55.3515 31.2914 55.3515 31.2914C55.3515 31.2914 55.344 31.1911 55.3556 31.0423C55.3762 30.7781 55.4572 30.3612 55.748 30.082C56.0301 29.8112 56.4085 29.7312 56.655 29.7095ZM56.3091 29.8658C56.1377 29.9176 55.9586 30.0041 55.8101 30.1467C55.6431 30.307 55.5495 30.5201 55.498 30.7219C55.5421 30.6288 55.5897 30.534 55.638 30.4478C55.7005 30.3363 55.7679 30.2321 55.8337 30.1656C55.8996 30.0991 56 30.0328 56.1068 29.972C56.1711 29.9355 56.24 29.8997 56.3091 29.8658Z" fill="url(#paint53_linear)"/>
<path d="M56.2796 30.5491C55.9773 30.8367 56.0134 31.3486 56.0134 31.3486C56.0134 31.3486 56.2269 30.798 56.3781 30.6467C56.5293 30.4954 57.0482 30.3029 57.0482 30.3029C57.0482 30.3029 56.5819 30.2616 56.2796 30.5491Z" fill="url(#paint54_linear)"/>
<path fill-rule="evenodd" clip-rule="evenodd" d="M56.7717 30.3191C56.9288 30.2923 57.0482 30.3029 57.0482 30.3029C57.0482 30.3029 56.9342 30.3452 56.7975 30.4057C56.6426 30.4743 56.4585 30.5663 56.3781 30.6467C56.2943 30.7306 56.1913 30.9371 56.1162 31.1046C56.0558 31.2392 56.0134 31.3486 56.0134 31.3486C56.0134 31.3486 56.0052 31.2321 56.0294 31.079C56.056 30.9112 56.1215 30.6995 56.2796 30.5491C56.4289 30.4071 56.6183 30.3453 56.7717 30.3191Z" fill="url(#paint55_linear)"/>
<path d="M56.7395 30.9682C56.5354 31.1624 56.5597 31.5081 56.5597 31.5081C56.5597 31.5081 56.7039 31.1363 56.8061 31.0341C56.9082 30.9319 57.2586 30.8019 57.2586 30.8019C57.2586 30.8019 56.9437 30.774 56.7395 30.9682Z" fill="url(#paint56_linear)"/>
<path fill-rule="evenodd" clip-rule="evenodd" d="M56.9013 30.8626C57.0778 30.7858 57.2586 30.8019 57.2586 30.8019C57.2586 30.8019 57.0798 30.8682 56.9404 30.9434C56.8846 30.9734 56.8352 31.0049 56.8061 31.0341C56.7696 31.0706 56.7278 31.1415 56.689 31.2175C56.6193 31.3544 56.5597 31.5081 56.5597 31.5081C56.5597 31.5081 56.5484 31.3466 56.6064 31.1823C56.6332 31.1063 56.6749 31.0296 56.7395 30.9682C56.789 30.9211 56.8449 30.8871 56.9013 30.8626Z" fill="url(#paint57_linear)"/>
<path d="M59.8932 33.9341C60.3309 33.4808 60.2436 32.7106 60.2436 32.7106C60.2436 32.7106 59.9568 33.5552 59.7383 33.7932C59.5199 34.0313 58.7492 34.3551 58.7492 34.3551C58.7492 34.3551 59.4556 34.3875 59.8932 33.9341Z" fill="url(#paint58_linear)"/>
<path fill-rule="evenodd" clip-rule="evenodd" d="M58.976 34.2535C58.8438 34.3154 58.7492 34.3551 58.7492 34.3551C58.7492 34.3551 58.8509 34.3598 59.001 34.3408C59.2466 34.3098 59.6217 34.2155 59.8932 33.9341C60.1732 33.6441 60.2384 33.2244 60.249 32.9596C60.2549 32.8105 60.2436 32.7106 60.2436 32.7106C60.2436 32.7106 60.2112 32.806 60.1599 32.9417C60.0585 33.2098 59.8834 33.6352 59.7383 33.7932C59.5964 33.9479 59.2213 34.1388 58.976 34.2535ZM59.3408 34.1715C59.5101 34.1132 59.6857 34.02 59.8287 33.8719C59.9895 33.7053 60.075 33.4889 60.1187 33.2852C60.0783 33.3799 60.0343 33.4764 59.9893 33.5644C59.9311 33.6783 59.8677 33.7849 59.8044 33.8538C59.7411 33.9228 59.6433 33.9929 59.5389 34.0576C59.476 34.0966 59.4085 34.135 59.3408 34.1715Z" fill="url(#paint59_linear)"/>
<path d="M59.3446 33.4875C59.6358 33.1887 59.5803 32.6785 59.5803 32.6785C59.5803 32.6785 59.3878 33.2368 59.2425 33.3937C59.0971 33.5507 58.5859 33.7627 58.5859 33.7627C58.5859 33.7627 59.0535 33.7863 59.3446 33.4875Z" fill="url(#paint60_linear)"/>
<path fill-rule="evenodd" clip-rule="evenodd" d="M58.8325 33.6504C58.6982 33.7161 58.5859 33.7627 58.5859 33.7627C58.5859 33.7627 58.7056 33.7688 58.8617 33.736C59.0139 33.704 59.2008 33.6351 59.3446 33.4875C59.4969 33.3312 59.5543 33.1172 59.5745 32.9485C59.5929 32.7946 59.5803 32.6785 59.5803 32.6785C59.5803 32.6785 59.5421 32.7894 59.4868 32.9262C59.4181 33.0964 59.3231 33.3067 59.2425 33.3937C59.1653 33.4771 58.9848 33.576 58.8325 33.6504Z" fill="url(#paint61_linear)"/>
<path d="M58.8693 33.0862C59.0659 32.8844 59.0285 32.5398 59.0285 32.5398C59.0285 32.5398 58.8985 32.9169 58.8003 33.0229C58.7021 33.1289 58.3569 33.2721 58.3569 33.2721C58.3569 33.2721 58.6727 33.288 58.8693 33.0862Z" fill="url(#paint62_linear)"/>
<path fill-rule="evenodd" clip-rule="evenodd" d="M58.6695 33.1186C58.5331 33.199 58.3569 33.2721 58.3569 33.2721C58.3569 33.2721 58.5382 33.2812 58.7116 33.1978C58.7671 33.1712 58.8217 33.1351 58.8693 33.0862C58.9315 33.0223 58.9703 32.9442 58.9942 32.8672C59.046 32.7008 59.0285 32.5398 59.0285 32.5398C59.0285 32.5398 58.9748 32.6957 58.9103 32.8351C58.8745 32.9126 58.8354 32.985 58.8003 33.0229C58.7723 33.0531 58.7241 33.0864 58.6695 33.1186Z" fill="url(#paint63_linear)"/>
<path fill-rule="evenodd" clip-rule="evenodd" d="M57.7776 88.1952C59.4612 88.1952 60.826 86.8303 60.826 85.1467C60.826 83.4631 59.4612 82.0983 57.7776 82.0983C56.094 82.0983 54.7291 83.4631 54.7291 85.1467C54.7291 86.8303 56.094 88.1952 57.7776 88.1952ZM57.7776 88.4641C59.6097 88.4641 61.095 86.9789 61.095 85.1467C61.095 83.3146 59.6097 81.8293 57.7776 81.8293C55.9454 81.8293 54.4602 83.3146 54.4602 85.1467C54.4602 86.9789 55.9454 88.4641 57.7776 88.4641Z" fill="url(#paint64_linear)"/>
<path d="M58.9406 85.1467C58.9406 85.7896 58.4194 86.3107 57.7766 86.3107C57.1337 86.3107 56.6125 85.7896 56.6125 85.1467C56.6125 84.5039 57.1337 83.9827 57.7766 83.9827C58.4194 83.9827 58.9406 84.5039 58.9406 85.1467Z" fill="url(#paint65_linear)"/>
<path d="M55.748 83.1601C55.2935 83.5966 55.3515 84.3695 55.3515 84.3695C55.3515 84.3695 55.6701 83.5365 55.8975 83.3069C56.1248 83.0773 56.9072 82.7829 56.9072 82.7829C56.9072 82.7829 56.2025 82.7237 55.748 83.1601Z" fill="url(#paint66_linear)"/>
<path fill-rule="evenodd" clip-rule="evenodd" d="M56.655 82.7876C56.8057 82.7744 56.9072 82.7829 56.9072 82.7829C56.9072 82.7829 56.8112 82.819 56.6767 82.8758C56.4272 82.9811 56.0452 83.1577 55.8975 83.3069C55.7465 83.4593 55.5554 83.8777 55.4439 84.1418C55.3875 84.2754 55.3515 84.3695 55.3515 84.3695C55.3515 84.3695 55.344 84.2692 55.3556 84.1205C55.3762 83.8563 55.4572 83.4393 55.748 83.1601C56.0301 82.8893 56.4085 82.8093 56.655 82.7876ZM56.3091 82.944C56.1377 82.9958 55.9586 83.0822 55.8101 83.2248C55.6431 83.3852 55.5495 83.5982 55.498 83.8001C55.5421 83.707 55.5897 83.6122 55.638 83.5259C55.7005 83.4144 55.7679 83.3103 55.8337 83.2438C55.8996 83.1773 56 83.1109 56.1068 83.0502C56.1711 83.0136 56.24 82.9778 56.3091 82.944Z" fill="url(#paint67_linear)"/>
<path d="M56.2796 83.6273C55.9773 83.9148 56.0134 84.4268 56.0134 84.4268C56.0134 84.4268 56.2269 83.8762 56.3781 83.7249C56.5293 83.5735 57.0482 83.381 57.0482 83.381C57.0482 83.381 56.5819 83.3397 56.2796 83.6273Z" fill="url(#paint68_linear)"/>
<path fill-rule="evenodd" clip-rule="evenodd" d="M56.7717 83.3973C56.9288 83.3705 57.0482 83.381 57.0482 83.381C57.0482 83.381 56.9342 83.4233 56.7975 83.4839C56.6426 83.5525 56.4585 83.6445 56.3781 83.7249C56.2943 83.8087 56.1913 84.0153 56.1162 84.1828C56.0558 84.3174 56.0134 84.4268 56.0134 84.4268C56.0134 84.4268 56.0052 84.3103 56.0294 84.1572C56.056 83.9894 56.1215 83.7776 56.2796 83.6273C56.4289 83.4852 56.6183 83.4234 56.7717 83.3973Z" fill="url(#paint69_linear)"/>
<path d="M56.7395 84.0463C56.5354 84.2405 56.5597 84.5863 56.5597 84.5863C56.5597 84.5863 56.7039 84.2144 56.8061 84.1122C56.9082 84.01 57.2586 83.88 57.2586 83.88C57.2586 83.88 56.9437 83.8521 56.7395 84.0463Z" fill="url(#paint70_linear)"/>
<path fill-rule="evenodd" clip-rule="evenodd" d="M56.9013 83.9408C57.0778 83.864 57.2586 83.88 57.2586 83.88C57.2586 83.88 57.0798 83.9464 56.9404 84.0216C56.8846 84.0516 56.8352 84.0831 56.8061 84.1122C56.7696 84.1487 56.7278 84.2196 56.689 84.2957C56.6193 84.4326 56.5597 84.5863 56.5597 84.5863C56.5597 84.5863 56.5484 84.4247 56.6064 84.2605C56.6332 84.1844 56.6749 84.1078 56.7395 84.0463C56.789 83.9993 56.8449 83.9653 56.9013 83.9408Z" fill="url(#paint71_linear)"/>
<path d="M59.8932 87.0123C60.3309 86.559 60.2436 85.7888 60.2436 85.7888C60.2436 85.7888 59.9568 86.6333 59.7383 86.8714C59.5199 87.1094 58.7492 87.4333 58.7492 87.4333C58.7492 87.4333 59.4556 87.4656 59.8932 87.0123Z" fill="url(#paint72_linear)"/>
<path fill-rule="evenodd" clip-rule="evenodd" d="M58.976 87.3317C58.8438 87.3936 58.7492 87.4333 58.7492 87.4333C58.7492 87.4333 58.8509 87.4379 59.001 87.419C59.2466 87.3879 59.6217 87.2936 59.8932 87.0123C60.1732 86.7223 60.2384 86.3025 60.249 86.0378C60.2549 85.8887 60.2436 85.7888 60.2436 85.7888C60.2436 85.7888 60.2112 85.8842 60.1599 86.0199C60.0585 86.2879 59.8834 86.7133 59.7383 86.8714C59.5964 87.026 59.2213 87.2169 58.976 87.3317ZM59.3408 87.2496C59.5101 87.1913 59.6857 87.0982 59.8287 86.95C59.9895 86.7835 60.075 86.567 60.1187 86.3633C60.0783 86.4581 60.0343 86.5546 59.9893 86.6426C59.9311 86.7564 59.8677 86.863 59.8044 86.932C59.7411 87.0009 59.6433 87.0711 59.5389 87.1358C59.476 87.1748 59.4085 87.2132 59.3408 87.2496Z" fill="url(#paint73_linear)"/>
<path d="M59.3446 86.5657C59.6358 86.2668 59.5803 85.7566 59.5803 85.7566C59.5803 85.7566 59.3878 86.3149 59.2425 86.4719C59.0971 86.6288 58.5859 86.8409 58.5859 86.8409C58.5859 86.8409 59.0535 86.8645 59.3446 86.5657Z" fill="url(#paint74_linear)"/>
<path fill-rule="evenodd" clip-rule="evenodd" d="M58.8325 86.7286C58.6982 86.7943 58.5859 86.8409 58.5859 86.8409C58.5859 86.8409 58.7056 86.8469 58.8617 86.8142C59.0139 86.7822 59.2008 86.7133 59.3446 86.5657C59.4969 86.4094 59.5543 86.1953 59.5745 86.0266C59.5929 85.8727 59.5803 85.7566 59.5803 85.7566C59.5803 85.7566 59.5421 85.8675 59.4868 86.0044C59.4181 86.1745 59.3231 86.3849 59.2425 86.4719C59.1653 86.5552 58.9848 86.6542 58.8325 86.7286Z" fill="url(#paint75_linear)"/>
<path d="M58.8693 86.1644C59.0659 85.9626 59.0285 85.618 59.0285 85.618C59.0285 85.618 58.8985 85.995 58.8003 86.101C58.7021 86.207 58.3569 86.3503 58.3569 86.3503C58.3569 86.3503 58.6727 86.3662 58.8693 86.1644Z" fill="url(#paint76_linear)"/>
<path fill-rule="evenodd" clip-rule="evenodd" d="M58.6695 86.1967C58.5331 86.2772 58.3569 86.3503 58.3569 86.3503C58.3569 86.3503 58.5382 86.3594 58.7116 86.276C58.7671 86.2494 58.8217 86.2132 58.8693 86.1644C58.9315 86.1005 58.9703 86.0223 58.9942 85.9453C59.046 85.779 59.0285 85.618 59.0285 85.618C59.0285 85.618 58.9748 85.7738 58.9103 85.9133C58.8745 85.9908 58.8354 86.0632 58.8003 86.101C58.7723 86.1313 58.7241 86.1646 58.6695 86.1967Z" fill="url(#paint77_linear)"/>
<path fill-rule="evenodd" clip-rule="evenodd" d="M59.025 59.7939C59.025 60.7867 58.2844 61.6179 57.3997 61.6179C56.5151 61.6179 55.7745 60.7867 55.7745 59.7939V56.3767C55.7745 55.3839 56.5151 54.5526 57.3997 54.5526C58.3049 54.5526 59.025 55.3839 59.025 56.3767V59.7939Z" fill="url(#paint78_linear)"/>
<path fill-rule="evenodd" clip-rule="evenodd" d="M58.3455 64.2039H57.7078V62.2875C57.8518 62.2875 57.9958 62.2413 58.0575 62.2182C58.2015 62.1721 58.6747 61.9181 58.7981 61.8257C58.901 61.7103 59.2508 61.2947 59.333 61.1561C59.3948 60.9945 59.4976 60.7636 59.5388 60.5789C59.5799 60.4173 59.5799 60.2788 59.5799 60.2788C59.6005 60.1171 59.6211 59.817 59.6211 59.6554V58.4316C59.6211 58.2469 59.5799 57.9699 59.5182 57.8082L59.3536 57.2541C59.3125 57.0925 59.2713 57.0925 59.2713 57.2772V57.7851C59.2713 57.9468 59.2713 58.2469 59.2713 58.4316V59.6554C59.2713 59.817 59.2302 60.3711 59.2096 60.4866C59.1685 60.6251 58.9833 61.0407 58.901 61.1561C58.8187 61.2485 58.5101 61.5487 58.4073 61.641C58.3044 61.7103 57.8929 61.8719 57.7695 61.895C57.6255 61.9181 57.5226 61.9181 57.5226 61.9181C57.4815 61.9181 57.4609 61.9181 57.4609 61.9181C57.4403 61.9181 57.4198 61.9181 57.4198 61.9181C57.3992 61.9181 57.3786 61.9181 57.3786 61.9181C57.358 61.9181 57.0083 61.8719 56.8848 61.8488C56.7614 61.8026 56.3911 61.5948 56.2882 61.5256C56.2059 61.4332 55.9179 61.0869 55.8562 60.9714C55.7945 60.8329 55.6505 60.3942 55.6299 60.2557C55.6093 60.1171 55.6093 59.8632 55.6093 59.6784V58.4547C55.6093 58.27 55.6093 57.9699 55.6093 57.8082V57.3003C55.6093 57.1386 55.5476 57.1386 55.5065 57.2772L55.3419 57.8313C55.239 57.9699 55.1979 58.2469 55.1979 58.4316V59.6554C55.1979 59.817 55.239 60.4404 55.2801 60.602C55.3213 60.7636 55.5476 61.2947 55.6299 61.4332C55.7328 61.5487 56.1031 61.9181 56.2265 62.0104C56.3705 62.0797 56.5763 62.1952 56.7408 62.2644C56.8848 62.3337 57.0083 62.3337 57.0083 62.3337H57.07V64.2501H56.4528C56.3705 64.2501 56.3088 64.3194 56.3088 64.4117V64.7119C56.3088 64.8042 56.3705 64.8735 56.4528 64.8735H57.3786L58.3455 64.8344C58.4073 64.8344 58.469 64.8042 58.469 64.7119V64.3424C58.4895 64.2501 58.4073 64.2039 58.3455 64.2039Z" fill="url(#paint79_linear)"/>
<path fill-rule="evenodd" clip-rule="evenodd" d="M31.7595 56.082L32.2041 56.0274L33.6976 59.5547H36.0308V59.9461H33.3755L32.15 57.0514L31.7013 63.3469L31.2558 63.3994L29.9578 60.2171L28.986 61.6442L27.7334 59.9461H25.7099V59.5547H27.9867L28.9703 60.8881L30.0628 59.2837L31.3129 62.3487L31.7595 56.082Z" fill="url(#paint80_linear)"/>
<path d="M111.27 28.0137H116.385V28.8345H111.27V28.0137Z" fill="url(#paint81_linear)"/>
<path d="M111.27 28.536H111.64V35.1029H111.27V28.536Z" fill="url(#paint82_linear)"/>
<path d="M109.75 34.3194L111.64 33.2531V35.3857L109.75 34.3194Z" fill="url(#paint83_linear)"/>
<path d="M116.014 28.536H116.385V35.1029H116.014V28.536Z" fill="url(#paint84_linear)"/>
<path d="M114.494 34.3194L116.385 33.2531V35.3857L114.494 34.3194Z" fill="url(#paint85_linear)"/>
<path d="M28.7037 129.748H33.8188V130.569H28.7037V129.748Z" fill="url(#paint86_linear)"/>
<path d="M28.7037 130.27H29.0743V136.837H28.7037V130.27Z" fill="url(#paint87_linear)"/>
<path d="M27.1839 136.054L29.0743 134.987V137.12L27.1839 136.054Z" fill="url(#paint88_linear)"/>
<path d="M33.4481 130.27H33.8188V136.837H33.4481V130.27Z" fill="url(#paint89_linear)"/>
<path d="M31.9284 136.054L33.8188 134.987V137.12L31.9284 136.054Z" fill="url(#paint90_linear)"/>
<path d="M3.89546 130.712H5.21864V134.59H3.89546V130.712Z" fill="url(#paint91_linear)"/>
<path d="M5.88023 130.712H7.20342V134.59H5.88023V130.712Z" fill="url(#paint92_linear)"/>
<path d="M7.86501 130.712H9.18819V134.59H7.86501V130.712Z" fill="url(#paint93_linear)"/>
<path d="M8.26197 132.338H8.79124V136.216H8.26197V132.338Z" fill="url(#paint94_linear)"/>
<path d="M6.27719 132.338H6.80646V136.216H6.27719V132.338Z" fill="url(#paint95_linear)"/>
<path d="M4.29241 132.338H4.82168V136.216H4.29241V132.338Z" fill="url(#paint96_linear)"/>
<path fill-rule="evenodd" clip-rule="evenodd" d="M9.9443 130.739H3.13935V136.128H9.9443V130.739ZM2.85581 130.485V136.383H10.2278V130.485H2.85581Z" fill="url(#paint97_linear)"/>
<path d="M88.874 137.12C89.3103 137.12 89.6871 136.762 89.6871 136.347L90.5832 135.555L89.6871 134.763C89.6871 134.405 89.4689 134.141 89.1318 134.009V132.915C89.1318 131.162 87.6446 129.748 85.8004 129.748C83.9761 129.748 82.4889 131.162 82.4889 132.915V134.009C82.1716 134.141 81.9336 134.424 81.9336 134.763L80.9996 135.555L81.9336 136.347C81.9336 136.762 82.3104 137.12 82.7665 137.12C83.2226 137.12 83.5993 136.762 83.5993 136.347V134.763C83.5993 134.405 83.3614 134.141 83.0441 134.009V132.915C83.0441 131.445 84.2735 130.276 85.8004 130.276C87.3472 130.276 88.5766 131.445 88.5766 132.915V134.009C88.2792 134.141 88.0412 134.424 88.0412 134.763V136.347C88.0412 136.762 88.418 137.12 88.874 137.12Z" fill="url(#paint98_linear)"/>
<path d="M140.279 130.712H141.602V134.59H140.279V130.712Z" fill="url(#paint99_linear)"/>
<path d="M142.264 130.712H143.587V134.59H142.264V130.712Z" fill="url(#paint100_linear)"/>
<path d="M144.248 130.712H145.572V134.59H144.248V130.712Z" fill="url(#paint101_linear)"/>
<path d="M144.645 132.338H145.175V136.216H144.645V132.338Z" fill="url(#paint102_linear)"/>
<path d="M142.66 132.338H143.19V136.216H142.66V132.338Z" fill="url(#paint103_linear)"/>
<path d="M140.676 132.338H141.205V136.216H140.676V132.338Z" fill="url(#paint104_linear)"/>
<path fill-rule="evenodd" clip-rule="evenodd" d="M146.328 130.739H139.523V136.128H146.328V130.739ZM139.239 130.485V136.383H146.611V130.485H139.239Z" fill="url(#paint105_linear)"/>
<path fill-rule="evenodd" clip-rule="evenodd" d="M57.7776 136.851C59.4612 136.851 60.826 135.486 60.826 133.802C60.826 132.119 59.4612 130.754 57.7776 130.754C56.094 130.754 54.7291 132.119 54.7291 133.802C54.7291 135.486 56.094 136.851 57.7776 136.851ZM57.7776 137.12C59.6097 137.12 61.095 135.634 61.095 133.802C61.095 131.97 59.6097 130.485 57.7776 130.485C55.9454 130.485 54.4602 131.97 54.4602 133.802C54.4602 135.634 55.9454 137.12 57.7776 137.12Z" fill="url(#paint106_linear)"/>
<path d="M58.9406 133.802C58.9406 134.445 58.4194 134.966 57.7766 134.966C57.1337 134.966 56.6125 134.445 56.6125 133.802C56.6125 133.159 57.1337 132.638 57.7766 132.638C58.4194 132.638 58.9406 133.159 58.9406 133.802Z" fill="url(#paint107_linear)"/>
<path d="M55.748 131.816C55.2935 132.252 55.3515 133.025 55.3515 133.025C55.3515 133.025 55.6701 132.192 55.8975 131.962C56.1248 131.733 56.9072 131.438 56.9072 131.438C56.9072 131.438 56.2025 131.379 55.748 131.816Z" fill="url(#paint108_linear)"/>
<path fill-rule="evenodd" clip-rule="evenodd" d="M56.655 131.443C56.8057 131.43 56.9072 131.438 56.9072 131.438C56.9072 131.438 56.8112 131.475 56.6767 131.531C56.4272 131.637 56.0452 131.813 55.8975 131.962C55.7465 132.115 55.5554 132.533 55.4439 132.797C55.3875 132.931 55.3515 133.025 55.3515 133.025C55.3515 133.025 55.344 132.925 55.3556 132.776C55.3762 132.512 55.4572 132.095 55.748 131.816C56.0301 131.545 56.4085 131.465 56.655 131.443ZM56.3091 131.6C56.1377 131.651 55.9586 131.738 55.8101 131.88C55.6431 132.041 55.5495 132.254 55.498 132.456C55.5421 132.363 55.5897 132.268 55.638 132.182C55.7005 132.07 55.7679 131.966 55.8337 131.899C55.8996 131.833 56 131.767 56.1068 131.706C56.1711 131.669 56.24 131.633 56.3091 131.6Z" fill="url(#paint109_linear)"/>
<path d="M56.2796 132.283C55.9773 132.57 56.0134 133.082 56.0134 133.082C56.0134 133.082 56.2269 132.532 56.3781 132.38C56.5293 132.229 57.0482 132.037 57.0482 132.037C57.0482 132.037 56.5819 131.995 56.2796 132.283Z" fill="url(#paint110_linear)"/>
<path fill-rule="evenodd" clip-rule="evenodd" d="M56.7717 132.053C56.9288 132.026 57.0482 132.037 57.0482 132.037C57.0482 132.037 56.9342 132.079 56.7975 132.139C56.6426 132.208 56.4585 132.3 56.3781 132.38C56.2943 132.464 56.1913 132.671 56.1162 132.838C56.0558 132.973 56.0134 133.082 56.0134 133.082C56.0134 133.082 56.0052 132.966 56.0294 132.813C56.056 132.645 56.1215 132.433 56.2796 132.283C56.4289 132.141 56.6183 132.079 56.7717 132.053Z" fill="url(#paint111_linear)"/>
<path d="M56.7395 132.702C56.5354 132.896 56.5597 133.242 56.5597 133.242C56.5597 133.242 56.7039 132.87 56.8061 132.768C56.9082 132.666 57.2586 132.536 57.2586 132.536C57.2586 132.536 56.9437 132.508 56.7395 132.702Z" fill="url(#paint112_linear)"/>
<path fill-rule="evenodd" clip-rule="evenodd" d="M56.9013 132.596C57.0778 132.52 57.2586 132.536 57.2586 132.536C57.2586 132.536 57.0798 132.602 56.9404 132.677C56.8846 132.707 56.8352 132.739 56.8061 132.768C56.7696 132.804 56.7278 132.875 56.689 132.951C56.6193 133.088 56.5597 133.242 56.5597 133.242C56.5597 133.242 56.5484 133.08 56.6064 132.916C56.6332 132.84 56.6749 132.763 56.7395 132.702C56.789 132.655 56.8449 132.621 56.9013 132.596Z" fill="url(#paint113_linear)"/>
<path d="M59.8932 135.668C60.3309 135.215 60.2436 134.444 60.2436 134.444C60.2436 134.444 59.9568 135.289 59.7383 135.527C59.5199 135.765 58.7492 136.089 58.7492 136.089C58.7492 136.089 59.4556 136.121 59.8932 135.668Z" fill="url(#paint114_linear)"/>
<path fill-rule="evenodd" clip-rule="evenodd" d="M58.976 135.987C58.8438 136.049 58.7492 136.089 58.7492 136.089C58.7492 136.089 58.8509 136.094 59.001 136.075C59.2466 136.044 59.6217 135.949 59.8932 135.668C60.1732 135.378 60.2384 134.958 60.249 134.693C60.2549 134.544 60.2436 134.444 60.2436 134.444C60.2436 134.444 60.2112 134.54 60.1599 134.675C60.0585 134.944 59.8834 135.369 59.7383 135.527C59.5964 135.682 59.2213 135.873 58.976 135.987ZM59.3408 135.905C59.5101 135.847 59.6857 135.754 59.8287 135.606C59.9895 135.439 60.075 135.223 60.1187 135.019C60.0783 135.114 60.0343 135.21 59.9893 135.298C59.9311 135.412 59.8677 135.519 59.8044 135.588C59.7411 135.657 59.6433 135.727 59.5389 135.791C59.476 135.83 59.4085 135.869 59.3408 135.905Z" fill="url(#paint115_linear)"/>
<path d="M59.3446 135.221C59.6358 134.922 59.5803 134.412 59.5803 134.412C59.5803 134.412 59.3878 134.971 59.2425 135.127C59.0971 135.284 58.5859 135.496 58.5859 135.496C58.5859 135.496 59.0535 135.52 59.3446 135.221Z" fill="url(#paint116_linear)"/>
<path fill-rule="evenodd" clip-rule="evenodd" d="M58.8325 135.384C58.6982 135.45 58.5859 135.496 58.5859 135.496C58.5859 135.496 58.7056 135.503 58.8617 135.47C59.0139 135.438 59.2008 135.369 59.3446 135.221C59.4969 135.065 59.5543 134.851 59.5745 134.682C59.5929 134.528 59.5803 134.412 59.5803 134.412C59.5803 134.412 59.5421 134.523 59.4868 134.66C59.4181 134.83 59.3231 135.04 59.2425 135.127C59.1653 135.211 58.9848 135.31 58.8325 135.384Z" fill="url(#paint117_linear)"/>
<path d="M58.8693 134.82C59.0659 134.618 59.0285 134.274 59.0285 134.274C59.0285 134.274 58.8985 134.651 58.8003 134.757C58.7021 134.863 58.3569 135.006 58.3569 135.006C58.3569 135.006 58.6727 135.022 58.8693 134.82Z" fill="url(#paint118_linear)"/>
<path fill-rule="evenodd" clip-rule="evenodd" d="M58.6695 134.852C58.5331 134.933 58.3569 135.006 58.3569 135.006C58.3569 135.006 58.5382 135.015 58.7116 134.932C58.7671 134.905 58.8217 134.869 58.8693 134.82C58.9315 134.756 58.9703 134.678 58.9942 134.601C59.046 134.435 59.0285 134.274 59.0285 134.274C59.0285 134.274 58.9748 134.429 58.9103 134.569C58.8745 134.646 58.8354 134.719 58.8003 134.757C58.7723 134.787 58.7241 134.82 58.6695 134.852Z" fill="url(#paint119_linear)"/>
<path d="M111.27 129.748H116.385V130.569H111.27V129.748Z" fill="url(#paint120_linear)"/>
<path d="M111.27 130.27H111.64V136.837H111.27V130.27Z" fill="url(#paint121_linear)"/>
<path d="M109.75 136.054L111.64 134.987V137.12L109.75 136.054Z" fill="url(#paint122_linear)"/>
<path d="M116.014 130.27H116.385V136.837H116.014V130.27Z" fill="url(#paint123_linear)"/>
<path d="M114.494 136.054L116.385 134.987V137.12L114.494 136.054Z" fill="url(#paint124_linear)"/>
<path d="M116.888 8.10923C117.325 8.10923 117.701 7.71518 117.701 7.2589L118.598 6.38783L117.701 5.51677C117.701 5.12271 117.483 4.83236 117.146 4.68718V3.48427C117.146 1.55548 115.659 0 113.815 0C111.99 0 110.503 1.55548 110.503 3.48427V4.68718C110.186 4.83236 109.948 5.14345 109.948 5.51677L109.014 6.38783L109.948 7.2589C109.948 7.71518 110.325 8.10923 110.781 8.10923C111.237 8.10923 111.614 7.71518 111.614 7.2589V5.51677C111.614 5.12271 111.376 4.83236 111.058 4.68718V3.48427C111.058 1.86657 112.288 0.580712 113.815 0.580712C115.362 0.580712 116.591 1.86657 116.591 3.48427V4.68718C116.294 4.83236 116.056 5.14345 116.056 5.51677V7.2589C116.056 7.71518 116.432 8.10923 116.888 8.10923Z" fill="url(#paint125_linear)"/>
<path d="M110.893 82.0845H112.349V86.4474H110.893V82.0845Z" fill="url(#paint126_linear)"/>
<path d="M113.077 82.0845H114.532V86.4474H113.077V82.0845Z" fill="url(#paint127_linear)"/>
<path d="M115.26 82.0845H116.715V86.4474H115.26V82.0845Z" fill="url(#paint128_linear)"/>
<path d="M115.697 83.9141H116.279V88.277H115.697V83.9141Z" fill="url(#paint129_linear)"/>
<path d="M113.513 83.9141H114.096V88.277H113.513V83.9141Z" fill="url(#paint130_linear)"/>
<path d="M111.33 83.9141H111.912V88.277H111.33V83.9141Z" fill="url(#paint131_linear)"/>
<path fill-rule="evenodd" clip-rule="evenodd" d="M117.547 82.1151H110.062V88.1783H117.547V82.1151ZM109.75 81.8293V88.4641H117.859V81.8293H109.75Z" fill="url(#paint132_linear)"/>
<path fill-rule="evenodd" clip-rule="evenodd" d="M114.326 56.082L114.77 56.0274L116.264 59.5547H118.597V59.9461H115.942L114.716 57.0514L114.268 63.3469L113.822 63.3994L112.524 60.2171L111.552 61.6442L110.3 59.9461H108.276V59.5547H110.553L111.537 60.8881L112.629 59.2837L113.879 62.3487L114.326 56.082Z" fill="url(#paint133_linear)"/>
<path d="M82.1432 0.992205H83.5987V5.35511H82.1432V0.992205Z" fill="url(#paint134_linear)"/>
<path d="M84.3264 0.992205H85.7819V5.35511H84.3264V0.992205Z" fill="url(#paint135_linear)"/>
<path d="M86.5097 0.992205H87.9652V5.35511H86.5097V0.992205Z" fill="url(#paint136_linear)"/>
<path d="M86.9464 2.82181H87.5285V7.18471H86.9464V2.82181Z" fill="url(#paint137_linear)"/>
<path d="M84.7631 2.82181H85.3453V7.18471H84.7631V2.82181Z" fill="url(#paint138_linear)"/>
<path d="M82.5798 2.82181H83.162V7.18471H82.5798V2.82181Z" fill="url(#paint139_linear)"/>
<path fill-rule="evenodd" clip-rule="evenodd" d="M88.7969 1.02283H81.3115V7.08604H88.7969V1.02283ZM80.9996 0.737018V7.37184H89.1088V0.737018H80.9996Z" fill="url(#paint140_linear)"/>
<path fill-rule="evenodd" clip-rule="evenodd" d="M59.0353 0.0600811L59.4799 0L60.9733 3.88006H63.3065V4.31062H60.6513L59.4257 1.12642L58.9771 8.05153L58.5315 8.10923L57.2335 4.60868L56.2618 6.17849L55.0092 4.31062H52.9857V3.88006H55.2625L56.2461 5.34682L57.3385 3.58201L58.5887 6.95345L59.0353 0.0600811Z" fill="url(#paint141_linear)"/>
<path d="M34.3207 113.529C34.757 113.529 35.1337 113.135 35.1337 112.679L36.0299 111.808L35.1337 110.937C35.1337 110.543 34.9156 110.253 34.5785 110.107V108.904C34.5785 106.976 33.0913 105.42 31.2471 105.42C29.4228 105.42 27.9355 106.976 27.9355 108.904V110.107C27.6183 110.253 27.3803 110.564 27.3803 110.937L26.4463 111.808L27.3803 112.679C27.3803 113.135 27.7571 113.529 28.2132 113.529C28.6692 113.529 29.046 113.135 29.046 112.679V110.937C29.046 110.543 28.808 110.253 28.4908 110.107V108.904C28.4908 107.287 29.7202 106.001 31.2471 106.001C32.7938 106.001 34.0233 107.287 34.0233 108.904V110.107C33.7258 110.253 33.4879 110.564 33.4879 110.937V112.679C33.4879 113.135 33.8646 113.529 34.3207 113.529Z" fill="url(#paint142_linear)"/>
<path fill-rule="evenodd" clip-rule="evenodd" d="M6.99924 105.48L7.41212 105.42L8.79887 109.3H10.9654V109.731H8.49987L7.36182 106.547L6.94522 113.472L6.5315 113.529L5.3262 110.029L4.42388 111.599L3.26077 109.731H1.38177V109.3H3.49596L4.4093 110.767L5.42371 109.002L6.58455 112.374L6.99924 105.48Z" fill="url(#paint143_linear)"/>
<path fill-rule="evenodd" clip-rule="evenodd" d="M144.119 105.48L144.532 105.42L145.919 109.3H148.085V109.731H145.62L144.481 106.547L144.065 113.472L143.651 113.529L142.446 110.029L141.544 111.599L140.38 109.731H138.501V109.3H140.616L141.529 110.767L142.543 109.002L143.704 112.374L144.119 105.48Z" fill="url(#paint144_linear)"/>
<path d="M116.888 113.529C117.325 113.529 117.701 113.135 117.701 112.679L118.598 111.808L117.701 110.937C117.701 110.543 117.483 110.253 117.146 110.107V108.904C117.146 106.976 115.659 105.42 113.815 105.42C111.99 105.42 110.503 106.976 110.503 108.904V110.107C110.186 110.253 109.948 110.564 109.948 110.937L109.014 111.808L109.948 112.679C109.948 113.135 110.325 113.529 110.781 113.529C111.237 113.529 111.614 113.135 111.614 112.679V110.937C111.614 110.543 111.376 110.253 111.058 110.107V108.904C111.058 107.287 112.288 106.001 113.815 106.001C115.362 106.001 116.591 107.287 116.591 108.904V110.107C116.294 110.253 116.056 110.564 116.056 110.937V112.679C116.056 113.135 116.432 113.529 116.888 113.529Z" fill="url(#paint145_linear)"/>
<path d="M82.1432 106.412H83.5987V110.775H82.1432V106.412Z" fill="url(#paint146_linear)"/>
<path d="M84.3264 106.412H85.7819V110.775H84.3264V106.412Z" fill="url(#paint147_linear)"/>
<path d="M86.5097 106.412H87.9652V110.775H86.5097V106.412Z" fill="url(#paint148_linear)"/>
<path d="M86.9464 108.242H87.5285V112.605H86.9464V108.242Z" fill="url(#paint149_linear)"/>
<path d="M84.7631 108.242H85.3453V112.605H84.7631V108.242Z" fill="url(#paint150_linear)"/>
<path d="M82.5798 108.242H83.162V112.605H82.5798V108.242Z" fill="url(#paint151_linear)"/>
<path fill-rule="evenodd" clip-rule="evenodd" d="M88.7969 106.443H81.3115V112.506H88.7969V106.443ZM80.9996 106.157V112.792H89.1088V106.157H80.9996Z" fill="url(#paint152_linear)"/>
<path fill-rule="evenodd" clip-rule="evenodd" d="M59.0353 105.48L59.4799 105.42L60.9733 109.3H63.3065V109.731H60.6513L59.4257 106.547L58.9771 113.472L58.5315 113.529L57.2335 110.029L56.2618 111.599L55.0092 109.731H52.9857V109.3H55.2625L56.2461 110.767L57.3385 109.002L58.5887 112.374L59.0353 105.48Z" fill="url(#paint153_linear)"/>
<defs>
<linearGradient id="paint0_linear" x1="1.36845" y1="62.9435" x2="100.047" y2="62.9435" gradientUnits="userSpaceOnUse">
<stop stop-color="#F3461B"/>
<stop offset="1" stop-color="#0DA6F2"/>
</linearGradient>
<linearGradient id="paint1_linear" x1="1.36845" y1="62.9435" x2="100.047" y2="62.9435" gradientUnits="userSpaceOnUse">
<stop stop-color="#F3461B"/>
<stop offset="1" stop-color="#0DA6F2"/>
</linearGradient>
<linearGradient id="paint2_linear" x1="1.36845" y1="62.9435" x2="100.047" y2="62.9435" gradientUnits="userSpaceOnUse">
<stop stop-color="#F3461B"/>
<stop offset="1" stop-color="#0DA6F2"/>
</linearGradient>
<linearGradient id="paint3_linear" x1="1.36845" y1="62.9435" x2="100.047" y2="62.9435" gradientUnits="userSpaceOnUse">
<stop stop-color="#F3461B"/>
<stop offset="1" stop-color="#0DA6F2"/>
</linearGradient>
<linearGradient id="paint4_linear" x1="1.36845" y1="62.9435" x2="100.047" y2="62.9435" gradientUnits="userSpaceOnUse">
<stop stop-color="#F3461B"/>
<stop offset="1" stop-color="#0DA6F2"/>
</linearGradient>
<linearGradient id="paint5_linear" x1="1.36845" y1="62.9435" x2="100.047" y2="62.9435" gradientUnits="userSpaceOnUse">
<stop stop-color="#F3461B"/>
<stop offset="1" stop-color="#0DA6F2"/>
</linearGradient>
<linearGradient id="paint6_linear" x1="1.36845" y1="62.9435" x2="100.047" y2="62.9435" gradientUnits="userSpaceOnUse">
<stop stop-color="#F3461B"/>
<stop offset="1" stop-color="#0DA6F2"/>
</linearGradient>
<linearGradient id="paint7_linear" x1="1.36845" y1="62.9435" x2="100.047" y2="62.9435" gradientUnits="userSpaceOnUse">
<stop stop-color="#F3461B"/>
<stop offset="1" stop-color="#0DA6F2"/>
</linearGradient>
<linearGradient id="paint8_linear" x1="1.36845" y1="62.9435" x2="100.047" y2="62.9435" gradientUnits="userSpaceOnUse">
<stop stop-color="#F3461B"/>
<stop offset="1" stop-color="#0DA6F2"/>
</linearGradient>
<linearGradient id="paint9_linear" x1="1.36845" y1="62.9435" x2="100.047" y2="62.9435" gradientUnits="userSpaceOnUse">
<stop stop-color="#F3461B"/>
<stop offset="1" stop-color="#0DA6F2"/>
</linearGradient>
<linearGradient id="paint10_linear" x1="1.36845" y1="62.9435" x2="100.047" y2="62.9435" gradientUnits="userSpaceOnUse">
<stop stop-color="#F3461B"/>
<stop offset="1" stop-color="#0DA6F2"/>
</linearGradient>
<linearGradient id="paint11_linear" x1="1.36845" y1="62.9435" x2="100.047" y2="62.9435" gradientUnits="userSpaceOnUse">
<stop stop-color="#F3461B"/>
<stop offset="1" stop-color="#0DA6F2"/>
</linearGradient>
<linearGradient id="paint12_linear" x1="1.36845" y1="62.9435" x2="100.047" y2="62.9435" gradientUnits="userSpaceOnUse">
<stop stop-color="#F3461B"/>
<stop offset="1" stop-color="#0DA6F2"/>
</linearGradient>
<linearGradient id="paint13_linear" x1="1.36845" y1="62.9435" x2="100.047" y2="62.9435" gradientUnits="userSpaceOnUse">
<stop stop-color="#F3461B"/>
<stop offset="1" stop-color="#0DA6F2"/>
</linearGradient>
<linearGradient id="paint14_linear" x1="1.36845" y1="62.9435" x2="100.047" y2="62.9435" gradientUnits="userSpaceOnUse">
<stop stop-color="#F3461B"/>
<stop offset="1" stop-color="#0DA6F2"/>
</linearGradient>
<linearGradient id="paint15_linear" x1="1.36845" y1="62.9435" x2="100.047" y2="62.9435" gradientUnits="userSpaceOnUse">
<stop stop-color="#F3461B"/>
<stop offset="1" stop-color="#0DA6F2"/>
</linearGradient>
<linearGradient id="paint16_linear" x1="1.36845" y1="62.9435" x2="100.047" y2="62.9435" gradientUnits="userSpaceOnUse">
<stop stop-color="#F3461B"/>
<stop offset="1" stop-color="#0DA6F2"/>
</linearGradient>
<linearGradient id="paint17_linear" x1="1.36845" y1="62.9435" x2="100.047" y2="62.9435" gradientUnits="userSpaceOnUse">
<stop stop-color="#F3461B"/>
<stop offset="1" stop-color="#0DA6F2"/>
</linearGradient>
<linearGradient id="paint18_linear" x1="1.36845" y1="62.9435" x2="100.047" y2="62.9435" gradientUnits="userSpaceOnUse">
<stop stop-color="#F3461B"/>
<stop offset="1" stop-color="#0DA6F2"/>
</linearGradient>
<linearGradient id="paint19_linear" x1="1.36845" y1="62.9435" x2="100.047" y2="62.9435" gradientUnits="userSpaceOnUse">
<stop stop-color="#F3461B"/>
<stop offset="1" stop-color="#0DA6F2"/>
</linearGradient>
<linearGradient id="paint20_linear" x1="1.36845" y1="62.9435" x2="100.047" y2="62.9435" gradientUnits="userSpaceOnUse">
<stop stop-color="#F3461B"/>
<stop offset="1" stop-color="#0DA6F2"/>
</linearGradient>
<linearGradient id="paint21_linear" x1="1.36845" y1="62.9435" x2="100.047" y2="62.9435" gradientUnits="userSpaceOnUse">
<stop stop-color="#F3461B"/>
<stop offset="1" stop-color="#0DA6F2"/>
</linearGradient>
<linearGradient id="paint22_linear" x1="1.36845" y1="62.9435" x2="100.047" y2="62.9435" gradientUnits="userSpaceOnUse">
<stop stop-color="#F3461B"/>
<stop offset="1" stop-color="#0DA6F2"/>
</linearGradient>
<linearGradient id="paint23_linear" x1="1.36845" y1="62.9435" x2="100.047" y2="62.9435" gradientUnits="userSpaceOnUse">
<stop stop-color="#F3461B"/>
<stop offset="1" stop-color="#0DA6F2"/>
</linearGradient>
<linearGradient id="paint24_linear" x1="1.36845" y1="62.9435" x2="100.047" y2="62.9435" gradientUnits="userSpaceOnUse">
<stop stop-color="#F3461B"/>
<stop offset="1" stop-color="#0DA6F2"/>
</linearGradient>
<linearGradient id="paint25_linear" x1="1.36845" y1="62.9435" x2="100.047" y2="62.9435" gradientUnits="userSpaceOnUse">
<stop stop-color="#F3461B"/>
<stop offset="1" stop-color="#0DA6F2"/>
</linearGradient>
<linearGradient id="paint26_linear" x1="1.36845" y1="62.9435" x2="100.047" y2="62.9435" gradientUnits="userSpaceOnUse">
<stop stop-color="#F3461B"/>
<stop offset="1" stop-color="#0DA6F2"/>
</linearGradient>
<linearGradient id="paint27_linear" x1="1.36845" y1="62.9435" x2="100.047" y2="62.9435" gradientUnits="userSpaceOnUse">
<stop stop-color="#F3461B"/>
<stop offset="1" stop-color="#0DA6F2"/>
</linearGradient>
<linearGradient id="paint28_linear" x1="1.36845" y1="62.9435" x2="100.047" y2="62.9435" gradientUnits="userSpaceOnUse">
<stop stop-color="#F3461B"/>
<stop offset="1" stop-color="#0DA6F2"/>
</linearGradient>
<linearGradient id="paint29_linear" x1="1.36845" y1="62.9435" x2="100.047" y2="62.9435" gradientUnits="userSpaceOnUse">
<stop stop-color="#F3461B"/>
<stop offset="1" stop-color="#0DA6F2"/>
</linearGradient>
<linearGradient id="paint30_linear" x1="1.36845" y1="62.9435" x2="100.047" y2="62.9435" gradientUnits="userSpaceOnUse">
<stop stop-color="#F3461B"/>
<stop offset="1" stop-color="#0DA6F2"/>
</linearGradient>
<linearGradient id="paint31_linear" x1="1.36845" y1="62.9435" x2="100.047" y2="62.9435" gradientUnits="userSpaceOnUse">
<stop stop-color="#F3461B"/>
<stop offset="1" stop-color="#0DA6F2"/>
</linearGradient>
<linearGradient id="paint32_linear" x1="1.36845" y1="62.9435" x2="100.047" y2="62.9435" gradientUnits="userSpaceOnUse">
<stop stop-color="#F3461B"/>
<stop offset="1" stop-color="#0DA6F2"/>
</linearGradient>
<linearGradient id="paint33_linear" x1="1.36845" y1="62.9435" x2="100.047" y2="62.9435" gradientUnits="userSpaceOnUse">
<stop stop-color="#F3461B"/>
<stop offset="1" stop-color="#0DA6F2"/>
</linearGradient>
<linearGradient id="paint34_linear" x1="1.36845" y1="62.9435" x2="100.047" y2="62.9435" gradientUnits="userSpaceOnUse">
<stop stop-color="#F3461B"/>
<stop offset="1" stop-color="#0DA6F2"/>
</linearGradient>
<linearGradient id="paint35_linear" x1="1.36845" y1="62.9435" x2="100.047" y2="62.9435" gradientUnits="userSpaceOnUse">
<stop stop-color="#F3461B"/>
<stop offset="1" stop-color="#0DA6F2"/>
</linearGradient>
<linearGradient id="paint36_linear" x1="1.36845" y1="62.9435" x2="100.047" y2="62.9435" gradientUnits="userSpaceOnUse">
<stop stop-color="#F3461B"/>
<stop offset="1" stop-color="#0DA6F2"/>
</linearGradient>
<linearGradient id="paint37_linear" x1="1.36845" y1="62.9435" x2="100.047" y2="62.9435" gradientUnits="userSpaceOnUse">
<stop stop-color="#F3461B"/>
<stop offset="1" stop-color="#0DA6F2"/>
</linearGradient>
<linearGradient id="paint38_linear" x1="1.36845" y1="62.9435" x2="100.047" y2="62.9435" gradientUnits="userSpaceOnUse">
<stop stop-color="#F3461B"/>
<stop offset="1" stop-color="#0DA6F2"/>
</linearGradient>
<linearGradient id="paint39_linear" x1="1.36845" y1="62.9435" x2="100.047" y2="62.9435" gradientUnits="userSpaceOnUse">
<stop stop-color="#F3461B"/>
<stop offset="1" stop-color="#0DA6F2"/>
</linearGradient>
<linearGradient id="paint40_linear" x1="1.36845" y1="62.9435" x2="100.047" y2="62.9435" gradientUnits="userSpaceOnUse">
<stop stop-color="#F3461B"/>
<stop offset="1" stop-color="#0DA6F2"/>
</linearGradient>
<linearGradient id="paint41_linear" x1="1.36845" y1="62.9435" x2="100.047" y2="62.9435" gradientUnits="userSpaceOnUse">
<stop stop-color="#F3461B"/>
<stop offset="1" stop-color="#0DA6F2"/>
</linearGradient>
<linearGradient id="paint42_linear" x1="1.36845" y1="62.9435" x2="100.047" y2="62.9435" gradientUnits="userSpaceOnUse">
<stop stop-color="#F3461B"/>
<stop offset="1" stop-color="#0DA6F2"/>
</linearGradient>
<linearGradient id="paint43_linear" x1="1.36845" y1="62.9435" x2="100.047" y2="62.9435" gradientUnits="userSpaceOnUse">
<stop stop-color="#F3461B"/>
<stop offset="1" stop-color="#0DA6F2"/>
</linearGradient>
<linearGradient id="paint44_linear" x1="1.36845" y1="62.9435" x2="100.047" y2="62.9435" gradientUnits="userSpaceOnUse">
<stop stop-color="#F3461B"/>
<stop offset="1" stop-color="#0DA6F2"/>
</linearGradient>
<linearGradient id="paint45_linear" x1="1.36845" y1="62.9435" x2="100.047" y2="62.9435" gradientUnits="userSpaceOnUse">
<stop stop-color="#F3461B"/>
<stop offset="1" stop-color="#0DA6F2"/>
</linearGradient>
<linearGradient id="paint46_linear" x1="1.36845" y1="62.9435" x2="100.047" y2="62.9435" gradientUnits="userSpaceOnUse">
<stop stop-color="#F3461B"/>
<stop offset="1" stop-color="#0DA6F2"/>
</linearGradient>
<linearGradient id="paint47_linear" x1="1.36845" y1="62.9435" x2="100.047" y2="62.9435" gradientUnits="userSpaceOnUse">
<stop stop-color="#F3461B"/>
<stop offset="1" stop-color="#0DA6F2"/>
</linearGradient>
<linearGradient id="paint48_linear" x1="1.36845" y1="62.9435" x2="100.047" y2="62.9435" gradientUnits="userSpaceOnUse">
<stop stop-color="#F3461B"/>
<stop offset="1" stop-color="#0DA6F2"/>
</linearGradient>
<linearGradient id="paint49_linear" x1="1.36845" y1="62.9435" x2="100.047" y2="62.9435" gradientUnits="userSpaceOnUse">
<stop stop-color="#F3461B"/>
<stop offset="1" stop-color="#0DA6F2"/>
</linearGradient>
<linearGradient id="paint50_linear" x1="1.36845" y1="62.9435" x2="100.047" y2="62.9435" gradientUnits="userSpaceOnUse">
<stop stop-color="#F3461B"/>
<stop offset="1" stop-color="#0DA6F2"/>
</linearGradient>
<linearGradient id="paint51_linear" x1="1.36845" y1="62.9435" x2="100.047" y2="62.9435" gradientUnits="userSpaceOnUse">
<stop stop-color="#F3461B"/>
<stop offset="1" stop-color="#0DA6F2"/>
</linearGradient>
<linearGradient id="paint52_linear" x1="1.36845" y1="62.9435" x2="100.047" y2="62.9435" gradientUnits="userSpaceOnUse">
<stop stop-color="#F3461B"/>
<stop offset="1" stop-color="#0DA6F2"/>
</linearGradient>
<linearGradient id="paint53_linear" x1="1.36845" y1="62.9435" x2="100.047" y2="62.9435" gradientUnits="userSpaceOnUse">
<stop stop-color="#F3461B"/>
<stop offset="1" stop-color="#0DA6F2"/>
</linearGradient>
<linearGradient id="paint54_linear" x1="1.36845" y1="62.9435" x2="100.047" y2="62.9435" gradientUnits="userSpaceOnUse">
<stop stop-color="#F3461B"/>
<stop offset="1" stop-color="#0DA6F2"/>
</linearGradient>
<linearGradient id="paint55_linear" x1="1.36845" y1="62.9435" x2="100.047" y2="62.9435" gradientUnits="userSpaceOnUse">
<stop stop-color="#F3461B"/>
<stop offset="1" stop-color="#0DA6F2"/>
</linearGradient>
<linearGradient id="paint56_linear" x1="1.36845" y1="62.9435" x2="100.047" y2="62.9435" gradientUnits="userSpaceOnUse">
<stop stop-color="#F3461B"/>
<stop offset="1" stop-color="#0DA6F2"/>
</linearGradient>
<linearGradient id="paint57_linear" x1="1.36845" y1="62.9435" x2="100.047" y2="62.9435" gradientUnits="userSpaceOnUse">
<stop stop-color="#F3461B"/>
<stop offset="1" stop-color="#0DA6F2"/>
</linearGradient>
<linearGradient id="paint58_linear" x1="1.36845" y1="62.9435" x2="100.047" y2="62.9435" gradientUnits="userSpaceOnUse">
<stop stop-color="#F3461B"/>
<stop offset="1" stop-color="#0DA6F2"/>
</linearGradient>
<linearGradient id="paint59_linear" x1="1.36845" y1="62.9435" x2="100.047" y2="62.9435" gradientUnits="userSpaceOnUse">
<stop stop-color="#F3461B"/>
<stop offset="1" stop-color="#0DA6F2"/>
</linearGradient>
<linearGradient id="paint60_linear" x1="1.36845" y1="62.9435" x2="100.047" y2="62.9435" gradientUnits="userSpaceOnUse">
<stop stop-color="#F3461B"/>
<stop offset="1" stop-color="#0DA6F2"/>
</linearGradient>
<linearGradient id="paint61_linear" x1="1.36845" y1="62.9435" x2="100.047" y2="62.9435" gradientUnits="userSpaceOnUse">
<stop stop-color="#F3461B"/>
<stop offset="1" stop-color="#0DA6F2"/>
</linearGradient>
<linearGradient id="paint62_linear" x1="1.36845" y1="62.9435" x2="100.047" y2="62.9435" gradientUnits="userSpaceOnUse">
<stop stop-color="#F3461B"/>
<stop offset="1" stop-color="#0DA6F2"/>
</linearGradient>
<linearGradient id="paint63_linear" x1="1.36845" y1="62.9435" x2="100.047" y2="62.9435" gradientUnits="userSpaceOnUse">
<stop stop-color="#F3461B"/>
<stop offset="1" stop-color="#0DA6F2"/>
</linearGradient>
<linearGradient id="paint64_linear" x1="1.36845" y1="62.9435" x2="100.047" y2="62.9435" gradientUnits="userSpaceOnUse">
<stop stop-color="#F3461B"/>
<stop offset="1" stop-color="#0DA6F2"/>
</linearGradient>
<linearGradient id="paint65_linear" x1="1.36845" y1="62.9435" x2="100.047" y2="62.9435" gradientUnits="userSpaceOnUse">
<stop stop-color="#F3461B"/>
<stop offset="1" stop-color="#0DA6F2"/>
</linearGradient>
<linearGradient id="paint66_linear" x1="1.36845" y1="62.9435" x2="100.047" y2="62.9435" gradientUnits="userSpaceOnUse">
<stop stop-color="#F3461B"/>
<stop offset="1" stop-color="#0DA6F2"/>
</linearGradient>
<linearGradient id="paint67_linear" x1="1.36845" y1="62.9435" x2="100.047" y2="62.9435" gradientUnits="userSpaceOnUse">
<stop stop-color="#F3461B"/>
<stop offset="1" stop-color="#0DA6F2"/>
</linearGradient>
<linearGradient id="paint68_linear" x1="1.36845" y1="62.9435" x2="100.047" y2="62.9435" gradientUnits="userSpaceOnUse">
<stop stop-color="#F3461B"/>
<stop offset="1" stop-color="#0DA6F2"/>
</linearGradient>
<linearGradient id="paint69_linear" x1="1.36845" y1="62.9435" x2="100.047" y2="62.9435" gradientUnits="userSpaceOnUse">
<stop stop-color="#F3461B"/>
<stop offset="1" stop-color="#0DA6F2"/>
</linearGradient>
<linearGradient id="paint70_linear" x1="1.36845" y1="62.9435" x2="100.047" y2="62.9435" gradientUnits="userSpaceOnUse">
<stop stop-color="#F3461B"/>
<stop offset="1" stop-color="#0DA6F2"/>
</linearGradient>
<linearGradient id="paint71_linear" x1="1.36845" y1="62.9435" x2="100.047" y2="62.9435" gradientUnits="userSpaceOnUse">
<stop stop-color="#F3461B"/>
<stop offset="1" stop-color="#0DA6F2"/>
</linearGradient>
<linearGradient id="paint72_linear" x1="1.36845" y1="62.9435" x2="100.047" y2="62.9435" gradientUnits="userSpaceOnUse">
<stop stop-color="#F3461B"/>
<stop offset="1" stop-color="#0DA6F2"/>
</linearGradient>
<linearGradient id="paint73_linear" x1="1.36845" y1="62.9435" x2="100.047" y2="62.9435" gradientUnits="userSpaceOnUse">
<stop stop-color="#F3461B"/>
<stop offset="1" stop-color="#0DA6F2"/>
</linearGradient>
<linearGradient id="paint74_linear" x1="1.36845" y1="62.9435" x2="100.047" y2="62.9435" gradientUnits="userSpaceOnUse">
<stop stop-color="#F3461B"/>
<stop offset="1" stop-color="#0DA6F2"/>
</linearGradient>
<linearGradient id="paint75_linear" x1="1.36845" y1="62.9435" x2="100.047" y2="62.9435" gradientUnits="userSpaceOnUse">
<stop stop-color="#F3461B"/>
<stop offset="1" stop-color="#0DA6F2"/>
</linearGradient>
<linearGradient id="paint76_linear" x1="1.36845" y1="62.9435" x2="100.047" y2="62.9435" gradientUnits="userSpaceOnUse">
<stop stop-color="#F3461B"/>
<stop offset="1" stop-color="#0DA6F2"/>
</linearGradient>
<linearGradient id="paint77_linear" x1="1.36845" y1="62.9435" x2="100.047" y2="62.9435" gradientUnits="userSpaceOnUse">
<stop stop-color="#F3461B"/>
<stop offset="1" stop-color="#0DA6F2"/>
</linearGradient>
<linearGradient id="paint78_linear" x1="1.36845" y1="62.9435" x2="100.047" y2="62.9435" gradientUnits="userSpaceOnUse">
<stop stop-color="#F3461B"/>
<stop offset="1" stop-color="#0DA6F2"/>
</linearGradient>
<linearGradient id="paint79_linear" x1="1.36845" y1="62.9435" x2="100.047" y2="62.9435" gradientUnits="userSpaceOnUse">
<stop stop-color="#F3461B"/>
<stop offset="1" stop-color="#0DA6F2"/>
</linearGradient>
<linearGradient id="paint80_linear" x1="1.36845" y1="62.9435" x2="100.047" y2="62.9435" gradientUnits="userSpaceOnUse">
<stop stop-color="#F3461B"/>
<stop offset="1" stop-color="#0DA6F2"/>
</linearGradient>
<linearGradient id="paint81_linear" x1="1.36845" y1="62.9435" x2="100.047" y2="62.9435" gradientUnits="userSpaceOnUse">
<stop stop-color="#F3461B"/>
<stop offset="1" stop-color="#0DA6F2"/>
</linearGradient>
<linearGradient id="paint82_linear" x1="1.36845" y1="62.9435" x2="100.047" y2="62.9435" gradientUnits="userSpaceOnUse">
<stop stop-color="#F3461B"/>
<stop offset="1" stop-color="#0DA6F2"/>
</linearGradient>
<linearGradient id="paint83_linear" x1="1.36845" y1="62.9435" x2="100.047" y2="62.9435" gradientUnits="userSpaceOnUse">
<stop stop-color="#F3461B"/>
<stop offset="1" stop-color="#0DA6F2"/>
</linearGradient>
<linearGradient id="paint84_linear" x1="1.36845" y1="62.9435" x2="100.047" y2="62.9435" gradientUnits="userSpaceOnUse">
<stop stop-color="#F3461B"/>
<stop offset="1" stop-color="#0DA6F2"/>
</linearGradient>
<linearGradient id="paint85_linear" x1="1.36845" y1="62.9435" x2="100.047" y2="62.9435" gradientUnits="userSpaceOnUse">
<stop stop-color="#F3461B"/>
<stop offset="1" stop-color="#0DA6F2"/>
</linearGradient>
<linearGradient id="paint86_linear" x1="1.36845" y1="62.9435" x2="100.047" y2="62.9435" gradientUnits="userSpaceOnUse">
<stop stop-color="#F3461B"/>
<stop offset="1" stop-color="#0DA6F2"/>
</linearGradient>
<linearGradient id="paint87_linear" x1="1.36845" y1="62.9435" x2="100.047" y2="62.9435" gradientUnits="userSpaceOnUse">
<stop stop-color="#F3461B"/>
<stop offset="1" stop-color="#0DA6F2"/>
</linearGradient>
<linearGradient id="paint88_linear" x1="1.36845" y1="62.9435" x2="100.047" y2="62.9435" gradientUnits="userSpaceOnUse">
<stop stop-color="#F3461B"/>
<stop offset="1" stop-color="#0DA6F2"/>
</linearGradient>
<linearGradient id="paint89_linear" x1="1.36845" y1="62.9435" x2="100.047" y2="62.9435" gradientUnits="userSpaceOnUse">
<stop stop-color="#F3461B"/>
<stop offset="1" stop-color="#0DA6F2"/>
</linearGradient>
<linearGradient id="paint90_linear" x1="1.36845" y1="62.9435" x2="100.047" y2="62.9435" gradientUnits="userSpaceOnUse">
<stop stop-color="#F3461B"/>
<stop offset="1" stop-color="#0DA6F2"/>
</linearGradient>
<linearGradient id="paint91_linear" x1="1.36845" y1="62.9435" x2="100.047" y2="62.9435" gradientUnits="userSpaceOnUse">
<stop stop-color="#F3461B"/>
<stop offset="1" stop-color="#0DA6F2"/>
</linearGradient>
<linearGradient id="paint92_linear" x1="1.36845" y1="62.9435" x2="100.047" y2="62.9435" gradientUnits="userSpaceOnUse">
<stop stop-color="#F3461B"/>
<stop offset="1" stop-color="#0DA6F2"/>
</linearGradient>
<linearGradient id="paint93_linear" x1="1.36845" y1="62.9435" x2="100.047" y2="62.9435" gradientUnits="userSpaceOnUse">
<stop stop-color="#F3461B"/>
<stop offset="1" stop-color="#0DA6F2"/>
</linearGradient>
<linearGradient id="paint94_linear" x1="1.36845" y1="62.9435" x2="100.047" y2="62.9435" gradientUnits="userSpaceOnUse">
<stop stop-color="#F3461B"/>
<stop offset="1" stop-color="#0DA6F2"/>
</linearGradient>
<linearGradient id="paint95_linear" x1="1.36845" y1="62.9435" x2="100.047" y2="62.9435" gradientUnits="userSpaceOnUse">
<stop stop-color="#F3461B"/>
<stop offset="1" stop-color="#0DA6F2"/>
</linearGradient>
<linearGradient id="paint96_linear" x1="1.36845" y1="62.9435" x2="100.047" y2="62.9435" gradientUnits="userSpaceOnUse">
<stop stop-color="#F3461B"/>
<stop offset="1" stop-color="#0DA6F2"/>
</linearGradient>
<linearGradient id="paint97_linear" x1="1.36845" y1="62.9435" x2="100.047" y2="62.9435" gradientUnits="userSpaceOnUse">
<stop stop-color="#F3461B"/>
<stop offset="1" stop-color="#0DA6F2"/>
</linearGradient>
<linearGradient id="paint98_linear" x1="1.36845" y1="62.9435" x2="100.047" y2="62.9435" gradientUnits="userSpaceOnUse">
<stop stop-color="#F3461B"/>
<stop offset="1" stop-color="#0DA6F2"/>
</linearGradient>
<linearGradient id="paint99_linear" x1="1.36845" y1="62.9435" x2="100.047" y2="62.9435" gradientUnits="userSpaceOnUse">
<stop stop-color="#F3461B"/>
<stop offset="1" stop-color="#0DA6F2"/>
</linearGradient>
<linearGradient id="paint100_linear" x1="1.36845" y1="62.9435" x2="100.047" y2="62.9435" gradientUnits="userSpaceOnUse">
<stop stop-color="#F3461B"/>
<stop offset="1" stop-color="#0DA6F2"/>
</linearGradient>
<linearGradient id="paint101_linear" x1="1.36845" y1="62.9435" x2="100.047" y2="62.9435" gradientUnits="userSpaceOnUse">
<stop stop-color="#F3461B"/>
<stop offset="1" stop-color="#0DA6F2"/>
</linearGradient>
<linearGradient id="paint102_linear" x1="1.36845" y1="62.9435" x2="100.047" y2="62.9435" gradientUnits="userSpaceOnUse">
<stop stop-color="#F3461B"/>
<stop offset="1" stop-color="#0DA6F2"/>
</linearGradient>
<linearGradient id="paint103_linear" x1="1.36845" y1="62.9435" x2="100.047" y2="62.9435" gradientUnits="userSpaceOnUse">
<stop stop-color="#F3461B"/>
<stop offset="1" stop-color="#0DA6F2"/>
</linearGradient>
<linearGradient id="paint104_linear" x1="1.36845" y1="62.9435" x2="100.047" y2="62.9435" gradientUnits="userSpaceOnUse">
<stop stop-color="#F3461B"/>
<stop offset="1" stop-color="#0DA6F2"/>
</linearGradient>
<linearGradient id="paint105_linear" x1="1.36845" y1="62.9435" x2="100.047" y2="62.9435" gradientUnits="userSpaceOnUse">
<stop stop-color="#F3461B"/>
<stop offset="1" stop-color="#0DA6F2"/>
</linearGradient>
<linearGradient id="paint106_linear" x1="1.36845" y1="62.9435" x2="100.047" y2="62.9435" gradientUnits="userSpaceOnUse">
<stop stop-color="#F3461B"/>
<stop offset="1" stop-color="#0DA6F2"/>
</linearGradient>
<linearGradient id="paint107_linear" x1="1.36845" y1="62.9435" x2="100.047" y2="62.9435" gradientUnits="userSpaceOnUse">
<stop stop-color="#F3461B"/>
<stop offset="1" stop-color="#0DA6F2"/>
</linearGradient>
<linearGradient id="paint108_linear" x1="1.36845" y1="62.9435" x2="100.047" y2="62.9435" gradientUnits="userSpaceOnUse">
<stop stop-color="#F3461B"/>
<stop offset="1" stop-color="#0DA6F2"/>
</linearGradient>
<linearGradient id="paint109_linear" x1="1.36845" y1="62.9435" x2="100.047" y2="62.9435" gradientUnits="userSpaceOnUse">
<stop stop-color="#F3461B"/>
<stop offset="1" stop-color="#0DA6F2"/>
</linearGradient>
<linearGradient id="paint110_linear" x1="1.36845" y1="62.9435" x2="100.047" y2="62.9435" gradientUnits="userSpaceOnUse">
<stop stop-color="#F3461B"/>
<stop offset="1" stop-color="#0DA6F2"/>
</linearGradient>
<linearGradient id="paint111_linear" x1="1.36845" y1="62.9435" x2="100.047" y2="62.9435" gradientUnits="userSpaceOnUse">
<stop stop-color="#F3461B"/>
<stop offset="1" stop-color="#0DA6F2"/>
</linearGradient>
<linearGradient id="paint112_linear" x1="1.36845" y1="62.9435" x2="100.047" y2="62.9435" gradientUnits="userSpaceOnUse">
<stop stop-color="#F3461B"/>
<stop offset="1" stop-color="#0DA6F2"/>
</linearGradient>
<linearGradient id="paint113_linear" x1="1.36845" y1="62.9435" x2="100.047" y2="62.9435" gradientUnits="userSpaceOnUse">
<stop stop-color="#F3461B"/>
<stop offset="1" stop-color="#0DA6F2"/>
</linearGradient>
<linearGradient id="paint114_linear" x1="1.36845" y1="62.9435" x2="100.047" y2="62.9435" gradientUnits="userSpaceOnUse">
<stop stop-color="#F3461B"/>
<stop offset="1" stop-color="#0DA6F2"/>
</linearGradient>
<linearGradient id="paint115_linear" x1="1.36845" y1="62.9435" x2="100.047" y2="62.9435" gradientUnits="userSpaceOnUse">
<stop stop-color="#F3461B"/>
<stop offset="1" stop-color="#0DA6F2"/>
</linearGradient>
<linearGradient id="paint116_linear" x1="1.36845" y1="62.9435" x2="100.047" y2="62.9435" gradientUnits="userSpaceOnUse">
<stop stop-color="#F3461B"/>
<stop offset="1" stop-color="#0DA6F2"/>
</linearGradient>
<linearGradient id="paint117_linear" x1="1.36845" y1="62.9435" x2="100.047" y2="62.9435" gradientUnits="userSpaceOnUse">
<stop stop-color="#F3461B"/>
<stop offset="1" stop-color="#0DA6F2"/>
</linearGradient>
<linearGradient id="paint118_linear" x1="1.36845" y1="62.9435" x2="100.047" y2="62.9435" gradientUnits="userSpaceOnUse">
<stop stop-color="#F3461B"/>
<stop offset="1" stop-color="#0DA6F2"/>
</linearGradient>
<linearGradient id="paint119_linear" x1="1.36845" y1="62.9435" x2="100.047" y2="62.9435" gradientUnits="userSpaceOnUse">
<stop stop-color="#F3461B"/>
<stop offset="1" stop-color="#0DA6F2"/>
</linearGradient>
<linearGradient id="paint120_linear" x1="1.36845" y1="62.9435" x2="100.047" y2="62.9435" gradientUnits="userSpaceOnUse">
<stop stop-color="#F3461B"/>
<stop offset="1" stop-color="#0DA6F2"/>
</linearGradient>
<linearGradient id="paint121_linear" x1="1.36845" y1="62.9435" x2="100.047" y2="62.9435" gradientUnits="userSpaceOnUse">
<stop stop-color="#F3461B"/>
<stop offset="1" stop-color="#0DA6F2"/>
</linearGradient>
<linearGradient id="paint122_linear" x1="1.36845" y1="62.9435" x2="100.047" y2="62.9435" gradientUnits="userSpaceOnUse">
<stop stop-color="#F3461B"/>
<stop offset="1" stop-color="#0DA6F2"/>
</linearGradient>
<linearGradient id="paint123_linear" x1="1.36845" y1="62.9435" x2="100.047" y2="62.9435" gradientUnits="userSpaceOnUse">
<stop stop-color="#F3461B"/>
<stop offset="1" stop-color="#0DA6F2"/>
</linearGradient>
<linearGradient id="paint124_linear" x1="1.36845" y1="62.9435" x2="100.047" y2="62.9435" gradientUnits="userSpaceOnUse">
<stop stop-color="#F3461B"/>
<stop offset="1" stop-color="#0DA6F2"/>
</linearGradient>
<linearGradient id="paint125_linear" x1="1.36845" y1="62.9435" x2="100.047" y2="62.9435" gradientUnits="userSpaceOnUse">
<stop stop-color="#F3461B"/>
<stop offset="1" stop-color="#0DA6F2"/>
</linearGradient>
<linearGradient id="paint126_linear" x1="1.36845" y1="62.9435" x2="100.047" y2="62.9435" gradientUnits="userSpaceOnUse">
<stop stop-color="#F3461B"/>
<stop offset="1" stop-color="#0DA6F2"/>
</linearGradient>
<linearGradient id="paint127_linear" x1="1.36845" y1="62.9435" x2="100.047" y2="62.9435" gradientUnits="userSpaceOnUse">
<stop stop-color="#F3461B"/>
<stop offset="1" stop-color="#0DA6F2"/>
</linearGradient>
<linearGradient id="paint128_linear" x1="1.36845" y1="62.9435" x2="100.047" y2="62.9435" gradientUnits="userSpaceOnUse">
<stop stop-color="#F3461B"/>
<stop offset="1" stop-color="#0DA6F2"/>
</linearGradient>
<linearGradient id="paint129_linear" x1="1.36845" y1="62.9435" x2="100.047" y2="62.9435" gradientUnits="userSpaceOnUse">
<stop stop-color="#F3461B"/>
<stop offset="1" stop-color="#0DA6F2"/>
</linearGradient>
<linearGradient id="paint130_linear" x1="1.36845" y1="62.9435" x2="100.047" y2="62.9435" gradientUnits="userSpaceOnUse">
<stop stop-color="#F3461B"/>
<stop offset="1" stop-color="#0DA6F2"/>
</linearGradient>
<linearGradient id="paint131_linear" x1="1.36845" y1="62.9435" x2="100.047" y2="62.9435" gradientUnits="userSpaceOnUse">
<stop stop-color="#F3461B"/>
<stop offset="1" stop-color="#0DA6F2"/>
</linearGradient>
<linearGradient id="paint132_linear" x1="1.36845" y1="62.9435" x2="100.047" y2="62.9435" gradientUnits="userSpaceOnUse">
<stop stop-color="#F3461B"/>
<stop offset="1" stop-color="#0DA6F2"/>
</linearGradient>
<linearGradient id="paint133_linear" x1="1.36845" y1="62.9435" x2="100.047" y2="62.9435" gradientUnits="userSpaceOnUse">
<stop stop-color="#F3461B"/>
<stop offset="1" stop-color="#0DA6F2"/>
</linearGradient>
<linearGradient id="paint134_linear" x1="1.36845" y1="62.9435" x2="100.047" y2="62.9435" gradientUnits="userSpaceOnUse">
<stop stop-color="#F3461B"/>
<stop offset="1" stop-color="#0DA6F2"/>
</linearGradient>
<linearGradient id="paint135_linear" x1="1.36845" y1="62.9435" x2="100.047" y2="62.9435" gradientUnits="userSpaceOnUse">
<stop stop-color="#F3461B"/>
<stop offset="1" stop-color="#0DA6F2"/>
</linearGradient>
<linearGradient id="paint136_linear" x1="1.36845" y1="62.9435" x2="100.047" y2="62.9435" gradientUnits="userSpaceOnUse">
<stop stop-color="#F3461B"/>
<stop offset="1" stop-color="#0DA6F2"/>
</linearGradient>
<linearGradient id="paint137_linear" x1="1.36845" y1="62.9435" x2="100.047" y2="62.9435" gradientUnits="userSpaceOnUse">
<stop stop-color="#F3461B"/>
<stop offset="1" stop-color="#0DA6F2"/>
</linearGradient>
<linearGradient id="paint138_linear" x1="1.36845" y1="62.9435" x2="100.047" y2="62.9435" gradientUnits="userSpaceOnUse">
<stop stop-color="#F3461B"/>
<stop offset="1" stop-color="#0DA6F2"/>
</linearGradient>
<linearGradient id="paint139_linear" x1="1.36845" y1="62.9435" x2="100.047" y2="62.9435" gradientUnits="userSpaceOnUse">
<stop stop-color="#F3461B"/>
<stop offset="1" stop-color="#0DA6F2"/>
</linearGradient>
<linearGradient id="paint140_linear" x1="1.36845" y1="62.9435" x2="100.047" y2="62.9435" gradientUnits="userSpaceOnUse">
<stop stop-color="#F3461B"/>
<stop offset="1" stop-color="#0DA6F2"/>
</linearGradient>
<linearGradient id="paint141_linear" x1="1.36845" y1="62.9435" x2="100.047" y2="62.9435" gradientUnits="userSpaceOnUse">
<stop stop-color="#F3461B"/>
<stop offset="1" stop-color="#0DA6F2"/>
</linearGradient>
<linearGradient id="paint142_linear" x1="1.36845" y1="62.9435" x2="100.047" y2="62.9435" gradientUnits="userSpaceOnUse">
<stop stop-color="#F3461B"/>
<stop offset="1" stop-color="#0DA6F2"/>
</linearGradient>
<linearGradient id="paint143_linear" x1="1.36845" y1="62.9435" x2="100.047" y2="62.9435" gradientUnits="userSpaceOnUse">
<stop stop-color="#F3461B"/>
<stop offset="1" stop-color="#0DA6F2"/>
</linearGradient>
<linearGradient id="paint144_linear" x1="1.36845" y1="62.9435" x2="100.047" y2="62.9435" gradientUnits="userSpaceOnUse">
<stop stop-color="#F3461B"/>
<stop offset="1" stop-color="#0DA6F2"/>
</linearGradient>
<linearGradient id="paint145_linear" x1="1.36845" y1="62.9435" x2="100.047" y2="62.9435" gradientUnits="userSpaceOnUse">
<stop stop-color="#F3461B"/>
<stop offset="1" stop-color="#0DA6F2"/>
</linearGradient>
<linearGradient id="paint146_linear" x1="1.36845" y1="62.9435" x2="100.047" y2="62.9435" gradientUnits="userSpaceOnUse">
<stop stop-color="#F3461B"/>
<stop offset="1" stop-color="#0DA6F2"/>
</linearGradient>
<linearGradient id="paint147_linear" x1="1.36845" y1="62.9435" x2="100.047" y2="62.9435" gradientUnits="userSpaceOnUse">
<stop stop-color="#F3461B"/>
<stop offset="1" stop-color="#0DA6F2"/>
</linearGradient>
<linearGradient id="paint148_linear" x1="1.36845" y1="62.9435" x2="100.047" y2="62.9435" gradientUnits="userSpaceOnUse">
<stop stop-color="#F3461B"/>
<stop offset="1" stop-color="#0DA6F2"/>
</linearGradient>
<linearGradient id="paint149_linear" x1="1.36845" y1="62.9435" x2="100.047" y2="62.9435" gradientUnits="userSpaceOnUse">
<stop stop-color="#F3461B"/>
<stop offset="1" stop-color="#0DA6F2"/>
</linearGradient>
<linearGradient id="paint150_linear" x1="1.36845" y1="62.9435" x2="100.047" y2="62.9435" gradientUnits="userSpaceOnUse">
<stop stop-color="#F3461B"/>
<stop offset="1" stop-color="#0DA6F2"/>
</linearGradient>
<linearGradient id="paint151_linear" x1="1.36845" y1="62.9435" x2="100.047" y2="62.9435" gradientUnits="userSpaceOnUse">
<stop stop-color="#F3461B"/>
<stop offset="1" stop-color="#0DA6F2"/>
</linearGradient>
<linearGradient id="paint152_linear" x1="1.36845" y1="62.9435" x2="100.047" y2="62.9435" gradientUnits="userSpaceOnUse">
<stop stop-color="#F3461B"/>
<stop offset="1" stop-color="#0DA6F2"/>
</linearGradient>
<linearGradient id="paint153_linear" x1="1.36845" y1="62.9435" x2="100.047" y2="62.9435" gradientUnits="userSpaceOnUse">
<stop stop-color="#F3461B"/>
<stop offset="1" stop-color="#0DA6F2"/>
</linearGradient>
</defs>
</svg>
