<svg width="256" height="260" viewBox="0 0 256 260" fill="none" xmlns="http://www.w3.org/2000/svg">
<path d="M3.74299 7.47857C5.81021 7.47857 7.48606 5.80445 7.48606 3.73929C7.48606 1.67412 5.81021 0 3.74299 0C1.67578 0 0 1.67412 0 3.73929C0 5.80445 1.67578 7.47857 3.74299 7.47857Z" fill="white"/>
<path d="M65.908 7.47857C67.9752 7.47857 69.651 5.80445 69.651 3.73929C69.651 1.67412 67.9752 0 65.908 0C63.8408 0 62.1649 1.67412 62.1649 3.73929C62.1649 5.80445 63.8408 7.47857 65.908 7.47857Z" fill="white"/>
<path d="M128 7.47857C130.067 7.47857 131.743 5.80445 131.743 3.73929C131.743 1.67412 130.067 0 128 0C125.932 0 124.257 1.67412 124.257 3.73929C124.257 5.80445 125.932 7.47857 128 7.47857Z" fill="white"/>
<path d="M190.164 7.47857C192.231 7.47857 193.907 5.80445 193.907 3.73929C193.907 1.67412 192.231 0 190.164 0C188.097 0 186.421 1.67412 186.421 3.73929C186.421 5.80445 188.097 7.47857 190.164 7.47857Z" fill="white"/>
<path d="M256 3.75624C256.009 4.4999 255.797 5.22955 255.389 5.85196C254.982 6.47436 254.398 6.96121 253.712 7.2503C253.026 7.5394 252.269 7.61764 251.539 7.47493C250.808 7.33222 250.137 6.97507 249.61 6.44918C249.084 5.92328 248.726 5.25251 248.583 4.5226C248.441 3.7927 248.519 3.03682 248.808 2.35158C249.098 1.66635 249.585 1.08287 250.208 0.675759C250.831 0.26865 251.561 0.0564276 252.306 0.0661499C253.286 0.0661499 254.225 0.454904 254.918 1.14693C255.611 1.83896 256 2.77756 256 3.75624Z" fill="white"/>
<path d="M3.74299 58.0103C5.81021 58.0103 7.48606 56.3361 7.48606 54.2709C7.48606 52.2058 5.81021 50.5317 3.74299 50.5317C1.67578 50.5317 0 52.2058 0 54.2709C0 56.3361 1.67578 58.0103 3.74299 58.0103Z" fill="white"/>
<path d="M65.908 58.0103C67.9752 58.0103 69.651 56.3361 69.651 54.2709C69.651 52.2058 67.9752 50.5317 65.908 50.5317C63.8408 50.5317 62.1649 52.2058 62.1649 54.2709C62.1649 56.3361 63.8408 58.0103 65.908 58.0103Z" fill="white"/>
<path d="M128 58.0103C130.067 58.0103 131.743 56.3361 131.743 54.2709C131.743 52.2058 130.067 50.5317 128 50.5317C125.932 50.5317 124.257 52.2058 124.257 54.2709C124.257 56.3361 125.932 58.0103 128 58.0103Z" fill="white"/>
<path d="M190.164 58.0103C192.231 58.0103 193.907 56.3361 193.907 54.2709C193.907 52.2058 192.231 50.5317 190.164 50.5317C188.097 50.5317 186.421 52.2058 186.421 54.2709C186.421 56.3361 188.097 58.0103 190.164 58.0103Z" fill="white"/>
<path d="M256 54.2698C256 55.0115 255.779 55.7364 255.366 56.3523C254.952 56.9683 254.365 57.4475 253.678 57.729C252.991 58.0105 252.236 58.0816 251.508 57.9333C250.781 57.7849 250.114 57.4239 249.593 56.896C249.071 56.3681 248.719 55.6973 248.58 54.9687C248.441 54.2401 248.522 53.4868 248.813 52.8044C249.104 52.1221 249.591 51.5416 250.213 51.1367C250.835 50.7318 251.564 50.5208 252.306 50.5306C253.29 50.5435 254.23 50.9432 254.921 51.643C255.612 52.3429 256 53.2866 256 54.2698Z" fill="white"/>
<path d="M3.74299 108.474C5.81021 108.474 7.48606 106.8 7.48606 104.735C7.48606 102.67 5.81021 100.996 3.74299 100.996C1.67578 100.996 0 102.67 0 104.735C0 106.8 1.67578 108.474 3.74299 108.474Z" fill="white"/>
<path d="M65.908 108.474C67.9752 108.474 69.651 106.8 69.651 104.735C69.651 102.67 67.9752 100.996 65.908 100.996C63.8408 100.996 62.1649 102.67 62.1649 104.735C62.1649 106.8 63.8408 108.474 65.908 108.474Z" fill="white"/>
<path d="M128 108.474C130.067 108.474 131.743 106.8 131.743 104.735C131.743 102.67 130.067 100.996 128 100.996C125.932 100.996 124.257 102.67 124.257 104.735C124.257 106.8 125.932 108.474 128 108.474Z" fill="white"/>
<path d="M190.164 108.474C192.231 108.474 193.907 106.8 193.907 104.735C193.907 102.67 192.231 100.996 190.164 100.996C188.097 100.996 186.421 102.67 186.421 104.735C186.421 106.8 188.097 108.474 190.164 108.474Z" fill="white"/>
<path d="M256 104.752C256.009 105.495 255.797 106.225 255.389 106.848C254.982 107.47 254.398 107.957 253.712 108.246C253.026 108.535 252.269 108.613 251.539 108.471C250.808 108.328 250.137 107.971 249.61 107.445C249.084 106.919 248.726 106.248 248.583 105.518C248.441 104.788 248.519 104.032 248.808 103.347C249.098 102.662 249.585 102.079 250.208 101.671C250.831 101.264 251.561 101.052 252.306 101.062C253.286 101.062 254.225 101.451 254.918 102.143C255.611 102.835 256 103.773 256 104.752Z" fill="white"/>
<path d="M3.74299 159.005C5.81021 159.005 7.48606 157.331 7.48606 155.266C7.48606 153.201 5.81021 151.527 3.74299 151.527C1.67578 151.527 0 153.201 0 155.266C0 157.331 1.67578 159.005 3.74299 159.005Z" fill="white"/>
<path d="M65.908 159.005C67.9752 159.005 69.651 157.331 69.651 155.266C69.651 153.201 67.9752 151.527 65.908 151.527C63.8408 151.527 62.1649 153.201 62.1649 155.266C62.1649 157.331 63.8408 159.005 65.908 159.005Z" fill="white"/>
<path d="M128 159.005C130.067 159.005 131.743 157.331 131.743 155.266C131.743 153.201 130.067 151.527 128 151.527C125.932 151.527 124.257 153.201 124.257 155.266C124.257 157.331 125.932 159.005 128 159.005Z" fill="white"/>
<path d="M190.164 159.005C192.231 159.005 193.907 157.331 193.907 155.266C193.907 153.201 192.231 151.527 190.164 151.527C188.097 151.527 186.421 153.201 186.421 155.266C186.421 157.331 188.097 159.005 190.164 159.005Z" fill="white"/>
<path d="M256 155.265C256 156.007 255.779 156.731 255.366 157.347C254.952 157.963 254.365 158.443 253.678 158.724C252.991 159.006 252.236 159.077 251.508 158.928C250.781 158.78 250.114 158.419 249.593 157.891C249.071 157.363 248.719 156.692 248.58 155.964C248.441 155.235 248.522 154.482 248.813 153.8C249.104 153.117 249.591 152.537 250.213 152.132C250.835 151.727 251.564 151.516 252.306 151.526C253.29 151.539 254.23 151.938 254.921 152.638C255.612 153.338 256 154.282 256 155.265Z" fill="white"/>
<path d="M3.74299 209.47C5.81021 209.47 7.48606 207.796 7.48606 205.73C7.48606 203.665 5.81021 201.991 3.74299 201.991C1.67578 201.991 0 203.665 0 205.73C0 207.796 1.67578 209.47 3.74299 209.47Z" fill="white"/>
<path d="M65.908 209.47C67.9752 209.47 69.651 207.796 69.651 205.73C69.651 203.665 67.9752 201.991 65.908 201.991C63.8408 201.991 62.1649 203.665 62.1649 205.73C62.1649 207.796 63.8408 209.47 65.908 209.47Z" fill="white"/>
<path d="M128 209.47C130.067 209.47 131.743 207.796 131.743 205.73C131.743 203.665 130.067 201.991 128 201.991C125.932 201.991 124.257 203.665 124.257 205.73C124.257 207.796 125.932 209.47 128 209.47Z" fill="white"/>
<path d="M190.164 209.47C192.231 209.47 193.907 207.796 193.907 205.73C193.907 203.665 192.231 201.991 190.164 201.991C188.097 201.991 186.421 203.665 186.421 205.73C186.421 207.796 188.097 209.47 190.164 209.47Z" fill="white"/>
<path d="M256 205.748C256.009 206.492 255.797 207.221 255.389 207.844C254.982 208.466 254.398 208.953 253.712 209.242C253.026 209.531 252.269 209.609 251.539 209.467C250.808 209.324 250.137 208.967 249.61 208.441C249.084 207.915 248.726 207.244 248.583 206.514C248.441 205.784 248.519 205.028 248.808 204.343C249.098 203.658 249.585 203.075 250.208 202.667C250.831 202.26 251.561 202.048 252.306 202.058C253.282 202.071 254.214 202.463 254.904 203.153C255.594 203.842 255.987 204.773 256 205.748Z" fill="white"/>
<path d="M3.74299 260C5.81021 260 7.48606 258.326 7.48606 256.261C7.48606 254.196 5.81021 252.521 3.74299 252.521C1.67578 252.521 0 254.196 0 256.261C0 258.326 1.67578 260 3.74299 260Z" fill="white"/>
<path d="M65.908 260C67.9752 260 69.651 258.326 69.651 256.261C69.651 254.196 67.9752 252.521 65.908 252.521C63.8408 252.521 62.1649 254.196 62.1649 256.261C62.1649 258.326 63.8408 260 65.908 260Z" fill="white"/>
<path d="M128 260C130.067 260 131.743 258.326 131.743 256.261C131.743 254.196 130.067 252.521 128 252.521C125.932 252.521 124.257 254.196 124.257 256.261C124.257 258.326 125.932 260 128 260Z" fill="white"/>
<path d="M190.164 260C192.231 260 193.907 258.326 193.907 256.261C193.907 254.196 192.231 252.521 190.164 252.521C188.097 252.521 186.421 254.196 186.421 256.261C186.421 258.326 188.097 260 190.164 260Z" fill="white"/>
<path d="M256 256.261C256 257.003 255.779 257.728 255.366 258.344C254.952 258.959 254.365 259.439 253.678 259.72C252.991 260.002 252.236 260.073 251.508 259.924C250.781 259.776 250.114 259.415 249.593 258.887C249.071 258.359 248.719 257.688 248.58 256.96C248.441 256.231 248.522 255.478 248.813 254.796C249.104 254.113 249.591 253.533 250.213 253.128C250.835 252.723 251.564 252.512 252.306 252.522C253.29 252.535 254.23 252.934 254.921 253.634C255.612 254.334 256 255.278 256 256.261Z" fill="white"/>
</svg>
