<svg width="76" height="70" viewBox="0 0 76 70" fill="none" xmlns="http://www.w3.org/2000/svg">
<path d="M75 0.576208L71.6384 7.57094L71.6381 7.57152L59.287 34.0763V34.0764L56.0461 41.0655H45.4403H45.4049L45.3897 41.0983L36.4947 60.1898L36.4942 60.1908L36.3128 60.5995L36.3123 60.6006L32.6344 68.5L1 0.539374L8.60624 0.557733L32.5839 51.8581L32.6344 51.9663L32.685 51.8581L37.6873 41.1669V41.1668L40.9644 34.1403H48.7145H51.5522H51.5876L51.6028 34.1076L63.9903 7.60292L64.0287 7.52071L63.9401 7.52014L61.0479 7.50155H61.0476H53.4238L56.6445 0.539258L64.3398 0.557733L64.3399 0.5L64.3398 0.557733L75 0.576208Z" fill="#747474" stroke="black"/>
</svg>
