<svg width="134" height="125" viewBox="0 0 134 125" fill="none" xmlns="http://www.w3.org/2000/svg">
<path d="M25.5013 25.5376H30.1501V26.2859H25.5013V25.5376Z" fill="url(#paint0_linear)"/>
<path d="M25.5013 26.0138H25.8382V32.0002H25.5013V26.0138Z" fill="url(#paint1_linear)"/>
<path d="M24.1201 31.2859L25.8382 30.3138V32.258L24.1201 31.2859Z" fill="url(#paint2_linear)"/>
<path d="M29.8132 26.0138H30.1501V32.0002H29.8132V26.0138Z" fill="url(#paint3_linear)"/>
<path d="M28.4321 31.2859L30.1501 30.3138V32.258L28.4321 31.2859Z" fill="url(#paint4_linear)"/>
<path d="M74.5646 51.0751H79.73V51.8235H74.5646V51.0751Z" fill="url(#paint5_linear)"/>
<path d="M74.5646 51.5513H74.9389V57.5378H74.5646V51.5513Z" fill="url(#paint6_linear)"/>
<path d="M73.03 56.8235L74.9389 55.8514V57.7956L73.03 56.8235Z" fill="url(#paint7_linear)"/>
<path d="M79.3557 51.5513H79.73V57.5378H79.3557V51.5513Z" fill="url(#paint8_linear)"/>
<path d="M77.821 56.8235L79.73 55.8514V57.7956L77.821 56.8235Z" fill="url(#paint9_linear)"/>
<path d="M3.54435 73.9246H8.7097V74.7477H3.54435V73.9246Z" fill="url(#paint10_linear)"/>
<path d="M3.54435 74.4484H3.91865V81.0335H3.54435V74.4484Z" fill="url(#paint11_linear)"/>
<path d="M2.0097 80.2478L3.91864 79.1785V81.3171L2.0097 80.2478Z" fill="url(#paint12_linear)"/>
<path d="M8.33539 74.4484H8.70969V81.0335H8.33539V74.4484Z" fill="url(#paint13_linear)"/>
<path d="M6.80075 80.2478L8.70969 79.1785V81.3171L6.80075 80.2478Z" fill="url(#paint14_linear)"/>
<path d="M2.95457 26.4166H4.15714V29.952H2.95457V26.4166Z" fill="url(#paint15_linear)"/>
<path d="M4.75842 26.4166H5.96099V29.952H4.75842V26.4166Z" fill="url(#paint16_linear)"/>
<path d="M6.56227 26.4166H7.76483V29.952H6.56227V26.4166Z" fill="url(#paint17_linear)"/>
<path d="M6.92304 27.8992H7.40406V31.4346H6.92304V27.8992Z" fill="url(#paint18_linear)"/>
<path d="M5.11919 27.8992H5.60022V31.4346H5.11919V27.8992Z" fill="url(#paint19_linear)"/>
<path d="M3.31534 27.8992H3.79637V31.4346H3.31534V27.8992Z" fill="url(#paint20_linear)"/>
<path fill-rule="evenodd" clip-rule="evenodd" d="M8.45201 26.4415H2.26739V31.3546H8.45201V26.4415ZM2.0097 26.2099V31.5862H8.7097V26.2099H2.0097Z" fill="url(#paint21_linear)"/>
<path d="M30.6063 7.39246C31.0028 7.39246 31.3452 7.03324 31.3452 6.61729L32.1597 5.82322L31.3452 5.02914C31.3452 4.66992 31.147 4.40523 30.8406 4.27288V3.1763C30.8406 1.41799 29.4889 0 27.8129 0C26.1548 0 24.8032 1.41799 24.8032 3.1763V4.27288C24.5148 4.40523 24.2986 4.68883 24.2986 5.02914L23.4497 5.82322L24.2986 6.61729C24.2986 7.03324 24.641 7.39246 25.0555 7.39246C25.47 7.39246 25.8124 7.03324 25.8124 6.61729V5.02914C25.8124 4.66992 25.5962 4.40523 25.3078 4.27288V3.1763C25.3078 1.70159 26.4252 0.529384 27.8129 0.529384C29.2186 0.529384 30.336 1.70159 30.336 3.1763V4.27288C30.0656 4.40523 29.8494 4.68883 29.8494 5.02914V6.61729C29.8494 7.03324 30.1918 7.39246 30.6063 7.39246Z" fill="url(#paint22_linear)"/>
<path d="M80.1866 32.258C80.5831 32.258 80.9255 31.9314 80.9255 31.5533L81.74 30.8314L80.9255 30.1095C80.9255 29.783 80.7273 29.5423 80.4209 29.422V28.4251C80.4209 26.8267 79.0692 25.5376 77.3932 25.5376C75.7351 25.5376 74.3835 26.8267 74.3835 28.4251V29.422C74.0951 29.5423 73.8789 29.8001 73.8789 30.1095L73.03 30.8314L73.8789 31.5533C73.8789 31.9314 74.2213 32.258 74.6358 32.258C75.0503 32.258 75.3927 31.9314 75.3927 31.5533V30.1095C75.3927 29.783 75.1765 29.5423 74.8881 29.422V28.4251C74.8881 27.0845 76.0055 26.0188 77.3932 26.0188C78.7989 26.0188 79.9163 27.0845 79.9163 28.4251V29.422C79.6459 29.5423 79.4297 29.8001 79.4297 30.1095V31.5533C79.4297 31.9314 79.7721 32.258 80.1866 32.258Z" fill="url(#paint23_linear)"/>
<path d="M80.1866 80.6452C80.5831 80.6452 80.9255 80.286 80.9255 79.87L81.74 79.076L80.9255 78.2819C80.9255 77.9227 80.7273 77.658 80.4209 77.5256V76.429C80.4209 74.6707 79.0692 73.2527 77.3932 73.2527C75.7351 73.2527 74.3835 74.6707 74.3835 76.429V77.5256C74.0951 77.658 73.8789 77.9416 73.8789 78.2819L73.03 79.076L73.8789 79.87C73.8789 80.286 74.2213 80.6452 74.6358 80.6452C75.0503 80.6452 75.3927 80.286 75.3927 79.87V78.2819C75.3927 77.9227 75.1765 77.658 74.8881 77.5256V76.429C74.8881 74.9543 76.0055 73.7821 77.3932 73.7821C78.7989 73.7821 79.9163 74.9543 79.9163 76.429V77.5256C79.6459 77.658 79.4297 77.9416 79.4297 78.2819V79.87C79.4297 80.286 79.7721 80.6452 80.1866 80.6452Z" fill="url(#paint24_linear)"/>
<path fill-rule="evenodd" clip-rule="evenodd" d="M6.82846 54.5087C6.82846 55.4138 6.15534 56.1715 5.35134 56.1715C4.54734 56.1715 3.87423 55.4138 3.87423 54.5087V51.3936C3.87423 50.4885 4.54734 49.7308 5.35134 49.7308C6.17404 49.7308 6.82846 50.4885 6.82846 51.3936V54.5087Z" fill="url(#paint25_linear)"/>
<path fill-rule="evenodd" clip-rule="evenodd" d="M6.21093 58.529H5.6313V56.782C5.76219 56.782 5.89307 56.7399 5.94916 56.7188C6.08005 56.6767 6.5101 56.4452 6.62228 56.361C6.71577 56.2558 7.03363 55.8769 7.10842 55.7506C7.16451 55.6033 7.258 55.3928 7.2954 55.2244C7.33279 55.0771 7.33279 54.9508 7.33279 54.9508C7.35149 54.8034 7.37019 54.5298 7.37019 54.3825V53.2669C7.37019 53.0985 7.33279 52.846 7.2767 52.6986L7.12712 52.1935C7.08972 52.0461 7.05233 52.0461 7.05233 52.2145V52.6776C7.05233 52.8249 7.05233 53.0985 7.05233 53.2669V54.3825C7.05233 54.5298 7.01493 55.035 6.99624 55.1402C6.95884 55.2665 6.79056 55.6454 6.71577 55.7506C6.64098 55.8348 6.36051 56.1084 6.26703 56.1926C6.17354 56.2558 5.79958 56.4031 5.6874 56.4241C5.55651 56.4452 5.46303 56.4452 5.46303 56.4452C5.42563 56.4452 5.40693 56.4452 5.40693 56.4452C5.38823 56.4452 5.36954 56.4452 5.36954 56.4452C5.35084 56.4452 5.33214 56.4452 5.33214 56.4452C5.31344 56.4452 4.99558 56.4031 4.8834 56.3821C4.77121 56.34 4.43465 56.1505 4.34116 56.0874C4.26637 56.0032 4.00461 55.6875 3.94851 55.5822C3.89242 55.4559 3.76154 55.056 3.74284 54.9297C3.72414 54.8034 3.72414 54.5719 3.72414 54.4035V53.288C3.72414 53.1196 3.72414 52.846 3.72414 52.6986V52.2356C3.72414 52.0882 3.66805 52.0882 3.63065 52.2145L3.48107 52.7197C3.38758 52.846 3.35019 53.0985 3.35019 53.2669V54.3825C3.35019 54.5298 3.38758 55.0981 3.42498 55.2455C3.46237 55.3928 3.66805 55.8769 3.74284 56.0032C3.83633 56.1084 4.17288 56.4452 4.28507 56.5294C4.41595 56.5925 4.60293 56.6978 4.75251 56.7609C4.8834 56.8241 4.99558 56.8241 4.99558 56.8241H5.05168V58.5711H4.49075C4.41595 58.5711 4.35986 58.6342 4.35986 58.7184V58.992C4.35986 59.0762 4.41595 59.1394 4.49075 59.1394H5.33214L6.21093 59.1037C6.26702 59.1037 6.32312 59.0762 6.32312 58.992V58.6553C6.34182 58.5711 6.26702 58.529 6.21093 58.529Z" fill="url(#paint26_linear)"/>
<path fill-rule="evenodd" clip-rule="evenodd" d="M5.10539 0.0547706L5.48062 0L6.74096 3.53711H8.71V3.92961H6.46921L5.43491 1.02686L5.05628 7.33987L4.68028 7.39246L3.58486 4.20132L2.76479 5.63238L1.70771 3.92961H0V3.53711H1.92146L2.75154 4.87422L3.67348 3.2654L4.72849 6.33884L5.10539 0.0547706Z" fill="url(#paint27_linear)"/>
<path d="M127.495 73.9246H132.66V74.7477H127.495V73.9246Z" fill="url(#paint28_linear)"/>
<path d="M127.495 74.4484H127.869V81.0335H127.495V74.4484Z" fill="url(#paint29_linear)"/>
<path d="M125.96 80.2478L127.869 79.1785V81.3171L125.96 80.2478Z" fill="url(#paint30_linear)"/>
<path d="M132.286 74.4484H132.66V81.0335H132.286V74.4484Z" fill="url(#paint31_linear)"/>
<path d="M130.752 80.2478L132.66 79.1785V81.3171L130.752 80.2478Z" fill="url(#paint32_linear)"/>
<path d="M126.905 26.4166H128.108V29.952H126.905V26.4166Z" fill="url(#paint33_linear)"/>
<path d="M128.709 26.4166H129.912V29.952H128.709V26.4166Z" fill="url(#paint34_linear)"/>
<path d="M130.513 26.4166H131.716V29.952H130.513V26.4166Z" fill="url(#paint35_linear)"/>
<path d="M130.874 27.8992H131.355V31.4346H130.874V27.8992Z" fill="url(#paint36_linear)"/>
<path d="M129.07 27.8992H129.551V31.4346H129.07V27.8992Z" fill="url(#paint37_linear)"/>
<path d="M127.266 27.8992H127.747V31.4346H127.266V27.8992Z" fill="url(#paint38_linear)"/>
<path fill-rule="evenodd" clip-rule="evenodd" d="M132.403 26.4415H126.218V31.3546H132.403V26.4415ZM125.96 26.2099V31.5862H132.66V26.2099H125.96Z" fill="url(#paint39_linear)"/>
<path fill-rule="evenodd" clip-rule="evenodd" d="M130.778 54.5087C130.778 55.4138 130.105 56.1715 129.301 56.1715C128.497 56.1715 127.824 55.4138 127.824 54.5087V51.3936C127.824 50.4885 128.497 49.7308 129.301 49.7308C130.124 49.7308 130.778 50.4885 130.778 51.3936V54.5087Z" fill="url(#paint40_linear)"/>
<path fill-rule="evenodd" clip-rule="evenodd" d="M130.161 58.529H129.581V56.782C129.712 56.782 129.843 56.7399 129.899 56.7188C130.03 56.6767 130.46 56.4452 130.572 56.361C130.666 56.2558 130.984 55.8769 131.058 55.7506C131.114 55.6033 131.208 55.3928 131.245 55.2244C131.283 55.0771 131.283 54.9508 131.283 54.9508C131.301 54.8034 131.32 54.5298 131.32 54.3825V53.2669C131.32 53.0985 131.283 52.846 131.227 52.6986L131.077 52.1935C131.04 52.0461 131.002 52.0461 131.002 52.2145V52.6776C131.002 52.8249 131.002 53.0985 131.002 53.2669V54.3825C131.002 54.5298 130.965 55.035 130.946 55.1402C130.909 55.2665 130.74 55.6454 130.666 55.7506C130.591 55.8348 130.31 56.1084 130.217 56.1926C130.123 56.2558 129.75 56.4031 129.637 56.4241C129.506 56.4452 129.413 56.4452 129.413 56.4452C129.376 56.4452 129.357 56.4452 129.357 56.4452C129.338 56.4452 129.319 56.4452 129.319 56.4452C129.301 56.4452 129.282 56.4452 129.282 56.4452C129.263 56.4452 128.946 56.4031 128.833 56.3821C128.721 56.34 128.385 56.1505 128.291 56.0874C128.216 56.0032 127.955 55.6875 127.898 55.5822C127.842 55.4559 127.711 55.056 127.693 54.9297C127.674 54.8034 127.674 54.5719 127.674 54.4035V53.288C127.674 53.1196 127.674 52.846 127.674 52.6986V52.2356C127.674 52.0882 127.618 52.0882 127.581 52.2145L127.431 52.7197C127.338 52.846 127.3 53.0985 127.3 53.2669V54.3825C127.3 54.5298 127.338 55.0981 127.375 55.2455C127.412 55.3928 127.618 55.8769 127.693 56.0032C127.786 56.1084 128.123 56.4452 128.235 56.5294C128.366 56.5925 128.553 56.6978 128.702 56.7609C128.833 56.8241 128.946 56.8241 128.946 56.8241H129.002V58.5711H128.441C128.366 58.5711 128.31 58.6342 128.31 58.7184V58.992C128.31 59.0762 128.366 59.1394 128.441 59.1394H129.282L130.161 59.1037C130.217 59.1037 130.273 59.0762 130.273 58.992V58.6553C130.292 58.5711 130.217 58.529 130.161 58.529Z" fill="url(#paint41_linear)"/>
<path fill-rule="evenodd" clip-rule="evenodd" d="M129.055 0.0547706L129.431 0L130.691 3.53711H132.66V3.92961H130.419L129.385 1.02686L129.006 7.33987L128.63 7.39246L127.535 4.20132L126.715 5.63238L125.658 3.92961H123.95V3.53711H125.871L126.701 4.87422L127.623 3.2654L128.678 6.33884L129.055 0.0547706Z" fill="url(#paint42_linear)"/>
<path d="M25.1595 74.8291H26.4823V78.8064H25.1595V74.8291Z" fill="url(#paint43_linear)"/>
<path d="M27.1437 74.8291H28.4665V78.8064H27.1437V74.8291Z" fill="url(#paint44_linear)"/>
<path d="M29.1279 74.8291H30.4508V78.8064H29.1279V74.8291Z" fill="url(#paint45_linear)"/>
<path d="M29.5248 76.497H30.0539V80.4743H29.5248V76.497Z" fill="url(#paint46_linear)"/>
<path d="M27.5406 76.497H28.0697V80.4743H27.5406V76.497Z" fill="url(#paint47_linear)"/>
<path d="M25.5563 76.497H26.0854V80.4743H25.5563V76.497Z" fill="url(#paint48_linear)"/>
<path fill-rule="evenodd" clip-rule="evenodd" d="M31.2067 74.857H24.4036V80.3843H31.2067V74.857ZM24.1201 74.5965V80.6449H31.4901V74.5965H24.1201Z" fill="url(#paint49_linear)"/>
<path fill-rule="evenodd" clip-rule="evenodd" d="M51.9249 32.013C53.455 32.013 54.6954 30.7688 54.6954 29.2341C54.6954 27.6993 53.455 26.4551 51.9249 26.4551C50.3947 26.4551 49.1543 27.6993 49.1543 29.2341C49.1543 30.7688 50.3947 32.013 51.9249 32.013ZM51.9249 32.2582C53.59 32.2582 54.9399 30.9043 54.9399 29.2341C54.9399 27.5638 53.59 26.2099 51.9249 26.2099C50.2597 26.2099 48.9099 27.5638 48.9099 29.2341C48.9099 30.9043 50.2597 32.2582 51.9249 32.2582Z" fill="url(#paint50_linear)"/>
<path d="M52.9818 29.2341C52.9818 29.8201 52.5082 30.2952 51.9239 30.2952C51.3397 30.2952 50.866 29.8201 50.866 29.2341C50.866 28.648 51.3397 28.1729 51.9239 28.1729C52.5082 28.1729 52.9818 28.648 52.9818 29.2341Z" fill="url(#paint51_linear)"/>
<path d="M50.0803 27.4231C49.6672 27.8209 49.7199 28.5255 49.7199 28.5255C49.7199 28.5255 50.0095 27.7661 50.2161 27.5568C50.4227 27.3475 51.1338 27.0791 51.1338 27.0791C51.1338 27.0791 50.4934 27.0252 50.0803 27.4231Z" fill="url(#paint52_linear)"/>
<path fill-rule="evenodd" clip-rule="evenodd" d="M50.9046 27.0835C51.0416 27.0714 51.1338 27.0791 51.1338 27.0791C51.1338 27.0791 51.0466 27.1121 50.9243 27.1638C50.6976 27.2599 50.3504 27.4208 50.2161 27.5568C50.079 27.6958 49.9052 28.0772 49.8039 28.3179C49.7526 28.4398 49.7199 28.5255 49.7199 28.5255C49.7199 28.5255 49.7131 28.4341 49.7236 28.2985C49.7424 28.0577 49.816 27.6776 50.0803 27.4231C50.3367 27.1762 50.6805 27.1033 50.9046 27.0835ZM50.5902 27.226C50.4345 27.2732 50.2717 27.352 50.1367 27.482C49.985 27.6282 49.8999 27.8224 49.8531 28.0064C49.8932 27.9216 49.9364 27.8352 49.9803 27.7565C50.0371 27.6549 50.0984 27.5599 50.1582 27.4993C50.2181 27.4387 50.3093 27.3782 50.4064 27.3228C50.4648 27.2895 50.5275 27.2569 50.5902 27.226Z" fill="url(#paint53_linear)"/>
<path d="M50.5634 27.8489C50.2887 28.111 50.3215 28.5777 50.3215 28.5777C50.3215 28.5777 50.5156 28.0758 50.653 27.9379C50.7904 27.7999 51.262 27.6244 51.262 27.6244C51.262 27.6244 50.8382 27.5868 50.5634 27.8489Z" fill="url(#paint54_linear)"/>
<path fill-rule="evenodd" clip-rule="evenodd" d="M51.0106 27.6392C51.1535 27.6148 51.262 27.6244 51.262 27.6244C51.262 27.6244 51.1584 27.663 51.0341 27.7182C50.8933 27.7807 50.726 27.8646 50.653 27.9379C50.5768 28.0143 50.4832 28.2026 50.4149 28.3553C50.36 28.478 50.3215 28.5777 50.3215 28.5777C50.3215 28.5777 50.314 28.4715 50.3361 28.332C50.3602 28.179 50.4198 27.986 50.5634 27.8489C50.6991 27.7194 50.8712 27.6631 51.0106 27.6392Z" fill="url(#paint55_linear)"/>
<path d="M50.9814 28.2309C50.7959 28.408 50.818 28.7232 50.818 28.7232C50.818 28.7232 50.9491 28.3842 51.0419 28.291C51.1347 28.1978 51.4532 28.0793 51.4532 28.0793C51.4532 28.0793 51.167 28.0539 50.9814 28.2309Z" fill="url(#paint56_linear)"/>
<path fill-rule="evenodd" clip-rule="evenodd" d="M51.1285 28.1347C51.2888 28.0647 51.4532 28.0793 51.4532 28.0793C51.4532 28.0793 51.2907 28.1398 51.164 28.2083C51.1133 28.2357 51.0684 28.2644 51.0419 28.291C51.0088 28.3243 50.9707 28.3889 50.9355 28.4582C50.8722 28.583 50.818 28.7232 50.818 28.7232C50.818 28.7232 50.8077 28.5759 50.8604 28.4261C50.8848 28.3568 50.9227 28.2869 50.9814 28.2309C51.0264 28.188 51.0772 28.157 51.1285 28.1347Z" fill="url(#paint57_linear)"/>
<path d="M53.8477 30.9347C54.2454 30.5215 54.1661 29.8193 54.1661 29.8193C54.1661 29.8193 53.9054 30.5892 53.7069 30.8063C53.5083 31.0233 52.808 31.3185 52.808 31.3185C52.808 31.3185 53.4499 31.348 53.8477 30.9347Z" fill="url(#paint58_linear)"/>
<path fill-rule="evenodd" clip-rule="evenodd" d="M53.014 31.2259C52.8939 31.2823 52.808 31.3185 52.808 31.3185C52.808 31.3185 52.9004 31.3228 53.0368 31.3055C53.2599 31.2772 53.6008 31.1912 53.8477 30.9347C54.1021 30.6703 54.1613 30.2877 54.171 30.0464C54.1764 29.9105 54.1661 29.8193 54.1661 29.8193C54.1661 29.8193 54.1366 29.9063 54.09 30.03C53.9979 30.2744 53.8387 30.6622 53.7069 30.8063C53.5779 30.9473 53.237 31.1213 53.014 31.2259ZM53.3456 31.1511C53.4994 31.0979 53.6591 31.013 53.789 30.878C53.9352 30.7261 54.0128 30.5288 54.0526 30.3431C54.0158 30.4295 53.9758 30.5175 53.9349 30.5977C53.882 30.7015 53.8244 30.7987 53.7669 30.8615C53.7094 30.9244 53.6205 30.9883 53.5256 31.0473C53.4685 31.0828 53.4071 31.1178 53.3456 31.1511Z" fill="url(#paint59_linear)"/>
<path d="M53.349 30.5276C53.6136 30.2552 53.5633 29.7901 53.5633 29.7901C53.5633 29.7901 53.3883 30.299 53.2562 30.4421C53.1241 30.5851 52.6595 30.7785 52.6595 30.7785C52.6595 30.7785 53.0844 30.8 53.349 30.5276Z" fill="url(#paint60_linear)"/>
<path fill-rule="evenodd" clip-rule="evenodd" d="M52.8837 30.6761C52.7616 30.736 52.6595 30.7785 52.6595 30.7785C52.6595 30.7785 52.7683 30.784 52.9101 30.7541C53.0485 30.725 53.2183 30.6621 53.349 30.5276C53.4874 30.3851 53.5397 30.19 53.558 30.0362C53.5747 29.8959 53.5633 29.7901 53.5633 29.7901C53.5633 29.7901 53.5285 29.8911 53.4783 30.0159C53.4158 30.171 53.3295 30.3628 53.2562 30.4421C53.186 30.5181 53.022 30.6083 52.8837 30.6761Z" fill="url(#paint61_linear)"/>
<path d="M52.9171 30.1618C53.0958 29.9778 53.0617 29.6637 53.0617 29.6637C53.0617 29.6637 52.9436 30.0074 52.8544 30.104C52.7651 30.2006 52.4513 30.3312 52.4513 30.3312C52.4513 30.3312 52.7383 30.3457 52.9171 30.1618Z" fill="url(#paint62_linear)"/>
<path fill-rule="evenodd" clip-rule="evenodd" d="M52.7355 30.1913C52.6115 30.2646 52.4513 30.3312 52.4513 30.3312C52.4513 30.3312 52.6162 30.3395 52.7738 30.2635C52.8241 30.2392 52.8738 30.2063 52.9171 30.1618C52.9736 30.1035 53.0089 30.0323 53.0306 29.9621C53.0776 29.8104 53.0617 29.6637 53.0617 29.6637C53.0617 29.6637 53.0129 29.8057 52.9543 29.9329C52.9218 30.0035 52.8862 30.0695 52.8544 30.104C52.8289 30.1316 52.7851 30.162 52.7355 30.1913Z" fill="url(#paint63_linear)"/>
<path fill-rule="evenodd" clip-rule="evenodd" d="M51.9249 80.3997C53.455 80.3997 54.6954 79.1555 54.6954 77.6207C54.6954 76.0859 53.455 74.8417 51.9249 74.8417C50.3947 74.8417 49.1543 76.0859 49.1543 77.6207C49.1543 79.1555 50.3947 80.3997 51.9249 80.3997ZM51.9249 80.6449C53.59 80.6449 54.9399 79.2909 54.9399 77.6207C54.9399 75.9505 53.59 74.5965 51.9249 74.5965C50.2597 74.5965 48.9099 75.9505 48.9099 77.6207C48.9099 79.2909 50.2597 80.6449 51.9249 80.6449Z" fill="url(#paint64_linear)"/>
<path d="M52.9818 77.6207C52.9818 78.2067 52.5082 78.6818 51.9239 78.6818C51.3397 78.6818 50.866 78.2067 50.866 77.6207C50.866 77.0346 51.3397 76.5596 51.9239 76.5596C52.5082 76.5596 52.9818 77.0346 52.9818 77.6207Z" fill="url(#paint65_linear)"/>
<path d="M50.0803 75.8097C49.6672 76.2075 49.7199 76.9122 49.7199 76.9122C49.7199 76.9122 50.0095 76.1527 50.2161 75.9434C50.4227 75.7341 51.1338 75.4658 51.1338 75.4658C51.1338 75.4658 50.4934 75.4119 50.0803 75.8097Z" fill="url(#paint66_linear)"/>
<path fill-rule="evenodd" clip-rule="evenodd" d="M50.9046 75.4701C51.0416 75.458 51.1338 75.4658 51.1338 75.4658C51.1338 75.4658 51.0466 75.4987 50.9243 75.5505C50.6976 75.6465 50.3504 75.8074 50.2161 75.9434C50.079 76.0824 49.9052 76.4639 49.8039 76.7046C49.7526 76.8264 49.7199 76.9122 49.7199 76.9122C49.7199 76.9122 49.7131 76.8207 49.7236 76.6851C49.7424 76.4443 49.816 76.0642 50.0803 75.8097C50.3367 75.5628 50.6805 75.4899 50.9046 75.4701ZM50.5902 75.6126C50.4345 75.6599 50.2717 75.7387 50.1367 75.8687C49.985 76.0148 49.8999 76.209 49.8531 76.3931C49.8932 76.3082 49.9364 76.2218 49.9803 76.1432C50.0371 76.0415 50.0984 75.9466 50.1582 75.8859C50.2181 75.8253 50.3093 75.7648 50.4064 75.7095C50.4648 75.6761 50.5275 75.6435 50.5902 75.6126Z" fill="url(#paint67_linear)"/>
<path d="M50.5634 76.2355C50.2887 76.4977 50.3215 76.9644 50.3215 76.9644C50.3215 76.9644 50.5156 76.4624 50.653 76.3245C50.7904 76.1865 51.262 76.0111 51.262 76.0111C51.262 76.0111 50.8382 75.9734 50.5634 76.2355Z" fill="url(#paint68_linear)"/>
<path fill-rule="evenodd" clip-rule="evenodd" d="M51.0106 76.0259C51.1535 76.0014 51.262 76.0111 51.262 76.0111C51.262 76.0111 51.1584 76.0496 51.0341 76.1048C50.8933 76.1673 50.726 76.2512 50.653 76.3245C50.5768 76.401 50.4832 76.5893 50.4149 76.7419C50.36 76.8647 50.3215 76.9644 50.3215 76.9644C50.3215 76.9644 50.314 76.8581 50.3361 76.7186C50.3602 76.5656 50.4198 76.3726 50.5634 76.2355C50.6991 76.106 50.8712 76.0497 51.0106 76.0259Z" fill="url(#paint69_linear)"/>
<path d="M50.9814 76.6175C50.7959 76.7946 50.818 77.1098 50.818 77.1098C50.818 77.1098 50.9491 76.7708 51.0419 76.6776C51.1347 76.5845 51.4532 76.4659 51.4532 76.4659C51.4532 76.4659 51.167 76.4405 50.9814 76.6175Z" fill="url(#paint70_linear)"/>
<path fill-rule="evenodd" clip-rule="evenodd" d="M51.1285 76.5213C51.2888 76.4513 51.4532 76.4659 51.4532 76.4659C51.4532 76.4659 51.2907 76.5264 51.164 76.595C51.1133 76.6224 51.0684 76.651 51.0419 76.6776C51.0088 76.7109 50.9707 76.7755 50.9355 76.8449C50.8722 76.9697 50.818 77.1098 50.818 77.1098C50.818 77.1098 50.8077 76.9625 50.8604 76.8128C50.8848 76.7434 50.9227 76.6736 50.9814 76.6175C51.0264 76.5747 51.0772 76.5437 51.1285 76.5213Z" fill="url(#paint71_linear)"/>
<path d="M53.8477 79.3214C54.2454 78.9081 54.1661 78.206 54.1661 78.206C54.1661 78.206 53.9054 78.9759 53.7069 79.1929C53.5083 79.4099 52.808 79.7051 52.808 79.7051C52.808 79.7051 53.4499 79.7346 53.8477 79.3214Z" fill="url(#paint72_linear)"/>
<path fill-rule="evenodd" clip-rule="evenodd" d="M53.014 79.6125C52.8939 79.6689 52.808 79.7051 52.808 79.7051C52.808 79.7051 52.9004 79.7094 53.0368 79.6921C53.2599 79.6638 53.6008 79.5778 53.8477 79.3214C54.1021 79.057 54.1613 78.6743 54.171 78.433C54.1764 78.2971 54.1661 78.206 54.1661 78.206C54.1661 78.206 54.1366 78.2929 54.09 78.4166C53.9979 78.661 53.8387 79.0488 53.7069 79.1929C53.5779 79.3339 53.237 79.5079 53.014 79.6125ZM53.3456 79.5377C53.4994 79.4846 53.6591 79.3996 53.789 79.2646C53.9352 79.1128 54.0128 78.9154 54.0526 78.7298C54.0158 78.8161 53.9758 78.9041 53.9349 78.9843C53.882 79.0881 53.8244 79.1853 53.7669 79.2482C53.7094 79.311 53.6205 79.3749 53.5256 79.4339C53.4685 79.4695 53.4071 79.5045 53.3456 79.5377Z" fill="url(#paint73_linear)"/>
<path d="M53.349 78.9142C53.6136 78.6418 53.5633 78.1767 53.5633 78.1767C53.5633 78.1767 53.3883 78.6856 53.2562 78.8287C53.1241 78.9718 52.6595 79.1651 52.6595 79.1651C52.6595 79.1651 53.0844 79.1866 53.349 78.9142Z" fill="url(#paint74_linear)"/>
<path fill-rule="evenodd" clip-rule="evenodd" d="M52.8837 79.0627C52.7616 79.1226 52.6595 79.1651 52.6595 79.1651C52.6595 79.1651 52.7683 79.1706 52.9101 79.1407C53.0485 79.1116 53.2183 79.0488 53.349 78.9142C53.4874 78.7717 53.5397 78.5766 53.558 78.4228C53.5747 78.2825 53.5633 78.1767 53.5633 78.1767C53.5633 78.1767 53.5285 78.2778 53.4783 78.4025C53.4158 78.5577 53.3295 78.7494 53.2562 78.8287C53.186 78.9047 53.022 78.9949 52.8837 79.0627Z" fill="url(#paint75_linear)"/>
<path d="M52.9171 78.5484C53.0958 78.3644 53.0617 78.0503 53.0617 78.0503C53.0617 78.0503 52.9436 78.394 52.8544 78.4906C52.7651 78.5873 52.4513 78.7178 52.4513 78.7178C52.4513 78.7178 52.7383 78.7324 52.9171 78.5484Z" fill="url(#paint76_linear)"/>
<path fill-rule="evenodd" clip-rule="evenodd" d="M52.7355 78.5779C52.6115 78.6512 52.4513 78.7178 52.4513 78.7178C52.4513 78.7178 52.6162 78.7262 52.7738 78.6501C52.8241 78.6259 52.8738 78.5929 52.9171 78.5484C52.9736 78.4902 53.0089 78.4189 53.0306 78.3487C53.0776 78.1971 53.0617 78.0503 53.0617 78.0503C53.0617 78.0503 53.0129 78.1923 52.9543 78.3195C52.9218 78.3901 52.8862 78.4561 52.8544 78.4906C52.8289 78.5182 52.7851 78.5486 52.7355 78.5779Z" fill="url(#paint77_linear)"/>
<path fill-rule="evenodd" clip-rule="evenodd" d="M53.0586 54.5087C53.0586 55.4138 52.3855 56.1715 51.5815 56.1715C50.7775 56.1715 50.1043 55.4138 50.1043 54.5087V51.3936C50.1043 50.4885 50.7775 49.7308 51.5815 49.7308C52.4042 49.7308 53.0586 50.4885 53.0586 51.3936V54.5087Z" fill="url(#paint78_linear)"/>
<path fill-rule="evenodd" clip-rule="evenodd" d="M52.441 58.529H51.8614V56.782C51.9923 56.782 52.1232 56.7399 52.1793 56.7188C52.3102 56.6767 52.7402 56.4452 52.8524 56.361C52.9459 56.2558 53.2637 55.8769 53.3385 55.7506C53.3946 55.6033 53.4881 55.3928 53.5255 55.2244C53.5629 55.0771 53.5629 54.9508 53.5629 54.9508C53.5816 54.8034 53.6003 54.5298 53.6003 54.3825V53.2669C53.6003 53.0985 53.5629 52.846 53.5068 52.6986L53.3572 52.1935C53.3198 52.0461 53.2824 52.0461 53.2824 52.2145V52.6776C53.2824 52.8249 53.2824 53.0985 53.2824 53.2669V54.3825C53.2824 54.5298 53.245 55.035 53.2263 55.1402C53.189 55.2665 53.0207 55.6454 52.9459 55.7506C52.8711 55.8348 52.5906 56.1084 52.4971 56.1926C52.4036 56.2558 52.0297 56.4031 51.9175 56.4241C51.7866 56.4452 51.6931 56.4452 51.6931 56.4452C51.6557 56.4452 51.637 56.4452 51.637 56.4452C51.6183 56.4452 51.5997 56.4452 51.5997 56.4452C51.581 56.4452 51.5623 56.4452 51.5623 56.4452C51.5436 56.4452 51.2257 56.4031 51.1135 56.3821C51.0013 56.34 50.6648 56.1505 50.5713 56.0874C50.4965 56.0032 50.2347 55.6875 50.1786 55.5822C50.1225 55.4559 49.9916 55.056 49.9729 54.9297C49.9543 54.8034 49.9543 54.5719 49.9543 54.4035V53.288C49.9543 53.1196 49.9543 52.846 49.9543 52.6986V52.2356C49.9543 52.0882 49.8982 52.0882 49.8608 52.2145L49.7112 52.7197C49.6177 52.846 49.5803 53.0985 49.5803 53.2669V54.3825C49.5803 54.5298 49.6177 55.0981 49.6551 55.2455C49.6925 55.3928 49.8982 55.8769 49.9729 56.0032C50.0664 56.1084 50.403 56.4452 50.5152 56.5294C50.6461 56.5925 50.833 56.6978 50.9826 56.7609C51.1135 56.8241 51.2257 56.8241 51.2257 56.8241H51.2818V58.5711H50.7209C50.6461 58.5711 50.59 58.6342 50.59 58.7184V58.992C50.59 59.0762 50.6461 59.1394 50.7209 59.1394H51.5623L52.441 59.1037C52.4971 59.1037 52.5532 59.0762 52.5532 58.992V58.6553C52.5719 58.5711 52.4971 58.529 52.441 58.529Z" fill="url(#paint79_linear)"/>
<path fill-rule="evenodd" clip-rule="evenodd" d="M28.2786 51.1249L28.6827 51.0751L30.0399 54.2907H32.1605V54.6475H29.7473L28.6334 52.0087L28.2257 57.7478L27.8208 57.7956L26.6411 54.8945L25.7579 56.1955L24.6195 54.6475H22.7804V54.2907H24.8497L25.7436 55.5063L26.7365 54.0437L27.8727 56.8377L28.2786 51.1249Z" fill="url(#paint80_linear)"/>
<path d="M100.541 25.5376H105.189V26.2859H100.541V25.5376Z" fill="url(#paint81_linear)"/>
<path d="M100.541 26.0138H100.877V32.0002H100.541V26.0138Z" fill="url(#paint82_linear)"/>
<path d="M99.1594 31.2859L100.877 30.3138V32.258L99.1594 31.2859Z" fill="url(#paint83_linear)"/>
<path d="M104.852 26.0138H105.189V32.0002H104.852V26.0138Z" fill="url(#paint84_linear)"/>
<path d="M103.471 31.2859L105.189 30.3138V32.258L103.471 31.2859Z" fill="url(#paint85_linear)"/>
<path d="M25.5013 118.28H30.1501V119.028H25.5013V118.28Z" fill="url(#paint86_linear)"/>
<path d="M25.5013 118.756H25.8382V124.742H25.5013V118.756Z" fill="url(#paint87_linear)"/>
<path d="M24.1201 124.028L25.8382 123.056V125L24.1201 124.028Z" fill="url(#paint88_linear)"/>
<path d="M29.8132 118.756H30.1501V124.742H29.8132V118.756Z" fill="url(#paint89_linear)"/>
<path d="M28.4321 124.028L30.1501 123.056V125L28.4321 124.028Z" fill="url(#paint90_linear)"/>
<path d="M2.95457 119.158H4.15714V122.694H2.95457V119.158Z" fill="url(#paint91_linear)"/>
<path d="M4.75842 119.158H5.96099V122.694H4.75842V119.158Z" fill="url(#paint92_linear)"/>
<path d="M6.56227 119.158H7.76483V122.694H6.56227V119.158Z" fill="url(#paint93_linear)"/>
<path d="M6.92304 120.641H7.40406V124.176H6.92304V120.641Z" fill="url(#paint94_linear)"/>
<path d="M5.11919 120.641H5.60022V124.176H5.11919V120.641Z" fill="url(#paint95_linear)"/>
<path d="M3.31534 120.641H3.79637V124.176H3.31534V120.641Z" fill="url(#paint96_linear)"/>
<path fill-rule="evenodd" clip-rule="evenodd" d="M8.45201 119.183H2.26739V124.096H8.45201V119.183ZM2.0097 118.951V124.328H8.7097V118.951H2.0097Z" fill="url(#paint97_linear)"/>
<path d="M80.1866 125C80.5831 125 80.9255 124.673 80.9255 124.295L81.74 123.573L80.9255 122.852C80.9255 122.525 80.7273 122.284 80.4209 122.164V121.167C80.4209 119.569 79.0692 118.28 77.3932 118.28C75.7351 118.28 74.3835 119.569 74.3835 121.167V122.164C74.0951 122.284 73.8789 122.542 73.8789 122.852L73.03 123.573L73.8789 124.295C73.8789 124.673 74.2213 125 74.6358 125C75.0503 125 75.3927 124.673 75.3927 124.295V122.852C75.3927 122.525 75.1765 122.284 74.8881 122.164V121.167C74.8881 119.826 76.0055 118.761 77.3932 118.761C78.7989 118.761 79.9163 119.826 79.9163 121.167V122.164C79.6459 122.284 79.4297 122.542 79.4297 122.852V124.295C79.4297 124.673 79.7721 125 80.1866 125Z" fill="url(#paint98_linear)"/>
<path d="M126.905 119.158H128.108V122.694H126.905V119.158Z" fill="url(#paint99_linear)"/>
<path d="M128.709 119.158H129.912V122.694H128.709V119.158Z" fill="url(#paint100_linear)"/>
<path d="M130.513 119.158H131.716V122.694H130.513V119.158Z" fill="url(#paint101_linear)"/>
<path d="M130.874 120.641H131.355V124.176H130.874V120.641Z" fill="url(#paint102_linear)"/>
<path d="M129.07 120.641H129.551V124.176H129.07V120.641Z" fill="url(#paint103_linear)"/>
<path d="M127.266 120.641H127.747V124.176H127.266V120.641Z" fill="url(#paint104_linear)"/>
<path fill-rule="evenodd" clip-rule="evenodd" d="M132.403 119.183H126.218V124.096H132.403V119.183ZM125.96 118.951V124.328H132.66V118.951H125.96Z" fill="url(#paint105_linear)"/>
<path fill-rule="evenodd" clip-rule="evenodd" d="M51.9249 124.755C53.455 124.755 54.6954 123.51 54.6954 121.976C54.6954 120.441 53.455 119.197 51.9249 119.197C50.3947 119.197 49.1543 120.441 49.1543 121.976C49.1543 123.51 50.3947 124.755 51.9249 124.755ZM51.9249 125C53.59 125 54.9399 123.646 54.9399 121.976C54.9399 120.305 53.59 118.951 51.9249 118.951C50.2597 118.951 48.9099 120.305 48.9099 121.976C48.9099 123.646 50.2597 125 51.9249 125Z" fill="url(#paint106_linear)"/>
<path d="M52.9818 121.976C52.9818 122.562 52.5082 123.037 51.9239 123.037C51.3397 123.037 50.866 122.562 50.866 121.976C50.866 121.39 51.3397 120.915 51.9239 120.915C52.5082 120.915 52.9818 121.39 52.9818 121.976Z" fill="url(#paint107_linear)"/>
<path d="M50.0803 120.165C49.6672 120.563 49.7199 121.267 49.7199 121.267C49.7199 121.267 50.0095 120.508 50.2161 120.298C50.4227 120.089 51.1338 119.821 51.1338 119.821C51.1338 119.821 50.4934 119.767 50.0803 120.165Z" fill="url(#paint108_linear)"/>
<path fill-rule="evenodd" clip-rule="evenodd" d="M50.9046 119.825C51.0416 119.813 51.1338 119.821 51.1338 119.821C51.1338 119.821 51.0466 119.854 50.9243 119.905C50.6976 120.001 50.3504 120.162 50.2161 120.298C50.079 120.437 49.9052 120.819 49.8039 121.06C49.7526 121.181 49.7199 121.267 49.7199 121.267C49.7199 121.267 49.7131 121.176 49.7236 121.04C49.7424 120.799 49.816 120.419 50.0803 120.165C50.3367 119.918 50.6805 119.845 50.9046 119.825ZM50.5902 119.968C50.4345 120.015 50.2717 120.094 50.1367 120.224C49.985 120.37 49.8999 120.564 49.8531 120.748C49.8932 120.663 49.9364 120.577 49.9803 120.498C50.0371 120.396 50.0984 120.302 50.1582 120.241C50.2181 120.18 50.3093 120.12 50.4064 120.064C50.4648 120.031 50.5275 119.998 50.5902 119.968Z" fill="url(#paint109_linear)"/>
<path d="M50.5634 120.591C50.2887 120.853 50.3215 121.319 50.3215 121.319C50.3215 121.319 50.5156 120.817 50.653 120.679C50.7904 120.542 51.262 120.366 51.262 120.366C51.262 120.366 50.8382 120.328 50.5634 120.591Z" fill="url(#paint110_linear)"/>
<path fill-rule="evenodd" clip-rule="evenodd" d="M51.0106 120.381C51.1535 120.356 51.262 120.366 51.262 120.366C51.262 120.366 51.1584 120.405 51.0341 120.46C50.8933 120.522 50.726 120.606 50.653 120.679C50.5768 120.756 50.4832 120.944 50.4149 121.097C50.36 121.22 50.3215 121.319 50.3215 121.319C50.3215 121.319 50.314 121.213 50.3361 121.074C50.3602 120.921 50.4198 120.728 50.5634 120.591C50.6991 120.461 50.8712 120.405 51.0106 120.381Z" fill="url(#paint111_linear)"/>
<path d="M50.9814 120.973C50.7959 121.15 50.818 121.465 50.818 121.465C50.818 121.465 50.9491 121.126 51.0419 121.033C51.1347 120.939 51.4532 120.821 51.4532 120.821C51.4532 120.821 51.167 120.795 50.9814 120.973Z" fill="url(#paint112_linear)"/>
<path fill-rule="evenodd" clip-rule="evenodd" d="M51.1285 120.876C51.2888 120.806 51.4532 120.821 51.4532 120.821C51.4532 120.821 51.2907 120.881 51.164 120.95C51.1133 120.977 51.0684 121.006 51.0419 121.033C51.0088 121.066 50.9707 121.131 50.9355 121.2C50.8722 121.325 50.818 121.465 50.818 121.465C50.818 121.465 50.8077 121.317 50.8604 121.168C50.8848 121.098 50.9227 121.029 50.9814 120.973C51.0264 120.93 51.0772 120.899 51.1285 120.876Z" fill="url(#paint113_linear)"/>
<path d="M53.8477 123.676C54.2454 123.263 54.1661 122.561 54.1661 122.561C54.1661 122.561 53.9054 123.331 53.7069 123.548C53.5083 123.765 52.808 124.06 52.808 124.06C52.808 124.06 53.4499 124.09 53.8477 123.676Z" fill="url(#paint114_linear)"/>
<path fill-rule="evenodd" clip-rule="evenodd" d="M53.014 123.968C52.8939 124.024 52.808 124.06 52.808 124.06C52.808 124.06 52.9004 124.064 53.0368 124.047C53.2599 124.019 53.6008 123.933 53.8477 123.676C54.1021 123.412 54.1613 123.029 54.171 122.788C54.1764 122.652 54.1661 122.561 54.1661 122.561C54.1661 122.561 54.1366 122.648 54.09 122.772C53.9979 123.016 53.8387 123.404 53.7069 123.548C53.5779 123.689 53.237 123.863 53.014 123.968ZM53.3456 123.893C53.4994 123.84 53.6591 123.755 53.789 123.62C53.9352 123.468 54.0128 123.27 54.0526 123.085C54.0158 123.171 53.9758 123.259 53.9349 123.339C53.882 123.443 53.8244 123.54 53.7669 123.603C53.7094 123.666 53.6205 123.73 53.5256 123.789C53.4685 123.824 53.4071 123.859 53.3456 123.893Z" fill="url(#paint115_linear)"/>
<path d="M53.349 123.269C53.6136 122.997 53.5633 122.532 53.5633 122.532C53.5633 122.532 53.3883 123.041 53.2562 123.184C53.1241 123.327 52.6595 123.52 52.6595 123.52C52.6595 123.52 53.0844 123.542 53.349 123.269Z" fill="url(#paint116_linear)"/>
<path fill-rule="evenodd" clip-rule="evenodd" d="M52.8837 123.418C52.7616 123.478 52.6595 123.52 52.6595 123.52C52.6595 123.52 52.7683 123.526 52.9101 123.496C53.0485 123.467 53.2183 123.404 53.349 123.269C53.4874 123.127 53.5397 122.932 53.558 122.778C53.5747 122.637 53.5633 122.532 53.5633 122.532C53.5633 122.532 53.5285 122.633 53.4783 122.757C53.4158 122.913 53.3295 123.104 53.2562 123.184C53.186 123.26 53.022 123.35 52.8837 123.418Z" fill="url(#paint117_linear)"/>
<path d="M52.9171 122.903C53.0958 122.719 53.0617 122.405 53.0617 122.405C53.0617 122.405 52.9436 122.749 52.8544 122.846C52.7651 122.942 52.4513 123.073 52.4513 123.073C52.4513 123.073 52.7383 123.087 52.9171 122.903Z" fill="url(#paint118_linear)"/>
<path fill-rule="evenodd" clip-rule="evenodd" d="M52.7355 122.933C52.6115 123.006 52.4513 123.073 52.4513 123.073C52.4513 123.073 52.6162 123.081 52.7738 123.005C52.8241 122.981 52.8738 122.948 52.9171 122.903C52.9736 122.845 53.0089 122.774 53.0306 122.704C53.0776 122.552 53.0617 122.405 53.0617 122.405C53.0617 122.405 53.0129 122.547 52.9543 122.674C52.9218 122.745 52.8862 122.811 52.8544 122.846C52.8289 122.873 52.7851 122.904 52.7355 122.933Z" fill="url(#paint119_linear)"/>
<path d="M100.541 118.28H105.189V119.028H100.541V118.28Z" fill="url(#paint120_linear)"/>
<path d="M100.541 118.756H100.877V124.742H100.541V118.756Z" fill="url(#paint121_linear)"/>
<path d="M99.1594 124.028L100.877 123.056V125L99.1594 124.028Z" fill="url(#paint122_linear)"/>
<path d="M104.852 118.756H105.189V124.742H104.852V118.756Z" fill="url(#paint123_linear)"/>
<path d="M103.471 124.028L105.189 123.056V125L103.471 124.028Z" fill="url(#paint124_linear)"/>
<path d="M105.647 7.39246C106.044 7.39246 106.386 7.03324 106.386 6.61729L107.201 5.82322L106.386 5.02914C106.386 4.66992 106.188 4.40523 105.881 4.27288V3.1763C105.881 1.41799 104.53 0 102.854 0C101.196 0 99.8441 1.41799 99.8441 3.1763V4.27288C99.5557 4.40523 99.3395 4.68883 99.3395 5.02914L98.4906 5.82322L99.3395 6.61729C99.3395 7.03324 99.6819 7.39246 100.096 7.39246C100.511 7.39246 100.853 7.03324 100.853 6.61729V5.02914C100.853 4.66992 100.637 4.40523 100.349 4.27288V3.1763C100.349 1.70159 101.466 0.529384 102.854 0.529384C104.259 0.529384 105.377 1.70159 105.377 3.1763V4.27288C105.107 4.40523 104.89 4.68883 104.89 5.02914V6.61729C104.89 7.03324 105.233 7.39246 105.647 7.39246Z" fill="url(#paint125_linear)"/>
<path d="M100.199 74.8291H101.522V78.8064H100.199V74.8291Z" fill="url(#paint126_linear)"/>
<path d="M102.183 74.8291H103.506V78.8064H102.183V74.8291Z" fill="url(#paint127_linear)"/>
<path d="M104.167 74.8291H105.49V78.8064H104.167V74.8291Z" fill="url(#paint128_linear)"/>
<path d="M104.564 76.497H105.093V80.4743H104.564V76.497Z" fill="url(#paint129_linear)"/>
<path d="M102.58 76.497H103.109V80.4743H102.58V76.497Z" fill="url(#paint130_linear)"/>
<path d="M100.596 76.497H101.125V80.4743H100.596V76.497Z" fill="url(#paint131_linear)"/>
<path fill-rule="evenodd" clip-rule="evenodd" d="M106.246 74.857H99.4428V80.3843H106.246V74.857ZM99.1594 74.5965V80.6449H106.529V74.5965H99.1594Z" fill="url(#paint132_linear)"/>
<path fill-rule="evenodd" clip-rule="evenodd" d="M103.318 51.1249L103.722 51.0751L105.08 54.2907H107.2V54.6475H104.787L103.673 52.0087L103.265 57.7478L102.86 57.7956L101.681 54.8945L100.798 56.1955L99.6592 54.6475H97.8201V54.2907H99.8894L100.783 55.5063L101.776 54.0437L102.912 56.8377L103.318 51.1249Z" fill="url(#paint133_linear)"/>
<path d="M74.0693 0.904505H75.3922V4.88177H74.0693V0.904505Z" fill="url(#paint134_linear)"/>
<path d="M76.0536 0.904505H77.3764V4.88177H76.0536V0.904505Z" fill="url(#paint135_linear)"/>
<path d="M78.0378 0.904505H79.3606V4.88177H78.0378V0.904505Z" fill="url(#paint136_linear)"/>
<path d="M78.4346 2.57239H78.9638V6.54966H78.4346V2.57239Z" fill="url(#paint137_linear)"/>
<path d="M76.4504 2.57239H76.9795V6.54966H76.4504V2.57239Z" fill="url(#paint138_linear)"/>
<path d="M74.4662 2.57239H74.9953V6.54966H74.4662V2.57239Z" fill="url(#paint139_linear)"/>
<path fill-rule="evenodd" clip-rule="evenodd" d="M80.1165 0.932419H73.3134V6.45971H80.1165V0.932419ZM73.03 0.671873V6.72025H80.4V0.671873H73.03Z" fill="url(#paint140_linear)"/>
<path fill-rule="evenodd" clip-rule="evenodd" d="M53.0679 0.0547706L53.472 0L54.8293 3.53711H56.9498V3.92961H54.5366L53.4228 1.02686L53.015 7.33987L52.6101 7.39246L51.4304 4.20132L50.5472 5.63238L49.4088 3.92961H47.5698V3.53711H49.639L50.533 4.87422L51.5258 3.2654L52.662 6.33884L53.0679 0.0547706Z" fill="url(#paint141_linear)"/>
<path d="M30.6063 103.495C31.0028 103.495 31.3452 103.135 31.3452 102.719L32.1597 101.925L31.3452 101.131C31.3452 100.772 31.147 100.507 30.8406 100.375V99.2785C30.8406 97.5202 29.4889 96.1022 27.8129 96.1022C26.1548 96.1022 24.8032 97.5202 24.8032 99.2785V100.375C24.5148 100.507 24.2986 100.791 24.2986 101.131L23.4497 101.925L24.2986 102.719C24.2986 103.135 24.641 103.495 25.0555 103.495C25.47 103.495 25.8124 103.135 25.8124 102.719V101.131C25.8124 100.772 25.5962 100.507 25.3078 100.375V99.2785C25.3078 97.8038 26.4252 96.6316 27.8129 96.6316C29.2186 96.6316 30.336 97.8038 30.336 99.2785V100.375C30.0656 100.507 29.8494 100.791 29.8494 101.131V102.719C29.8494 103.135 30.1918 103.495 30.6063 103.495Z" fill="url(#paint142_linear)"/>
<path fill-rule="evenodd" clip-rule="evenodd" d="M5.77542 96.157L6.15066 96.1022L7.41099 99.6393H9.38004V100.032H7.13925L6.10495 97.1291L5.72632 103.442L5.35032 103.495L4.2549 100.304L3.43483 101.735L2.37775 100.032H0.670037V99.6393H2.5915L3.42158 100.976L4.34351 99.3676L5.39853 102.441L5.77542 96.157Z" fill="url(#paint143_linear)"/>
<path fill-rule="evenodd" clip-rule="evenodd" d="M130.395 96.157L130.771 96.1022L132.031 99.6393H134V100.032H131.759L130.725 97.1291L130.346 103.442L129.97 103.495L128.875 100.304L128.055 101.735L126.998 100.032H125.29V99.6393H127.211L128.042 100.976L128.963 99.3676L130.018 102.441L130.395 96.157Z" fill="url(#paint144_linear)"/>
<path d="M105.647 103.495C106.044 103.495 106.386 103.135 106.386 102.719L107.201 101.925L106.386 101.131C106.386 100.772 106.188 100.507 105.881 100.375V99.2785C105.881 97.5202 104.53 96.1022 102.854 96.1022C101.196 96.1022 99.8441 97.5202 99.8441 99.2785V100.375C99.5557 100.507 99.3395 100.791 99.3395 101.131L98.4906 101.925L99.3395 102.719C99.3395 103.135 99.6819 103.495 100.096 103.495C100.511 103.495 100.853 103.135 100.853 102.719V101.131C100.853 100.772 100.637 100.507 100.349 100.375V99.2785C100.349 97.8038 101.466 96.6316 102.854 96.6316C104.259 96.6316 105.377 97.8038 105.377 99.2785V100.375C105.107 100.507 104.89 100.791 104.89 101.131V102.719C104.89 103.135 105.233 103.495 105.647 103.495Z" fill="url(#paint145_linear)"/>
<path d="M74.0693 97.0067H75.3922V100.984H74.0693V97.0067Z" fill="url(#paint146_linear)"/>
<path d="M76.0536 97.0067H77.3764V100.984H76.0536V97.0067Z" fill="url(#paint147_linear)"/>
<path d="M78.0378 97.0067H79.3606V100.984H78.0378V97.0067Z" fill="url(#paint148_linear)"/>
<path d="M78.4346 98.6746H78.9638V102.652H78.4346V98.6746Z" fill="url(#paint149_linear)"/>
<path d="M76.4504 98.6746H76.9795V102.652H76.4504V98.6746Z" fill="url(#paint150_linear)"/>
<path d="M74.4662 98.6746H74.9953V102.652H74.4662V98.6746Z" fill="url(#paint151_linear)"/>
<path fill-rule="evenodd" clip-rule="evenodd" d="M80.1165 97.0346H73.3134V102.562H80.1165V97.0346ZM73.03 96.7741V102.822H80.4V96.7741H73.03Z" fill="url(#paint152_linear)"/>
<path fill-rule="evenodd" clip-rule="evenodd" d="M53.0679 96.157L53.472 96.1022L54.8293 99.6393H56.9498V100.032H54.5366L53.4228 97.1291L53.015 103.442L52.6101 103.495L51.4304 100.304L50.5472 101.735L49.4088 100.032H47.5698V99.6393H49.639L50.533 100.976L51.5258 99.3676L52.662 102.441L53.0679 96.157Z" fill="url(#paint153_linear)"/>
<defs>
<linearGradient id="paint0_linear" x1="0.657925" y1="57.3799" x2="90.341" y2="57.3799" gradientUnits="userSpaceOnUse">
<stop stop-color="#F3461B"/>
<stop offset="1" stop-color="#0DA6F2"/>
</linearGradient>
<linearGradient id="paint1_linear" x1="0.657925" y1="57.3799" x2="90.341" y2="57.3799" gradientUnits="userSpaceOnUse">
<stop stop-color="#F3461B"/>
<stop offset="1" stop-color="#0DA6F2"/>
</linearGradient>
<linearGradient id="paint2_linear" x1="0.657925" y1="57.3799" x2="90.341" y2="57.3799" gradientUnits="userSpaceOnUse">
<stop stop-color="#F3461B"/>
<stop offset="1" stop-color="#0DA6F2"/>
</linearGradient>
<linearGradient id="paint3_linear" x1="0.657925" y1="57.3799" x2="90.341" y2="57.3799" gradientUnits="userSpaceOnUse">
<stop stop-color="#F3461B"/>
<stop offset="1" stop-color="#0DA6F2"/>
</linearGradient>
<linearGradient id="paint4_linear" x1="0.657925" y1="57.3799" x2="90.341" y2="57.3799" gradientUnits="userSpaceOnUse">
<stop stop-color="#F3461B"/>
<stop offset="1" stop-color="#0DA6F2"/>
</linearGradient>
<linearGradient id="paint5_linear" x1="0.657925" y1="57.3799" x2="90.341" y2="57.3799" gradientUnits="userSpaceOnUse">
<stop stop-color="#F3461B"/>
<stop offset="1" stop-color="#0DA6F2"/>
</linearGradient>
<linearGradient id="paint6_linear" x1="0.657925" y1="57.3799" x2="90.341" y2="57.3799" gradientUnits="userSpaceOnUse">
<stop stop-color="#F3461B"/>
<stop offset="1" stop-color="#0DA6F2"/>
</linearGradient>
<linearGradient id="paint7_linear" x1="0.657925" y1="57.3799" x2="90.341" y2="57.3799" gradientUnits="userSpaceOnUse">
<stop stop-color="#F3461B"/>
<stop offset="1" stop-color="#0DA6F2"/>
</linearGradient>
<linearGradient id="paint8_linear" x1="0.657925" y1="57.3799" x2="90.341" y2="57.3799" gradientUnits="userSpaceOnUse">
<stop stop-color="#F3461B"/>
<stop offset="1" stop-color="#0DA6F2"/>
</linearGradient>
<linearGradient id="paint9_linear" x1="0.657925" y1="57.3799" x2="90.341" y2="57.3799" gradientUnits="userSpaceOnUse">
<stop stop-color="#F3461B"/>
<stop offset="1" stop-color="#0DA6F2"/>
</linearGradient>
<linearGradient id="paint10_linear" x1="0.657925" y1="57.3799" x2="90.341" y2="57.3799" gradientUnits="userSpaceOnUse">
<stop stop-color="#F3461B"/>
<stop offset="1" stop-color="#0DA6F2"/>
</linearGradient>
<linearGradient id="paint11_linear" x1="0.657925" y1="57.3799" x2="90.341" y2="57.3799" gradientUnits="userSpaceOnUse">
<stop stop-color="#F3461B"/>
<stop offset="1" stop-color="#0DA6F2"/>
</linearGradient>
<linearGradient id="paint12_linear" x1="0.657925" y1="57.3799" x2="90.341" y2="57.3799" gradientUnits="userSpaceOnUse">
<stop stop-color="#F3461B"/>
<stop offset="1" stop-color="#0DA6F2"/>
</linearGradient>
<linearGradient id="paint13_linear" x1="0.657925" y1="57.3799" x2="90.341" y2="57.3799" gradientUnits="userSpaceOnUse">
<stop stop-color="#F3461B"/>
<stop offset="1" stop-color="#0DA6F2"/>
</linearGradient>
<linearGradient id="paint14_linear" x1="0.657925" y1="57.3799" x2="90.341" y2="57.3799" gradientUnits="userSpaceOnUse">
<stop stop-color="#F3461B"/>
<stop offset="1" stop-color="#0DA6F2"/>
</linearGradient>
<linearGradient id="paint15_linear" x1="0.657925" y1="57.3799" x2="90.341" y2="57.3799" gradientUnits="userSpaceOnUse">
<stop stop-color="#F3461B"/>
<stop offset="1" stop-color="#0DA6F2"/>
</linearGradient>
<linearGradient id="paint16_linear" x1="0.657925" y1="57.3799" x2="90.341" y2="57.3799" gradientUnits="userSpaceOnUse">
<stop stop-color="#F3461B"/>
<stop offset="1" stop-color="#0DA6F2"/>
</linearGradient>
<linearGradient id="paint17_linear" x1="0.657925" y1="57.3799" x2="90.341" y2="57.3799" gradientUnits="userSpaceOnUse">
<stop stop-color="#F3461B"/>
<stop offset="1" stop-color="#0DA6F2"/>
</linearGradient>
<linearGradient id="paint18_linear" x1="0.657925" y1="57.3799" x2="90.341" y2="57.3799" gradientUnits="userSpaceOnUse">
<stop stop-color="#F3461B"/>
<stop offset="1" stop-color="#0DA6F2"/>
</linearGradient>
<linearGradient id="paint19_linear" x1="0.657925" y1="57.3799" x2="90.341" y2="57.3799" gradientUnits="userSpaceOnUse">
<stop stop-color="#F3461B"/>
<stop offset="1" stop-color="#0DA6F2"/>
</linearGradient>
<linearGradient id="paint20_linear" x1="0.657925" y1="57.3799" x2="90.341" y2="57.3799" gradientUnits="userSpaceOnUse">
<stop stop-color="#F3461B"/>
<stop offset="1" stop-color="#0DA6F2"/>
</linearGradient>
<linearGradient id="paint21_linear" x1="0.657925" y1="57.3799" x2="90.341" y2="57.3799" gradientUnits="userSpaceOnUse">
<stop stop-color="#F3461B"/>
<stop offset="1" stop-color="#0DA6F2"/>
</linearGradient>
<linearGradient id="paint22_linear" x1="0.657925" y1="57.3799" x2="90.341" y2="57.3799" gradientUnits="userSpaceOnUse">
<stop stop-color="#F3461B"/>
<stop offset="1" stop-color="#0DA6F2"/>
</linearGradient>
<linearGradient id="paint23_linear" x1="0.657925" y1="57.3799" x2="90.341" y2="57.3799" gradientUnits="userSpaceOnUse">
<stop stop-color="#F3461B"/>
<stop offset="1" stop-color="#0DA6F2"/>
</linearGradient>
<linearGradient id="paint24_linear" x1="0.657925" y1="57.3799" x2="90.341" y2="57.3799" gradientUnits="userSpaceOnUse">
<stop stop-color="#F3461B"/>
<stop offset="1" stop-color="#0DA6F2"/>
</linearGradient>
<linearGradient id="paint25_linear" x1="0.657925" y1="57.3799" x2="90.341" y2="57.3799" gradientUnits="userSpaceOnUse">
<stop stop-color="#F3461B"/>
<stop offset="1" stop-color="#0DA6F2"/>
</linearGradient>
<linearGradient id="paint26_linear" x1="0.657925" y1="57.3799" x2="90.341" y2="57.3799" gradientUnits="userSpaceOnUse">
<stop stop-color="#F3461B"/>
<stop offset="1" stop-color="#0DA6F2"/>
</linearGradient>
<linearGradient id="paint27_linear" x1="0.657925" y1="57.3799" x2="90.341" y2="57.3799" gradientUnits="userSpaceOnUse">
<stop stop-color="#F3461B"/>
<stop offset="1" stop-color="#0DA6F2"/>
</linearGradient>
<linearGradient id="paint28_linear" x1="0.657925" y1="57.3799" x2="90.341" y2="57.3799" gradientUnits="userSpaceOnUse">
<stop stop-color="#F3461B"/>
<stop offset="1" stop-color="#0DA6F2"/>
</linearGradient>
<linearGradient id="paint29_linear" x1="0.657925" y1="57.3799" x2="90.341" y2="57.3799" gradientUnits="userSpaceOnUse">
<stop stop-color="#F3461B"/>
<stop offset="1" stop-color="#0DA6F2"/>
</linearGradient>
<linearGradient id="paint30_linear" x1="0.657925" y1="57.3799" x2="90.341" y2="57.3799" gradientUnits="userSpaceOnUse">
<stop stop-color="#F3461B"/>
<stop offset="1" stop-color="#0DA6F2"/>
</linearGradient>
<linearGradient id="paint31_linear" x1="0.657925" y1="57.3799" x2="90.341" y2="57.3799" gradientUnits="userSpaceOnUse">
<stop stop-color="#F3461B"/>
<stop offset="1" stop-color="#0DA6F2"/>
</linearGradient>
<linearGradient id="paint32_linear" x1="0.657925" y1="57.3799" x2="90.341" y2="57.3799" gradientUnits="userSpaceOnUse">
<stop stop-color="#F3461B"/>
<stop offset="1" stop-color="#0DA6F2"/>
</linearGradient>
<linearGradient id="paint33_linear" x1="0.657925" y1="57.3799" x2="90.341" y2="57.3799" gradientUnits="userSpaceOnUse">
<stop stop-color="#F3461B"/>
<stop offset="1" stop-color="#0DA6F2"/>
</linearGradient>
<linearGradient id="paint34_linear" x1="0.657925" y1="57.3799" x2="90.341" y2="57.3799" gradientUnits="userSpaceOnUse">
<stop stop-color="#F3461B"/>
<stop offset="1" stop-color="#0DA6F2"/>
</linearGradient>
<linearGradient id="paint35_linear" x1="0.657925" y1="57.3799" x2="90.341" y2="57.3799" gradientUnits="userSpaceOnUse">
<stop stop-color="#F3461B"/>
<stop offset="1" stop-color="#0DA6F2"/>
</linearGradient>
<linearGradient id="paint36_linear" x1="0.657925" y1="57.3799" x2="90.341" y2="57.3799" gradientUnits="userSpaceOnUse">
<stop stop-color="#F3461B"/>
<stop offset="1" stop-color="#0DA6F2"/>
</linearGradient>
<linearGradient id="paint37_linear" x1="0.657925" y1="57.3799" x2="90.341" y2="57.3799" gradientUnits="userSpaceOnUse">
<stop stop-color="#F3461B"/>
<stop offset="1" stop-color="#0DA6F2"/>
</linearGradient>
<linearGradient id="paint38_linear" x1="0.657925" y1="57.3799" x2="90.341" y2="57.3799" gradientUnits="userSpaceOnUse">
<stop stop-color="#F3461B"/>
<stop offset="1" stop-color="#0DA6F2"/>
</linearGradient>
<linearGradient id="paint39_linear" x1="0.657925" y1="57.3799" x2="90.341" y2="57.3799" gradientUnits="userSpaceOnUse">
<stop stop-color="#F3461B"/>
<stop offset="1" stop-color="#0DA6F2"/>
</linearGradient>
<linearGradient id="paint40_linear" x1="0.657925" y1="57.3799" x2="90.341" y2="57.3799" gradientUnits="userSpaceOnUse">
<stop stop-color="#F3461B"/>
<stop offset="1" stop-color="#0DA6F2"/>
</linearGradient>
<linearGradient id="paint41_linear" x1="0.657925" y1="57.3799" x2="90.341" y2="57.3799" gradientUnits="userSpaceOnUse">
<stop stop-color="#F3461B"/>
<stop offset="1" stop-color="#0DA6F2"/>
</linearGradient>
<linearGradient id="paint42_linear" x1="0.657925" y1="57.3799" x2="90.341" y2="57.3799" gradientUnits="userSpaceOnUse">
<stop stop-color="#F3461B"/>
<stop offset="1" stop-color="#0DA6F2"/>
</linearGradient>
<linearGradient id="paint43_linear" x1="0.657925" y1="57.3799" x2="90.341" y2="57.3799" gradientUnits="userSpaceOnUse">
<stop stop-color="#F3461B"/>
<stop offset="1" stop-color="#0DA6F2"/>
</linearGradient>
<linearGradient id="paint44_linear" x1="0.657925" y1="57.3799" x2="90.341" y2="57.3799" gradientUnits="userSpaceOnUse">
<stop stop-color="#F3461B"/>
<stop offset="1" stop-color="#0DA6F2"/>
</linearGradient>
<linearGradient id="paint45_linear" x1="0.657925" y1="57.3799" x2="90.341" y2="57.3799" gradientUnits="userSpaceOnUse">
<stop stop-color="#F3461B"/>
<stop offset="1" stop-color="#0DA6F2"/>
</linearGradient>
<linearGradient id="paint46_linear" x1="0.657925" y1="57.3799" x2="90.341" y2="57.3799" gradientUnits="userSpaceOnUse">
<stop stop-color="#F3461B"/>
<stop offset="1" stop-color="#0DA6F2"/>
</linearGradient>
<linearGradient id="paint47_linear" x1="0.657925" y1="57.3799" x2="90.341" y2="57.3799" gradientUnits="userSpaceOnUse">
<stop stop-color="#F3461B"/>
<stop offset="1" stop-color="#0DA6F2"/>
</linearGradient>
<linearGradient id="paint48_linear" x1="0.657925" y1="57.3799" x2="90.341" y2="57.3799" gradientUnits="userSpaceOnUse">
<stop stop-color="#F3461B"/>
<stop offset="1" stop-color="#0DA6F2"/>
</linearGradient>
<linearGradient id="paint49_linear" x1="0.657925" y1="57.3799" x2="90.341" y2="57.3799" gradientUnits="userSpaceOnUse">
<stop stop-color="#F3461B"/>
<stop offset="1" stop-color="#0DA6F2"/>
</linearGradient>
<linearGradient id="paint50_linear" x1="0.657925" y1="57.3799" x2="90.341" y2="57.3799" gradientUnits="userSpaceOnUse">
<stop stop-color="#F3461B"/>
<stop offset="1" stop-color="#0DA6F2"/>
</linearGradient>
<linearGradient id="paint51_linear" x1="0.657925" y1="57.3799" x2="90.341" y2="57.3799" gradientUnits="userSpaceOnUse">
<stop stop-color="#F3461B"/>
<stop offset="1" stop-color="#0DA6F2"/>
</linearGradient>
<linearGradient id="paint52_linear" x1="0.657925" y1="57.3799" x2="90.341" y2="57.3799" gradientUnits="userSpaceOnUse">
<stop stop-color="#F3461B"/>
<stop offset="1" stop-color="#0DA6F2"/>
</linearGradient>
<linearGradient id="paint53_linear" x1="0.657925" y1="57.3799" x2="90.341" y2="57.3799" gradientUnits="userSpaceOnUse">
<stop stop-color="#F3461B"/>
<stop offset="1" stop-color="#0DA6F2"/>
</linearGradient>
<linearGradient id="paint54_linear" x1="0.657925" y1="57.3799" x2="90.341" y2="57.3799" gradientUnits="userSpaceOnUse">
<stop stop-color="#F3461B"/>
<stop offset="1" stop-color="#0DA6F2"/>
</linearGradient>
<linearGradient id="paint55_linear" x1="0.657925" y1="57.3799" x2="90.341" y2="57.3799" gradientUnits="userSpaceOnUse">
<stop stop-color="#F3461B"/>
<stop offset="1" stop-color="#0DA6F2"/>
</linearGradient>
<linearGradient id="paint56_linear" x1="0.657925" y1="57.3799" x2="90.341" y2="57.3799" gradientUnits="userSpaceOnUse">
<stop stop-color="#F3461B"/>
<stop offset="1" stop-color="#0DA6F2"/>
</linearGradient>
<linearGradient id="paint57_linear" x1="0.657925" y1="57.3799" x2="90.341" y2="57.3799" gradientUnits="userSpaceOnUse">
<stop stop-color="#F3461B"/>
<stop offset="1" stop-color="#0DA6F2"/>
</linearGradient>
<linearGradient id="paint58_linear" x1="0.657925" y1="57.3799" x2="90.341" y2="57.3799" gradientUnits="userSpaceOnUse">
<stop stop-color="#F3461B"/>
<stop offset="1" stop-color="#0DA6F2"/>
</linearGradient>
<linearGradient id="paint59_linear" x1="0.657925" y1="57.3799" x2="90.341" y2="57.3799" gradientUnits="userSpaceOnUse">
<stop stop-color="#F3461B"/>
<stop offset="1" stop-color="#0DA6F2"/>
</linearGradient>
<linearGradient id="paint60_linear" x1="0.657925" y1="57.3799" x2="90.341" y2="57.3799" gradientUnits="userSpaceOnUse">
<stop stop-color="#F3461B"/>
<stop offset="1" stop-color="#0DA6F2"/>
</linearGradient>
<linearGradient id="paint61_linear" x1="0.657925" y1="57.3799" x2="90.341" y2="57.3799" gradientUnits="userSpaceOnUse">
<stop stop-color="#F3461B"/>
<stop offset="1" stop-color="#0DA6F2"/>
</linearGradient>
<linearGradient id="paint62_linear" x1="0.657925" y1="57.3799" x2="90.341" y2="57.3799" gradientUnits="userSpaceOnUse">
<stop stop-color="#F3461B"/>
<stop offset="1" stop-color="#0DA6F2"/>
</linearGradient>
<linearGradient id="paint63_linear" x1="0.657925" y1="57.3799" x2="90.341" y2="57.3799" gradientUnits="userSpaceOnUse">
<stop stop-color="#F3461B"/>
<stop offset="1" stop-color="#0DA6F2"/>
</linearGradient>
<linearGradient id="paint64_linear" x1="0.657925" y1="57.3799" x2="90.341" y2="57.3799" gradientUnits="userSpaceOnUse">
<stop stop-color="#F3461B"/>
<stop offset="1" stop-color="#0DA6F2"/>
</linearGradient>
<linearGradient id="paint65_linear" x1="0.657925" y1="57.3799" x2="90.341" y2="57.3799" gradientUnits="userSpaceOnUse">
<stop stop-color="#F3461B"/>
<stop offset="1" stop-color="#0DA6F2"/>
</linearGradient>
<linearGradient id="paint66_linear" x1="0.657925" y1="57.3799" x2="90.341" y2="57.3799" gradientUnits="userSpaceOnUse">
<stop stop-color="#F3461B"/>
<stop offset="1" stop-color="#0DA6F2"/>
</linearGradient>
<linearGradient id="paint67_linear" x1="0.657925" y1="57.3799" x2="90.341" y2="57.3799" gradientUnits="userSpaceOnUse">
<stop stop-color="#F3461B"/>
<stop offset="1" stop-color="#0DA6F2"/>
</linearGradient>
<linearGradient id="paint68_linear" x1="0.657925" y1="57.3799" x2="90.341" y2="57.3799" gradientUnits="userSpaceOnUse">
<stop stop-color="#F3461B"/>
<stop offset="1" stop-color="#0DA6F2"/>
</linearGradient>
<linearGradient id="paint69_linear" x1="0.657925" y1="57.3799" x2="90.341" y2="57.3799" gradientUnits="userSpaceOnUse">
<stop stop-color="#F3461B"/>
<stop offset="1" stop-color="#0DA6F2"/>
</linearGradient>
<linearGradient id="paint70_linear" x1="0.657925" y1="57.3799" x2="90.341" y2="57.3799" gradientUnits="userSpaceOnUse">
<stop stop-color="#F3461B"/>
<stop offset="1" stop-color="#0DA6F2"/>
</linearGradient>
<linearGradient id="paint71_linear" x1="0.657925" y1="57.3799" x2="90.341" y2="57.3799" gradientUnits="userSpaceOnUse">
<stop stop-color="#F3461B"/>
<stop offset="1" stop-color="#0DA6F2"/>
</linearGradient>
<linearGradient id="paint72_linear" x1="0.657925" y1="57.3799" x2="90.341" y2="57.3799" gradientUnits="userSpaceOnUse">
<stop stop-color="#F3461B"/>
<stop offset="1" stop-color="#0DA6F2"/>
</linearGradient>
<linearGradient id="paint73_linear" x1="0.657925" y1="57.3799" x2="90.341" y2="57.3799" gradientUnits="userSpaceOnUse">
<stop stop-color="#F3461B"/>
<stop offset="1" stop-color="#0DA6F2"/>
</linearGradient>
<linearGradient id="paint74_linear" x1="0.657925" y1="57.3799" x2="90.341" y2="57.3799" gradientUnits="userSpaceOnUse">
<stop stop-color="#F3461B"/>
<stop offset="1" stop-color="#0DA6F2"/>
</linearGradient>
<linearGradient id="paint75_linear" x1="0.657925" y1="57.3799" x2="90.341" y2="57.3799" gradientUnits="userSpaceOnUse">
<stop stop-color="#F3461B"/>
<stop offset="1" stop-color="#0DA6F2"/>
</linearGradient>
<linearGradient id="paint76_linear" x1="0.657925" y1="57.3799" x2="90.341" y2="57.3799" gradientUnits="userSpaceOnUse">
<stop stop-color="#F3461B"/>
<stop offset="1" stop-color="#0DA6F2"/>
</linearGradient>
<linearGradient id="paint77_linear" x1="0.657925" y1="57.3799" x2="90.341" y2="57.3799" gradientUnits="userSpaceOnUse">
<stop stop-color="#F3461B"/>
<stop offset="1" stop-color="#0DA6F2"/>
</linearGradient>
<linearGradient id="paint78_linear" x1="0.657925" y1="57.3799" x2="90.341" y2="57.3799" gradientUnits="userSpaceOnUse">
<stop stop-color="#F3461B"/>
<stop offset="1" stop-color="#0DA6F2"/>
</linearGradient>
<linearGradient id="paint79_linear" x1="0.657925" y1="57.3799" x2="90.341" y2="57.3799" gradientUnits="userSpaceOnUse">
<stop stop-color="#F3461B"/>
<stop offset="1" stop-color="#0DA6F2"/>
</linearGradient>
<linearGradient id="paint80_linear" x1="0.657925" y1="57.3799" x2="90.341" y2="57.3799" gradientUnits="userSpaceOnUse">
<stop stop-color="#F3461B"/>
<stop offset="1" stop-color="#0DA6F2"/>
</linearGradient>
<linearGradient id="paint81_linear" x1="0.657925" y1="57.3799" x2="90.341" y2="57.3799" gradientUnits="userSpaceOnUse">
<stop stop-color="#F3461B"/>
<stop offset="1" stop-color="#0DA6F2"/>
</linearGradient>
<linearGradient id="paint82_linear" x1="0.657925" y1="57.3799" x2="90.341" y2="57.3799" gradientUnits="userSpaceOnUse">
<stop stop-color="#F3461B"/>
<stop offset="1" stop-color="#0DA6F2"/>
</linearGradient>
<linearGradient id="paint83_linear" x1="0.657925" y1="57.3799" x2="90.341" y2="57.3799" gradientUnits="userSpaceOnUse">
<stop stop-color="#F3461B"/>
<stop offset="1" stop-color="#0DA6F2"/>
</linearGradient>
<linearGradient id="paint84_linear" x1="0.657925" y1="57.3799" x2="90.341" y2="57.3799" gradientUnits="userSpaceOnUse">
<stop stop-color="#F3461B"/>
<stop offset="1" stop-color="#0DA6F2"/>
</linearGradient>
<linearGradient id="paint85_linear" x1="0.657925" y1="57.3799" x2="90.341" y2="57.3799" gradientUnits="userSpaceOnUse">
<stop stop-color="#F3461B"/>
<stop offset="1" stop-color="#0DA6F2"/>
</linearGradient>
<linearGradient id="paint86_linear" x1="0.657925" y1="57.3799" x2="90.341" y2="57.3799" gradientUnits="userSpaceOnUse">
<stop stop-color="#F3461B"/>
<stop offset="1" stop-color="#0DA6F2"/>
</linearGradient>
<linearGradient id="paint87_linear" x1="0.657925" y1="57.3799" x2="90.341" y2="57.3799" gradientUnits="userSpaceOnUse">
<stop stop-color="#F3461B"/>
<stop offset="1" stop-color="#0DA6F2"/>
</linearGradient>
<linearGradient id="paint88_linear" x1="0.657925" y1="57.3799" x2="90.341" y2="57.3799" gradientUnits="userSpaceOnUse">
<stop stop-color="#F3461B"/>
<stop offset="1" stop-color="#0DA6F2"/>
</linearGradient>
<linearGradient id="paint89_linear" x1="0.657925" y1="57.3799" x2="90.341" y2="57.3799" gradientUnits="userSpaceOnUse">
<stop stop-color="#F3461B"/>
<stop offset="1" stop-color="#0DA6F2"/>
</linearGradient>
<linearGradient id="paint90_linear" x1="0.657925" y1="57.3799" x2="90.341" y2="57.3799" gradientUnits="userSpaceOnUse">
<stop stop-color="#F3461B"/>
<stop offset="1" stop-color="#0DA6F2"/>
</linearGradient>
<linearGradient id="paint91_linear" x1="0.657925" y1="57.3799" x2="90.341" y2="57.3799" gradientUnits="userSpaceOnUse">
<stop stop-color="#F3461B"/>
<stop offset="1" stop-color="#0DA6F2"/>
</linearGradient>
<linearGradient id="paint92_linear" x1="0.657925" y1="57.3799" x2="90.341" y2="57.3799" gradientUnits="userSpaceOnUse">
<stop stop-color="#F3461B"/>
<stop offset="1" stop-color="#0DA6F2"/>
</linearGradient>
<linearGradient id="paint93_linear" x1="0.657925" y1="57.3799" x2="90.341" y2="57.3799" gradientUnits="userSpaceOnUse">
<stop stop-color="#F3461B"/>
<stop offset="1" stop-color="#0DA6F2"/>
</linearGradient>
<linearGradient id="paint94_linear" x1="0.657925" y1="57.3799" x2="90.341" y2="57.3799" gradientUnits="userSpaceOnUse">
<stop stop-color="#F3461B"/>
<stop offset="1" stop-color="#0DA6F2"/>
</linearGradient>
<linearGradient id="paint95_linear" x1="0.657925" y1="57.3799" x2="90.341" y2="57.3799" gradientUnits="userSpaceOnUse">
<stop stop-color="#F3461B"/>
<stop offset="1" stop-color="#0DA6F2"/>
</linearGradient>
<linearGradient id="paint96_linear" x1="0.657925" y1="57.3799" x2="90.341" y2="57.3799" gradientUnits="userSpaceOnUse">
<stop stop-color="#F3461B"/>
<stop offset="1" stop-color="#0DA6F2"/>
</linearGradient>
<linearGradient id="paint97_linear" x1="0.657925" y1="57.3799" x2="90.341" y2="57.3799" gradientUnits="userSpaceOnUse">
<stop stop-color="#F3461B"/>
<stop offset="1" stop-color="#0DA6F2"/>
</linearGradient>
<linearGradient id="paint98_linear" x1="0.657925" y1="57.3799" x2="90.341" y2="57.3799" gradientUnits="userSpaceOnUse">
<stop stop-color="#F3461B"/>
<stop offset="1" stop-color="#0DA6F2"/>
</linearGradient>
<linearGradient id="paint99_linear" x1="0.657925" y1="57.3799" x2="90.341" y2="57.3799" gradientUnits="userSpaceOnUse">
<stop stop-color="#F3461B"/>
<stop offset="1" stop-color="#0DA6F2"/>
</linearGradient>
<linearGradient id="paint100_linear" x1="0.657925" y1="57.3799" x2="90.341" y2="57.3799" gradientUnits="userSpaceOnUse">
<stop stop-color="#F3461B"/>
<stop offset="1" stop-color="#0DA6F2"/>
</linearGradient>
<linearGradient id="paint101_linear" x1="0.657925" y1="57.3799" x2="90.341" y2="57.3799" gradientUnits="userSpaceOnUse">
<stop stop-color="#F3461B"/>
<stop offset="1" stop-color="#0DA6F2"/>
</linearGradient>
<linearGradient id="paint102_linear" x1="0.657925" y1="57.3799" x2="90.341" y2="57.3799" gradientUnits="userSpaceOnUse">
<stop stop-color="#F3461B"/>
<stop offset="1" stop-color="#0DA6F2"/>
</linearGradient>
<linearGradient id="paint103_linear" x1="0.657925" y1="57.3799" x2="90.341" y2="57.3799" gradientUnits="userSpaceOnUse">
<stop stop-color="#F3461B"/>
<stop offset="1" stop-color="#0DA6F2"/>
</linearGradient>
<linearGradient id="paint104_linear" x1="0.657925" y1="57.3799" x2="90.341" y2="57.3799" gradientUnits="userSpaceOnUse">
<stop stop-color="#F3461B"/>
<stop offset="1" stop-color="#0DA6F2"/>
</linearGradient>
<linearGradient id="paint105_linear" x1="0.657925" y1="57.3799" x2="90.341" y2="57.3799" gradientUnits="userSpaceOnUse">
<stop stop-color="#F3461B"/>
<stop offset="1" stop-color="#0DA6F2"/>
</linearGradient>
<linearGradient id="paint106_linear" x1="0.657925" y1="57.3799" x2="90.341" y2="57.3799" gradientUnits="userSpaceOnUse">
<stop stop-color="#F3461B"/>
<stop offset="1" stop-color="#0DA6F2"/>
</linearGradient>
<linearGradient id="paint107_linear" x1="0.657925" y1="57.3799" x2="90.341" y2="57.3799" gradientUnits="userSpaceOnUse">
<stop stop-color="#F3461B"/>
<stop offset="1" stop-color="#0DA6F2"/>
</linearGradient>
<linearGradient id="paint108_linear" x1="0.657925" y1="57.3799" x2="90.341" y2="57.3799" gradientUnits="userSpaceOnUse">
<stop stop-color="#F3461B"/>
<stop offset="1" stop-color="#0DA6F2"/>
</linearGradient>
<linearGradient id="paint109_linear" x1="0.657925" y1="57.3799" x2="90.341" y2="57.3799" gradientUnits="userSpaceOnUse">
<stop stop-color="#F3461B"/>
<stop offset="1" stop-color="#0DA6F2"/>
</linearGradient>
<linearGradient id="paint110_linear" x1="0.657925" y1="57.3799" x2="90.341" y2="57.3799" gradientUnits="userSpaceOnUse">
<stop stop-color="#F3461B"/>
<stop offset="1" stop-color="#0DA6F2"/>
</linearGradient>
<linearGradient id="paint111_linear" x1="0.657925" y1="57.3799" x2="90.341" y2="57.3799" gradientUnits="userSpaceOnUse">
<stop stop-color="#F3461B"/>
<stop offset="1" stop-color="#0DA6F2"/>
</linearGradient>
<linearGradient id="paint112_linear" x1="0.657925" y1="57.3799" x2="90.341" y2="57.3799" gradientUnits="userSpaceOnUse">
<stop stop-color="#F3461B"/>
<stop offset="1" stop-color="#0DA6F2"/>
</linearGradient>
<linearGradient id="paint113_linear" x1="0.657925" y1="57.3799" x2="90.341" y2="57.3799" gradientUnits="userSpaceOnUse">
<stop stop-color="#F3461B"/>
<stop offset="1" stop-color="#0DA6F2"/>
</linearGradient>
<linearGradient id="paint114_linear" x1="0.657925" y1="57.3799" x2="90.341" y2="57.3799" gradientUnits="userSpaceOnUse">
<stop stop-color="#F3461B"/>
<stop offset="1" stop-color="#0DA6F2"/>
</linearGradient>
<linearGradient id="paint115_linear" x1="0.657925" y1="57.3799" x2="90.341" y2="57.3799" gradientUnits="userSpaceOnUse">
<stop stop-color="#F3461B"/>
<stop offset="1" stop-color="#0DA6F2"/>
</linearGradient>
<linearGradient id="paint116_linear" x1="0.657925" y1="57.3799" x2="90.341" y2="57.3799" gradientUnits="userSpaceOnUse">
<stop stop-color="#F3461B"/>
<stop offset="1" stop-color="#0DA6F2"/>
</linearGradient>
<linearGradient id="paint117_linear" x1="0.657925" y1="57.3799" x2="90.341" y2="57.3799" gradientUnits="userSpaceOnUse">
<stop stop-color="#F3461B"/>
<stop offset="1" stop-color="#0DA6F2"/>
</linearGradient>
<linearGradient id="paint118_linear" x1="0.657925" y1="57.3799" x2="90.341" y2="57.3799" gradientUnits="userSpaceOnUse">
<stop stop-color="#F3461B"/>
<stop offset="1" stop-color="#0DA6F2"/>
</linearGradient>
<linearGradient id="paint119_linear" x1="0.657925" y1="57.3799" x2="90.341" y2="57.3799" gradientUnits="userSpaceOnUse">
<stop stop-color="#F3461B"/>
<stop offset="1" stop-color="#0DA6F2"/>
</linearGradient>
<linearGradient id="paint120_linear" x1="0.657925" y1="57.3799" x2="90.341" y2="57.3799" gradientUnits="userSpaceOnUse">
<stop stop-color="#F3461B"/>
<stop offset="1" stop-color="#0DA6F2"/>
</linearGradient>
<linearGradient id="paint121_linear" x1="0.657925" y1="57.3799" x2="90.341" y2="57.3799" gradientUnits="userSpaceOnUse">
<stop stop-color="#F3461B"/>
<stop offset="1" stop-color="#0DA6F2"/>
</linearGradient>
<linearGradient id="paint122_linear" x1="0.657925" y1="57.3799" x2="90.341" y2="57.3799" gradientUnits="userSpaceOnUse">
<stop stop-color="#F3461B"/>
<stop offset="1" stop-color="#0DA6F2"/>
</linearGradient>
<linearGradient id="paint123_linear" x1="0.657925" y1="57.3799" x2="90.341" y2="57.3799" gradientUnits="userSpaceOnUse">
<stop stop-color="#F3461B"/>
<stop offset="1" stop-color="#0DA6F2"/>
</linearGradient>
<linearGradient id="paint124_linear" x1="0.657925" y1="57.3799" x2="90.341" y2="57.3799" gradientUnits="userSpaceOnUse">
<stop stop-color="#F3461B"/>
<stop offset="1" stop-color="#0DA6F2"/>
</linearGradient>
<linearGradient id="paint125_linear" x1="0.657925" y1="57.3799" x2="90.341" y2="57.3799" gradientUnits="userSpaceOnUse">
<stop stop-color="#F3461B"/>
<stop offset="1" stop-color="#0DA6F2"/>
</linearGradient>
<linearGradient id="paint126_linear" x1="0.657925" y1="57.3799" x2="90.341" y2="57.3799" gradientUnits="userSpaceOnUse">
<stop stop-color="#F3461B"/>
<stop offset="1" stop-color="#0DA6F2"/>
</linearGradient>
<linearGradient id="paint127_linear" x1="0.657925" y1="57.3799" x2="90.341" y2="57.3799" gradientUnits="userSpaceOnUse">
<stop stop-color="#F3461B"/>
<stop offset="1" stop-color="#0DA6F2"/>
</linearGradient>
<linearGradient id="paint128_linear" x1="0.657925" y1="57.3799" x2="90.341" y2="57.3799" gradientUnits="userSpaceOnUse">
<stop stop-color="#F3461B"/>
<stop offset="1" stop-color="#0DA6F2"/>
</linearGradient>
<linearGradient id="paint129_linear" x1="0.657925" y1="57.3799" x2="90.341" y2="57.3799" gradientUnits="userSpaceOnUse">
<stop stop-color="#F3461B"/>
<stop offset="1" stop-color="#0DA6F2"/>
</linearGradient>
<linearGradient id="paint130_linear" x1="0.657925" y1="57.3799" x2="90.341" y2="57.3799" gradientUnits="userSpaceOnUse">
<stop stop-color="#F3461B"/>
<stop offset="1" stop-color="#0DA6F2"/>
</linearGradient>
<linearGradient id="paint131_linear" x1="0.657925" y1="57.3799" x2="90.341" y2="57.3799" gradientUnits="userSpaceOnUse">
<stop stop-color="#F3461B"/>
<stop offset="1" stop-color="#0DA6F2"/>
</linearGradient>
<linearGradient id="paint132_linear" x1="0.657925" y1="57.3799" x2="90.341" y2="57.3799" gradientUnits="userSpaceOnUse">
<stop stop-color="#F3461B"/>
<stop offset="1" stop-color="#0DA6F2"/>
</linearGradient>
<linearGradient id="paint133_linear" x1="0.657925" y1="57.3799" x2="90.341" y2="57.3799" gradientUnits="userSpaceOnUse">
<stop stop-color="#F3461B"/>
<stop offset="1" stop-color="#0DA6F2"/>
</linearGradient>
<linearGradient id="paint134_linear" x1="0.657925" y1="57.3799" x2="90.341" y2="57.3799" gradientUnits="userSpaceOnUse">
<stop stop-color="#F3461B"/>
<stop offset="1" stop-color="#0DA6F2"/>
</linearGradient>
<linearGradient id="paint135_linear" x1="0.657925" y1="57.3799" x2="90.341" y2="57.3799" gradientUnits="userSpaceOnUse">
<stop stop-color="#F3461B"/>
<stop offset="1" stop-color="#0DA6F2"/>
</linearGradient>
<linearGradient id="paint136_linear" x1="0.657925" y1="57.3799" x2="90.341" y2="57.3799" gradientUnits="userSpaceOnUse">
<stop stop-color="#F3461B"/>
<stop offset="1" stop-color="#0DA6F2"/>
</linearGradient>
<linearGradient id="paint137_linear" x1="0.657925" y1="57.3799" x2="90.341" y2="57.3799" gradientUnits="userSpaceOnUse">
<stop stop-color="#F3461B"/>
<stop offset="1" stop-color="#0DA6F2"/>
</linearGradient>
<linearGradient id="paint138_linear" x1="0.657925" y1="57.3799" x2="90.341" y2="57.3799" gradientUnits="userSpaceOnUse">
<stop stop-color="#F3461B"/>
<stop offset="1" stop-color="#0DA6F2"/>
</linearGradient>
<linearGradient id="paint139_linear" x1="0.657925" y1="57.3799" x2="90.341" y2="57.3799" gradientUnits="userSpaceOnUse">
<stop stop-color="#F3461B"/>
<stop offset="1" stop-color="#0DA6F2"/>
</linearGradient>
<linearGradient id="paint140_linear" x1="0.657925" y1="57.3799" x2="90.341" y2="57.3799" gradientUnits="userSpaceOnUse">
<stop stop-color="#F3461B"/>
<stop offset="1" stop-color="#0DA6F2"/>
</linearGradient>
<linearGradient id="paint141_linear" x1="0.657925" y1="57.3799" x2="90.341" y2="57.3799" gradientUnits="userSpaceOnUse">
<stop stop-color="#F3461B"/>
<stop offset="1" stop-color="#0DA6F2"/>
</linearGradient>
<linearGradient id="paint142_linear" x1="0.657925" y1="57.3799" x2="90.341" y2="57.3799" gradientUnits="userSpaceOnUse">
<stop stop-color="#F3461B"/>
<stop offset="1" stop-color="#0DA6F2"/>
</linearGradient>
<linearGradient id="paint143_linear" x1="0.657925" y1="57.3799" x2="90.341" y2="57.3799" gradientUnits="userSpaceOnUse">
<stop stop-color="#F3461B"/>
<stop offset="1" stop-color="#0DA6F2"/>
</linearGradient>
<linearGradient id="paint144_linear" x1="0.657925" y1="57.3799" x2="90.341" y2="57.3799" gradientUnits="userSpaceOnUse">
<stop stop-color="#F3461B"/>
<stop offset="1" stop-color="#0DA6F2"/>
</linearGradient>
<linearGradient id="paint145_linear" x1="0.657925" y1="57.3799" x2="90.341" y2="57.3799" gradientUnits="userSpaceOnUse">
<stop stop-color="#F3461B"/>
<stop offset="1" stop-color="#0DA6F2"/>
</linearGradient>
<linearGradient id="paint146_linear" x1="0.657925" y1="57.3799" x2="90.341" y2="57.3799" gradientUnits="userSpaceOnUse">
<stop stop-color="#F3461B"/>
<stop offset="1" stop-color="#0DA6F2"/>
</linearGradient>
<linearGradient id="paint147_linear" x1="0.657925" y1="57.3799" x2="90.341" y2="57.3799" gradientUnits="userSpaceOnUse">
<stop stop-color="#F3461B"/>
<stop offset="1" stop-color="#0DA6F2"/>
</linearGradient>
<linearGradient id="paint148_linear" x1="0.657925" y1="57.3799" x2="90.341" y2="57.3799" gradientUnits="userSpaceOnUse">
<stop stop-color="#F3461B"/>
<stop offset="1" stop-color="#0DA6F2"/>
</linearGradient>
<linearGradient id="paint149_linear" x1="0.657925" y1="57.3799" x2="90.341" y2="57.3799" gradientUnits="userSpaceOnUse">
<stop stop-color="#F3461B"/>
<stop offset="1" stop-color="#0DA6F2"/>
</linearGradient>
<linearGradient id="paint150_linear" x1="0.657925" y1="57.3799" x2="90.341" y2="57.3799" gradientUnits="userSpaceOnUse">
<stop stop-color="#F3461B"/>
<stop offset="1" stop-color="#0DA6F2"/>
</linearGradient>
<linearGradient id="paint151_linear" x1="0.657925" y1="57.3799" x2="90.341" y2="57.3799" gradientUnits="userSpaceOnUse">
<stop stop-color="#F3461B"/>
<stop offset="1" stop-color="#0DA6F2"/>
</linearGradient>
<linearGradient id="paint152_linear" x1="0.657925" y1="57.3799" x2="90.341" y2="57.3799" gradientUnits="userSpaceOnUse">
<stop stop-color="#F3461B"/>
<stop offset="1" stop-color="#0DA6F2"/>
</linearGradient>
<linearGradient id="paint153_linear" x1="0.657925" y1="57.3799" x2="90.341" y2="57.3799" gradientUnits="userSpaceOnUse">
<stop stop-color="#F3461B"/>
<stop offset="1" stop-color="#0DA6F2"/>
</linearGradient>
</defs>
</svg>
