<svg width="54" height="50" viewBox="0 0 54 50" fill="none" xmlns="http://www.w3.org/2000/svg">
<path d="M54 0.0560356L51.547 5.19922L51.5467 5.19965L42.5338 24.6884V24.6885L40.1688 29.8276H32.4294H32.4036L32.3925 29.8517L25.9015 43.8895L25.9012 43.8903L25.7688 44.1908L25.7684 44.1916L23.0845 50L0 0.0289518L5.5505 0.0424509L23.0477 37.7633L23.0845 37.8429L23.1215 37.7633L26.7718 29.9021V29.902L29.1632 24.7355H34.8187H36.8894H36.9153L36.9264 24.7115L45.9659 5.22274L45.9939 5.16229L45.9293 5.16187L43.8187 5.1482H43.8185H38.2552L40.6055 0.0288663L46.221 0.0424509L46.221 0L46.221 0.0424509L54 0.0560356Z" fill="url(#paint0_linear)"/>
<defs>
<linearGradient id="paint0_linear" x1="45.7018" y1="25.0324" x2="-0.0963476" y2="25.0324" gradientUnits="userSpaceOnUse">
<stop stop-color="#0DA6F2"/>
<stop offset="0.385417" stop-color="#209DDF"/>
<stop offset="0.541667" stop-color="#F3461B"/>
<stop offset="1" stop-color="#F2390B"/>
</linearGradient>
</defs>
</svg>
