<svg width="107" height="132" viewBox="0 0 107 132" fill="none" xmlns="http://www.w3.org/2000/svg">
<path d="M27.5443 131.5H27.0443H1H0.5V131V1V0.5H1H53.0886C57.9116 0.5 62.555 1.14033 67.017 2.42232C71.4737 3.64239 75.6278 5.41184 79.4777 7.73116C83.3859 9.98879 86.9281 12.7344 90.1036 15.967C93.3399 19.1397 96.0886 22.679 98.3487 26.5839C100.67 30.4894 102.441 34.6689 103.662 39.1211C104.945 43.5789 105.586 48.2178 105.586 53.0363C105.586 60.2333 104.212 67.0393 101.462 73.4496L101.462 73.4512C98.7148 79.7929 94.959 85.3456 90.1943 90.1055C85.4291 94.866 79.84 98.618 73.4317 101.362C73.4315 101.362 73.4313 101.362 73.4311 101.362L73.2343 100.902C66.9426 103.622 60.2273 104.982 53.0886 104.982L27.5443 131.5ZM27.5443 131.5V131V105.482V131.5ZM76.4963 62.9905L76.4945 62.9947C75.1881 66.0795 73.3788 68.7752 71.066 71.0856C68.7525 73.3968 66.0528 75.2352 62.9631 76.601C59.8826 77.9024 56.5927 78.5544 53.0886 78.5544H27.5443V27.5181H53.0886C56.591 27.5181 59.8796 28.1997 62.9594 29.5606L62.9593 29.5606L62.9668 29.5638C66.0548 30.8689 68.7532 32.6765 71.066 34.9869C73.3772 37.2958 75.1864 40.0203 76.4932 43.1654L76.4931 43.1654L76.4977 43.1759C77.8599 46.2525 78.5421 49.5375 78.5421 53.0363C78.5421 56.535 77.8599 59.8515 76.4963 62.9905Z" stroke="url(#paint0_linear)" stroke-opacity="0.3"/>
<defs>
<linearGradient id="paint0_linear" x1="1" y1="66" x2="105.156" y2="66" gradientUnits="userSpaceOnUse">
<stop stop-color="#F3461B"/>
<stop offset="1" stop-color="#0DA6F2"/>
</linearGradient>
</defs>
</svg>
