<svg xmlns="http://www.w3.org/2000/svg" fill="none" viewBox="0 0 79 76">
  <path fill="url(#paint0_linear)" d="M71.84 62.1a6 6 0 002.06-4.49v-2.45a6.26 6.26 0 00-6.37-6.13 6.33 6.33 0 00-6.24 4.9H57.1a3.81 3.81 0 00-3.58-2.45 3.81 3.81 0 00-3.6 2.46h-4.18a6.27 6.27 0 00-4.97-4.78V46.4a4.94 4.94 0 003.83-4.73h1.27c.7 0 1.28-.55 1.28-1.23v-3.68h2.54v-2.45h-2.54v-.01a8.3 8.3 0 013.17-6.32 15.52 15.52 0 00.66-23.55A16.77 16.77 0 0038.81.02c-8.6.33-15.73 7.34-15.88 15.63a15.63 15.63 0 005.64 12.25 8.82 8.82 0 013.26 6.42h-2.53v2.45h2.54v3.68c0 .68.57 1.23 1.28 1.23h1.27a4.94 4.94 0 003.83 4.73v2.75a6.27 6.27 0 00-4.97 4.78h-4.19a3.81 3.81 0 00-3.59-2.46 3.81 3.81 0 00-3.58 2.46H17.7a6.33 6.33 0 00-6.24-4.9 6.26 6.26 0 00-6.37 6.12v2.45a6 6 0 002.06 4.5A11.06 11.06 0 000 72.31v2.45C0 75.45.57 76 1.27 76h20.4c.7 0 1.27-.55 1.27-1.23v-2.45c0-4.62-2.97-8.58-7.17-10.22a6 6 0 002.07-4.49V56.4h4.06a3.81 3.81 0 003.58 2.45 3.81 3.81 0 003.6-2.45h4.05v1.22a6 6 0 002.07 4.5 11.06 11.06 0 00-7.17 10.21v2.45c0 .68.57 1.23 1.28 1.23h20.38c.7 0 1.28-.55 1.28-1.23v-2.45c0-4.62-2.97-8.58-7.17-10.22a6 6 0 002.07-4.49V56.4h4.06a3.81 3.81 0 003.59 2.45 3.81 3.81 0 003.58-2.45h4.06v1.22a6 6 0 002.07 4.5 11.06 11.06 0 00-7.17 10.21v2.45c0 .68.57 1.23 1.28 1.23h20.39c.7 0 1.27-.55 1.27-1.23v-2.45c0-4.62-2.97-8.58-7.16-10.22zM20.39 72.32v1.23h-2.55V71.1h-2.55v2.45H7.65V71.1H5.1v2.45H2.55v-1.23c0-4.73 4-8.58 8.92-8.58 4.91 0 8.92 3.85 8.92 8.58zM7.65 57.62v-2.46a3.76 3.76 0 013.82-3.68c2.1 0 3.82 1.65 3.82 3.68v2.45a3.76 3.76 0 01-3.82 3.68 3.76 3.76 0 01-3.82-3.68zm17.83-1.23c-.7 0-1.27-.55-1.27-1.23 0-.67.57-1.22 1.27-1.22.7 0 1.28.55 1.28 1.22 0 .68-.57 1.23-1.28 1.23zm4.78-30.33a13.22 13.22 0 01-4.77-10.37c.13-7.01 6.15-12.94 13.43-13.23A14.24 14.24 0 0149.2 6.21a13.13 13.13 0 01-.56 19.92 10.72 10.72 0 00-4.05 8.18v.01H34.39c-.07-3.09-1.56-6.1-4.13-8.26zM44.6 36.77v2.46H34.4v-2.45h10.2zm-7.65 4.9h5.1a2.5 2.5 0 01-2.55 2.46 2.5 2.5 0 01-2.55-2.45zm11.47 30.65v1.23h-2.55V71.1h-2.55v2.45h-7.64V71.1h-2.55v2.45h-2.55v-1.23c0-4.73 4-8.58 8.92-8.58s8.92 3.85 8.92 8.58zm-12.74-14.7v-2.46a3.76 3.76 0 013.82-3.68c2.1 0 3.82 1.65 3.82 3.68v2.45a3.76 3.76 0 01-3.82 3.68 3.76 3.76 0 01-3.82-3.68zm17.84-1.23c-.7 0-1.28-.55-1.28-1.23 0-.67.57-1.22 1.28-1.22.7 0 1.27.55 1.27 1.22 0 .68-.57 1.23-1.27 1.23zM63.7 57.6v-2.45a3.76 3.76 0 013.82-3.68c2.1 0 3.82 1.65 3.82 3.68v2.45a3.76 3.76 0 01-3.82 3.68 3.76 3.76 0 01-3.82-3.68zm12.74 15.94H73.9V71.1h-2.55v2.45h-7.64V71.1h-2.55v2.45h-2.55v-1.23c0-4.73 4-8.58 8.92-8.58s8.92 3.85 8.92 8.58v1.23z"/>
  <path fill="url(#paint1_linear)" d="M36.95 29.42h5.1v2.45h-5.1v-2.45z"/>
  <path stroke="#000" d="M71.84 62.1a6 6 0 002.06-4.49v-2.45a6.26 6.26 0 00-6.37-6.13 6.33 6.33 0 00-6.24 4.9H57.1a3.81 3.81 0 00-3.58-2.45 3.81 3.81 0 00-3.6 2.46h-4.18a6.27 6.27 0 00-4.97-4.78V46.4a4.94 4.94 0 003.83-4.73h1.27c.7 0 1.28-.55 1.28-1.23v-3.68h2.54v-2.45h-2.54v-.01a8.3 8.3 0 013.17-6.32 15.52 15.52 0 00.66-23.55A16.77 16.77 0 0038.81.02c-8.6.33-15.73 7.34-15.88 15.63a15.63 15.63 0 005.64 12.25 8.82 8.82 0 013.26 6.42h-2.53v2.45h2.54v3.68c0 .68.57 1.23 1.28 1.23h1.27a4.94 4.94 0 003.83 4.73v2.75a6.27 6.27 0 00-4.97 4.78h-4.19a3.81 3.81 0 00-3.59-2.46 3.81 3.81 0 00-3.58 2.46H17.7a6.33 6.33 0 00-6.24-4.9 6.26 6.26 0 00-6.37 6.12v2.45a6 6 0 002.06 4.5A11.06 11.06 0 000 72.31v2.45C0 75.45.57 76 1.27 76h20.4c.7 0 1.27-.55 1.27-1.23v-2.45c0-4.62-2.97-8.58-7.17-10.22a6 6 0 002.07-4.49V56.4h4.06a3.81 3.81 0 003.58 2.45 3.81 3.81 0 003.6-2.45h4.05v1.22a6 6 0 002.07 4.5 11.06 11.06 0 00-7.17 10.21v2.45c0 .68.57 1.23 1.28 1.23h20.38c.7 0 1.28-.55 1.28-1.23v-2.45c0-4.62-2.97-8.58-7.17-10.22a6 6 0 002.07-4.49V56.4h4.06a3.81 3.81 0 003.59 2.45 3.81 3.81 0 003.58-2.45h4.06v1.22a6 6 0 002.07 4.5 11.06 11.06 0 00-7.17 10.21v2.45c0 .68.57 1.23 1.28 1.23h20.39c.7 0 1.27-.55 1.27-1.23v-2.45c0-4.62-2.97-8.58-7.16-10.22zM20.39 72.32v1.23h-2.55V71.1h-2.55v2.45H7.65V71.1H5.1v2.45H2.55v-1.23c0-4.73 4-8.58 8.92-8.58 4.91 0 8.92 3.85 8.92 8.58zM7.65 57.62v-2.46a3.76 3.76 0 013.82-3.68c2.1 0 3.82 1.65 3.82 3.68v2.45a3.76 3.76 0 01-3.82 3.68 3.76 3.76 0 01-3.82-3.68zm17.83-1.23c-.7 0-1.27-.55-1.27-1.23 0-.67.57-1.22 1.27-1.22.7 0 1.28.55 1.28 1.22 0 .68-.57 1.23-1.28 1.23zm4.78-30.33a13.22 13.22 0 01-4.77-10.37c.13-7.01 6.15-12.94 13.43-13.23A14.24 14.24 0 0149.2 6.21a13.13 13.13 0 01-.56 19.92 10.72 10.72 0 00-4.05 8.18v.01H34.39c-.07-3.09-1.56-6.1-4.13-8.26zM44.6 36.77v2.46H34.4v-2.45h10.2zm-7.65 4.9h5.1a2.5 2.5 0 01-2.55 2.46 2.5 2.5 0 01-2.55-2.45zm11.47 30.65v1.23h-2.55V71.1h-2.55v2.45h-7.64V71.1h-2.55v2.45h-2.55v-1.23c0-4.73 4-8.58 8.92-8.58s8.92 3.85 8.92 8.58zm-12.74-14.7v-2.46a3.76 3.76 0 013.82-3.68c2.1 0 3.82 1.65 3.82 3.68v2.45a3.76 3.76 0 01-3.82 3.68 3.76 3.76 0 01-3.82-3.68zm17.84-1.23c-.7 0-1.28-.55-1.28-1.23 0-.67.57-1.22 1.28-1.22.7 0 1.27.55 1.27 1.22 0 .68-.57 1.23-1.27 1.23zM63.7 57.6v-2.45a3.76 3.76 0 013.82-3.68c2.1 0 3.82 1.65 3.82 3.68v2.45a3.76 3.76 0 01-3.82 3.68 3.76 3.76 0 01-3.82-3.68zm12.74 15.94H73.9V71.1h-2.55v2.45h-7.64V71.1h-2.55v2.45h-2.55v-1.23c0-4.73 4-8.58 8.92-8.58s8.92 3.85 8.92 8.58v1.23z"/>
  <path stroke="#000" d="M36.95 29.42h5.1v2.45h-5.1v-2.45z"/>
  <defs>
    <linearGradient id="paint0_linear" x1="62.94" x2="11.59" y1="27.85" y2="27.85" gradientUnits="userSpaceOnUse">
      <stop stop-color="#0DA6F2"/>
      <stop offset="1" stop-color="#F2390B"/>
    </linearGradient>
    <linearGradient id="paint1_linear" x1="62.94" x2="11.59" y1="27.85" y2="27.85" gradientUnits="userSpaceOnUse">
      <stop stop-color="#0DA6F2"/>
      <stop offset="1" stop-color="#F2390B"/>
    </linearGradient>
  </defs>
</svg>
