<svg xmlns="http://www.w3.org/2000/svg" fill="none" viewBox="0 0 80 84">
  <path fill="url(#paint0_linear)" d="M78.86 22.05l-5.17-.77a1.38 1.38 0 01-1.12-1.58c.05-.37.23-.7.52-.92l4.17-3.29c.58-.46.7-1.33.26-1.95l-4.77-6.7a1.29 1.29 0 00-1.86-.27L66.7 9.86c-.58.46-1.41.34-1.86-.27-.21-.3-.3-.67-.25-1.04l.74-5.43c.1-.76-.4-1.47-1.13-1.58L56.33.36c-.73-.1-1.4.42-1.5 1.18l-.74 5.43c-.1.76-.78 1.29-1.5 1.18a1.32 1.32 0 01-.88-.54l-3.13-4.39a1.29 1.29 0 00-1.85-.28l-4 3.15c-1.8-.2-3.62-.2-5.42 0C25.49 7.5 16.22 17.4 15.07 29.84c-.04.4-.05.79-.07 1.18h-.4c-.63 0-1.17.47-1.3 1.12l-.91 4.58-3.68-2.66a1.28 1.28 0 00-1.69.16L3.04 38.4a1.45 1.45 0 00-.16 1.78l2.53 3.85-4.37.96c-.6.14-1.04.71-1.04 1.37v5.57c0 .66.44 1.23 1.05 1.37l4.37.96-2.52 3.85c-.37.56-.3 1.3.15 1.78l3.98 4.18c.45.48 1.17.55 1.7.16l3.66-2.65.92 4.58c.12.65.67 1.12 1.3 1.12h5.3c.63 0 1.18-.47 1.3-1.11l.92-4.58 3.67 2.65c.53.38 1.24.3 1.7-.17l2.05-2.17v3.98a5.61 5.61 0 002.66 4.8v7.74A5.45 5.45 0 0037.5 84h5.32c2.93 0 5.3-2.5 5.3-5.58v-7.74a5.61 5.61 0 002.66-4.8v-5.52a6.91 6.91 0 013.07-5.7c1.1-.74 2.15-1.58 3.13-2.5l-1.77-2.08c-.88.82-1.81 1.57-2.8 2.24a9.72 9.72 0 00-4.28 8.04v5.52a2.72 2.72 0 01-2.66 2.78H34.86a2.72 2.72 0 01-2.65-2.78v-5.64A9.5 9.5 0 0028 52.37c-10.52-6.94-13.7-21.53-7.08-32.58A22.28 22.28 0 0139.89 8.73l-.05.16c-.05.36.04.73.25 1.03l3.13 4.38c.33.45.36 1.06.08 1.55-.27.48-.8.75-1.33.67l-5.16-.78c-.73-.1-1.4.42-1.5 1.19l-1.13 8.28c-.1.76.4 1.47 1.12 1.58l5.17.77c.72.1 1.23.82 1.13 1.58-.05.36-.24.7-.52.92l-4.17 3.28c-.6.46-.71 1.34-.27 1.95l4.78 6.7c.44.61 1.27.74 1.86.28l4.17-3.3a1.29 1.29 0 011.86.3c.2.29.3.66.25 1.02l-.74 5.42c-.1.77.4 1.47 1.13 1.58l7.88 1.19h.2c.65.01 1.21-.5 1.3-1.19l.74-5.42c.1-.76.78-1.3 1.5-1.18.35.05.67.24.88.54l3.13 4.38c.44.62 1.27.74 1.86.28l6.37-5.02c.59-.46.7-1.33.27-1.95l-3.13-4.38a1.43 1.43 0 01-.08-1.55c.26-.5.8-.76 1.32-.67l5.17.77c.72.11 1.4-.42 1.5-1.18L80 23.63c.1-.76-.4-1.47-1.13-1.58zm-44 49.4h10.62v2.79H34.86v-2.79zm0 5.58h10.62v1.4a2.72 2.72 0 01-2.65 2.78h-5.31a2.72 2.72 0 01-2.66-2.79v-1.4zM24.3 52.99c.72.62 1.48 1.2 2.26 1.73 1.26.83 2.2 2.1 2.68 3.57l-2.85 2.98-2.75-2a2.58 2.58 0 00-3.7.72c-.2.3-.34.65-.4 1.01l-.7 3.48h-3.16l-.7-3.47a2.66 2.66 0 00-3.14-2.16 2.6 2.6 0 00-.96.43l-2.76 2-2.42-2.54 1.9-2.9c.84-1.26.53-3-.68-3.87a2.59 2.59 0 00-.96-.44l-3.3-.73V47.5l3.3-.73a2.79 2.79 0 002.05-3.31c-.07-.36-.21-.7-.4-1l-1.9-2.9 2.41-2.53 2.76 2c1.2.86 2.86.54 3.7-.72.2-.3.33-.65.4-1.01l.24-1.16c.2 1.6.56 3.19 1.05 4.73-4.37.54-7.49 4.7-6.97 9.3.52 4.58 4.49 7.86 8.85 7.3A7.98 7.98 0 0024.3 53zm-2.07-1.97c-.99 2.9-4.02 4.4-6.78 3.36a5.65 5.65 0 01-3.2-7.13 5.32 5.32 0 015-3.68h.06a26.47 26.47 0 004.92 7.45zm54.18-20.89l-3.85-.57a4.02 4.02 0 00-4.5 3.55c-.15 1.1.12 2.2.75 3.1l2.34 3.26-4.25 3.35-2.33-3.27a3.86 3.86 0 00-5.58-.83 4.23 4.23 0 00-1.55 2.75l-.54 4.05-5.26-.79.55-4.04a4.15 4.15 0 00-3.37-4.74 3.84 3.84 0 00-2.96.8l-3.1 2.45-3.2-4.46 3.11-2.45a4.32 4.32 0 00.8-5.86 3.95 3.95 0 00-2.62-1.63L37 24.22l.75-5.52 3.85.58a4.02 4.02 0 004.5-3.55 4.34 4.34 0 00-.75-3.1l-2.34-3.27L47.26 6l2.33 3.27a3.86 3.86 0 005.58.84 4.23 4.23 0 001.55-2.76l.55-4.04 5.26.79-.55 4.04a4.15 4.15 0 003.38 4.73c1.04.16 2.1-.13 2.95-.8l3.1-2.44 3.2 4.46-3.12 2.45a4.32 4.32 0 00-.8 5.86 3.95 3.95 0 002.63 1.63l3.85.57-.76 5.52z"/>
  <path fill="url(#paint1_linear)" d="M57.08 13.26c-5.86 0-10.62 5-10.62 11.16s4.76 11.15 10.62 11.15c5.87 0 10.62-5 10.62-11.15 0-6.16-4.76-11.15-10.62-11.16zm0 19.52c-4.4 0-7.96-3.74-7.96-8.36 0-4.62 3.56-8.37 7.96-8.37s7.96 3.75 7.96 8.37c0 4.61-3.56 8.36-7.96 8.36z"/>
  <path fill="url(#paint2_linear)" d="M41.5 61.7h-2.65v4.18h2.65v-4.19z"/>
  <path fill="url(#paint3_linear)" d="M34.37 48c-8.2-3.36-12.24-13.06-9.04-21.67a16.57 16.57 0 016.35-8.07l-1.42-2.36c-8.69 5.74-11.29 17.8-5.82 26.92a18.82 18.82 0 008.96 7.77 8.9 8.9 0 015.45 8.31h2.65c0-4.83-2.83-9.17-7.13-10.9z"/>
  <path fill="url(#paint4_linear)" d="M74.69 51.93h-9.3v2.8h9.3v-2.8z"/>
  <path fill="url(#paint5_linear)" d="M64.92 59.23l-1.7 2.14 7.96 6.97 1.7-2.14-7.96-6.97z"/>
  <path fill="url(#paint6_linear)" d="M60.09 63.09h-2.66v9.76h2.66v-9.76z"/>
  <path fill="url(#paint7_linear)" d="M11.97 21.3L1.36 24.1l.64 2.7L12.62 24l-.65-2.7z"/>
  <path fill="url(#paint8_linear)" d="M5.1 7.58L3.56 9.85l9.3 6.97 1.53-2.27L5.1 7.58z"/>
  <path fill="url(#paint9_linear)" d="M17.5 0l-2.57.7 2.72 11.14 2.57-.69L17.51 0z"/>
  <defs>
    <linearGradient id="paint0_linear" x1="63.73" x2="11.73" y1="30.78" y2="30.78" gradientUnits="userSpaceOnUse">
      <stop stop-color="#0DA6F2"/>
      <stop offset="1" stop-color="#F2390B"/>
    </linearGradient>
    <linearGradient id="paint1_linear" x1="63.73" x2="11.73" y1="30.78" y2="30.78" gradientUnits="userSpaceOnUse">
      <stop stop-color="#0DA6F2"/>
      <stop offset="1" stop-color="#F2390B"/>
    </linearGradient>
    <linearGradient id="paint2_linear" x1="63.73" x2="11.73" y1="30.78" y2="30.78" gradientUnits="userSpaceOnUse">
      <stop stop-color="#0DA6F2"/>
      <stop offset="1" stop-color="#F2390B"/>
    </linearGradient>
    <linearGradient id="paint3_linear" x1="63.73" x2="11.73" y1="30.78" y2="30.78" gradientUnits="userSpaceOnUse">
      <stop stop-color="#0DA6F2"/>
      <stop offset="1" stop-color="#F2390B"/>
    </linearGradient>
    <linearGradient id="paint4_linear" x1="63.73" x2="11.73" y1="30.78" y2="30.78" gradientUnits="userSpaceOnUse">
      <stop stop-color="#0DA6F2"/>
      <stop offset="1" stop-color="#F2390B"/>
    </linearGradient>
    <linearGradient id="paint5_linear" x1="63.73" x2="11.73" y1="30.78" y2="30.78" gradientUnits="userSpaceOnUse">
      <stop stop-color="#0DA6F2"/>
      <stop offset="1" stop-color="#F2390B"/>
    </linearGradient>
    <linearGradient id="paint6_linear" x1="63.73" x2="11.73" y1="30.78" y2="30.78" gradientUnits="userSpaceOnUse">
      <stop stop-color="#0DA6F2"/>
      <stop offset="1" stop-color="#F2390B"/>
    </linearGradient>
    <linearGradient id="paint7_linear" x1="63.73" x2="11.73" y1="30.78" y2="30.78" gradientUnits="userSpaceOnUse">
      <stop stop-color="#0DA6F2"/>
      <stop offset="1" stop-color="#F2390B"/>
    </linearGradient>
    <linearGradient id="paint8_linear" x1="63.73" x2="11.73" y1="30.78" y2="30.78" gradientUnits="userSpaceOnUse">
      <stop stop-color="#0DA6F2"/>
      <stop offset="1" stop-color="#F2390B"/>
    </linearGradient>
    <linearGradient id="paint9_linear" x1="63.73" x2="11.73" y1="30.78" y2="30.78" gradientUnits="userSpaceOnUse">
      <stop stop-color="#0DA6F2"/>
      <stop offset="1" stop-color="#F2390B"/>
    </linearGradient>
  </defs>
</svg>
