<svg xmlns="http://www.w3.org/2000/svg" fill="none" viewBox="0 0 79 78">
  <path fill="url(#paint0_linear)" d="M.15 36.52a1.73 1.73 0 01.8-2.25c4.13-1.96 9.4-3.57 15.7-4.8.9-.17 1.75.44 1.92 1.37a1.7 1.7 0 01-1.31 1.98C11.23 34 6.2 35.52 2.33 37.36c-.22.1-.45.16-.68.16-.63 0-1.22-.37-1.5-1zm1.5 14.38c.22 0 .46-.05.68-.16a57.31 57.31 0 0111.63-3.8 1.7 1.7 0 001.25-2.03 1.64 1.64 0 00-1.96-1.3A60.43 60.43 0 00.96 47.65c-.82.4-1.19 1.4-.81 2.26.27.63.87 1 1.5 1zm52.82-26.11c.07 0 .15 0 .22-.02 7.87-1.1 16.8-2.69 23.38-5.97.82-.4 1.16-1.43.77-2.27a1.62 1.62 0 00-2.2-.8c-6.16 3.08-14.78 4.6-22.4 5.67a1.7 1.7 0 00-1.4 1.92c.11.85.82 1.47 1.63 1.47zm22.17 4.32c-2.87 1.44-6.46 2.63-10.98 3.66a1.7 1.7 0 00-1.25 2.03 1.66 1.66 0 001.96 1.3c4.77-1.09 8.6-2.37 11.7-3.92.82-.41 1.16-1.43.77-2.28a1.62 1.62 0 00-2.2-.79zm0 13.38c-3.55 1.77-8.31 3.21-14.55 4.4a1.7 1.7 0 00-1.32 1.97 1.66 1.66 0 001.9 1.37c6.63-1.25 11.52-2.74 15.4-4.67.82-.41 1.16-1.43.77-2.28a1.62 1.62 0 00-2.2-.8zM45.3 28.93c-5.85 0-10.61 4.93-10.61 10.99a11.1 11.1 0 003.97 8.57c.7.59 1.74.47 2.3-.26.58-.73.46-1.8-.24-2.4a7.66 7.66 0 01-2.74-5.91 7.47 7.47 0 017.32-7.59c4.04 0 7.33 3.4 7.33 7.59 0 7.49-5.88 13.58-13.12 13.58-7.24 0-13.12-6.1-13.12-13.58 0-3.38 1.2-6.61 3.39-9.11 2.33-2.67 5.19-4.6 7.95-6.48 5.1-3.45 10.37-7.02 10.8-14.89A8.78 8.78 0 0046.2 3a9.1 9.1 0 00-6.7-3c-4.98 0-9.03 4.2-9.03 9.35v8.88c0 .94.74 1.7 1.65 1.7.9 0 1.64-.76 1.64-1.7V9.35A5.85 5.85 0 0139.5 3.4c1.62 0 3.2.7 4.31 1.93 1 1.1 1.51 2.5 1.43 3.92-.34 6.15-4.3 8.83-9.32 12.23-2.94 2-5.97 4.05-8.6 7.05a17.3 17.3 0 00-4.23 11.39c0 9.37 7.36 16.99 16.41 16.99s16.41-7.62 16.41-17c0-6.05-4.76-10.98-10.62-10.98zm-1.98 34.32a5.32 5.32 0 00-5.22 5.4c0 .94.73 1.7 1.64 1.7.91 0 1.65-.76 1.65-1.7 0-1.1.86-2 1.93-2a1.97 1.97 0 011.93 2.1 5.34 5.34 0 01-1.43 3.92 5.86 5.86 0 01-4.31 1.93 5.85 5.85 0 01-5.74-5.95v-8.88c0-.94-.73-1.7-1.64-1.7-.91 0-1.65.76-1.65 1.7v8.88c0 5.16 4.05 9.35 9.03 9.35a9.1 9.1 0 009.03-9.4 5.32 5.32 0 00-5.22-5.35zm-24.6-7.38c-7.59 1.36-13.22 3-17.75 5.15-.83.4-1.19 1.4-.81 2.26.28.63.87 1 1.5 1 .22 0 .46-.06.68-.16 4.26-2.03 9.64-3.58 16.94-4.9a1.7 1.7 0 001.33-1.97c-.15-.92-1-1.54-1.9-1.38z"/>
  <defs>
    <linearGradient id="paint0_linear" x1="62.94" x2="11.59" y1="28.58" y2="28.58" gradientUnits="userSpaceOnUse">
      <stop stop-color="#0DA6F2"/>
      <stop offset="1" stop-color="#F2390B"/>
    </linearGradient>
  </defs>
</svg>
