<svg width="84" height="84" viewBox="0 0 84 84" fill="none" xmlns="http://www.w3.org/2000/svg">
<path d="M80.861 23.2234V23.2234L80.858 23.2207L75.6943 22.4924C74.9685 22.3902 74.4639 21.7256 74.5673 21.0081C74.6169 20.6633 74.8032 20.3522 75.085 20.1432L79.2585 17.0487C79.845 16.6138 79.9638 15.7913 79.524 15.2114L74.7452 8.91202C74.3053 8.33212 73.4733 8.21466 72.8867 8.64955L68.7146 11.7441C68.1305 12.1823 67.2979 12.0694 66.8547 11.492C66.6395 11.2116 66.5472 10.8574 66.5986 10.5092L67.3367 5.40407C67.4407 4.68653 66.9368 4.02166 66.2112 3.91864L66.2097 3.91847L58.33 2.80559C57.6044 2.70257 56.9316 3.20061 56.8273 3.91814V3.91814L56.0893 9.02357C55.9859 9.74111 55.3137 10.24 54.588 10.1378C54.2392 10.0887 53.9246 9.9045 53.7132 9.62595L50.5844 5.49987C50.1445 4.91997 49.3125 4.80251 48.726 5.2374L44.737 8.19678C42.9323 8.00715 41.1124 8.00715 39.3078 8.19678C27.4892 9.53228 18.2212 18.8504 17.0691 30.5555C17.0333 30.9269 17.02 31.2957 17.0014 31.6645H16.6032C15.9733 31.6656 15.4309 32.1043 15.305 32.7144L14.3877 37.0268L10.7133 34.5215C10.186 34.1618 9.47383 34.2259 9.02084 34.6737L5.03852 38.6108C4.58619 39.0585 4.52148 39.7616 4.88453 40.2828L7.40667 43.9089L3.04337 44.8157C2.43308 44.9479 1.99868 45.4829 2 46.1005V51.35C1.99967 51.9707 2.43955 52.5068 3.05399 52.6348L7.41729 53.5416L4.89515 57.1677C4.5321 57.6889 4.59681 58.392 5.04914 58.8396L9.03146 62.7767C9.48445 63.2246 10.1966 63.2887 10.724 62.929L14.3917 60.4289L15.3089 64.7426C15.4349 65.3527 15.9773 65.7914 16.6072 65.7925H21.9169C22.5448 65.7929 23.0871 65.358 23.2165 64.7505L24.1338 60.4368L27.8015 62.9303C28.3287 63.2892 29.0398 63.2252 29.4927 62.778L31.5542 60.7334V64.4736C31.5601 66.3406 32.5718 68.0629 34.2091 68.9934V76.2849C34.2091 79.1841 36.5863 81.5344 39.5188 81.5344H44.8286C47.7611 81.5344 50.1384 79.1841 50.1384 76.2849V68.9934C51.7756 68.0629 52.7873 66.3406 52.7932 64.4736V59.2793C52.8293 57.0937 53.9858 55.0759 55.8636 53.9222C56.9652 53.2157 58.0099 52.4258 58.9884 51.5599L57.2176 49.6045C56.3423 50.3801 55.4072 51.087 54.4207 51.7187C51.7849 53.3543 50.1714 56.2028 50.1384 59.2793V64.4736C50.1384 65.9233 48.9498 67.0983 47.4835 67.0983H36.8639C35.3976 67.0983 34.2091 65.9233 34.2091 64.4736V59.1703C34.1784 56.1521 32.5902 53.3585 29.9984 51.7634C19.4773 45.2275 16.3073 31.497 22.9183 21.0954C27.0201 14.6416 34.1787 10.7136 41.8883 10.6863C41.8686 10.7331 41.8511 10.7808 41.8365 10.8294C41.7873 11.1739 41.8785 11.5238 42.0901 11.8018L45.2189 15.9266C45.5487 16.3487 45.5804 16.9284 45.2985 17.3833C45.027 17.841 44.5022 18.0907 43.9711 18.0146L38.8073 17.2849C38.0815 17.1821 37.409 17.6803 37.3048 18.3976L37.3047 18.3991L36.1777 26.1932C36.0736 26.9106 36.5775 27.5757 37.3032 27.6787L37.3047 27.6788L42.4684 28.4085C43.1942 28.5107 43.6988 29.1753 43.5954 29.8928C43.5458 30.2376 43.3594 30.5487 43.0777 30.7576L38.9055 33.8509C38.319 34.2858 38.2002 35.1083 38.6401 35.6882L43.4188 41.9876C43.8587 42.5675 44.6907 42.6849 45.2773 42.25L49.4507 39.1568C50.0378 38.7227 50.8698 38.8413 51.3088 39.4219C51.5189 39.6996 51.6093 40.0484 51.5601 40.3917L50.8233 45.4968C50.7191 46.2142 51.2229 46.8794 51.9487 46.9824V46.9824L59.834 48.0966C59.8961 48.1045 59.9586 48.1084 60.0212 48.1084C60.6821 48.1092 61.2427 47.6292 61.3367 46.9824L62.0734 41.8773C62.1768 41.1598 62.849 40.6609 63.5747 40.7631C63.9235 40.8122 64.2381 40.9964 64.4495 41.2749L67.5796 45.3997C68.0195 45.9796 68.8515 46.0971 69.438 45.6622L75.8098 40.9377C76.3963 40.5028 76.5151 39.6802 76.0753 39.1003L72.9465 34.9756C72.6181 34.5528 72.5864 33.9741 72.8668 33.5189C73.1325 33.0551 73.6621 32.8038 74.1943 32.8889L79.358 33.6173C80.0836 33.7203 80.7565 33.2221 80.8607 32.5047V32.5047L81.9864 24.709C82.0906 23.9914 81.5868 23.3264 80.861 23.2234ZM36.8639 69.7231H47.4835V72.3478H36.8639V69.7231ZM36.8639 74.9725H47.4835V76.2849C47.4835 77.7346 46.2949 78.9096 44.8286 78.9096H39.5188C38.0525 78.9096 36.8639 77.7346 36.8639 76.2849V74.9725ZM26.2962 52.3408C27.021 52.9268 27.7783 53.4724 28.5648 53.9747C29.819 54.7583 30.7632 55.9439 31.2396 57.333L28.3922 60.1428L25.6351 58.2635C24.4278 57.441 22.7746 57.7418 21.9425 58.9354C21.743 59.2217 21.603 59.5442 21.5307 59.8843L20.8351 63.1612H17.6797L16.9842 59.8895C16.6822 58.471 15.2743 57.563 13.8395 57.8616C13.4955 57.9331 13.1693 58.0716 12.8797 58.2688L10.1213 60.1428L7.70269 57.7569L9.60226 55.0325C10.4351 53.8394 10.1317 52.2048 8.92494 51.3815C8.63522 51.1838 8.30867 51.045 7.9642 50.9733L4.65489 50.2843V47.1661L7.9642 46.4772C9.3985 46.1765 10.3148 44.7832 10.0106 43.365C9.93844 43.0286 9.80022 42.7095 9.60359 42.4259L7.70269 39.6935L10.1213 37.3077L12.881 39.187C14.0889 40.0087 15.742 39.7068 16.5732 38.5127C16.7723 38.2268 16.912 37.9046 16.9842 37.5649L17.2165 36.473C17.4292 37.9852 17.7815 39.4747 18.2691 40.9232C13.9013 41.438 10.7827 45.3561 11.3034 49.6742C11.8241 53.9924 15.7871 57.0757 20.1549 56.5609C22.7843 56.2508 25.0859 54.6693 26.2962 52.3408ZM24.2347 50.4917C23.2434 53.2157 20.2064 54.6294 17.4511 53.6496C14.6958 52.6695 13.2658 49.667 14.2569 46.943C15.0152 44.8592 17.0165 43.4712 19.2566 43.4758C19.2738 43.4758 19.2898 43.4758 19.307 43.4758C20.5278 46.078 22.1949 48.4516 24.2347 50.4917ZM78.4129 30.8298L74.5633 30.2865C72.386 29.9791 70.3689 31.475 70.058 33.6275C69.9086 34.6611 70.1807 35.7112 70.8146 36.5465L73.1469 39.6214L68.8991 42.771L66.5655 39.6975C65.246 37.9578 62.7499 37.6049 60.9904 38.9094C60.1455 39.5357 59.5868 40.4683 59.4371 41.502L58.8995 45.3131L53.6441 44.5703L54.1937 40.7644C54.5055 38.612 52.9932 36.6172 50.816 36.3091C49.7698 36.161 48.7072 36.43 47.8618 37.057L44.7516 39.3628L41.5657 35.1633L44.6746 32.8561C46.4343 31.5516 46.7912 29.0839 45.4717 27.3443C44.8382 26.509 43.8949 25.9567 42.8494 25.8087L38.9998 25.2654L39.7511 20.0697L43.6007 20.6131C45.7779 20.9213 47.7956 19.4262 48.1072 17.2738C48.257 16.2394 47.9849 15.1889 47.3507 14.3531L45.0105 11.2756L49.2583 8.12591L51.5919 11.2008C52.9114 12.9405 55.4075 13.2934 57.167 11.9889C58.0119 11.3625 58.5706 10.4299 58.7203 9.39628L59.2698 5.59043L64.5252 6.33191L63.9756 10.1378C63.6647 12.2904 65.1776 14.2845 67.355 14.5919C68.4005 14.7396 69.4626 14.4705 70.3075 13.8439L73.4177 11.5381L76.6036 15.7376L73.4934 18.0448C71.7337 19.3493 71.3768 21.817 72.6962 23.5565C73.3298 24.3919 74.2731 24.9442 75.3186 25.0922L79.1682 25.6355L78.4129 30.8298Z" fill="url(#paint0_linear)"/>
<path d="M59.08 14.9502C53.215 14.9502 48.4605 19.6508 48.4605 25.4491C48.4605 31.2475 53.215 35.948 59.08 35.948C64.945 35.948 69.6996 31.2475 69.6996 25.4491C69.6929 19.6534 64.9423 14.9566 59.08 14.9502ZM59.08 33.3233C54.6812 33.3233 51.1154 29.798 51.1154 25.4491C51.1154 21.1003 54.6812 17.5749 59.08 17.5749C63.4788 17.5749 67.0447 21.1003 67.0447 25.4491C67.0395 29.7958 63.4767 33.3182 59.08 33.3233Z" fill="url(#paint1_linear)"/>
<path d="M43.5012 60.5365H40.8463V64.4736H43.5012V60.5365Z" fill="url(#paint2_linear)"/>
<path d="M36.3675 47.6478C28.173 44.483 24.1251 35.3499 27.3264 27.2485C28.5669 24.1094 30.7932 21.4464 33.6781 19.6511L32.259 17.4306C23.5749 22.8393 20.97 34.1839 26.4409 42.7694C28.5596 46.0944 31.701 48.6603 35.4038 50.0901C38.6812 51.3316 40.8454 54.4419 40.8463 57.9118H43.5012C43.5053 53.3592 40.6676 49.2763 36.3675 47.6478Z" fill="url(#paint3_linear)"/>
<path d="M76.6872 51.35H67.3951V53.9747H76.6872V51.35Z" fill="url(#paint4_linear)"/>
<path d="M66.9176 58.215L65.2182 60.2316L73.1834 66.7923L74.8828 64.7757L66.9176 58.215Z" fill="url(#paint5_linear)"/>
<path d="M62.0853 61.8489H59.4305V71.0354H62.0853V61.8489Z" fill="url(#paint6_linear)"/>
<path d="M13.9743 22.5164L3.35549 25.1407L3.99898 27.6857L14.6178 25.0614L13.9743 22.5164Z" fill="url(#paint7_linear)"/>
<path d="M7.1028 9.60043L5.56055 11.7351L14.8519 18.2962L16.3942 16.1616L7.1028 9.60043Z" fill="url(#paint8_linear)"/>
<path d="M19.5063 2.46564L16.9342 3.11578L19.6492 13.6139L22.2212 12.9637L19.5063 2.46564Z" fill="url(#paint9_linear)"/>
<defs>
<linearGradient id="paint0_linear" x1="65.7333" y1="31.44" x2="13.7333" y2="31.44" gradientUnits="userSpaceOnUse">
<stop stop-color="#0DA6F2"/>
<stop offset="1" stop-color="#F2390B"/>
</linearGradient>
<linearGradient id="paint1_linear" x1="65.7333" y1="31.44" x2="13.7333" y2="31.44" gradientUnits="userSpaceOnUse">
<stop stop-color="#0DA6F2"/>
<stop offset="1" stop-color="#F2390B"/>
</linearGradient>
<linearGradient id="paint2_linear" x1="65.7333" y1="31.44" x2="13.7333" y2="31.44" gradientUnits="userSpaceOnUse">
<stop stop-color="#0DA6F2"/>
<stop offset="1" stop-color="#F2390B"/>
</linearGradient>
<linearGradient id="paint3_linear" x1="65.7333" y1="31.44" x2="13.7333" y2="31.44" gradientUnits="userSpaceOnUse">
<stop stop-color="#0DA6F2"/>
<stop offset="1" stop-color="#F2390B"/>
</linearGradient>
<linearGradient id="paint4_linear" x1="65.7333" y1="31.44" x2="13.7333" y2="31.44" gradientUnits="userSpaceOnUse">
<stop stop-color="#0DA6F2"/>
<stop offset="1" stop-color="#F2390B"/>
</linearGradient>
<linearGradient id="paint5_linear" x1="65.7333" y1="31.44" x2="13.7333" y2="31.44" gradientUnits="userSpaceOnUse">
<stop stop-color="#0DA6F2"/>
<stop offset="1" stop-color="#F2390B"/>
</linearGradient>
<linearGradient id="paint6_linear" x1="65.7333" y1="31.44" x2="13.7333" y2="31.44" gradientUnits="userSpaceOnUse">
<stop stop-color="#0DA6F2"/>
<stop offset="1" stop-color="#F2390B"/>
</linearGradient>
<linearGradient id="paint7_linear" x1="65.7333" y1="31.44" x2="13.7333" y2="31.44" gradientUnits="userSpaceOnUse">
<stop stop-color="#0DA6F2"/>
<stop offset="1" stop-color="#F2390B"/>
</linearGradient>
<linearGradient id="paint8_linear" x1="65.7333" y1="31.44" x2="13.7333" y2="31.44" gradientUnits="userSpaceOnUse">
<stop stop-color="#0DA6F2"/>
<stop offset="1" stop-color="#F2390B"/>
</linearGradient>
<linearGradient id="paint9_linear" x1="65.7333" y1="31.44" x2="13.7333" y2="31.44" gradientUnits="userSpaceOnUse">
<stop stop-color="#0DA6F2"/>
<stop offset="1" stop-color="#F2390B"/>
</linearGradient>
</defs>
</svg>
