<svg width="84" height="84" viewBox="0 0 84 84" fill="none" xmlns="http://www.w3.org/2000/svg">
<path d="M80.7748 45.7326C80.0759 38.4347 76.9349 31.5545 71.9302 26.3594C67.6533 21.92 62.4184 19.0671 56.9101 17.7986V13.7884C59.1599 13.2074 60.8322 11.0935 60.8322 8.58094C60.8322 5.62186 58.5131 3.21457 55.6624 3.21457H44.7146C41.8639 3.21457 39.5448 5.62186 39.5448 8.58094C39.5448 11.0933 41.2171 13.2072 43.4667 13.7884V17.8098C37.9753 19.0837 32.7578 21.9326 28.493 26.3596C27.5597 27.3283 26.6991 28.3446 25.9113 29.4009C25.8731 29.3979 25.835 29.3949 25.796 29.3949H14.9606C14.121 29.3949 13.4401 30.1015 13.4401 30.9732C13.4401 31.8449 14.121 32.5516 14.9606 32.5516H23.8423C22.7274 34.489 21.8285 36.5236 21.1443 38.6181H4.5956C3.75597 38.6181 3.07507 39.3247 3.07507 40.1964C3.07507 41.0681 3.75597 41.7748 4.5956 41.7748H20.285C19.8468 43.7715 19.5953 45.8036 19.5304 47.8414H12.8065C11.9668 47.8414 11.2859 48.5481 11.2859 49.4198C11.2859 50.2915 11.9668 50.9981 12.8065 50.9981H19.5789C19.7072 53.0411 20.0236 55.0734 20.5283 57.0648H10.6777C9.83808 57.0648 9.15719 57.7714 9.15719 58.6431C9.15719 59.5149 9.83808 60.2215 10.6777 60.2215H21.4987C22.9903 64.3175 25.3215 68.1565 28.493 71.4486C33.5025 76.6486 40.1375 79.9097 47.1754 80.6315C48.1799 80.7344 49.1851 80.7854 50.189 80.7854C56.1224 80.7854 61.9804 79.003 66.951 75.643C67.6547 75.1673 67.8537 74.1895 67.3954 73.4591C66.9371 72.7286 65.9952 72.522 65.2915 72.9977C54.411 80.3523 39.8393 78.7621 30.6433 69.2165C19.8533 58.0162 19.8533 39.7922 30.6433 28.5918C41.4331 17.3917 58.9896 17.3917 69.7798 28.5918C78.9636 38.125 80.5039 53.2378 73.4421 64.5264C72.9847 65.2575 73.185 66.2351 73.8891 66.7097C74.5937 67.1845 75.5353 66.9766 75.9925 66.2456C79.7655 60.2139 81.464 52.9291 80.7748 45.7326ZM42.5859 8.58109C42.5859 7.36261 43.5407 6.37141 44.7146 6.37141H55.6624C56.8363 6.37141 57.7911 7.36261 57.7911 8.58109C57.7911 9.79958 56.8363 10.7908 55.6624 10.7908H55.3896H44.9872H44.7146C43.5407 10.7908 42.5859 9.79942 42.5859 8.58109ZM46.5078 17.2672V13.9475H53.8691V17.2615C51.4247 16.9597 48.9517 16.9616 46.5078 17.2672Z" fill="url(#paint0_linear)"/>
<path d="M70.8556 68.7533C70.4542 68.7533 70.0634 68.9221 69.7807 69.2157C69.4964 69.5093 69.3351 69.9165 69.3351 70.3316C69.3351 70.7467 69.4964 71.1539 69.7807 71.4475C70.0634 71.7426 70.4543 71.9099 70.8556 71.9099C71.2555 71.9099 71.6463 71.7426 71.9306 71.4475C72.2134 71.1539 72.3761 70.7467 72.3761 70.3316C72.3761 69.9165 72.2136 69.5093 71.9306 69.2157C71.6463 68.9221 71.2553 68.7533 70.8556 68.7533Z" fill="url(#paint1_linear)"/>
<path d="M50.2116 24.4193C37.2053 24.4193 26.6238 35.403 26.6238 48.904C26.6238 62.405 37.2053 73.3887 50.2116 73.3887C63.2179 73.3887 73.7994 62.405 73.7994 48.904C73.7994 35.403 63.2179 24.4193 50.2116 24.4193ZM50.2116 70.232C38.882 70.232 29.6648 60.6643 29.6648 48.904C29.6648 37.1438 38.882 27.576 50.2116 27.576C61.5412 27.576 70.7583 37.1438 70.7583 48.904C70.7583 60.6643 61.5412 70.232 50.2116 70.232Z" fill="url(#paint2_linear)"/>
<path d="M59.8299 36.6877L52.2987 44.5051C51.6689 44.1818 50.9605 43.9992 50.2116 43.9992C49.4626 43.9992 48.7544 44.1818 48.1246 44.5051L44.754 41.0064C44.1601 40.39 43.1976 40.39 42.6035 41.0064C42.0098 41.6227 42.0098 42.6221 42.6035 43.2384L45.9741 46.7372C45.6625 47.3909 45.4868 48.1263 45.4868 48.9036C45.4868 51.6079 47.6062 53.8081 50.2116 53.8081C52.8171 53.8081 54.9365 51.6079 54.9365 48.9036C54.9365 48.1263 54.7606 47.3909 54.4492 46.7372L61.7593 39.1491L61.9802 38.9198C62.574 38.3034 62.574 37.304 61.9802 36.6877C61.3865 36.0713 60.424 36.0713 59.8299 36.6877ZM50.2116 50.6516C49.2832 50.6516 48.5278 49.8675 48.5278 48.9038C48.5278 47.94 49.2832 47.1559 50.2116 47.1559C51.1401 47.1559 51.8955 47.94 51.8955 48.9038C51.8955 49.8675 51.1401 50.6516 50.2116 50.6516Z" fill="url(#paint3_linear)"/>
<path d="M66.4688 47.3448H65.0601C64.2204 47.3448 63.5396 48.0514 63.5396 48.9231C63.5396 49.7948 64.2204 50.5014 65.0601 50.5014H66.4688C67.3084 50.5014 67.9893 49.7948 67.9893 48.9231C67.9893 48.0514 67.3084 47.3448 66.4688 47.3448Z" fill="url(#paint4_linear)"/>
<path d="M35.3628 47.3063H33.9542C33.1146 47.3063 32.4337 48.0129 32.4337 48.8846C32.4337 49.7563 33.1146 50.4629 33.9542 50.4629H35.3628C36.2024 50.4629 36.8833 49.7563 36.8833 48.8846C36.8833 48.0129 36.2024 47.3063 35.3628 47.3063Z" fill="url(#paint5_linear)"/>
<path d="M50.2302 35.0687C51.0698 35.0687 51.7507 34.3621 51.7507 33.4904V32.0283C51.7507 31.1566 51.0698 30.45 50.2302 30.45C49.3906 30.45 48.7097 31.1566 48.7097 32.0283V33.4904C48.7097 34.3621 49.3906 35.0687 50.2302 35.0687Z" fill="url(#paint6_linear)"/>
<path d="M50.1931 62.7389C49.3535 62.7389 48.6726 63.4455 48.6726 64.3172V65.7793C48.6726 66.651 49.3535 67.3577 50.1931 67.3577C51.0327 67.3577 51.7136 66.651 51.7136 65.7793V64.3172C51.7136 63.4455 51.0327 62.7389 50.1931 62.7389Z" fill="url(#paint7_linear)"/>
<path d="M4.59558 57.0643C4.19569 57.0643 3.8034 57.2332 3.52058 57.5268C3.23777 57.8203 3.07507 58.2276 3.07507 58.6426C3.07507 59.0593 3.23762 59.465 3.52058 59.7585C3.80355 60.0521 4.19569 60.221 4.59558 60.221C4.99547 60.221 5.38776 60.0521 5.67042 59.7585C5.95324 59.465 6.11608 59.0577 6.11608 58.6426C6.11608 58.2276 5.95339 57.8203 5.67042 57.5268C5.38776 57.2332 4.99547 57.0643 4.59558 57.0643Z" fill="url(#paint8_linear)"/>
<defs>
<linearGradient id="paint0_linear" x1="65.0955" y1="31.6401" x2="14.4931" y2="31.6401" gradientUnits="userSpaceOnUse">
<stop stop-color="#0DA6F2"/>
<stop offset="1" stop-color="#F2390B"/>
</linearGradient>
<linearGradient id="paint1_linear" x1="71.7578" y1="69.91" x2="69.7811" y2="69.91" gradientUnits="userSpaceOnUse">
<stop stop-color="#0DA6F2"/>
<stop offset="1" stop-color="#F2390B"/>
</linearGradient>
<linearGradient id="paint2_linear" x1="64.207" y1="42.364" x2="33.5429" y2="42.364" gradientUnits="userSpaceOnUse">
<stop stop-color="#0DA6F2"/>
<stop offset="1" stop-color="#F2390B"/>
</linearGradient>
<linearGradient id="paint3_linear" x1="58.3045" y1="42.6685" x2="45.1307" y2="42.6685" gradientUnits="userSpaceOnUse">
<stop stop-color="#0DA6F2"/>
<stop offset="1" stop-color="#F2390B"/>
</linearGradient>
<linearGradient id="paint4_linear" x1="67.0845" y1="48.5015" x2="64.1922" y2="48.5015" gradientUnits="userSpaceOnUse">
<stop stop-color="#0DA6F2"/>
<stop offset="1" stop-color="#F2390B"/>
</linearGradient>
<linearGradient id="paint5_linear" x1="35.9786" y1="48.463" x2="33.0863" y2="48.463" gradientUnits="userSpaceOnUse">
<stop stop-color="#0DA6F2"/>
<stop offset="1" stop-color="#F2390B"/>
</linearGradient>
<linearGradient id="paint6_linear" x1="51.1324" y1="32.1425" x2="49.1557" y2="32.1425" gradientUnits="userSpaceOnUse">
<stop stop-color="#0DA6F2"/>
<stop offset="1" stop-color="#F2390B"/>
</linearGradient>
<linearGradient id="paint7_linear" x1="51.0953" y1="64.4314" x2="49.1186" y2="64.4314" gradientUnits="userSpaceOnUse">
<stop stop-color="#0DA6F2"/>
<stop offset="1" stop-color="#F2390B"/>
</linearGradient>
<linearGradient id="paint8_linear" x1="5.49774" y1="58.2211" x2="3.52109" y2="58.2211" gradientUnits="userSpaceOnUse">
<stop stop-color="#0DA6F2"/>
<stop offset="1" stop-color="#F2390B"/>
</linearGradient>
</defs>
</svg>
