<svg xmlns="http://www.w3.org/2000/svg" fill="none" viewBox="0 0 82 81">
  <path fill="url(#paint0_linear)" d="M81.15 44.54c-.73-7.6-4-14.75-9.2-20.15a31.44 31.44 0 00-15.62-8.9V11.3A5.55 5.55 0 0060.4 5.9 5.49 5.49 0 0055.03.31H43.64a5.49 5.49 0 00-5.38 5.58 5.56 5.56 0 004.08 5.42v4.18a31.44 31.44 0 00-15.57 8.9c-.97 1-1.87 2.06-2.69 3.16H12.7c-.87 0-1.58.73-1.58 1.64 0 .9.7 1.64 1.58 1.64h9.24a33.52 33.52 0 00-2.8 6.3H1.9c-.87 0-1.58.74-1.58 1.65 0 .9.7 1.64 1.58 1.64h16.32c-.46 2.08-.72 4.2-.79 6.31h-6.99c-.87 0-1.58.74-1.58 1.64 0 .91.7 1.65 1.58 1.65h7.04c.14 2.12.47 4.23 1 6.3H8.23c-.88 0-1.59.74-1.59 1.65 0 .9.71 1.64 1.59 1.64h11.25a33.13 33.13 0 007.28 11.68A31.54 31.54 0 0049.33 81c6.18 0 12.27-1.85 17.44-5.35.73-.5.94-1.51.46-2.27a1.55 1.55 0 00-2.19-.48A28.11 28.11 0 0129 68.97C17.78 57.32 17.78 38.36 29 26.7a28.08 28.08 0 0140.71 0c9.56 9.92 11.16 25.64 3.81 37.38-.47.76-.27 1.77.47 2.27.73.5 1.71.28 2.19-.48a34.27 34.27 0 004.97-21.34zM41.43 5.89c0-1.26.99-2.3 2.21-2.3h11.39a2.26 2.26 0 012.21 2.3c0 1.27-1 2.3-2.21 2.3H43.64a2.26 2.26 0 01-2.21-2.3zm4.08 9.04v-3.45h7.65v3.44a31.06 31.06 0 00-7.65 0z"/>
  <path fill="url(#paint1_linear)" d="M70.83 68.48c-.42 0-.82.18-1.12.49a1.68 1.68 0 000 2.32c.3.3.7.48 1.12.48.42 0 .82-.18 1.12-.48a1.69 1.69 0 000-2.32c-.3-.31-.7-.49-1.12-.49z"/>
  <path fill="url(#paint2_linear)" d="M49.36 22.37c-13.53 0-24.54 11.42-24.54 25.47 0 14.04 11 25.47 24.54 25.47 13.53 0 24.53-11.43 24.53-25.47 0-14.05-11-25.47-24.53-25.47zm0 47.65c-11.79 0-21.37-9.95-21.37-22.18 0-12.24 9.58-22.19 21.37-22.19 11.78 0 21.37 9.95 21.37 22.19 0 12.23-9.59 22.18-21.37 22.18z"/>
  <path fill="url(#paint3_linear)" d="M59.36 35.13l-7.83 8.13a4.74 4.74 0 00-4.34 0l-3.5-3.64a1.54 1.54 0 00-2.25 0 1.69 1.69 0 000 2.32l3.51 3.64c-.32.68-.5 1.45-.5 2.26 0 2.81 2.2 5.1 4.9 5.1a5.02 5.02 0 004.92-5.1c0-.81-.18-1.58-.5-2.26l7.6-7.89.23-.24c.62-.64.62-1.68 0-2.32a1.54 1.54 0 00-2.24 0zm-10 14.53c-.97 0-1.75-.82-1.75-1.82s.78-1.82 1.75-1.82c.96 0 1.75.81 1.75 1.82 0 1-.79 1.82-1.75 1.82z"/>
  <path fill="url(#paint4_linear)" d="M66.27 46.22H64.8c-.87 0-1.58.73-1.58 1.64 0 .9.71 1.64 1.58 1.64h1.47c.87 0 1.58-.74 1.58-1.64 0-.9-.7-1.64-1.58-1.64z"/>
  <path fill="url(#paint5_linear)" d="M33.91 46.18h-1.46c-.88 0-1.58.73-1.58 1.64 0 .9.7 1.64 1.58 1.64h1.46c.88 0 1.58-.74 1.58-1.64 0-.91-.7-1.64-1.58-1.64z"/>
  <path fill="url(#paint6_linear)" d="M49.38 33.45c.87 0 1.58-.74 1.58-1.65v-1.52c0-.9-.7-1.64-1.58-1.64-.88 0-1.58.74-1.58 1.64v1.52c0 .91.7 1.65 1.58 1.65z"/>
  <path fill="url(#paint7_linear)" d="M49.34 62.23c-.87 0-1.58.73-1.58 1.64v1.52c0 .9.7 1.64 1.58 1.64.87 0 1.58-.73 1.58-1.64v-1.52c0-.9-.7-1.64-1.58-1.64z"/>
  <path fill="url(#paint8_linear)" d="M1.9 56.33c-.4 0-.81.17-1.1.48a1.69 1.69 0 000 2.32c.29.3.7.48 1.1.48.43 0 .83-.18 1.13-.48a1.69 1.69 0 000-2.32c-.3-.3-.7-.48-1.12-.48z"/>
  <defs>
    <linearGradient id="paint0_linear" x1="64.84" x2="12.2" y1="29.88" y2="29.88" gradientUnits="userSpaceOnUse">
      <stop stop-color="#0DA6F2"/>
      <stop offset="1" stop-color="#F2390B"/>
    </linearGradient>
    <linearGradient id="paint1_linear" x1="71.77" x2="69.71" y1="69.69" y2="69.69" gradientUnits="userSpaceOnUse">
      <stop stop-color="#0DA6F2"/>
      <stop offset="1" stop-color="#F2390B"/>
    </linearGradient>
    <linearGradient id="paint2_linear" x1="63.92" x2="32.02" y1="41.03" y2="41.03" gradientUnits="userSpaceOnUse">
      <stop stop-color="#0DA6F2"/>
      <stop offset="1" stop-color="#F2390B"/>
    </linearGradient>
    <linearGradient id="paint3_linear" x1="57.78" x2="44.07" y1="41.35" y2="41.35" gradientUnits="userSpaceOnUse">
      <stop stop-color="#0DA6F2"/>
      <stop offset="1" stop-color="#F2390B"/>
    </linearGradient>
    <linearGradient id="paint4_linear" x1="66.91" x2="63.9" y1="47.42" y2="47.42" gradientUnits="userSpaceOnUse">
      <stop stop-color="#0DA6F2"/>
      <stop offset="1" stop-color="#F2390B"/>
    </linearGradient>
    <linearGradient id="paint5_linear" x1="34.55" x2="31.54" y1="47.38" y2="47.38" gradientUnits="userSpaceOnUse">
      <stop stop-color="#0DA6F2"/>
      <stop offset="1" stop-color="#F2390B"/>
    </linearGradient>
    <linearGradient id="paint6_linear" x1="50.32" x2="48.26" y1="30.4" y2="30.4" gradientUnits="userSpaceOnUse">
      <stop stop-color="#0DA6F2"/>
      <stop offset="1" stop-color="#F2390B"/>
    </linearGradient>
    <linearGradient id="paint7_linear" x1="50.28" x2="48.22" y1="63.99" y2="63.99" gradientUnits="userSpaceOnUse">
      <stop stop-color="#0DA6F2"/>
      <stop offset="1" stop-color="#F2390B"/>
    </linearGradient>
    <linearGradient id="paint8_linear" x1="2.85" x2=".79" y1="57.53" y2="57.53" gradientUnits="userSpaceOnUse">
      <stop stop-color="#0DA6F2"/>
      <stop offset="1" stop-color="#F2390B"/>
    </linearGradient>
  </defs>
</svg>
