<svg xmlns="http://www.w3.org/2000/svg" fill="none" viewBox="0 0 66 69">
  <path fill="url(#paint0_linear)" d="M46.9 35.61c.64 0 1.25.2 1.78.56l7.43 5.19c.88.6 1.9.93 2.95.93H66v-2.23h-6.93c-.64 0-1.25-.19-1.78-.56l-3-2.09V0H13.84v6.68H0V69h40.45v-6.68H54.3v-9.36l.2-.04 4.96-1.3c1.1-.28 2.22-.43 3.36-.43H66v-2.22h-3.2c-1.3 0-2.6.17-3.87.5l-4.95 1.3c-2.55.65-5.26.55-7.74-.32l-1.8-.63a15.33 15.33 0 00-5.05-.85h-9.3a3.27 3.27 0 013.2-3.34H45c1.76 0 3.2-1.5 3.2-3.34 0-1.7-1.24-3.1-2.83-3.3l.88-3.38h.66zm-1.34 16.95a15.3 15.3 0 006.6.76v6.78h-11.7v-3.64c.37-.45.65-.99.81-1.59l.87-3.38c.55.12 1.1.26 1.63.45l1.8.62zm-5.55-1.34l-.8 3.07c-.2.8-.9 1.36-1.69 1.36h-.34a1.8 1.8 0 01-1.76-1.84c0-.16.02-.32.06-.48l.55-2.14h3.36l.62.03zm-6.18-.03l-.4 1.56a4.08 4.08 0 001.83 4.57l-.34 1.4 2.07.53.33-1.38h.2c.28 0 .54-.04.8-.1v9H2.12V8.9h13.85V2.23h36.2v33.7l-2.31-1.6a5.15 5.15 0 00-2.95-.94h-.09l4.43-17.14c.1-.35.14-.7.14-1.06a3.98 3.98 0 00-3.88-4.06h-.35a3.92 3.92 0 00-3.75 3l-2.96 11.45V6.68H18.1V8.9h20.22V33.4h-2.2c-1.16 0-2.25.4-3.16 1.11h-10.6v2.23h8.36l-2.13 2.22h-6.24v2.23h4.11l-1.77 1.86a3.53 3.53 0 00-.98 2.45 3.4 3.4 0 003.33 3.48c.32 0 .64-.07.95-.16l-.02.16c0 1.23.95 2.22 2.13 2.22h3.73zm8.2-7.79h-3.98l4.5-17.38 3.65 1.27-4.17 16.11zm-8.17-6.81c.6-.62 1.42-.98 2.26-.98h1.74l-.87 3.36c-1.35.05-2.61.6-3.57 1.61l-5.54 5.8c-.22.23-.53.36-.85.36-.65 0-1.19-.56-1.19-1.25 0-.33.12-.64.35-.88l7.67-8.02zm1.07 5.56c.4-.42.91-.7 1.46-.85l-.55 2.1h-2.1l1.19-1.25zM49.2 15.67l-1.3 5.04-3.66-1.27 1.23-4.73c.2-.8.9-1.36 1.69-1.36h.35c.96 0 1.75.83 1.75 1.84 0 .16-.02.32-.06.48zm-5.51 5.92l3.65 1.27-.59 2.27-3.65-1.27.59-2.27zM45 41.18c.59 0 1.07.5 1.07 1.11A1.1 1.1 0 0145 43.4h-.77l.58-2.22h.2z"/>
  <path fill="url(#paint1_linear)" d="M31.94 11.13H4.26v11.13h27.68V11.13zm-2.13 8.9H6.39v-6.68H29.8v6.68z"/>
  <path fill="url(#paint2_linear)" d="M8.52 15.58h2.13v2.23H8.52v-2.23z"/>
  <path fill="url(#paint3_linear)" d="M12.77 15.58h2.13v2.23h-2.13v-2.23z"/>
  <path fill="url(#paint4_linear)" d="M17.03 15.58h2.13v2.23h-2.13v-2.23z"/>
  <path fill="url(#paint5_linear)" d="M21.29 15.58h2.13v2.23h-2.13v-2.23z"/>
  <path fill="url(#paint6_linear)" d="M25.55 15.58h2.13v2.23h-2.13v-2.23z"/>
  <path fill="url(#paint7_linear)" d="M17.03 35.61H14.9v4.45H6.4v-8.9h6.38v-2.22H4.26v13.35h12.77v-6.68z"/>
  <path fill="url(#paint8_linear)" d="M20.54 24.81l-9.9 10.34-1.37-1.44-1.5 1.58 2.88 3.01 11.4-11.92-1.51-1.57z"/>
  <path fill="url(#paint9_linear)" d="M14.9 58.98H6.4v-8.9h6.38v-2.23H4.26v13.36h12.77v-6.68H14.9v4.45z"/>
  <path fill="url(#paint10_linear)" d="M9.27 52.63l-1.5 1.58 2.88 3 11.4-11.9-1.51-1.58-9.9 10.34-1.37-1.44z"/>
  <path fill="url(#paint11_linear)" d="M34.06 61.21h2.13v2.23h-2.13V61.2z"/>
  <path fill="url(#paint12_linear)" d="M20.23 61.21h11.7v2.23h-11.7V61.2z"/>
  <path fill="url(#paint13_linear)" d="M22.35 30.05H36.2v2.22H22.35v-2.22z"/>
  <path stroke="#000" d="M46.9 35.61c.64 0 1.25.2 1.78.56l7.43 5.19c.88.6 1.9.93 2.95.93H66v-2.23h-6.93c-.64 0-1.25-.19-1.78-.56l-3-2.09V0H13.84v6.68H0V69h40.45v-6.68H54.3v-9.36l.2-.04 4.96-1.3c1.1-.28 2.22-.43 3.36-.43H66v-2.22h-3.2c-1.3 0-2.6.17-3.87.5l-4.95 1.3c-2.55.65-5.26.55-7.74-.32l-1.8-.63a15.33 15.33 0 00-5.05-.85h-9.3a3.27 3.27 0 013.2-3.34H45c1.76 0 3.2-1.5 3.2-3.34 0-1.7-1.24-3.1-2.83-3.3l.88-3.38h.66zm-1.34 16.95a15.3 15.3 0 006.6.76v6.78h-11.7v-3.64c.37-.45.65-.99.81-1.59l.87-3.38c.55.12 1.1.26 1.63.45l1.8.62zm-5.55-1.34l-.8 3.07c-.2.8-.9 1.36-1.69 1.36h-.34a1.8 1.8 0 01-1.76-1.84c0-.16.02-.32.06-.48l.55-2.14h3.36l.62.03zm-6.18-.03l-.4 1.56a4.08 4.08 0 001.83 4.57l-.34 1.4 2.07.53.33-1.38h.2c.28 0 .54-.04.8-.1v9H2.12V8.9h13.85V2.23h36.2v33.7l-2.31-1.6a5.15 5.15 0 00-2.95-.94h-.09l4.43-17.14c.1-.35.14-.7.14-1.06a3.98 3.98 0 00-3.88-4.06h-.35a3.92 3.92 0 00-3.75 3l-2.96 11.45V6.68H18.1V8.9h20.22V33.4h-2.2c-1.16 0-2.25.4-3.16 1.11h-10.6v2.23h8.36l-2.13 2.22h-6.24v2.23h4.11l-1.77 1.86a3.53 3.53 0 00-.98 2.45 3.4 3.4 0 003.33 3.48c.32 0 .64-.07.95-.16l-.02.16c0 1.23.95 2.22 2.13 2.22h3.73zm8.2-7.79h-3.98l4.5-17.38 3.65 1.27-4.17 16.11zm-8.17-6.81c.6-.62 1.42-.98 2.26-.98h1.74l-.87 3.36c-1.35.05-2.61.6-3.57 1.61l-5.54 5.8c-.22.23-.53.36-.85.36-.65 0-1.19-.56-1.19-1.25 0-.33.12-.64.35-.88l7.67-8.02zm1.07 5.56c.4-.42.91-.7 1.46-.85l-.55 2.1h-2.1l1.19-1.25zM49.2 15.67l-1.3 5.04-3.66-1.27 1.23-4.73c.2-.8.9-1.36 1.69-1.36h.35c.96 0 1.75.83 1.75 1.84 0 .16-.02.32-.06.48zm-5.51 5.92l3.65 1.27-.59 2.27-3.65-1.27.59-2.27zM45 41.18c.59 0 1.07.5 1.07 1.11A1.1 1.1 0 0145 43.4h-.77l.58-2.22h.2z"/>
  <path stroke="#000" d="M31.94 11.13H4.26v11.13h27.68V11.13zm-2.13 8.9H6.39v-6.68H29.8v6.68z"/>
  <path stroke="#000" d="M8.52 15.58h2.13v2.23H8.52v-2.23zM12.77 15.58h2.13v2.23h-2.13v-2.23zM17.03 15.58h2.13v2.23h-2.13v-2.23zM21.29 15.58h2.13v2.23h-2.13v-2.23zM25.55 15.58h2.13v2.23h-2.13v-2.23zM17.03 35.61H14.9v4.45H6.4v-8.9h6.38v-2.22H4.26v13.35h12.77v-6.68z"/>
  <path stroke="#000" d="M20.54 24.81l-9.9 10.34-1.37-1.44-1.5 1.58 2.88 3.01 11.4-11.92-1.51-1.57zM14.9 58.98H6.4v-8.9h6.38v-2.23H4.26v13.36h12.77v-6.68H14.9v4.45z"/>
  <path stroke="#000" d="M9.27 52.63l-1.5 1.58 2.88 3 11.4-11.9-1.51-1.58-9.9 10.34-1.37-1.44zM34.06 61.21h2.13v2.23h-2.13V61.2zM20.23 61.21h11.7v2.23h-11.7V61.2zM22.35 30.05H36.2v2.22H22.35v-2.22z"/>
  <defs>
    <linearGradient id="paint0_linear" x1="52.58" x2="9.68" y1="25.28" y2="25.28" gradientUnits="userSpaceOnUse">
      <stop stop-color="#0DA6F2"/>
      <stop offset="1" stop-color="#F2390B"/>
    </linearGradient>
    <linearGradient id="paint1_linear" x1="52.58" x2="9.68" y1="25.28" y2="25.28" gradientUnits="userSpaceOnUse">
      <stop stop-color="#0DA6F2"/>
      <stop offset="1" stop-color="#F2390B"/>
    </linearGradient>
    <linearGradient id="paint2_linear" x1="52.58" x2="9.68" y1="25.28" y2="25.28" gradientUnits="userSpaceOnUse">
      <stop stop-color="#0DA6F2"/>
      <stop offset="1" stop-color="#F2390B"/>
    </linearGradient>
    <linearGradient id="paint3_linear" x1="52.58" x2="9.68" y1="25.28" y2="25.28" gradientUnits="userSpaceOnUse">
      <stop stop-color="#0DA6F2"/>
      <stop offset="1" stop-color="#F2390B"/>
    </linearGradient>
    <linearGradient id="paint4_linear" x1="52.58" x2="9.68" y1="25.28" y2="25.28" gradientUnits="userSpaceOnUse">
      <stop stop-color="#0DA6F2"/>
      <stop offset="1" stop-color="#F2390B"/>
    </linearGradient>
    <linearGradient id="paint5_linear" x1="52.58" x2="9.68" y1="25.28" y2="25.28" gradientUnits="userSpaceOnUse">
      <stop stop-color="#0DA6F2"/>
      <stop offset="1" stop-color="#F2390B"/>
    </linearGradient>
    <linearGradient id="paint6_linear" x1="52.58" x2="9.68" y1="25.28" y2="25.28" gradientUnits="userSpaceOnUse">
      <stop stop-color="#0DA6F2"/>
      <stop offset="1" stop-color="#F2390B"/>
    </linearGradient>
    <linearGradient id="paint7_linear" x1="52.58" x2="9.68" y1="25.28" y2="25.28" gradientUnits="userSpaceOnUse">
      <stop stop-color="#0DA6F2"/>
      <stop offset="1" stop-color="#F2390B"/>
    </linearGradient>
    <linearGradient id="paint8_linear" x1="52.58" x2="9.68" y1="25.28" y2="25.28" gradientUnits="userSpaceOnUse">
      <stop stop-color="#0DA6F2"/>
      <stop offset="1" stop-color="#F2390B"/>
    </linearGradient>
    <linearGradient id="paint9_linear" x1="52.58" x2="9.68" y1="25.28" y2="25.28" gradientUnits="userSpaceOnUse">
      <stop stop-color="#0DA6F2"/>
      <stop offset="1" stop-color="#F2390B"/>
    </linearGradient>
    <linearGradient id="paint10_linear" x1="52.58" x2="9.68" y1="25.28" y2="25.28" gradientUnits="userSpaceOnUse">
      <stop stop-color="#0DA6F2"/>
      <stop offset="1" stop-color="#F2390B"/>
    </linearGradient>
    <linearGradient id="paint11_linear" x1="52.58" x2="9.68" y1="25.28" y2="25.28" gradientUnits="userSpaceOnUse">
      <stop stop-color="#0DA6F2"/>
      <stop offset="1" stop-color="#F2390B"/>
    </linearGradient>
    <linearGradient id="paint12_linear" x1="52.58" x2="9.68" y1="25.28" y2="25.28" gradientUnits="userSpaceOnUse">
      <stop stop-color="#0DA6F2"/>
      <stop offset="1" stop-color="#F2390B"/>
    </linearGradient>
    <linearGradient id="paint13_linear" x1="52.58" x2="9.68" y1="25.28" y2="25.28" gradientUnits="userSpaceOnUse">
      <stop stop-color="#0DA6F2"/>
      <stop offset="1" stop-color="#F2390B"/>
    </linearGradient>
  </defs>
</svg>
