<svg width="84" height="84" viewBox="0 0 84 84" fill="none" xmlns="http://www.w3.org/2000/svg">
<path d="M79.4943 56.5232L72.4661 53.2091C71.9697 52.975 71.649 52.4513 71.649 51.8751V49.8274C74.0099 47.8316 75.5272 44.7582 75.5272 41.3141V38.4317C76.305 37.9757 76.8199 37.0945 76.8199 36.1077V35.8279C76.8199 29.8266 72.2179 24.9441 66.5615 24.9441H63.9761C58.3195 24.9441 53.7177 29.8266 53.7177 35.8279V38.3661C53.7177 39.2336 54.0696 40.0194 54.6828 40.5223C54.7869 40.6075 54.8963 40.6824 55.0104 40.7472V41.3141C55.0104 44.7582 56.5277 47.8316 58.8884 49.8272V51.8751C58.8884 52.4515 58.5677 52.975 58.0715 53.2091L51.0431 56.5232C48.7414 57.6086 47.2541 60.0366 47.2541 62.709V79.7164C47.2541 80.4251 47.7956 80.9997 48.4636 80.9997C49.1315 80.9997 49.673 80.4251 49.673 79.7164V62.7091C49.673 62.5604 49.683 62.4135 49.6976 62.2677L52.936 65.7036C53.4401 66.2385 53.7177 66.9495 53.7177 67.7058V79.7166C53.7177 80.4253 54.2592 80.9998 54.9271 80.9998C55.5951 80.9998 56.1366 80.4253 56.1366 79.7166V67.7058C56.1366 66.2641 55.6075 64.9085 54.6466 63.889L50.7856 59.7928C51.1334 59.4099 51.5508 59.0925 52.0255 58.8686L58.9352 55.6104L64.0593 61.0469V79.7168C64.0593 80.4255 64.6008 81 65.2688 81C65.9367 81 66.4782 80.4255 66.4782 79.7168V61.0469L71.6024 55.6104L78.5118 58.8684C78.9868 59.0924 79.4041 59.4097 79.7519 59.7928L75.891 63.889C74.9302 64.9085 74.4009 66.2641 74.4009 67.7058V79.7166C74.4009 80.4253 74.9424 80.9998 75.6104 80.9998C76.2783 80.9998 76.8199 80.4253 76.8199 79.7166V67.7058C76.8199 66.9495 77.0974 66.2385 77.6015 65.7036L80.8398 62.2679C80.8543 62.4136 80.8643 62.5604 80.8643 62.7091V79.7166C80.8643 80.4253 81.4059 80.9998 82.0738 80.9998C82.7418 80.9998 83.2833 80.4253 83.2833 79.7166V62.7091C83.2833 60.0366 81.796 57.6086 79.4943 56.5232ZM65.2689 58.7005L60.7726 53.9301C61.1145 53.3198 61.3075 52.6139 61.3075 51.8751V51.3529C62.527 51.8966 63.8653 52.1979 65.2689 52.1979C66.6724 52.1979 68.0107 51.8966 69.23 51.3531V51.8751C69.23 52.6139 69.4231 53.32 69.7651 53.9303L65.2689 58.7005ZM65.2688 49.6315C60.9461 49.6315 57.4293 45.9003 57.4293 41.3141V40.7368C58.184 40.4194 58.9207 39.9145 59.6259 39.224C60.1166 38.7434 60.1474 37.9315 59.6942 37.4107C59.2414 36.8901 58.4762 36.8576 57.9852 37.3382C57.3803 37.9305 56.7759 38.3134 56.1892 38.4758C56.175 38.4797 56.1645 38.4814 56.1571 38.4821C56.1484 38.4643 56.1366 38.4265 56.1366 38.3661V35.8279C56.1366 31.2417 59.6534 27.5105 63.9761 27.5105H66.5615C70.8841 27.5105 74.4009 31.2417 74.4009 35.8279V36.1077C74.4009 36.1493 74.3774 36.1855 74.3464 36.192C67.1035 37.7093 63.4713 34.8493 62.2459 33.5491C61.7736 33.048 61.0077 33.048 60.5355 33.5491C60.0632 34.0503 60.0632 34.8628 60.5355 35.3638C64.2912 39.3484 69.7717 39.4202 73.1082 38.9951V41.3141C73.1082 45.9003 69.5914 49.6315 65.2688 49.6315Z" fill="url(#paint0_linear)"/>
<path d="M27.4351 57.9789L22.1263 55.8667C21.5922 55.6542 21.2336 55.105 21.2336 54.4998V53.5022C24.3196 51.6237 26.4044 48.0949 26.4044 44.0571V39.9424C26.4044 36.463 24.8557 33.3619 22.4532 31.3682C22.5017 31.0294 22.5262 30.6855 22.5262 30.3418C22.5262 26.6092 19.664 23.5726 16.146 23.5726C12.6279 23.5726 9.76567 26.6094 9.76567 30.3418C9.76567 30.6855 9.79293 31.0279 9.84131 31.3661C7.43736 33.3599 5.88747 36.4617 5.88747 39.9424V44.0571C5.88747 48.0949 7.97227 51.6236 11.0584 53.502V54.4997C11.0584 55.1048 10.6995 55.6542 10.1654 55.8665L4.85667 57.9787C2.38048 58.9642 0.716736 61.5113 0.716736 64.3171V79.7164C0.716736 80.4251 1.25826 80.9996 1.92621 80.9996C2.59416 80.9996 3.13568 80.4251 3.13568 79.7164V64.3171C3.13568 64.0965 3.15245 63.8787 3.18454 63.665L5.10583 65.7036C5.60993 66.2385 5.88747 66.9495 5.88747 67.7058V79.7166C5.88747 80.4253 6.42899 80.9998 7.09694 80.9998C7.76489 80.9998 8.30641 80.4253 8.30641 79.7166V67.7058C8.30641 66.2641 7.7773 64.9085 6.81634 63.889L4.36192 61.2849C4.74186 60.8972 5.19533 60.5852 5.70605 60.3821L10.083 58.6407L14.9366 63.7899V79.7166C14.9366 80.4253 15.4781 80.9998 16.146 80.9998C16.814 80.9998 17.3555 80.4253 17.3555 79.7166V63.7899L22.2089 58.6407L26.5857 60.3821C27.0964 60.5853 27.5499 60.8974 27.93 61.2849L25.4754 63.889C24.5146 64.9085 23.9853 66.2641 23.9853 67.7058V79.7166C23.9853 80.4253 24.5269 80.9998 25.1948 80.9998C25.8628 80.9998 26.4043 80.4253 26.4043 79.7166V67.7058C26.4043 66.9495 26.6818 66.2385 27.1859 65.7036L29.1072 63.6652C29.1391 63.8789 29.1561 64.0967 29.1561 64.3172V79.7166C29.1561 80.4253 29.6976 80.9998 30.3655 80.9998C31.0335 80.9998 31.575 80.4253 31.575 79.7166V64.3172C31.575 61.5113 29.9114 58.9642 27.4351 57.9789ZM16.146 26.139C18.1878 26.139 19.8733 27.7865 20.0846 29.8942C18.8711 29.3568 17.5408 29.0587 16.1459 29.0587C14.751 29.0587 13.4207 29.3568 12.2074 29.8942C12.4188 27.7865 14.1043 26.139 16.146 26.139ZM8.30657 39.9426C8.30641 35.3562 11.8232 31.6252 16.146 31.6252C20.4687 31.6252 23.9855 35.3564 23.9855 39.9426V41.3517C18.3544 40.899 12.9474 37.5071 12.8901 37.4708C12.6012 37.2869 12.2532 37.2391 11.9297 37.339C11.6062 37.439 11.3367 37.6775 11.1861 37.9972C10.6404 39.1552 9.39429 40.0921 8.30657 40.7137V39.9426ZM8.30641 44.0571V43.5594C9.41702 43.0505 11.3909 41.9716 12.6666 40.2702C14.6365 41.364 19.1718 43.5879 23.9853 43.9241V44.0571C23.9853 48.6433 20.4685 52.3745 16.1459 52.3745C11.8232 52.3745 8.30641 48.6434 8.30641 44.0571ZM16.146 61.4435L12.321 57.3855C13.0275 56.6549 13.4584 55.645 13.475 54.5643C14.3272 54.8085 15.222 54.9409 16.146 54.9409C17.0699 54.9409 17.9648 54.8085 18.8169 54.5643C18.8335 55.645 19.2644 56.6551 19.9709 57.3855L16.146 61.4435Z" fill="url(#paint1_linear)"/>
<path d="M40.7072 11.229H38.1215C37.4535 11.229 36.912 11.8035 36.912 12.5122C36.912 13.2209 37.4535 13.7954 38.1215 13.7954H40.7072C41.3751 13.7954 41.9166 13.2209 41.9166 12.5122C41.9166 11.8035 41.3751 11.229 40.7072 11.229Z" fill="url(#paint2_linear)"/>
<path d="M32.9508 11.229H22.6093C21.9414 11.229 21.3998 11.8035 21.3998 12.5122C21.3998 13.2209 21.9414 13.7954 22.6093 13.7954H32.9508C33.6187 13.7954 34.1602 13.2209 34.1602 12.5122C34.1602 11.8035 33.6187 11.229 32.9508 11.229Z" fill="url(#paint3_linear)"/>
<path d="M40.7072 18.0866H30.3655C29.6976 18.0866 29.1561 18.6611 29.1561 19.3698C29.1561 20.0785 29.6976 20.653 30.3655 20.653H40.7072C41.3751 20.653 41.9166 20.0785 41.9166 19.3698C41.9166 18.6611 41.3751 18.0866 40.7072 18.0866Z" fill="url(#paint4_linear)"/>
<path d="M25.1952 18.0866H22.6093C21.9414 18.0866 21.3998 18.6611 21.3998 19.3698C21.3998 20.0785 21.9414 20.653 22.6093 20.653H25.1952C25.8631 20.653 26.4046 20.0785 26.4046 19.3698C26.4046 18.6611 25.8631 18.0866 25.1952 18.0866Z" fill="url(#paint5_linear)"/>
<path d="M43.2925 3H20.0239C16.5058 3 13.6437 6.03676 13.6437 9.76919V19.3698C13.6437 20.0785 14.1852 20.653 14.8532 20.653C15.5211 20.653 16.0627 20.0785 16.0627 19.3698V9.76919C16.0627 7.45171 17.8398 5.56642 20.0239 5.56642H43.2927C45.477 5.56642 47.2541 7.45188 47.2541 9.76919V22.113C47.2541 24.4305 45.477 26.3157 43.2927 26.3157H40.7073C40.2826 26.3157 39.8888 26.5522 39.6702 26.9387C37.6906 30.4395 34.5747 32.3917 32.3092 33.4131C32.2788 33.4268 32.2407 33.4441 32.1946 33.3915C32.1625 33.3548 32.1689 33.3414 32.1864 33.3056C33.4626 30.687 34.098 28.0224 34.1244 27.9102C34.2149 27.5269 34.1336 27.1207 33.9045 26.8092C33.6753 26.4976 33.3236 26.3157 32.9511 26.3157H26.4875C25.8195 26.3157 25.278 26.8903 25.278 27.599C25.278 28.3076 25.8195 28.8822 26.4875 28.8822H31.3194C31.028 29.7903 30.5994 30.9741 30.0375 32.127C29.5489 33.1298 29.6992 34.3112 30.4209 35.1365C30.9105 35.6967 31.5723 35.9939 32.2543 35.9939C32.589 35.9939 32.9287 35.9224 33.2552 35.7751C35.7158 34.6657 39.0608 32.5824 41.3737 28.8822H43.2925C46.8106 28.8822 49.6729 25.8454 49.6729 22.113V9.76919C49.6729 6.03659 46.8106 3 43.2925 3Z" fill="url(#paint6_linear)"/>
<path d="M39.4145 41.4024C38.7465 41.4024 38.205 41.9769 38.205 42.6856V49.5432C38.205 50.2519 38.7465 50.8264 39.4145 50.8264C40.0824 50.8264 40.6239 50.2519 40.6239 49.5432V42.6856C40.6239 41.9769 40.0824 41.4024 39.4145 41.4024Z" fill="url(#paint7_linear)"/>
<path d="M39.4145 52.3745C38.7465 52.3745 38.205 52.949 38.205 53.6577C38.205 54.3664 38.7465 54.9409 39.4145 54.9409H39.4274C40.0953 54.9409 40.6304 54.3664 40.6304 53.6577C40.6304 52.949 40.0824 52.3745 39.4145 52.3745Z" fill="url(#paint8_linear)"/>
<path d="M53.8103 47.2269C52.0723 46.5321 51.1997 46.1576 50.7647 45.9602C50.252 43.0028 48.7007 40.2945 46.442 38.4498C43.986 36.4439 40.92 35.5851 37.8091 36.0317C32.4976 36.7941 28.5304 41.1103 27.9369 46.772C27.5714 50.2598 28.6167 53.7477 30.8048 56.3418C32.9948 58.9379 36.133 60.4269 39.4147 60.4269C44.0335 60.4271 48.2251 57.4594 50.0295 52.9783L53.6967 51.7409C54.625 51.4278 55.2415 50.558 55.267 49.5249C55.2926 48.493 54.7208 47.591 53.8103 47.2269ZM48.7503 50.7168C48.3939 50.837 48.1098 51.1257 47.9811 51.4983C46.6676 55.3038 43.2248 57.8606 39.4145 57.8606C36.8201 57.8606 34.3387 56.6833 32.6073 54.6305C30.8521 52.5497 30.0472 49.8597 30.341 47.0558C30.8097 42.5851 33.9411 39.1769 38.1333 38.5752C38.5609 38.5139 38.987 38.4835 39.41 38.4835C41.4259 38.4835 43.3625 39.1739 44.9664 40.4836C46.9174 42.077 48.1593 44.3765 48.4631 46.958C48.5605 47.7883 49.1411 48.0376 50.4129 48.5834C50.9478 48.813 51.6516 49.1035 52.5089 49.4486L48.7503 50.7168Z" fill="url(#paint9_linear)"/>
<defs>
<linearGradient id="paint0_linear" x1="66.4948" y1="31.5828" x2="12.8265" y2="31.5828" gradientUnits="userSpaceOnUse">
<stop stop-color="#0DA6F2"/>
<stop offset="1" stop-color="#F2390B"/>
</linearGradient>
<linearGradient id="paint1_linear" x1="66.4948" y1="31.5828" x2="12.8265" y2="31.5828" gradientUnits="userSpaceOnUse">
<stop stop-color="#0DA6F2"/>
<stop offset="1" stop-color="#F2390B"/>
</linearGradient>
<linearGradient id="paint2_linear" x1="66.4948" y1="31.5828" x2="12.8265" y2="31.5828" gradientUnits="userSpaceOnUse">
<stop stop-color="#0DA6F2"/>
<stop offset="1" stop-color="#F2390B"/>
</linearGradient>
<linearGradient id="paint3_linear" x1="66.4948" y1="31.5828" x2="12.8265" y2="31.5828" gradientUnits="userSpaceOnUse">
<stop stop-color="#0DA6F2"/>
<stop offset="1" stop-color="#F2390B"/>
</linearGradient>
<linearGradient id="paint4_linear" x1="66.4948" y1="31.5828" x2="12.8265" y2="31.5828" gradientUnits="userSpaceOnUse">
<stop stop-color="#0DA6F2"/>
<stop offset="1" stop-color="#F2390B"/>
</linearGradient>
<linearGradient id="paint5_linear" x1="66.4948" y1="31.5828" x2="12.8265" y2="31.5828" gradientUnits="userSpaceOnUse">
<stop stop-color="#0DA6F2"/>
<stop offset="1" stop-color="#F2390B"/>
</linearGradient>
<linearGradient id="paint6_linear" x1="66.4948" y1="31.5828" x2="12.8265" y2="31.5828" gradientUnits="userSpaceOnUse">
<stop stop-color="#0DA6F2"/>
<stop offset="1" stop-color="#F2390B"/>
</linearGradient>
<linearGradient id="paint7_linear" x1="66.4948" y1="31.5828" x2="12.8265" y2="31.5828" gradientUnits="userSpaceOnUse">
<stop stop-color="#0DA6F2"/>
<stop offset="1" stop-color="#F2390B"/>
</linearGradient>
<linearGradient id="paint8_linear" x1="66.4948" y1="31.5828" x2="12.8265" y2="31.5828" gradientUnits="userSpaceOnUse">
<stop stop-color="#0DA6F2"/>
<stop offset="1" stop-color="#F2390B"/>
</linearGradient>
<linearGradient id="paint9_linear" x1="66.4948" y1="31.5828" x2="12.8265" y2="31.5828" gradientUnits="userSpaceOnUse">
<stop stop-color="#0DA6F2"/>
<stop offset="1" stop-color="#F2390B"/>
</linearGradient>
</defs>
</svg>
