<svg xmlns="http://www.w3.org/2000/svg" fill="none" viewBox="0 0 83 78">
  <path fill="url(#paint0_linear)" d="M78.78 53.52l-7.03-3.31c-.5-.23-.82-.76-.82-1.33v-2.05c2.36-2 3.88-5.07 3.88-8.52v-2.88a2.69 2.69 0 001.3-2.32v-.28c0-6-4.6-10.89-10.27-10.89h-2.58C57.6 21.94 53 26.83 53 32.83v2.54a2.76 2.76 0 001.3 2.38v.56c0 3.45 1.51 6.52 3.87 8.52v2.05c0 .57-.32 1.1-.82 1.33l-7.02 3.31a6.8 6.8 0 00-3.8 6.19v17c0 .72.55 1.29 1.22 1.29.66 0 1.2-.57 1.2-1.28V59.7c0-.15.02-.3.03-.44l3.24 3.43c.5.54.78 1.25.78 2v12.02c0 .7.54 1.28 1.21 1.28.67 0 1.21-.57 1.21-1.28V64.7c0-1.45-.53-2.8-1.49-3.82l-3.86-4.1c.35-.38.76-.7 1.24-.92l6.9-3.26 5.13 5.44v18.67c0 .7.54 1.28 1.21 1.28.67 0 1.21-.57 1.21-1.28V58.05l5.13-5.44 6.9 3.26c.48.22.9.54 1.25.92l-3.87 4.1a5.53 5.53 0 00-1.49 3.82v12c0 .72.55 1.29 1.21 1.29.67 0 1.21-.57 1.21-1.28V64.7c0-.76.28-1.47.78-2l3.24-3.44c.02.14.03.29.03.44v17c0 .72.54 1.29 1.2 1.29.68 0 1.22-.57 1.22-1.28V59.7a6.8 6.8 0 00-3.8-6.19zM64.55 55.7l-4.5-4.77a4.2 4.2 0 00.54-2.05v-.53a9.7 9.7 0 007.92 0v.53c0 .73.2 1.44.54 2.05l-4.5 4.77zm0-9.07c-4.32 0-7.84-3.73-7.84-8.32v-.57c.76-.32 1.5-.83 2.2-1.52.49-.48.52-1.29.07-1.8a1.16 1.16 0 00-1.71-.08 4.3 4.3 0 01-1.83 1.14.27.27 0 01-.02-.11v-2.54c0-4.59 3.52-8.32 7.84-8.32h2.58c4.33 0 7.84 3.73 7.84 8.32v.28c0 .04-.02.08-.05.08-7.24 1.52-10.88-1.34-12.1-2.64-.47-.5-1.24-.5-1.71 0s-.47 1.31 0 1.81c3.75 3.99 9.24 4.06 12.57 3.64v2.31c0 4.59-3.52 8.32-7.84 8.32z"/>
  <path fill="url(#paint1_linear)" d="M26.72 54.98l-5.31-2.11c-.53-.22-.9-.77-.9-1.37v-1a11.02 11.02 0 005.18-9.44v-4.12c0-3.48-1.55-6.58-3.95-8.57.05-.34.07-.68.07-1.03 0-3.73-2.86-6.77-6.38-6.77s-6.38 3.04-6.38 6.77c0 .35.03.69.07 1.03-2.4 1.99-3.95 5.1-3.95 8.57v4.12c0 4.03 2.09 7.56 5.17 9.44v1c0 .6-.36 1.15-.9 1.37l-5.3 2.1A6.8 6.8 0 000 61.33v15.4C0 77.42.54 78 1.2 78c.68 0 1.22-.57 1.22-1.28v-15.4c0-.22.02-.44.05-.66l1.92 2.04c.5.54.78 1.25.78 2v12.02c0 .7.54 1.28 1.21 1.28.67 0 1.21-.57 1.21-1.28V64.7c0-1.45-.53-2.8-1.49-3.82l-2.45-2.6c.38-.4.83-.7 1.34-.9l4.38-1.75 4.85 5.15v15.93c0 .7.54 1.28 1.2 1.28.68 0 1.22-.57 1.22-1.28V60.79l4.85-5.15 4.38 1.74c.51.2.96.52 1.34.9l-2.45 2.6a5.53 5.53 0 00-1.5 3.83v12c0 .72.55 1.29 1.22 1.29.67 0 1.2-.57 1.2-1.28V64.7c0-.76.29-1.47.79-2l1.92-2.04c.03.2.05.43.05.65v15.4c0 .7.54 1.28 1.2 1.28.68 0 1.22-.57 1.22-1.28v-15.4a6.8 6.8 0 00-4.14-6.34zm-11.3-31.84a4.06 4.06 0 013.95 3.75 9.7 9.7 0 00-7.88 0 4.06 4.06 0 013.94-3.75zM7.6 36.94c0-4.58 3.52-8.31 7.84-8.31s7.84 3.73 7.84 8.31v1.41c-5.63-.45-11.04-3.84-11.1-3.88a1.15 1.15 0 00-.96-.13c-.32.1-.59.34-.74.66-.55 1.16-1.8 2.1-2.88 2.71v-.77zm0 4.12v-.5c1.11-.51 3.08-1.59 4.36-3.29 1.97 1.1 6.5 3.32 11.32 3.65v.14c0 4.58-3.52 8.31-7.84 8.31s-7.84-3.73-7.84-8.31zm7.84 17.38L11.6 54.4a4.16 4.16 0 001.16-2.83 9.68 9.68 0 005.34 0c.02 1.09.45 2.1 1.15 2.83l-3.82 4.05z"/>
  <path fill="url(#paint2_linear)" d="M39.99 8.23H37.4c-.66 0-1.2.57-1.2 1.28 0 .71.54 1.29 1.2 1.29H40c.67 0 1.21-.58 1.21-1.29 0-.7-.54-1.28-1.21-1.28z"/>
  <path fill="url(#paint3_linear)" d="M32.23 8.23H21.9c-.67 0-1.2.57-1.2 1.28 0 .71.53 1.29 1.2 1.29h10.34c.67 0 1.21-.58 1.21-1.29 0-.7-.54-1.28-1.2-1.28z"/>
  <path fill="url(#paint4_linear)" d="M39.99 15.09H29.65c-.67 0-1.21.57-1.21 1.28 0 .7.54 1.28 1.2 1.28H40c.67 0 1.21-.57 1.21-1.28 0-.7-.54-1.28-1.21-1.28z"/>
  <path fill="url(#paint5_linear)" d="M24.48 15.09h-2.59c-.67 0-1.2.57-1.2 1.28 0 .7.53 1.28 1.2 1.28h2.59c.67 0 1.2-.57 1.2-1.28 0-.7-.53-1.28-1.2-1.28z"/>
  <path fill="url(#paint6_linear)" d="M42.58 0H19.3c-3.52 0-6.38 3.04-6.38 6.77v9.6c0 .7.54 1.28 1.2 1.28.67 0 1.22-.57 1.22-1.28v-9.6c0-2.32 1.77-4.2 3.96-4.2h23.27c2.18 0 3.96 1.88 3.96 4.2V19.1c0 2.32-1.78 4.2-3.96 4.2h-2.59c-.42 0-.82.24-1.04.63a15.83 15.83 0 01-7.36 6.47c-.03.02-.07.03-.11-.02-.03-.04-.03-.05-.01-.08a28.98 28.98 0 001.94-5.4c.09-.38 0-.79-.22-1.1-.23-.31-.58-.5-.96-.5h-6.46c-.67 0-1.2.58-1.2 1.29 0 .7.53 1.28 1.2 1.28h4.83c-.29.91-.72 2.1-1.28 3.25-.49 1-.34 2.18.38 3a2.43 2.43 0 002.84.65c2.46-1.11 5.8-3.2 8.12-6.9h1.92c3.51 0 6.38-3.03 6.38-6.77V6.77c0-3.73-2.87-6.77-6.38-6.77z"/>
  <path fill="url(#paint7_linear)" d="M38.7 38.4c-.67 0-1.21.58-1.21 1.29v6.85c0 .71.54 1.29 1.2 1.29.68 0 1.22-.58 1.22-1.29V39.7c0-.71-.54-1.29-1.21-1.29z"/>
  <path fill="url(#paint8_linear)" d="M38.7 49.37c-.67 0-1.21.58-1.21 1.29 0 .7.54 1.28 1.2 1.28h.02c.67 0 1.2-.57 1.2-1.28 0-.71-.54-1.29-1.21-1.29z"/>
  <path fill="url(#paint9_linear)" d="M53.1 44.23a79.5 79.5 0 01-3.05-1.27 12.49 12.49 0 00-4.32-7.51c-2.46-2-5.53-2.86-8.64-2.42-5.3.76-9.28 5.08-9.87 10.74-.37 3.49.68 6.98 2.87 9.57a11.29 11.29 0 008.6 4.09c4.63 0 8.82-2.97 10.62-7.45l3.67-1.24a2.35 2.35 0 001.57-2.22 2.36 2.36 0 00-1.46-2.3zm-5.07 3.49c-.35.12-.64.4-.77.78a9.2 9.2 0 01-8.56 6.36 8.92 8.92 0 01-6.81-3.23 10 10 0 01-2.27-7.57c.47-4.47 3.6-7.88 7.8-8.48a8.73 8.73 0 016.83 1.9 9.76 9.76 0 013.5 6.48c.1.83.67 1.08 1.95 1.62l2.1.87-3.77 1.27z"/>
  <path stroke="#000" d="M78.78 53.52l-7.03-3.31c-.5-.23-.82-.76-.82-1.33v-2.05c2.36-2 3.88-5.07 3.88-8.52v-2.88a2.69 2.69 0 001.3-2.32v-.28c0-6-4.6-10.89-10.27-10.89h-2.58C57.6 21.94 53 26.83 53 32.83v2.54a2.76 2.76 0 001.3 2.38v.56c0 3.45 1.51 6.52 3.87 8.52v2.05c0 .57-.32 1.1-.82 1.33l-7.02 3.31a6.8 6.8 0 00-3.8 6.19v17c0 .72.55 1.29 1.22 1.29.66 0 1.2-.57 1.2-1.28V59.7c0-.15.02-.3.03-.44l3.24 3.43c.5.54.78 1.25.78 2v12.02c0 .7.54 1.28 1.21 1.28.67 0 1.21-.57 1.21-1.28V64.7c0-1.45-.53-2.8-1.49-3.82l-3.86-4.1c.35-.38.76-.7 1.24-.92l6.9-3.26 5.13 5.44v18.67c0 .7.54 1.28 1.21 1.28.67 0 1.21-.57 1.21-1.28V58.05l5.13-5.44 6.9 3.26c.48.22.9.54 1.25.92l-3.87 4.1a5.53 5.53 0 00-1.49 3.82v12c0 .72.55 1.29 1.21 1.29.67 0 1.21-.57 1.21-1.28V64.7c0-.76.28-1.47.78-2l3.24-3.44c.02.14.03.29.03.44v17c0 .72.54 1.29 1.2 1.29.68 0 1.22-.57 1.22-1.28V59.7a6.8 6.8 0 00-3.8-6.19zM64.55 55.7l-4.5-4.77a4.2 4.2 0 00.54-2.05v-.53a9.7 9.7 0 007.92 0v.53c0 .73.2 1.44.54 2.05l-4.5 4.77zm0-9.07c-4.32 0-7.84-3.73-7.84-8.32v-.57c.76-.32 1.5-.83 2.2-1.52.49-.48.52-1.29.07-1.8a1.16 1.16 0 00-1.71-.08 4.3 4.3 0 01-1.83 1.14.27.27 0 01-.02-.11v-2.54c0-4.59 3.52-8.32 7.84-8.32h2.58c4.33 0 7.84 3.73 7.84 8.32v.28c0 .04-.02.08-.05.08-7.24 1.52-10.88-1.34-12.1-2.64-.47-.5-1.24-.5-1.71 0s-.47 1.31 0 1.81c3.75 3.99 9.24 4.06 12.57 3.64v2.31c0 4.59-3.52 8.32-7.84 8.32zM26.72 54.98l-5.31-2.11c-.53-.22-.9-.77-.9-1.37v-1a11.02 11.02 0 005.18-9.44v-4.12c0-3.48-1.55-6.58-3.95-8.57.05-.34.07-.68.07-1.03 0-3.73-2.86-6.77-6.38-6.77s-6.38 3.04-6.38 6.77c0 .35.03.69.07 1.03-2.4 1.99-3.95 5.1-3.95 8.57v4.12c0 4.03 2.09 7.56 5.17 9.44v1c0 .6-.36 1.15-.9 1.37l-5.3 2.1A6.8 6.8 0 000 61.33v15.4C0 77.42.54 78 1.2 78c.68 0 1.22-.57 1.22-1.28v-15.4c0-.22.02-.44.05-.66l1.92 2.04c.5.54.78 1.25.78 2v12.02c0 .7.54 1.28 1.21 1.28.67 0 1.21-.57 1.21-1.28V64.7c0-1.45-.53-2.8-1.49-3.82l-2.45-2.6c.38-.4.83-.7 1.34-.9l4.38-1.75 4.85 5.15v15.93c0 .7.54 1.28 1.2 1.28.68 0 1.22-.57 1.22-1.28V60.79l4.85-5.15 4.38 1.74c.51.2.96.52 1.34.9l-2.45 2.6a5.53 5.53 0 00-1.5 3.83v12c0 .72.55 1.29 1.22 1.29.67 0 1.2-.57 1.2-1.28V64.7c0-.76.29-1.47.79-2l1.92-2.04c.03.2.05.43.05.65v15.4c0 .7.54 1.28 1.2 1.28.68 0 1.22-.57 1.22-1.28v-15.4a6.8 6.8 0 00-4.14-6.34zm-11.3-31.84a4.06 4.06 0 013.95 3.75 9.7 9.7 0 00-7.88 0 4.06 4.06 0 013.94-3.75zM7.6 36.94c0-4.58 3.52-8.31 7.84-8.31s7.84 3.73 7.84 8.31v1.41c-5.63-.45-11.04-3.84-11.1-3.88a1.15 1.15 0 00-.96-.13c-.32.1-.59.34-.74.66-.55 1.16-1.8 2.1-2.88 2.71v-.77zm0 4.12v-.5c1.11-.51 3.08-1.59 4.36-3.29 1.97 1.1 6.5 3.32 11.32 3.65v.14c0 4.58-3.52 8.31-7.84 8.31s-7.84-3.73-7.84-8.31zm7.84 17.38L11.6 54.4a4.16 4.16 0 001.16-2.83 9.68 9.68 0 005.34 0c.02 1.09.45 2.1 1.15 2.83l-3.82 4.05zM39.99 8.23H37.4c-.66 0-1.2.57-1.2 1.28 0 .71.54 1.29 1.2 1.29H40c.67 0 1.21-.58 1.21-1.29 0-.7-.54-1.28-1.21-1.28zM32.23 8.23H21.9c-.67 0-1.2.57-1.2 1.28 0 .71.53 1.29 1.2 1.29h10.34c.67 0 1.21-.58 1.21-1.29 0-.7-.54-1.28-1.2-1.28zM39.99 15.09H29.65c-.67 0-1.21.57-1.21 1.28 0 .7.54 1.28 1.2 1.28H40c.67 0 1.21-.57 1.21-1.28 0-.7-.54-1.28-1.21-1.28zM24.48 15.09h-2.59c-.67 0-1.2.57-1.2 1.28 0 .7.53 1.28 1.2 1.28h2.59c.67 0 1.2-.57 1.2-1.28 0-.7-.53-1.28-1.2-1.28z"/>
  <path stroke="#000" d="M42.58 0H19.3c-3.52 0-6.38 3.04-6.38 6.77v9.6c0 .7.54 1.28 1.2 1.28.67 0 1.22-.57 1.22-1.28v-9.6c0-2.32 1.77-4.2 3.96-4.2h23.27c2.18 0 3.96 1.88 3.96 4.2V19.1c0 2.32-1.78 4.2-3.96 4.2h-2.59c-.42 0-.82.24-1.04.63a15.83 15.83 0 01-7.36 6.47c-.03.02-.07.03-.11-.02-.03-.04-.03-.05-.01-.08a28.98 28.98 0 001.94-5.4c.09-.38 0-.79-.22-1.1-.23-.31-.58-.5-.96-.5h-6.46c-.67 0-1.2.58-1.2 1.29 0 .7.53 1.28 1.2 1.28h4.83c-.29.91-.72 2.1-1.28 3.25-.49 1-.34 2.18.38 3a2.43 2.43 0 002.84.65c2.46-1.11 5.8-3.2 8.12-6.9h1.92c3.51 0 6.38-3.03 6.38-6.77V6.77c0-3.73-2.87-6.77-6.38-6.77zM38.7 38.4c-.67 0-1.21.58-1.21 1.29v6.85c0 .71.54 1.29 1.2 1.29.68 0 1.22-.58 1.22-1.29V39.7c0-.71-.54-1.29-1.21-1.29zM38.7 49.37c-.67 0-1.21.58-1.21 1.29 0 .7.54 1.28 1.2 1.28h.02c.67 0 1.2-.57 1.2-1.28 0-.71-.54-1.29-1.21-1.29z"/>
  <path stroke="#000" d="M53.1 44.23a79.5 79.5 0 01-3.05-1.27 12.49 12.49 0 00-4.32-7.51c-2.46-2-5.53-2.86-8.64-2.42-5.3.76-9.28 5.08-9.87 10.74-.37 3.49.68 6.98 2.87 9.57a11.29 11.29 0 008.6 4.09c4.63 0 8.82-2.97 10.62-7.45l3.67-1.24a2.35 2.35 0 001.57-2.22 2.36 2.36 0 00-1.46-2.3zm-5.07 3.49c-.35.12-.64.4-.77.78a9.2 9.2 0 01-8.56 6.36 8.92 8.92 0 01-6.81-3.23 10 10 0 01-2.27-7.57c.47-4.47 3.6-7.88 7.8-8.48a8.73 8.73 0 016.83 1.9 9.76 9.76 0 013.5 6.48c.1.83.67 1.08 1.95 1.62l2.1.87-3.77 1.27z"/>
  <defs>
    <linearGradient id="paint0_linear" x1="65.78" x2="12.11" y1="28.58" y2="28.58" gradientUnits="userSpaceOnUse">
      <stop stop-color="#0DA6F2"/>
      <stop offset="1" stop-color="#F2390B"/>
    </linearGradient>
    <linearGradient id="paint1_linear" x1="65.78" x2="12.11" y1="28.58" y2="28.58" gradientUnits="userSpaceOnUse">
      <stop stop-color="#0DA6F2"/>
      <stop offset="1" stop-color="#F2390B"/>
    </linearGradient>
    <linearGradient id="paint2_linear" x1="65.78" x2="12.11" y1="28.58" y2="28.58" gradientUnits="userSpaceOnUse">
      <stop stop-color="#0DA6F2"/>
      <stop offset="1" stop-color="#F2390B"/>
    </linearGradient>
    <linearGradient id="paint3_linear" x1="65.78" x2="12.11" y1="28.58" y2="28.58" gradientUnits="userSpaceOnUse">
      <stop stop-color="#0DA6F2"/>
      <stop offset="1" stop-color="#F2390B"/>
    </linearGradient>
    <linearGradient id="paint4_linear" x1="65.78" x2="12.11" y1="28.58" y2="28.58" gradientUnits="userSpaceOnUse">
      <stop stop-color="#0DA6F2"/>
      <stop offset="1" stop-color="#F2390B"/>
    </linearGradient>
    <linearGradient id="paint5_linear" x1="65.78" x2="12.11" y1="28.58" y2="28.58" gradientUnits="userSpaceOnUse">
      <stop stop-color="#0DA6F2"/>
      <stop offset="1" stop-color="#F2390B"/>
    </linearGradient>
    <linearGradient id="paint6_linear" x1="65.78" x2="12.11" y1="28.58" y2="28.58" gradientUnits="userSpaceOnUse">
      <stop stop-color="#0DA6F2"/>
      <stop offset="1" stop-color="#F2390B"/>
    </linearGradient>
    <linearGradient id="paint7_linear" x1="65.78" x2="12.11" y1="28.58" y2="28.58" gradientUnits="userSpaceOnUse">
      <stop stop-color="#0DA6F2"/>
      <stop offset="1" stop-color="#F2390B"/>
    </linearGradient>
    <linearGradient id="paint8_linear" x1="65.78" x2="12.11" y1="28.58" y2="28.58" gradientUnits="userSpaceOnUse">
      <stop stop-color="#0DA6F2"/>
      <stop offset="1" stop-color="#F2390B"/>
    </linearGradient>
    <linearGradient id="paint9_linear" x1="65.78" x2="12.11" y1="28.58" y2="28.58" gradientUnits="userSpaceOnUse">
      <stop stop-color="#0DA6F2"/>
      <stop offset="1" stop-color="#F2390B"/>
    </linearGradient>
  </defs>
</svg>
