<svg width="84" height="84" viewBox="0 0 84 84" fill="none" xmlns="http://www.w3.org/2000/svg">
<path d="M1.65421 39.5247C1.26577 38.6703 1.63679 37.6601 2.48278 37.2677C6.7037 35.3106 12.1175 33.6988 18.5735 32.4771C19.4882 32.3024 20.3692 32.9125 20.5408 33.8365C20.7123 34.7604 20.1094 35.6498 19.1945 35.8229C13.0095 36.9933 7.86002 38.5204 3.8895 40.3612C3.66176 40.4669 3.42259 40.5168 3.18717 40.5168C2.5487 40.5168 1.93814 40.1486 1.65421 39.5247ZM3.18717 53.8951C3.42109 53.8951 3.65857 53.8457 3.88519 53.7413C7.11442 52.2557 11.0158 51.0117 15.8127 49.9395C16.7216 49.7363 17.2952 48.8275 17.0939 47.9097C16.8926 46.992 15.9926 46.412 15.0837 46.616C10.0541 47.7407 5.93375 49.0582 2.48727 50.6441C1.64016 51.0338 1.26634 52.0431 1.65234 52.8987C1.93496 53.525 2.54701 53.8951 3.18717 53.8951ZM57.3467 27.7885C57.4225 27.7885 57.4993 27.7834 57.5767 27.7726C65.6464 26.6608 74.805 25.0817 81.5461 21.7993C82.3845 21.3911 82.7365 20.3738 82.3321 19.527C81.9279 18.6803 80.9201 18.3254 80.0816 18.7333C73.7638 21.8096 64.9294 23.324 57.1208 24.4C56.1984 24.5271 55.5527 25.3851 55.6785 26.3165C55.7939 27.1695 56.517 27.7885 57.3467 27.7885ZM80.0807 32.1118C77.1405 33.546 73.4584 34.7434 68.8241 35.7726C67.915 35.9744 67.34 36.8825 67.5399 37.8006C67.7131 38.5954 68.4104 39.1372 69.1846 39.1372C69.3045 39.1372 69.4264 39.1244 69.5482 39.0971C74.4424 38.0103 78.3672 36.728 81.5472 35.1767C82.3855 34.7678 82.7366 33.7502 82.3317 32.9038C81.9268 32.0573 80.9186 31.7029 80.0807 32.1118ZM80.0816 45.4895C76.4387 47.2635 71.5572 48.7008 65.1587 49.8837C64.2428 50.0529 63.6366 50.9397 63.8042 51.8644C63.9531 52.6855 64.6622 53.2602 65.4604 53.2602C65.5612 53.2602 65.6632 53.251 65.7659 53.2321C72.5588 51.9764 77.5731 50.4905 81.5462 48.5555C82.3847 48.1472 82.7366 47.1298 82.3323 46.2832C81.9279 45.4363 80.9205 45.0814 80.0816 45.4895ZM47.9399 31.9276C41.9379 31.9276 37.0549 36.8581 37.0549 42.9185C37.0549 46.2662 38.5388 49.3905 41.126 51.4896C41.8516 52.0785 42.9126 51.9616 43.4958 51.229C44.0788 50.4962 43.9634 49.4249 43.2377 48.8362C41.4508 47.3865 40.4261 45.2295 40.4261 42.9185C40.4261 38.735 43.7967 35.3316 47.9399 35.3316C52.0831 35.3316 55.4538 38.735 55.4538 42.9185C55.4538 50.409 49.4184 56.5031 41.9999 56.5031C34.5816 56.5031 28.5464 50.409 28.5464 42.9185C28.5464 39.5446 29.7793 36.3098 32.0185 33.8102C34.4134 31.1359 37.3403 29.2023 40.171 27.3318C45.3979 23.8782 50.8028 20.3071 51.2527 12.4435C51.3883 10.0739 50.5427 7.78451 48.8719 5.99703C47.0913 4.09249 44.5867 3 42.0003 3C36.8968 3 32.745 7.19221 32.745 12.3453V21.2265C32.745 22.1666 33.4996 22.9285 34.4306 22.9285C35.3616 22.9285 36.1162 22.1666 36.1162 21.2265V12.3455C36.1162 9.06952 38.7559 6.40419 42.0003 6.40419C43.663 6.40419 45.2741 7.10749 46.4205 8.33388C47.4479 9.43299 47.969 10.8228 47.8875 12.2472C47.5356 18.3978 43.471 21.0836 38.3255 24.4834C35.3163 26.4717 32.2045 28.5277 29.5186 31.5266C26.7179 34.6534 25.1758 38.6991 25.1758 42.9183C25.1758 52.2858 32.7233 59.9069 42.0005 59.9069C51.2778 59.9069 58.8255 52.2858 58.8255 42.9183C58.825 36.8581 53.942 31.9276 47.9399 31.9276ZM45.9036 66.2508C42.9526 66.2508 40.5518 68.6749 40.5518 71.6547C40.5518 72.5948 41.3064 73.3567 42.2374 73.3567C43.1684 73.3567 43.923 72.5948 43.923 71.6547C43.923 70.552 44.8115 69.6548 45.9036 69.6548C46.9958 69.6548 47.8843 70.552 47.8843 71.6547C47.8843 71.6874 47.8853 71.7201 47.8871 71.7528C47.9686 73.1774 47.4476 74.5674 46.4201 75.6663C45.2737 76.8927 43.6626 77.596 41.9999 77.596C38.7555 77.596 36.1159 74.9307 36.1159 71.6547V62.7735C36.1159 61.8334 35.3613 61.0715 34.4303 61.0715C33.4992 61.0715 32.7447 61.8334 32.7447 62.7735V71.6547C32.7447 76.8078 36.8965 81 41.9999 81C44.5865 81 47.0911 79.9077 48.8715 78.003C50.5313 76.2272 51.3767 73.9567 51.2551 71.6038C51.2282 68.6475 48.8378 66.2508 45.9036 66.2508ZM20.6758 58.8668C12.9058 60.2343 7.12472 61.8729 2.48296 64.0241C1.63679 64.4161 1.26577 65.4265 1.65402 66.2809C1.93777 66.9054 2.54851 67.2734 3.18717 67.2734C3.42221 67.2734 3.66138 67.2234 3.88912 67.1179C8.26006 65.0925 13.7781 63.5365 21.2547 62.2205C22.1719 62.059 22.7856 61.1776 22.6258 60.2515C22.4661 59.3252 21.5928 58.7068 20.6758 58.8668Z" fill="url(#paint0_linear)"/>
<defs>
<linearGradient id="paint0_linear" x1="66.03" y1="31.5828" x2="13.38" y2="31.5828" gradientUnits="userSpaceOnUse">
<stop stop-color="#0DA6F2"/>
<stop offset="1" stop-color="#F2390B"/>
</linearGradient>
</defs>
</svg>
