<svg width="70" height="70" viewBox="0 0 70 70" fill="none" xmlns="http://www.w3.org/2000/svg">
<path d="M43.3443 14.0371C43.0631 13.9381 42.6881 14.0371 42.5944 14.334C42.5006 14.433 35.657 25.4186 20.4699 27.101V40.2639C35.657 41.9464 42.5006 52.932 42.5006 53.031C42.8756 53.6248 43.8131 53.4268 43.8131 52.6351V14.7299C43.8131 14.433 43.6256 14.1361 43.3443 14.0371Z" fill="url(#paint0_linear)"/>
<path d="M49.8135 33.7319C49.8135 30.6639 47.8448 27.9917 45.2199 27.002V40.3629C47.8448 39.4721 49.8135 36.8 49.8135 33.7319Z" fill="url(#paint1_linear)"/>
<path d="M50.2825 47.8846C50.3762 48.1815 50.6575 48.3794 50.9387 48.3794C51.0325 48.3794 51.0325 48.3794 51.1262 48.3794C64.6259 44.1237 64.6259 23.2412 51.1262 18.9856C50.7512 18.8866 50.3762 19.0845 50.2825 19.4804C50.1887 19.8763 50.3762 20.2722 50.7512 20.3711C62.9385 24.2309 62.9385 43.0351 50.7512 46.8949C50.3762 47.0928 50.1887 47.4887 50.2825 47.8846Z" fill="url(#paint2_linear)"/>
<path d="M51.2191 14.235C50.8441 14.136 50.4691 14.334 50.3753 14.7299C50.2816 15.1257 50.4691 15.5216 50.8441 15.6206C67.8124 20.4701 67.8124 46.8948 50.8441 51.7443C50.4691 51.8433 50.2816 52.2392 50.3753 52.6351C50.4691 53.0309 50.8441 53.2289 51.2191 53.1299C69.5936 47.9835 69.5936 19.3814 51.2191 14.235Z" fill="url(#paint3_linear)"/>
<path d="M50.8442 42.1443C50.4692 42.2433 50.2817 42.7381 50.4692 43.134C50.563 43.4309 50.8442 43.6289 51.1255 43.6289C51.2192 43.6289 51.313 43.6289 51.4067 43.6289C59.9378 40.3629 59.9378 27.2 51.4067 23.934C51.0317 23.835 50.6567 24.033 50.4692 24.3299C50.3755 24.7258 50.563 25.1216 50.8442 25.3196C58.0628 28.0907 58.0628 39.3732 50.8442 42.1443Z" fill="url(#paint4_linear)"/>
<path d="M19.0641 38.6804V27.2C18.3141 27.2989 17.4704 27.2989 16.6266 27.2989C13.908 27.2989 11.0955 27.002 8.28309 26.4082C8.28309 26.4082 8.0956 26.4082 7.9081 26.4082C6.31439 26.4082 5.00192 27.5958 5.00192 30.5649V36.8C4.90817 41.4515 8.28309 41.0557 8.28309 40.9567C9.03307 40.8577 9.78306 40.6598 10.533 40.5608C10.533 41.5505 10.4393 41.8474 10.6268 42.0453C12.408 44.8165 13.7205 50.2598 13.908 50.8536C14.0017 52.4371 14.5642 54.7134 15.8767 55.3072C17.0954 55.8021 18.3141 56 19.4391 56C22.2515 56 23.6577 54.5155 23.7515 54.5155C23.7515 54.4165 23.8452 54.4165 23.8452 54.4165C25.6264 51.3484 21.5953 48.0825 21.4078 47.9835C18.8766 45.6082 18.4079 41.7484 18.3141 40.066C18.5016 40.066 18.7828 40.066 18.9703 40.066V38.6804H19.0641ZM11.8455 36.701C10.2518 36.701 9.03307 35.4144 9.03307 33.7319C9.03307 32.0495 10.2518 30.7629 11.8455 30.7629C13.4392 30.7629 14.6579 32.0495 14.6579 33.7319C14.6579 35.4144 13.4392 36.701 11.8455 36.701Z" fill="url(#paint5_linear)"/>
<path d="M11.8458 32.2474C11.0958 32.2474 10.4396 32.9402 10.4396 33.7319C10.4396 34.5237 11.0958 35.2165 11.8458 35.2165C12.5958 35.2165 13.252 34.5237 13.252 33.7319C13.252 32.8412 12.6895 32.2474 11.8458 32.2474Z" fill="url(#paint6_linear)"/>
<defs>
<linearGradient id="paint0_linear" x1="5.29459" y1="33.2797" x2="45.4512" y2="33.2797" gradientUnits="userSpaceOnUse">
<stop stop-color="#F3461B"/>
<stop offset="1" stop-color="#0DA6F2"/>
</linearGradient>
<linearGradient id="paint1_linear" x1="5.29459" y1="33.2797" x2="45.4512" y2="33.2797" gradientUnits="userSpaceOnUse">
<stop stop-color="#F3461B"/>
<stop offset="1" stop-color="#0DA6F2"/>
</linearGradient>
<linearGradient id="paint2_linear" x1="5.29459" y1="33.2797" x2="45.4512" y2="33.2797" gradientUnits="userSpaceOnUse">
<stop stop-color="#F3461B"/>
<stop offset="1" stop-color="#0DA6F2"/>
</linearGradient>
<linearGradient id="paint3_linear" x1="5.29459" y1="33.2797" x2="45.4512" y2="33.2797" gradientUnits="userSpaceOnUse">
<stop stop-color="#F3461B"/>
<stop offset="1" stop-color="#0DA6F2"/>
</linearGradient>
<linearGradient id="paint4_linear" x1="5.29459" y1="33.2797" x2="45.4512" y2="33.2797" gradientUnits="userSpaceOnUse">
<stop stop-color="#F3461B"/>
<stop offset="1" stop-color="#0DA6F2"/>
</linearGradient>
<linearGradient id="paint5_linear" x1="5.29459" y1="33.2797" x2="45.4512" y2="33.2797" gradientUnits="userSpaceOnUse">
<stop stop-color="#F3461B"/>
<stop offset="1" stop-color="#0DA6F2"/>
</linearGradient>
<linearGradient id="paint6_linear" x1="5.29459" y1="33.2797" x2="45.4512" y2="33.2797" gradientUnits="userSpaceOnUse">
<stop stop-color="#F3461B"/>
<stop offset="1" stop-color="#0DA6F2"/>
</linearGradient>
</defs>
</svg>
