<svg width="70" height="70" viewBox="0 0 70 70" fill="none" xmlns="http://www.w3.org/2000/svg">
<path d="M42.913 37.9146C42.6132 37.9146 42.3257 37.8061 42.1137 37.6131C41.9017 37.42 41.7826 37.1581 41.7826 36.8851V33.7966H36.1304C34.9312 33.7966 33.7811 33.3627 32.9331 32.5904C32.0851 31.8182 31.6087 30.7707 31.6087 29.6786V17.3245C31.6087 16.2324 32.0851 15.1849 32.9331 14.4127C33.7811 13.6404 34.9312 13.2065 36.1304 13.2065H47.4348V8.05901C47.4348 7.51292 47.1966 6.98921 46.7726 6.60307C46.3486 6.21693 45.7735 6 45.1739 6H11.2609C10.6612 6 10.0862 6.21693 9.66219 6.60307C9.2382 6.98921 9 7.51292 9 8.05901V61.5932C9 62.1392 9.2382 62.663 9.66219 63.0491C10.0862 63.4352 10.6612 63.6522 11.2609 63.6522H45.1739C45.7735 63.6522 46.3486 63.4352 46.7726 63.0491C47.1966 62.663 47.4348 62.1392 47.4348 61.5932V35.3769L43.5404 37.7447C43.3541 37.8561 43.1359 37.9152 42.913 37.9146ZM39.5217 35.8556V37.9146H19.1739V35.8556H39.5217ZM29.3478 8.05901H31.6087V10.118H29.3478V8.05901ZM24.8261 8.05901H27.087V10.118H24.8261V8.05901ZM11.2609 28.6491C11.2609 27.8299 11.6182 27.0444 12.2542 26.4652C12.8902 25.886 13.7527 25.5606 14.6522 25.5606C15.0381 25.564 15.4206 25.6281 15.7826 25.75V17.3245C15.7826 17.1031 15.861 16.8875 16.0062 16.7098C16.1514 16.5321 16.3556 16.4018 16.5886 16.3383L27.893 13.2498C28.0617 13.2037 28.24 13.1942 28.4135 13.2221C28.5871 13.2499 28.751 13.3143 28.8924 13.4101C29.0337 13.5059 29.1485 13.6305 29.2276 13.7739C29.3067 13.9173 29.3478 14.0756 29.3478 14.236V25.5606C29.3478 26.1714 29.1489 26.7685 28.7763 27.2764C28.4037 27.7843 27.874 28.1802 27.2543 28.414C26.6346 28.6477 25.9528 28.7089 25.2949 28.5897C24.6371 28.4706 24.0328 28.1764 23.5585 27.7445C23.0842 27.3125 22.7612 26.7622 22.6304 26.1631C22.4995 25.564 22.5667 24.943 22.8234 24.3786C23.08 23.8143 23.5147 23.3319 24.0724 22.9926C24.6301 22.6532 25.2858 22.472 25.9565 22.472C26.3425 22.4755 26.7249 22.5395 27.087 22.6615V19.7377L18.0435 22.2085V28.6491C18.0435 29.4682 17.6862 30.2538 17.0502 30.833C16.4142 31.4122 15.5516 31.7376 14.6522 31.7376C13.7527 31.7376 12.8902 31.4122 12.2542 30.833C11.6182 30.2538 11.2609 29.4682 11.2609 28.6491ZM16.913 35.8556V37.9146H14.6522V35.8556H16.913ZM12.3913 44.0916H39.5217V46.1506H12.3913V44.0916ZM14.6522 55.4161H12.3913V51.2981H14.6522V55.4161ZM19.1739 55.4161H16.913V51.2981H19.1739V55.4161ZM29.3478 61.5932H27.087V59.5342H29.3478V61.5932ZM29.3478 55.4161H27.087V54.3866H21.4348V52.3276H27.087V51.2981H29.3478V55.4161ZM44.0435 54.3866H31.6087V52.3276H44.0435V54.3866ZM44.0435 42.0326H12.3913V39.9736H44.0435V42.0326Z" fill="url(#paint0_linear)"/>
<path d="M25.9565 26.5901C26.5808 26.5901 27.087 26.1292 27.087 25.5606C27.087 24.992 26.5808 24.5311 25.9565 24.5311C25.3322 24.5311 24.8261 24.992 24.8261 25.5606C24.8261 26.1292 25.3322 26.5901 25.9565 26.5901Z" fill="url(#paint1_linear)"/>
<path d="M14.6522 29.6786C15.2765 29.6786 15.7826 29.2176 15.7826 28.6491C15.7826 28.0805 15.2765 27.6196 14.6522 27.6196C14.0279 27.6196 13.5217 28.0805 13.5217 28.6491C13.5217 29.2176 14.0279 29.6786 14.6522 29.6786Z" fill="url(#paint2_linear)"/>
<path d="M27.087 15.6197L18.0435 18.0905V20.0589L27.087 17.5881V15.6197Z" fill="url(#paint3_linear)"/>
<path d="M58.7391 15.2655H36.1304C35.5308 15.2655 34.9558 15.4824 34.5318 15.8686C34.1078 16.2547 33.8696 16.7784 33.8696 17.3245V29.6786C33.8696 30.2246 34.1078 30.7484 34.5318 31.1345C34.9558 31.5206 35.5308 31.7376 36.1304 31.7376H42.913C43.2129 31.7376 43.5004 31.846 43.7124 32.0391C43.9244 32.2322 44.0435 32.494 44.0435 32.7671V34.962L49.0683 31.9105C49.2542 31.798 49.4724 31.7379 49.6957 31.7376H58.7391C59.3388 31.7376 59.9138 31.5206 60.3378 31.1345C60.7618 30.7484 61 30.2246 61 29.6786V17.3245C61 16.7784 60.7618 16.2547 60.3378 15.8686C59.9138 15.4824 59.3388 15.2655 58.7391 15.2655ZM57.6087 28.649H37.2609V26.59H39.5217V23.5015H41.7826V26.59H44.0435V18.354H46.3043V26.59H48.5652V21.4425H50.8261V26.59H53.087V19.3835H55.3478V26.59H57.6087V28.649Z" fill="url(#paint4_linear)"/>
<defs>
<linearGradient id="paint0_linear" x1="9.25531" y1="32.4646" x2="44.0577" y2="32.4646" gradientUnits="userSpaceOnUse">
<stop stop-color="#F3461B"/>
<stop offset="1" stop-color="#0DA6F2"/>
</linearGradient>
<linearGradient id="paint1_linear" x1="9.25531" y1="32.4646" x2="44.0577" y2="32.4646" gradientUnits="userSpaceOnUse">
<stop stop-color="#F3461B"/>
<stop offset="1" stop-color="#0DA6F2"/>
</linearGradient>
<linearGradient id="paint2_linear" x1="9.25531" y1="32.4646" x2="44.0577" y2="32.4646" gradientUnits="userSpaceOnUse">
<stop stop-color="#F3461B"/>
<stop offset="1" stop-color="#0DA6F2"/>
</linearGradient>
<linearGradient id="paint3_linear" x1="9.25531" y1="32.4646" x2="44.0577" y2="32.4646" gradientUnits="userSpaceOnUse">
<stop stop-color="#F3461B"/>
<stop offset="1" stop-color="#0DA6F2"/>
</linearGradient>
<linearGradient id="paint4_linear" x1="9.25531" y1="32.4646" x2="44.0577" y2="32.4646" gradientUnits="userSpaceOnUse">
<stop stop-color="#F3461B"/>
<stop offset="1" stop-color="#0DA6F2"/>
</linearGradient>
</defs>
</svg>
