<svg width="70" height="70" viewBox="0 0 70 70" fill="none" xmlns="http://www.w3.org/2000/svg">
<path d="M55.9896 22.2003C55.9848 22.1174 55.9677 22.0356 55.9389 21.9573C55.9305 21.9343 55.9264 21.9106 55.916 21.8885C55.8766 21.8007 55.8226 21.7197 55.7561 21.6488L43.8866 9.28208C43.8819 9.27729 43.8758 9.27481 43.871 9.27011C43.855 9.2541 43.8349 9.2438 43.8176 9.22898C43.7547 9.17405 43.684 9.12799 43.6078 9.09214C43.5792 9.0796 43.55 9.06857 43.5202 9.05909C43.4398 9.0314 43.3557 9.01499 43.2705 9.01034C43.252 9.00928 43.2363 9 43.2174 9H16.7391C16.0129 9.00077 15.3167 9.28021 14.8031 9.77701C14.2896 10.2738 14.0008 10.9474 14 11.65V59.35C14.0008 60.0526 14.2896 60.7262 14.8031 61.223C15.3167 61.7198 16.0129 61.9992 16.7391 62H53.2609C53.9871 61.9992 54.6833 61.7198 55.1969 61.223C55.7104 60.7262 55.9992 60.0526 56 59.35V22.25C56 22.2323 55.9907 22.2177 55.9896 22.2003ZM18.5741 58.4667C18.4542 58.4672 18.3354 58.4449 18.2244 58.4011C18.1134 58.3572 18.0124 58.2926 17.9272 58.211C17.842 58.1294 17.7743 58.0323 17.7278 57.9254C17.6814 57.8184 17.6572 57.7037 17.6566 57.5877C17.656 57.4716 17.6791 57.3567 17.7244 57.2493C17.7698 57.1419 17.8365 57.0442 17.9209 56.9618C18.0053 56.8793 18.1056 56.8138 18.2162 56.7689C18.3267 56.724 18.4453 56.7006 18.5652 56.7H18.5741C18.8163 56.7 19.0485 56.7931 19.2198 56.9587C19.391 57.1244 19.4872 57.3491 19.4872 57.5833C19.4872 57.8176 19.391 58.0423 19.2198 58.2079C19.0485 58.3736 18.8163 58.4667 18.5741 58.4667ZM18.5741 54.9333C18.4542 54.9339 18.3354 54.9116 18.2244 54.8677C18.1134 54.8239 18.0124 54.7593 17.9272 54.6777C17.842 54.596 17.7743 54.499 17.7278 54.392C17.6814 54.2851 17.6572 54.1703 17.6566 54.0543C17.656 53.9383 17.6791 53.8233 17.7244 53.716C17.7698 53.6086 17.8365 53.5109 17.9209 53.4284C18.0053 53.346 18.1056 53.2805 18.2162 53.2356C18.3267 53.1906 18.4453 53.1672 18.5652 53.1667H18.5741C18.8163 53.1667 19.0485 53.2597 19.2198 53.4254C19.391 53.591 19.4872 53.8157 19.4872 54.05C19.4872 54.2843 19.391 54.509 19.2198 54.6746C19.0485 54.8403 18.8163 54.9333 18.5741 54.9333ZM18.5741 51.4C18.4542 51.4006 18.3354 51.3783 18.2244 51.3344C18.1134 51.2905 18.0124 51.226 17.9272 51.1443C17.842 51.0627 17.7743 50.9656 17.7278 50.8587C17.6814 50.7517 17.6572 50.637 17.6566 50.521C17.656 50.405 17.6791 50.29 17.7244 50.1826C17.7698 50.0752 17.8365 49.9775 17.9209 49.8951C18.0053 49.8127 18.1056 49.7471 18.2162 49.7022C18.3267 49.6573 18.4453 49.6339 18.5652 49.6333H18.5741C18.8163 49.6333 19.0485 49.7264 19.2198 49.8921C19.391 50.0577 19.4872 50.2824 19.4872 50.5167C19.4872 50.7509 19.391 50.9756 19.2198 51.1413C19.0485 51.3069 18.8163 51.4 18.5741 51.4ZM18.5741 47.8667C18.4542 47.8672 18.3354 47.8449 18.2244 47.8011C18.1134 47.7572 18.0124 47.6926 17.9272 47.611C17.842 47.5294 17.7743 47.4323 17.7278 47.3254C17.6814 47.2184 17.6572 47.1036 17.6566 46.9876C17.656 46.8716 17.6791 46.7567 17.7244 46.6493C17.7698 46.5419 17.8365 46.4442 17.9209 46.3618C18.0053 46.2794 18.1056 46.2138 18.2162 46.1689C18.3267 46.124 18.4453 46.1006 18.5652 46.1H18.5741C18.8163 46.1 19.0485 46.1931 19.2198 46.3587C19.391 46.5244 19.4872 46.7491 19.4872 46.9833C19.4872 47.2176 19.391 47.4423 19.2198 47.6079C19.0485 47.7736 18.8163 47.8667 18.5741 47.8667ZM18.5741 44.3333C18.4542 44.3339 18.3354 44.3116 18.2244 44.2677C18.1134 44.2239 18.0124 44.1593 17.9272 44.0777C17.842 43.996 17.7743 43.899 17.7278 43.792C17.6814 43.6851 17.6572 43.5703 17.6566 43.4543C17.656 43.3383 17.6791 43.2233 17.7244 43.1159C17.7698 43.0086 17.8365 42.9109 17.9209 42.8284C18.0053 42.746 18.1056 42.6805 18.2162 42.6356C18.3267 42.5906 18.4453 42.5672 18.5652 42.5667H18.5741C18.8163 42.5667 19.0485 42.6597 19.2198 42.8254C19.391 42.991 19.4872 43.2157 19.4872 43.45C19.4872 43.6843 19.391 43.909 19.2198 44.0746C19.0485 44.2403 18.8163 44.3333 18.5741 44.3333ZM18.5741 40.8C18.4542 40.8006 18.3354 40.7783 18.2244 40.7344C18.1134 40.6905 18.0124 40.626 17.9272 40.5443C17.842 40.4627 17.7743 40.3656 17.7278 40.2587C17.6814 40.1517 17.6572 40.037 17.6566 39.921C17.656 39.805 17.6791 39.69 17.7244 39.5826C17.7698 39.4752 17.8365 39.3775 17.9209 39.2951C18.0053 39.2127 18.1056 39.1471 18.2162 39.1022C18.3267 39.0573 18.4453 39.0339 18.5652 39.0333H18.5741C18.8163 39.0333 19.0485 39.1264 19.2198 39.2921C19.391 39.4577 19.4872 39.6824 19.4872 39.9167C19.4872 40.1509 19.391 40.3756 19.2198 40.5413C19.0485 40.7069 18.8163 40.8 18.5741 40.8ZM18.5741 37.2667C18.4542 37.2672 18.3354 37.2449 18.2244 37.2011C18.1134 37.1572 18.0124 37.0926 17.9272 37.011C17.842 36.9294 17.7743 36.8323 17.7278 36.7254C17.6814 36.6184 17.6572 36.5036 17.6566 36.3876C17.656 36.2716 17.6791 36.1567 17.7244 36.0493C17.7698 35.9419 17.8365 35.8442 17.9209 35.7618C18.0053 35.6793 18.1056 35.6138 18.2162 35.5689C18.3267 35.524 18.4453 35.5006 18.5652 35.5H18.5741C18.8163 35.5 19.0485 35.5931 19.2198 35.7587C19.391 35.9244 19.4872 36.1491 19.4872 36.3833C19.4872 36.6176 19.391 36.8423 19.2198 37.0079C19.0485 37.1736 18.8163 37.2667 18.5741 37.2667ZM18.5741 33.7333C18.4542 33.7339 18.3354 33.7116 18.2244 33.6677C18.1134 33.6239 18.0124 33.5593 17.9272 33.4777C17.842 33.396 17.7743 33.299 17.7278 33.192C17.6814 33.0851 17.6572 32.9703 17.6566 32.8543C17.656 32.7383 17.6791 32.6233 17.7244 32.5159C17.7698 32.4086 17.8365 32.3109 17.9209 32.2284C18.0053 32.146 18.1056 32.0805 18.2162 32.0356C18.3267 31.9906 18.4453 31.9672 18.5652 31.9667H18.5741C18.8163 31.9667 19.0485 32.0597 19.2198 32.2254C19.391 32.391 19.4872 32.6157 19.4872 32.85C19.4872 33.0843 19.391 33.309 19.2198 33.4746C19.0485 33.6403 18.8163 33.7333 18.5741 33.7333ZM18.5741 30.2C18.332 30.2011 18.0993 30.1092 17.9272 29.9443C17.7551 29.7795 17.6578 29.5553 17.6566 29.321C17.6555 29.0867 17.7505 28.8616 17.9209 28.6951C18.0913 28.5286 18.3231 28.4345 18.5652 28.4333H18.5741C18.8163 28.4333 19.0485 28.5264 19.2198 28.6921C19.391 28.8577 19.4872 29.0824 19.4872 29.3167C19.4872 29.5509 19.391 29.7756 19.2198 29.9413C19.0485 30.1069 18.8163 30.2 18.5741 30.2ZM18.5741 26.6667C18.4542 26.6672 18.3354 26.6449 18.2244 26.6011C18.1134 26.5572 18.0124 26.4926 17.9272 26.411C17.842 26.3294 17.7743 26.2323 17.7278 26.1254C17.6814 26.0184 17.6572 25.9036 17.6566 25.7876C17.656 25.6716 17.6791 25.5567 17.7244 25.4493C17.7698 25.3419 17.8365 25.2442 17.9209 25.1618C18.0053 25.0793 18.1056 25.0138 18.2162 24.9689C18.3267 24.924 18.4453 24.9006 18.5652 24.9H18.5741C18.8163 24.9 19.0485 24.9931 19.2198 25.1587C19.391 25.3244 19.4872 25.5491 19.4872 25.7833C19.4872 26.0176 19.391 26.2423 19.2198 26.4079C19.0485 26.5736 18.8163 26.6667 18.5741 26.6667ZM18.5741 23.1333C18.332 23.1345 18.0993 23.0425 17.9272 22.8777C17.7551 22.7128 17.6578 22.4886 17.6566 22.2543C17.6555 22.02 17.7505 21.7949 17.9209 21.6284C18.0913 21.462 18.3231 21.3678 18.5652 21.3667H18.5741C18.8163 21.3667 19.0485 21.4597 19.2198 21.6254C19.391 21.791 19.4872 22.0157 19.4872 22.25C19.4872 22.4843 19.391 22.709 19.2198 22.8746C19.0485 23.0403 18.8163 23.1333 18.5741 23.1333ZM18.5741 19.6C18.332 19.6011 18.0993 19.5092 17.9272 19.3443C17.7551 19.1795 17.6578 18.9553 17.6566 18.721C17.6555 18.4867 17.7505 18.2616 17.9209 18.0951C18.0913 17.9286 18.3231 17.8345 18.5652 17.8333H18.5741C18.8163 17.8333 19.0485 17.9264 19.2198 18.0921C19.391 18.2577 19.4872 18.4824 19.4872 18.7167C19.4872 18.9509 19.391 19.1756 19.2198 19.3413C19.0485 19.5069 18.8163 19.6 18.5741 19.6ZM43.7069 46.9514C43.7071 47.6566 43.4911 48.346 43.0863 48.9324C42.6814 49.5188 42.106 49.9759 41.4326 50.2459C40.7592 50.5159 40.0183 50.5866 39.3033 50.4491C38.5884 50.3117 37.9317 49.9722 37.4163 49.4736C36.9008 48.975 36.5497 48.3397 36.4075 47.6481C36.2652 46.9565 36.3381 46.2396 36.617 45.5881C36.8959 44.9366 37.3682 44.3797 37.9743 43.9879C38.5803 43.5961 39.2928 43.387 40.0217 43.387C40.6768 43.3904 41.3189 43.5646 41.8803 43.8913L41.879 37.6859C41.2784 37.386 40.6038 37.2523 39.9296 37.2997C39.2555 37.347 38.6079 37.5735 38.0583 37.9541C37.4523 38.4333 36.7439 38.7765 35.9842 38.9589C35.2246 39.1413 34.4325 39.1585 33.6652 39.0091V48.8716H33.6541C33.635 49.5719 33.403 50.2512 32.9868 50.8245C32.5707 51.3979 31.9891 51.8397 31.3147 52.0948C30.6403 52.3499 29.9031 52.4069 29.1954 52.2587C28.4877 52.1105 27.8409 51.7636 27.3359 51.2615C26.8309 50.7594 26.4902 50.1244 26.3565 49.4359C26.2227 48.7474 26.3018 48.0361 26.5838 47.3909C26.8659 46.7456 27.3383 46.1952 27.9421 45.8085C28.5459 45.4218 29.2542 45.2159 29.9783 45.2167C30.6341 45.2201 31.2768 45.3946 31.8386 45.7219L31.8373 37.7929C31.8368 37.6418 31.8763 37.4931 31.9521 37.3609C32.0279 37.2288 32.1374 37.1178 32.2703 37.0383C32.4031 36.9589 32.5548 36.9137 32.7108 36.9072C32.8668 36.9006 33.022 36.9329 33.1614 37.001C33.7488 37.2635 34.398 37.3695 35.042 37.3081C35.6859 37.2467 36.3012 37.02 36.8243 36.6516C37.7517 35.8841 38.9389 35.4741 40.1591 35.5C41.3281 35.4801 42.4677 35.8547 43.3823 36.5593C43.4828 36.6421 43.5636 36.745 43.6191 36.8608C43.6747 36.9767 43.7037 37.1027 43.7042 37.2304L43.7069 46.7263H43.6834C43.6884 46.8022 43.7069 46.8743 43.7069 46.9514ZM51.4348 58.4667C51.3149 58.4672 51.196 58.4449 51.085 58.4011C50.974 58.3572 50.8731 58.2926 50.7879 58.211C50.7027 58.1294 50.6349 58.0323 50.5885 57.9254C50.5421 57.8184 50.5179 57.7037 50.5173 57.5877C50.5167 57.4716 50.5397 57.3567 50.5851 57.2493C50.6304 57.1419 50.6972 57.0442 50.7816 56.9618C50.8659 56.8793 50.9662 56.8138 51.0768 56.7689C51.1873 56.724 51.306 56.7006 51.4259 56.7H51.4348C51.6769 56.7 51.9092 56.7931 52.0804 56.9587C52.2516 57.1244 52.3478 57.3491 52.3478 57.5833C52.3478 57.8176 52.2516 58.0423 52.0804 58.2079C51.9092 58.3736 51.6769 58.4667 51.4348 58.4667ZM51.4348 54.9333C51.3149 54.9339 51.196 54.9116 51.085 54.8677C50.974 54.8239 50.8731 54.7593 50.7879 54.6777C50.7027 54.596 50.6349 54.499 50.5885 54.392C50.5421 54.2851 50.5179 54.1703 50.5173 54.0543C50.5167 53.9383 50.5397 53.8233 50.5851 53.716C50.6304 53.6086 50.6972 53.5109 50.7816 53.4284C50.8659 53.346 50.9662 53.2805 51.0768 53.2356C51.1873 53.1906 51.306 53.1672 51.4259 53.1667H51.4348C51.6769 53.1667 51.9092 53.2597 52.0804 53.4254C52.2516 53.591 52.3478 53.8157 52.3478 54.05C52.3478 54.2843 52.2516 54.509 52.0804 54.6746C51.9092 54.8403 51.6769 54.9333 51.4348 54.9333ZM51.4348 51.4C51.3149 51.4006 51.196 51.3783 51.085 51.3344C50.974 51.2905 50.8731 51.226 50.7879 51.1443C50.7027 51.0627 50.6349 50.9656 50.5885 50.8587C50.5421 50.7517 50.5179 50.637 50.5173 50.521C50.5167 50.405 50.5397 50.29 50.5851 50.1826C50.6304 50.0752 50.6972 49.9775 50.7816 49.8951C50.8659 49.8127 50.9662 49.7471 51.0768 49.7022C51.1873 49.6573 51.306 49.6339 51.4259 49.6333H51.4348C51.6769 49.6333 51.9092 49.7264 52.0804 49.8921C52.2516 50.0577 52.3478 50.2824 52.3478 50.5167C52.3478 50.7509 52.2516 50.9756 52.0804 51.1413C51.9092 51.3069 51.6769 51.4 51.4348 51.4ZM51.4348 47.8667C51.3149 47.8672 51.196 47.8449 51.085 47.8011C50.974 47.7572 50.8731 47.6926 50.7879 47.611C50.7027 47.5294 50.6349 47.4323 50.5885 47.3254C50.5421 47.2184 50.5179 47.1036 50.5173 46.9876C50.5167 46.8716 50.5397 46.7567 50.5851 46.6493C50.6304 46.5419 50.6972 46.4442 50.7816 46.3618C50.8659 46.2794 50.9662 46.2138 51.0768 46.1689C51.1873 46.124 51.306 46.1006 51.4259 46.1H51.4348C51.6769 46.1 51.9092 46.1931 52.0804 46.3587C52.2516 46.5244 52.3478 46.7491 52.3478 46.9833C52.3478 47.2176 52.2516 47.4423 52.0804 47.6079C51.9092 47.7736 51.6769 47.8667 51.4348 47.8667ZM51.4348 44.3333C51.3149 44.3339 51.196 44.3116 51.085 44.2677C50.974 44.2239 50.8731 44.1593 50.7879 44.0777C50.7027 43.996 50.6349 43.899 50.5885 43.792C50.5421 43.6851 50.5179 43.5703 50.5173 43.4543C50.5167 43.3383 50.5397 43.2233 50.5851 43.1159C50.6304 43.0086 50.6972 42.9109 50.7816 42.8284C50.8659 42.746 50.9662 42.6805 51.0768 42.6356C51.1873 42.5906 51.306 42.5672 51.4259 42.5667H51.4348C51.6769 42.5667 51.9092 42.6597 52.0804 42.8254C52.2516 42.991 52.3478 43.2157 52.3478 43.45C52.3478 43.6843 52.2516 43.909 52.0804 44.0746C51.9092 44.2403 51.6769 44.3333 51.4348 44.3333ZM51.4348 40.8C51.3149 40.8006 51.196 40.7783 51.085 40.7344C50.974 40.6905 50.8731 40.626 50.7879 40.5443C50.7027 40.4627 50.6349 40.3656 50.5885 40.2587C50.5421 40.1517 50.5179 40.037 50.5173 39.921C50.5167 39.805 50.5397 39.69 50.5851 39.5826C50.6304 39.4752 50.6972 39.3775 50.7816 39.2951C50.8659 39.2127 50.9662 39.1471 51.0768 39.1022C51.1873 39.0573 51.306 39.0339 51.4259 39.0333H51.4348C51.6769 39.0333 51.9092 39.1264 52.0804 39.2921C52.2516 39.4577 52.3478 39.6824 52.3478 39.9167C52.3478 40.1509 52.2516 40.3756 52.0804 40.5413C51.9092 40.7069 51.6769 40.8 51.4348 40.8ZM51.4348 37.2667C51.3149 37.2672 51.196 37.2449 51.085 37.2011C50.974 37.1572 50.8731 37.0926 50.7879 37.011C50.7027 36.9294 50.6349 36.8323 50.5885 36.7254C50.5421 36.6184 50.5179 36.5036 50.5173 36.3876C50.5167 36.2716 50.5397 36.1567 50.5851 36.0493C50.6304 35.9419 50.6972 35.8442 50.7816 35.7618C50.8659 35.6793 50.9662 35.6138 51.0768 35.5689C51.1873 35.524 51.306 35.5006 51.4259 35.5H51.4348C51.6769 35.5 51.9092 35.5931 52.0804 35.7587C52.2516 35.9244 52.3478 36.1491 52.3478 36.3833C52.3478 36.6176 52.2516 36.8423 52.0804 37.0079C51.9092 37.1736 51.6769 37.2667 51.4348 37.2667ZM51.4348 33.7333C51.3149 33.7339 51.196 33.7116 51.085 33.6677C50.974 33.6239 50.8731 33.5593 50.7879 33.4777C50.7027 33.396 50.6349 33.299 50.5885 33.192C50.5421 33.0851 50.5179 32.9703 50.5173 32.8543C50.5167 32.7383 50.5397 32.6233 50.5851 32.5159C50.6304 32.4086 50.6972 32.3109 50.7816 32.2284C50.8659 32.146 50.9662 32.0805 51.0768 32.0356C51.1873 31.9906 51.306 31.9672 51.4259 31.9667H51.4348C51.6769 31.9667 51.9092 32.0597 52.0804 32.2254C52.2516 32.391 52.3478 32.6157 52.3478 32.85C52.3478 33.0843 52.2516 33.309 52.0804 33.4746C51.9092 33.6403 51.6769 33.7333 51.4348 33.7333ZM51.4348 30.2C51.1926 30.2011 50.9599 30.1092 50.7879 29.9443C50.6158 29.7795 50.5185 29.5553 50.5173 29.321C50.5161 29.0867 50.6112 28.8616 50.7816 28.6951C50.9519 28.5286 51.1837 28.4345 51.4259 28.4333H51.4348C51.6769 28.4333 51.9092 28.5264 52.0804 28.6921C52.2516 28.8577 52.3478 29.0824 52.3478 29.3167C52.3478 29.5509 52.2516 29.7756 52.0804 29.9413C51.9092 30.1069 51.6769 30.2 51.4348 30.2ZM45.0435 21.3667C44.8014 21.3664 44.5693 21.2733 44.3981 21.1077C44.227 20.9421 44.1307 20.7175 44.1304 20.4833V12.1331L52.9934 21.3667H45.0435Z" fill="url(#paint0_linear)"/>
<defs>
<linearGradient id="paint0_linear" x1="14.2062" y1="33.3291" x2="42.3158" y2="33.3291" gradientUnits="userSpaceOnUse">
<stop stop-color="#F3461B"/>
<stop offset="1" stop-color="#0DA6F2"/>
</linearGradient>
</defs>
</svg>
