<svg width="70" height="70" viewBox="0 0 70 70" fill="none" xmlns="http://www.w3.org/2000/svg">
<path d="M10.872 28.9467V59H62V28.9467H10.872ZM43.865 30.2738H48.9047L44.1392 35.0411H39.1256L43.865 30.2738ZM28.6154 30.2738H33.6942L28.9418 35.0411H23.8499L28.6154 30.2738ZM13.6661 35.0411V30.2738H18.4446L13.6922 35.0411H13.6661ZM24.5549 46.1885C24.5549 46.3375 24.4792 46.4803 24.3446 46.5856C24.2099 46.6909 24.0273 46.75 23.8368 46.75H15.4156C15.3202 46.7514 15.2254 46.7378 15.1368 46.7102C15.0481 46.6826 14.9674 46.6415 14.8994 46.5892C14.8313 46.5369 14.7772 46.4746 14.7403 46.4058C14.7034 46.337 14.6844 46.2631 14.6844 46.1885V40.1656C14.6879 40.0158 14.7664 39.873 14.9031 39.768C15.0399 39.663 15.2239 39.6042 15.4156 39.6042H23.876C23.9703 39.6042 24.0637 39.6187 24.1508 39.6469C24.2379 39.6751 24.3171 39.7165 24.3837 39.7686C24.4504 39.8208 24.5033 39.8827 24.5394 39.9508C24.5755 40.0189 24.5941 40.0919 24.5941 40.1656L24.5549 46.1885ZM55.3805 50.0881C55.3805 50.4863 55.0802 50.8538 54.6755 50.8538H28.3673C28.1344 50.8264 27.9223 50.7336 27.7708 50.5926C27.6194 50.4516 27.539 50.2722 27.5448 50.0881V49.5471C27.5464 49.4644 27.5692 49.3829 27.6116 49.3071C27.654 49.2314 27.7153 49.163 27.7918 49.106C27.8684 49.049 27.9587 49.0045 28.0575 48.9751C28.1563 48.9456 28.2616 48.9319 28.3673 48.9346H54.7016C54.8012 48.9341 54.8997 48.9501 54.9908 48.9816C55.0819 49.013 55.1634 49.0592 55.23 49.1171C55.2966 49.1749 55.3468 49.2432 55.3772 49.3173C55.4077 49.3914 55.4177 49.4697 55.4066 49.5471L55.3805 50.0881ZM55.3805 45.2085C55.3805 45.6067 55.0802 45.964 54.6755 45.964H28.3673C28.1355 45.9389 27.9236 45.8481 27.7719 45.7088C27.6202 45.5695 27.5394 45.3915 27.5448 45.2085V44.7083C27.5448 44.6239 27.566 44.5403 27.6074 44.4622C27.6487 44.3842 27.7093 44.3133 27.7857 44.2536C27.8621 44.1939 27.9527 44.1465 28.0525 44.1142C28.1523 44.0819 28.2593 44.0652 28.3673 44.0652H54.7016C54.8036 44.0674 54.9039 44.0863 54.996 44.1207C55.0881 44.155 55.17 44.2041 55.2364 44.2646C55.3028 44.3252 55.3522 44.396 55.3816 44.4724C55.4109 44.5488 55.4194 44.6292 55.4066 44.7083L55.3805 45.2085ZM59.1799 35.0002H54.323L59.0754 30.2329H59.206L59.1799 35.0002Z" fill="url(#paint0_linear)"/>
<path d="M57.0259 10L8 21.6477L10.8071 28.9467L59.8069 17.2887L57.0259 10ZM13.0397 26.8233L11.2902 22.25H11.3685L17.6746 25.7004L13.0397 26.8233ZM27.4015 23.4137L21.1084 19.9633L25.9261 18.82L32.2192 22.25L27.4015 23.4137ZM41.9591 19.9735L35.653 16.5129L40.5229 15.3594L46.8291 18.82L41.9591 19.9735ZM50.2498 13.0625L54.7933 11.9804L56.5429 16.5027L50.2498 13.0625Z" fill="url(#paint1_linear)"/>
<defs>
<linearGradient id="paint0_linear" x1="8.26513" y1="32.4929" x2="44.4061" y2="32.4929" gradientUnits="userSpaceOnUse">
<stop stop-color="#F3461B"/>
<stop offset="1" stop-color="#0DA6F2"/>
</linearGradient>
<linearGradient id="paint1_linear" x1="8.26513" y1="32.4929" x2="44.4061" y2="32.4929" gradientUnits="userSpaceOnUse">
<stop stop-color="#F3461B"/>
<stop offset="1" stop-color="#0DA6F2"/>
</linearGradient>
</defs>
</svg>
