<svg width="70" height="70" viewBox="0 0 70 70" fill="none" xmlns="http://www.w3.org/2000/svg">
<path fill-rule="evenodd" clip-rule="evenodd" d="M46.645 14.3391C52.7042 12.6253 59.5207 17.5762 61.7929 25.3835C64.2545 33.1907 67.6628 53.1849 61.6036 54.8987C58.006 55.8508 51.5681 49.9477 46.645 43.283H35.0947H23.355C18.4319 49.9477 12.1834 55.8508 8.39642 54.8987C2.33724 53.1849 5.74553 33.1907 8.20707 25.3835C10.4793 17.5762 17.2958 12.6253 23.355 14.3391C25.2485 14.7199 26.9527 16.0529 28.2781 17.5762H35.0947H41.9113C43.0473 16.0529 44.7515 14.7199 46.645 14.3391ZM48.3491 23.4793H52.1361V28.2398H56.8699V32.2386H52.1361V36.9991H48.3491V32.2386H43.426V28.2398H48.3491V23.4793ZM16.3491 27.0973C18.0532 27.0973 19.568 28.4302 19.568 30.144C19.568 32.0482 18.0532 33.3812 16.3491 33.3812C14.6449 33.3812 13.1302 32.0482 13.1302 30.144C13.1302 28.4302 14.6449 27.0973 16.3491 27.0973ZM24.1124 32.0482C26.0059 32.0482 27.3314 33.5716 27.3314 35.2854C27.3314 36.9991 26.0059 38.5225 24.1124 38.5225C22.4083 38.5225 21.0828 36.9991 21.0828 35.2854C21.0828 33.5716 22.4083 32.0482 24.1124 32.0482ZM24.1124 21.9559C26.0059 21.9559 27.3314 23.4793 27.3314 25.1931C27.3314 26.9069 26.0059 28.4302 24.1124 28.4302C22.4083 28.4302 21.0828 26.9069 21.0828 25.1931C21.0828 23.4793 22.4083 21.9559 24.1124 21.9559Z" fill="url(#paint0_linear)"/>
<defs>
<linearGradient id="paint0_linear" x1="5.29459" y1="32.8206" x2="45.4512" y2="32.8206" gradientUnits="userSpaceOnUse">
<stop stop-color="#F3461B"/>
<stop offset="1" stop-color="#0DA6F2"/>
</linearGradient>
</defs>
</svg>
