<svg width="70" height="70" viewBox="0 0 70 70" fill="none" xmlns="http://www.w3.org/2000/svg">
<path d="M15.9395 31.6057V48.2359H45.8179L36.6364 43.1255H26.5669L30.0971 39.4854L15.9395 31.6057Z" fill="url(#paint0_linear)"/>
<path d="M50.4228 51.3522V42.7457C49.7807 42.8812 49.1319 42.9802 48.4793 43.0421V43.1255H47.9113V50.394H13.8469V29.4472H29.5399C29.3204 28.597 29.1607 27.7315 29.062 26.8575H12.5911C12.2581 26.8575 11.9387 26.994 11.7032 27.2368C11.4677 27.4796 11.3354 27.809 11.3354 28.1524V51.3522L7.159 59.0744C7.05241 59.2715 6.99763 59.4939 7.00008 59.7195C7.00253 59.9452 7.06212 60.1663 7.17295 60.3609C7.28378 60.5554 7.442 60.7168 7.63193 60.8289C7.82187 60.941 8.03691 61 8.25576 61H53.5023C53.7211 61 53.9362 60.941 54.1261 60.8289C54.3161 60.7168 54.4743 60.5554 54.5851 60.3609C54.6959 60.1663 54.7555 59.9452 54.758 59.7195C54.7604 59.4939 54.7057 59.2715 54.5991 59.0744L50.4228 51.3522ZM39.9695 58.4103L38.6702 55.843C38.5641 55.6331 38.4042 55.4573 38.2079 55.3347C38.0117 55.212 37.7865 55.1471 37.557 55.1471H24.2015C23.9719 55.1471 23.7468 55.212 23.5505 55.3347C23.3542 55.4573 23.1943 55.6331 23.0882 55.843L21.7889 58.4103H10.3938L13.3286 52.9838H48.4297L51.3644 58.4103H39.9695Z" fill="url(#paint1_linear)"/>
<path d="M46.8048 8C43.6017 7.99998 40.4705 8.97938 37.8073 10.8143C35.144 12.6493 33.0682 15.2574 31.8424 18.3088C30.6166 21.3603 30.2959 24.718 30.9208 27.9574C31.5457 31.1968 33.0882 34.1723 35.3531 36.5078L30.6097 41.3991H46.8048C51.1001 41.3991 55.2194 39.6397 58.2565 36.5079C61.2937 33.3761 63 29.1285 63 24.6996C63 20.2706 61.2937 16.023 58.2565 12.8912C55.2194 9.75947 51.1001 8 46.8048 8ZM43.4476 17.2288C43.4456 16.7729 43.531 16.3211 43.6989 15.8993C43.8667 15.4775 44.1137 15.0941 44.4256 14.771C44.7375 14.4479 45.1083 14.1915 45.5166 14.0166C45.9249 13.8416 46.3627 13.7516 46.8048 13.7516C47.2469 13.7516 47.6847 13.8416 48.093 14.0166C48.5013 14.1915 48.872 14.4479 49.184 14.771C49.4959 15.0941 49.7429 15.4775 49.9107 15.8993C50.0786 16.3211 50.1639 16.7729 50.162 17.2288V24.3747C50.1639 24.8306 50.0786 25.2824 49.9107 25.7042C49.7429 26.126 49.4959 26.5094 49.184 26.8325C48.872 27.1556 48.5013 27.412 48.093 27.5869C47.6847 27.7619 47.2469 27.8519 46.8048 27.8519C46.3627 27.8519 45.9249 27.7619 45.5166 27.5869C45.1083 27.412 44.7375 27.1556 44.4256 26.8325C44.1137 26.5094 43.8667 26.126 43.6989 25.7042C43.531 25.2824 43.4456 24.8306 43.4476 24.3747V17.2288ZM47.642 31.7991V33.9054H49.9548C50.1768 33.9054 50.3898 33.9964 50.5468 34.1583C50.7038 34.3201 50.792 34.5397 50.792 34.7687C50.792 34.9976 50.7038 35.2172 50.5468 35.3791C50.3898 35.541 50.1768 35.6319 49.9548 35.6319H43.6548C43.4327 35.6319 43.2198 35.541 43.0628 35.3791C42.9058 35.2172 42.8176 34.9976 42.8176 34.7687C42.8176 34.5397 42.9058 34.3201 43.0628 34.1583C43.2198 33.9964 43.4327 33.9054 43.6548 33.9054H45.9677V31.7991C44.2752 31.5867 42.7166 30.7436 41.5852 29.4284C40.4538 28.1133 39.8278 26.417 39.8251 24.659C39.8251 24.4301 39.9133 24.2105 40.0703 24.0486C40.2273 23.8867 40.4403 23.7958 40.6623 23.7958C40.8843 23.7958 41.0973 23.8867 41.2543 24.0486C41.4113 24.2105 41.4995 24.4301 41.4995 24.659C41.497 25.3791 41.6324 26.0925 41.8979 26.7585C42.1634 27.4244 42.5538 28.0298 43.0467 28.5399C43.5396 29.0499 44.1253 29.4546 44.7702 29.7307C45.4151 30.0069 46.1065 30.149 46.8048 30.149C47.5031 30.149 48.1945 30.0069 48.8394 29.7307C49.4843 29.4546 50.07 29.0499 50.5629 28.5399C51.0558 28.0298 51.4462 27.4244 51.7117 26.7585C51.9772 26.0925 52.1126 25.3791 52.1101 24.659C52.1101 24.4301 52.1983 24.2105 52.3553 24.0486C52.5123 23.8867 52.7252 23.7958 52.9473 23.7958C53.1693 23.7958 53.3822 23.8867 53.5392 24.0486C53.6962 24.2105 53.7845 24.4301 53.7845 24.659C53.7818 26.417 53.1558 28.1133 52.0244 29.4284C50.8931 30.7435 49.3344 31.5867 47.642 31.7991Z" fill="url(#paint2_linear)"/>
<defs>
<linearGradient id="paint0_linear" x1="7.27495" y1="32.3291" x2="44.7545" y2="32.3291" gradientUnits="userSpaceOnUse">
<stop stop-color="#F3461B"/>
<stop offset="1" stop-color="#0DA6F2"/>
</linearGradient>
<linearGradient id="paint1_linear" x1="7.27495" y1="32.3291" x2="44.7545" y2="32.3291" gradientUnits="userSpaceOnUse">
<stop stop-color="#F3461B"/>
<stop offset="1" stop-color="#0DA6F2"/>
</linearGradient>
<linearGradient id="paint2_linear" x1="7.27495" y1="32.3291" x2="44.7545" y2="32.3291" gradientUnits="userSpaceOnUse">
<stop stop-color="#F3461B"/>
<stop offset="1" stop-color="#0DA6F2"/>
</linearGradient>
</defs>
</svg>
