<svg width="70" height="70" viewBox="0 0 70 70" fill="none" xmlns="http://www.w3.org/2000/svg">
<path d="M39.9686 42.3164C42.0203 42.3164 43.6897 40.6135 43.6897 38.5205C43.6897 37.6291 43.8963 36.7368 44.2873 35.941L45.9895 32.4671H47.069C47.3354 32.4671 47.5517 32.2465 47.5517 31.9746C47.5517 31.8673 47.5179 31.7648 47.4542 31.6782L47.095 31.1896C45.5212 29.0494 44.6552 26.3979 44.6552 23.7219C44.6552 22.6375 44.241 21.6181 43.4898 20.8518C42.7386 20.0855 41.7383 19.663 40.6763 19.663H34.7123C32.7359 19.663 30.8946 20.5662 29.6597 22.1401C28.7444 23.3062 28.2414 24.7708 28.2414 26.264V28.5274H26.3103C25.2454 28.5274 24.3793 29.4109 24.3793 30.4972C24.3793 31.5836 25.2454 32.4671 26.3103 32.4671H28.2414V33.452C28.2414 36.8904 26.9283 40.124 24.5444 42.5558L24.1881 42.9192C24.304 43.8411 24.3793 44.7699 24.3793 45.7046V46.7141L29.2069 49.9969L34.0345 46.7141V42.8522L28.9298 41.2901L29.484 39.403L39.004 42.3164H39.9686Z" fill="url(#paint0_linear)"/>
<path d="M20.7287 33.5003C21.8081 35.1363 22.6665 36.916 23.2796 38.7904C23.465 39.3587 23.6262 39.9329 23.7652 40.511C25.2029 38.7904 26.0719 36.6856 26.2679 34.437C24.1582 34.4133 22.4483 32.6552 22.4483 30.4972C22.4483 28.3245 24.1804 26.5575 26.3103 26.5575V26.264C26.3103 24.3247 26.964 22.4237 28.1516 20.9099C29.7543 18.8652 32.1459 17.6931 34.7123 17.6931H40.6763C42.1593 17.6931 43.5555 18.2526 44.6455 19.2651L44.8087 19.0986C46.5775 17.2942 47.5517 14.8949 47.5517 12.342C47.5517 10.2884 46.8865 8.25156 45.6786 6.60869L45.2316 6C40.2495 7.22033 35.057 7.84379 29.8239 7.84379H29.2938C21.7927 7.84379 15.6897 14.0695 15.6897 21.7215C15.6897 24.0745 16.2815 26.4048 17.4015 28.4604L20.7287 33.5003Z" fill="url(#paint1_linear)"/>
<path d="M47.8781 51.9126L37.7276 49.0366L35.5629 57.8665L29.2069 52.4632L22.8509 57.8675L20.6862 49.0376L10.5357 51.9136C8.45407 52.5026 7 54.4537 7 56.658V63H51.4138V56.658C51.4138 54.4537 49.9597 52.5026 47.8781 51.9126Z" fill="url(#paint2_linear)"/>
<path d="M22.5477 48.5087L23.9767 54.3444L27.5954 51.2685L23.2468 48.3107L22.5477 48.5087Z" fill="url(#paint3_linear)"/>
<path d="M34.4371 54.3444L35.8661 48.5087L35.167 48.3107L30.8183 51.2685L34.4371 54.3444Z" fill="url(#paint4_linear)"/>
<path d="M59.0404 44.1868L57.6752 42.7941C59.864 40.5623 61.069 37.5937 61.069 34.437C61.069 31.2803 59.864 28.3117 57.6752 26.0798L59.0404 24.6871C61.5942 27.2913 63 30.7533 63 34.437C63 38.1206 61.5942 41.5826 59.0404 44.1868Z" fill="url(#paint5_linear)"/>
<path d="M56.3099 41.4014L54.9447 40.0087C56.4036 38.5205 57.2069 36.5418 57.2069 34.437C57.2069 32.3322 56.4036 30.3534 54.9447 28.8652L56.3099 27.4725C58.1328 29.3321 59.1379 31.8062 59.1379 34.437C59.1379 37.0677 58.1328 39.5419 56.3099 41.4014Z" fill="url(#paint6_linear)"/>
<path d="M53.5794 38.616L52.2142 37.2233C52.9432 36.4787 53.3448 35.4889 53.3448 34.437C53.3448 33.3851 52.9432 32.3952 52.2142 31.6506L53.5794 30.2579C54.6734 31.3748 55.2759 32.8581 55.2759 34.437C55.2759 36.0158 54.6734 37.4991 53.5794 38.616Z" fill="url(#paint7_linear)"/>
<defs>
<linearGradient id="paint0_linear" x1="7.27495" y1="32.1653" x2="44.7545" y2="32.1653" gradientUnits="userSpaceOnUse">
<stop stop-color="#F3461B"/>
<stop offset="1" stop-color="#0DA6F2"/>
</linearGradient>
<linearGradient id="paint1_linear" x1="7.27495" y1="32.1653" x2="44.7545" y2="32.1653" gradientUnits="userSpaceOnUse">
<stop stop-color="#F3461B"/>
<stop offset="1" stop-color="#0DA6F2"/>
</linearGradient>
<linearGradient id="paint2_linear" x1="7.27495" y1="32.1653" x2="44.7545" y2="32.1653" gradientUnits="userSpaceOnUse">
<stop stop-color="#F3461B"/>
<stop offset="1" stop-color="#0DA6F2"/>
</linearGradient>
<linearGradient id="paint3_linear" x1="7.27495" y1="32.1653" x2="44.7545" y2="32.1653" gradientUnits="userSpaceOnUse">
<stop stop-color="#F3461B"/>
<stop offset="1" stop-color="#0DA6F2"/>
</linearGradient>
<linearGradient id="paint4_linear" x1="7.27495" y1="32.1653" x2="44.7545" y2="32.1653" gradientUnits="userSpaceOnUse">
<stop stop-color="#F3461B"/>
<stop offset="1" stop-color="#0DA6F2"/>
</linearGradient>
<linearGradient id="paint5_linear" x1="7.27495" y1="32.1653" x2="44.7545" y2="32.1653" gradientUnits="userSpaceOnUse">
<stop stop-color="#F3461B"/>
<stop offset="1" stop-color="#0DA6F2"/>
</linearGradient>
<linearGradient id="paint6_linear" x1="7.27495" y1="32.1653" x2="44.7545" y2="32.1653" gradientUnits="userSpaceOnUse">
<stop stop-color="#F3461B"/>
<stop offset="1" stop-color="#0DA6F2"/>
</linearGradient>
<linearGradient id="paint7_linear" x1="7.27495" y1="32.1653" x2="44.7545" y2="32.1653" gradientUnits="userSpaceOnUse">
<stop stop-color="#F3461B"/>
<stop offset="1" stop-color="#0DA6F2"/>
</linearGradient>
</defs>
</svg>
