<svg width="70" height="70" viewBox="0 0 70 70" fill="none" xmlns="http://www.w3.org/2000/svg">
<path d="M38.8247 21.9994C29.0593 52.8973 42.8989 58.7211 42.8989 58.7211C42.8989 58.7211 57.2202 63.6519 68 32.0458C58.0228 34.0068 45.2452 29.333 38.8247 21.9994ZM43.7556 36.4083C45.195 36.9033 46.1355 38.4299 46.2682 40.3673C46.2682 40.3673 44.9686 38.3579 43.2955 37.797C41.732 37.2584 39.4029 38.0035 39.4029 38.0035C40.6291 36.5785 42.2831 35.9013 43.7556 36.4083ZM53.5269 52.4023C52.4524 51.3116 49.3035 48.3041 46.618 47.6135C43.7199 46.6155 39.8827 46.9504 38.3779 47.1387C38.3528 47.0096 38.329 46.8791 38.3066 46.7493C40.8139 44.7944 44.1991 44.103 47.4153 45.2113C49.8711 46.0573 52.7877 48.2651 53.7704 52.173C53.6886 52.2497 53.608 52.327 53.5269 52.4023ZM55.0416 41.8414C53.4787 41.3028 51.1495 42.0479 51.1495 42.0479C52.3765 40.6235 54.0304 39.9463 55.5029 40.4527C57.0955 41.0015 57.8987 42.7083 58.0142 44.4117C58.0142 44.4117 56.2322 41.9692 55.0416 41.8414ZM2 20.9153C12.4986 51.5631 26.985 47.7036 26.985 47.7036C26.985 47.7036 41.3268 42.8354 31.2182 11C24.4202 18.6961 11.4624 22.8192 2 20.9153ZM26.2253 25.3854C27.8205 24.844 29.4712 25.7122 30.5721 26.9994C30.5721 26.9994 27.705 26.1467 26.68 26.7761C25.1145 27.3067 23.6968 29.333 23.6968 29.333C23.8335 27.4426 24.7515 25.8857 26.2253 25.3854ZM11.9323 33.3256C12.069 31.4352 12.987 29.8784 14.4615 29.3787C15.9029 28.8885 17.5569 29.5287 18.8082 30.992C18.8082 30.992 16.5827 30.1877 14.9162 30.7681C13.35 31.3 11.9323 33.3256 11.9323 33.3256ZM24.6769 40.6404C22.0878 41.5193 18.199 41.5086 15.004 38.5785C15.004 38.5785 20.7585 39.5839 23.8902 38.2348C27.579 36.9833 31.2043 33.0801 31.2043 33.0801C30.543 36.4951 28.1499 39.4621 24.6769 40.6404Z" fill="url(#paint0_linear)"/>
<defs>
<linearGradient id="paint0_linear" x1="2.32405" y1="33.0339" x2="46.4963" y2="33.0339" gradientUnits="userSpaceOnUse">
<stop stop-color="#F3461B"/>
<stop offset="1" stop-color="#0DA6F2"/>
</linearGradient>
</defs>
</svg>
