<svg width="70" height="70" viewBox="0 0 70 70" fill="none" xmlns="http://www.w3.org/2000/svg">
<path d="M34.7806 19.986C29.075 19.986 24.4494 24.552 24.4494 30.1842C24.4494 35.8163 29.075 40.3823 34.7806 40.3823C40.4863 40.3823 45.1119 35.8163 45.1119 30.1842C45.1119 24.552 40.4863 19.986 34.7806 19.986ZM39.3815 30.1842C39.3815 32.6926 37.3218 34.7257 34.7806 34.7257C32.2395 34.7257 30.1798 32.6926 30.1798 30.1842C30.1798 27.6758 32.2395 25.6426 34.7806 25.6426C35.0775 25.6426 35.3668 25.6726 35.6481 25.7258C35.9982 24.9784 36.7591 24.4566 37.6483 24.4566C38.8678 24.4566 39.8561 25.4322 39.8561 26.636C39.8561 27.3387 39.5134 27.9571 38.9905 28.3553C39.2402 28.9156 39.3815 29.5334 39.3815 30.1842Z" fill="url(#paint0_linear)"/>
<path d="M56.2102 21.4962C61.4709 18.022 59.3518 7 59.3518 7L50.5095 15.7283C46.1721 12.5538 40.8184 10.676 35.0062 10.676C29.4418 10.676 24.2989 12.3948 20.0729 15.3246L11.6397 7C11.6397 7 9.69399 17.0984 14.143 21.0191C10.9147 25.3007 9 30.5976 9 36.335C9 50.5131 20.643 62 35.0062 62C49.3694 62 61 50.5131 61 36.335C61 30.8117 59.234 25.6799 56.2102 21.4962ZM34.7831 15.447C43.0243 15.447 49.7102 22.0467 49.7102 30.1817C49.7102 38.3228 43.0243 44.9226 34.7831 44.9226C26.5357 44.9226 19.8499 38.3228 19.8499 30.1817C19.8499 22.0467 26.5357 15.447 34.7831 15.447ZM40.9857 53.6693C40.2731 52.8374 38.724 51.4123 38.2283 54.2503C38.2097 54.3482 38.1911 54.4522 38.1787 54.5623C38.1663 54.5378 38.1168 54.4338 38.0362 54.2809C37.5963 53.4368 36.2269 51.2288 35.0991 54.5378C35.0929 54.5562 35.0867 54.5745 35.0806 54.599C35.0744 54.5806 35.062 54.5623 35.0496 54.5439C34.5848 53.6326 33.3022 51.5774 32.1435 54.4338C32.1125 54.5195 32.0753 54.6051 32.0443 54.6968C32.0381 54.6724 32.0195 54.5684 31.9762 54.4216C31.7469 53.5408 30.9104 51.0453 29.101 53.9323C26.0896 53.2227 22.9233 51.8465 19.7197 49.4978H21.1325C21.5663 50.1217 22.8303 51.5835 23.9704 49.5039C24.0138 49.4244 24.0572 49.3449 24.1006 49.2592C24.1192 49.2898 24.1625 49.3754 24.2369 49.5039C24.6459 50.1951 25.8851 51.9566 26.8518 49.5039C26.8827 49.4366 26.9075 49.3693 26.9323 49.2959C26.9323 49.2959 26.9571 49.3754 27.0067 49.5039C27.2793 50.2379 28.3575 52.4888 30.2164 49.51C30.2598 49.4427 30.3031 49.3693 30.3465 49.2959C30.3465 49.2959 30.3961 49.3754 30.4828 49.51C31.0405 50.3602 33.2216 53.3023 34.5848 49.5161C34.6158 49.4427 34.6406 49.3693 34.6654 49.2959C34.6654 49.2959 34.6902 49.3816 34.7398 49.5161C35.0929 50.4458 36.6111 53.7855 38.9719 49.5222C39.0152 49.4488 39.0524 49.3754 39.0958 49.2959C39.0958 49.2959 39.1454 49.3816 39.2445 49.5222C39.8022 50.3357 41.8346 52.9169 43.1854 49.5284C43.2164 49.455 43.2412 49.3754 43.2722 49.2959C43.2722 49.2959 43.3465 49.3877 43.4766 49.5284C44.1768 50.2685 46.4137 52.342 47.1263 49.5284L49.8899 49.5345C49.8899 49.5345 46.3827 52.2319 40.9857 53.6693Z" fill="url(#paint1_linear)"/>
<defs>
<linearGradient id="paint0_linear" x1="9.25531" y1="32.2472" x2="44.0577" y2="32.2472" gradientUnits="userSpaceOnUse">
<stop stop-color="#F3461B"/>
<stop offset="1" stop-color="#0DA6F2"/>
</linearGradient>
<linearGradient id="paint1_linear" x1="9.25531" y1="32.2472" x2="44.0577" y2="32.2472" gradientUnits="userSpaceOnUse">
<stop stop-color="#F3461B"/>
<stop offset="1" stop-color="#0DA6F2"/>
</linearGradient>
</defs>
</svg>
