<svg width="70" height="70" viewBox="0 0 70 70" fill="none" xmlns="http://www.w3.org/2000/svg">
<path fill-rule="evenodd" clip-rule="evenodd" d="M13.0613 9H56.3796C60.3177 9 63.4409 12.1233 63.4409 16.0613V53.6763C63.4409 57.6143 60.3177 60.7376 56.3796 60.7376H13.0613C9.12327 60.7376 6 57.6143 6 53.6763V16.0613C6 12.1233 9.12327 9 13.0613 9ZM18.6289 15.6539C18.2215 15.6539 17.8141 15.2465 17.8141 14.7034C17.8141 14.296 18.2215 13.8886 18.6289 13.8886H50.8121C51.3553 13.8886 51.7626 14.296 51.7626 14.7034C51.7626 15.2465 51.3553 15.6539 50.8121 15.6539H18.6289ZM22.7027 55.849C22.1595 55.849 21.7521 55.4416 21.7521 55.0342C21.7521 54.4911 22.1595 54.0837 22.7027 54.0837H54.8859C55.2933 54.0837 55.7007 54.4911 55.7007 55.0342C55.7007 55.4416 55.2933 55.849 54.8859 55.849H22.7027ZM14.555 55.849C14.1477 55.849 13.7403 55.4416 13.7403 55.0342C13.7403 54.4911 14.1477 54.0837 14.555 54.0837H16.5919V52.0468C16.5919 51.6394 16.9993 51.232 17.5425 51.232C17.9499 51.232 18.3573 51.6394 18.3573 52.0468V57.8859C18.3573 58.2933 17.9499 58.7007 17.5425 58.7007C16.9993 58.7007 16.5919 58.2933 16.5919 57.8859V55.849H14.555ZM9.39485 20.5425H60.0461V49.1951H9.39485V20.5425Z" fill="url(#paint0_linear)"/>
<path fill-rule="evenodd" clip-rule="evenodd" d="M40.7624 34.8009L28.8125 28.0112V41.7264L40.7624 34.8009Z" fill="url(#paint1_linear)"/>
<defs>
<linearGradient id="paint0_linear" x1="6.28203" y1="32.7496" x2="44.7259" y2="32.7496" gradientUnits="userSpaceOnUse">
<stop stop-color="#F3461B"/>
<stop offset="1" stop-color="#0DA6F2"/>
</linearGradient>
<linearGradient id="paint1_linear" x1="6.28203" y1="32.7496" x2="44.7259" y2="32.7496" gradientUnits="userSpaceOnUse">
<stop stop-color="#F3461B"/>
<stop offset="1" stop-color="#0DA6F2"/>
</linearGradient>
</defs>
</svg>
