<svg width="70" height="70" viewBox="0 0 70 70" fill="none" xmlns="http://www.w3.org/2000/svg">
<path d="M6.70117 8.90869V25.5814L13.5009 27.0971V13.4767L6.70117 8.90869ZM62.4871 8.90869L55.6873 13.4767V27.0971L62.4871 25.5814V8.90869ZM14.9109 14.4238V27.4124L19.2687 28.402V17.3501L14.9109 14.4238ZM54.2774 14.4238L49.9404 17.3293V28.402L54.2774 27.4124V14.4238ZM20.6793 17.6661V29.2865C20.6803 29.3076 20.6803 29.3287 20.6793 29.3498V53.2009H48.5089V41.6856C48.5038 41.6365 48.5038 41.5871 48.5089 41.5381V29.3282C48.5073 29.3002 48.5073 29.2721 48.5089 29.244V17.6661H20.6793ZM6.70117 27.0338V43.8749L13.5009 42.3383V28.5704L6.70117 27.0338ZM62.4871 27.0338L55.6873 28.5704V42.3383L62.4871 43.8749V27.0338ZM14.9109 28.8863V42.0224L19.2687 41.0537V29.855L14.9109 28.8863ZM54.2774 28.8863L49.9404 29.855V41.0537L54.2774 42.0224V28.8863ZM19.2687 42.4859L14.9109 43.4748V56.464L19.2687 53.5161V42.4859ZM49.9404 42.4859V53.5377L54.2774 56.464V43.4748L49.9404 42.4859ZM13.5009 43.7907L6.70117 45.3064V62L13.5009 57.4112V43.7907ZM55.6873 43.7907V57.4112L62.4871 62V45.3064L55.6873 43.7907Z" fill="url(#paint0_linear)"/>
<defs>
<linearGradient id="paint0_linear" x1="6.97507" y1="33.2797" x2="44.3113" y2="33.2797" gradientUnits="userSpaceOnUse">
<stop stop-color="#F3461B"/>
<stop offset="1" stop-color="#0DA6F2"/>
</linearGradient>
</defs>
</svg>
