<svg width="70" height="70" viewBox="0 0 70 70" fill="none" xmlns="http://www.w3.org/2000/svg">
<path d="M9.28571 12C6.91141 12 5 13.9234 5 16.3125V53.6875C5 56.0766 6.91141 58 9.28571 58H60.7143C63.0886 58 65 56.0766 65 53.6875V16.3125C65 13.9234 63.0886 12 60.7143 12H9.28571ZM7.85714 14.875H16.4286V20.625H7.85714V14.875ZM53.5714 14.875H62.1429V20.625H53.5714V14.875ZM35 22.1299C42.0373 22.1299 47.7679 27.9187 47.7679 35C44.8222 53.9038 22.6512 48.8168 22.2321 35C22.2321 27.9187 27.9627 22.1299 35 22.1299ZM7.85714 23.5H16.4286V29.25H7.85714V23.5ZM53.5714 23.5H62.1429V29.25H53.5714V23.5ZM30.7143 29.25L42.1429 35L30.7143 40.75V29.25ZM7.85714 32.125H16.4286V37.875H7.85714V32.125ZM53.5714 32.125H62.1429V37.875H53.5714V32.125ZM7.85714 40.75H16.4286V46.5H7.85714V40.75ZM53.5714 40.75H62.1429V46.5H53.5714V40.75ZM7.85714 49.375H16.4286V55.125H7.85714V49.375ZM53.5714 49.375H62.1429V55.125H53.5714V49.375Z" fill="url(#paint0_linear)"/>
<defs>
<linearGradient id="paint0_linear" x1="5.29459" y1="33.1158" x2="45.4512" y2="33.1158" gradientUnits="userSpaceOnUse">
<stop stop-color="#F3461B"/>
<stop offset="1" stop-color="#0DA6F2"/>
</linearGradient>
</defs>
</svg>
